<svg xmlns="http://www.w3.org/2000/svg" viewBox="0 0 344.19 365.68"><defs><style>.cls-1,.cls-5{fill:#8e6a51;}.cls-1,.cls-10,.cls-13,.cls-14,.cls-16,.cls-17,.cls-18,.cls-19,.cls-2,.cls-20,.cls-4,.cls-7,.cls-9{stroke:#333;}.cls-1,.cls-19,.cls-2,.cls-20,.cls-7{stroke-linecap:round;}.cls-1,.cls-11,.cls-13,.cls-16,.cls-19,.cls-2,.cls-20,.cls-4,.cls-7,.cls-9{stroke-linejoin:round;}.cls-1{stroke-width:3.8px;}.cls-2{fill:#f7f7f7;stroke-width:4.97px;}.cls-3{fill:#fff;}.cls-14,.cls-21,.cls-4,.cls-9{fill:#333;}.cls-4{stroke-width:3.84px;}.cls-6{fill:#ddd;}.cls-17,.cls-18,.cls-19,.cls-20,.cls-7{fill:none;}.cls-7{stroke-width:3.51px;}.cls-8{fill:#775945;}.cls-10,.cls-13,.cls-16,.cls-17,.cls-20,.cls-9{stroke-width:3.8px;}.cls-10,.cls-12,.cls-16{fill:#c4b4a9;}.cls-10,.cls-14,.cls-17,.cls-18{stroke-miterlimit:10;}.cls-11{fill:#f4c143;stroke:#231815;stroke-width:3.94px;}.cls-13{fill:#edc469;}.cls-14{stroke-width:0.66px;}.cls-15{fill:#af9785;}.cls-18{stroke-width:0.88px;}.cls-19{stroke-width:3.51px;}.cls-22{fill:#2a569c;}</style></defs><title>facebook</title><g id="レイヤー_2" data-name="レイヤー 2"><g id="レイヤー_2-2" data-name="レイヤー 2"><rect class="cls-1" x="167.4" y="2.49" width="5.6" height="284.9"/><path class="cls-2" d="M341.7,2.49c-42.2,0-42.2,11.5-84.4,11.5s-42.2-11.5-84.4-11.5l1.6,10.9a461.56,461.56,0,0,1-.2,133.3l-1.4,9.7c42.2,0,42.2,11.5,84.4,11.5s42.2-11.5,84.4-11.5Z"/><path class="cls-3" d="M154.1,243.79s13.5-41.1,17.6-52.8c0,0-7.7-2.4-12.2-6.8-1.5,2.9-3.3,6.4-5.2,10.5s-3.9,8.7-6,13.7c-.5,1.1-1.1,2.3-1.7,3.4-1.7,1.9-4,3.7-5,4.8a101.66,101.66,0,0,1-35.2,23.3c-8,3.3-15,8-17.5,10.6-2.5-2.6-9.5-7.3-17.5-10.6-13.3-5.4-25.2-12.9-35.2-23.3-1.6-1.6-6.2-5.1-6.8-7.7l-.1.8c-.2-.4-.4-.8-.6-1.3-2-5-4.1-9.6-6-13.7s-3.7-7.6-5.2-10.5c-4.6,4.4-12.2,6.8-12.2,6.8,4.1,11.8,17.6,52.8,17.6,52.8l1-1.1c-2.1,7.4-4.2,14.9-4.5,22.5-.6,15.9,4.4,31.4,11.3,45.5,6.3,12.9,17.2,22.7,23.2,35.7.8,1.8,1.2,3.5,1.7,4.9,4.3,1.4,11.9,3.4,17.4,2.5.5-3,1-6.5,1.5-10,.6-4.5,1.2-9,1.4-12.8a12.75,12.75,0,0,0,.1-1.9c3.9.6,12.6.9,12.6.9a119.7,119.7,0,0,0,12.6-.9c0,.6.1,1.3.1,1.9.3,3.8.8,8.3,1.4,12.8.5,3.5,1,7,1.5,10,5.5.9,13.1-1.1,17.4-2.5.5-1.4.9-3.1,1.7-4.9,6.3-13.5,17.4-24,24.2-37.3,6.7-13.1,11-29.2,10.4-43.9C158,257.89,156.1,250.79,154.1,243.79Z"/><path class="cls-4" d="M164,175.79s-1.8,3.1-4.5,8.3c4.6,4.4,12.2,6.8,12.2,6.8h0a83.29,83.29,0,0,1,3.4-8.9S170.2,175.19,164,175.79Z"/><path class="cls-5" d="M29.4,208.69l.1-1.4A2.2,2.2,0,0,0,29.4,208.69Z"/><path class="cls-5" d="M148.3,207.29l.1,1.4A2.2,2.2,0,0,0,148.3,207.29Z"/><path class="cls-5" d="M29.4,208.69l.1-1.4A2.2,2.2,0,0,0,29.4,208.69Z"/><path class="cls-5" d="M148.3,207.29l.1,1.4A2.2,2.2,0,0,0,148.3,207.29Z"/><path class="cls-6" d="M70.5,325.19s.3,25.2-.7,28.7a20,20,0,0,0,3.5-.2c.5-3,1-6.5,1.5-10,.6-4.5,1.2-9,1.4-12.8a12.75,12.75,0,0,0,.1-1.9,26.58,26.58,0,0,0,3.4.4l.7-1.7C80.4,327.79,71.5,326.29,70.5,325.19Z"/><path class="cls-7" d="M29.4,208.69l.1-1.4A2.2,2.2,0,0,0,29.4,208.69Z"/><path class="cls-7" d="M148.3,207.29l.1,1.4A2.2,2.2,0,0,0,148.3,207.29Z"/><path class="cls-3" d="M147.5,201.19c-.2-1.6-.4-3.2-.5-4.8C147.1,198,147.3,199.59,147.5,201.19Z"/><path class="cls-3" d="M29.6,207.19c.2-1.6.5-3.3.7-4.9C30,203.89,29.8,205.49,29.6,207.19Z"/><path class="cls-3" d="M148.3,207.29c-.2-1.7-.5-3.4-.7-5.1C147.8,203.89,148,205.59,148.3,207.29Z"/><path class="cls-3" d="M30.4,201.09c.2-1.5.4-3.1.5-4.6C30.7,198,30.5,199.59,30.4,201.09Z"/><path class="cls-3" d="M30.2,202.19c0-.4.1-.7.1-1.1A3.75,3.75,0,0,1,30.2,202.19Z"/><path class="cls-3" d="M147.6,202.19c0-.3-.1-.7-.1-1A3.4,3.4,0,0,0,147.6,202.19Z"/><path class="cls-3" d="M30.9,196.39a7.72,7.72,0,0,1,.2-1.5h0a10.4,10.4,0,0,0-.2,1.5Z"/><path class="cls-3" d="M146.9,196.39Z"/><path class="cls-5" d="M30.9,196.39h0c-.2,1.6-.4,3.2-.5,4.7,0,.4-.1.7-.1,1.1-.2,1.6-.4,3.3-.7,4.9v.1c-1.4,2.7,4.8,7.2,6.7,9.1a101.66,101.66,0,0,0,35.2,23.3c8,3.3,15.1,8,17.5,10.6,2.5-2.6,9.5-7.3,17.5-10.6,13.3-5.4,25.2-12.9,35.2-23.3,1.9-1.9,8-6.4,6.7-9.1-.2-1.7-.5-3.4-.7-5.1,0-.3-.1-.7-.1-1-.2-1.6-.4-3.2-.5-4.8h0v-.1c-.8-7.3-1.4-14.7-2.4-21.9a73.89,73.89,0,0,0-6.2-21.4c7.3-.7,11.1-9,14-14.8,2.5-4.9-1.3-5.6-4.7-4.7a119.51,119.51,0,0,1-15.3,2,15.55,15.55,0,0,1-10.4-2.6l-.2-.2c-.3-.2-.5-.4-.8-.6l.1.1a53.58,53.58,0,0,0-24.4-8.7,76.82,76.82,0,0,0-15.9.1,58,58,0,0,0-20.5,6.6c-2.9,1.6-5.6,3.8-8.8,4.7a20.71,20.71,0,0,1-6.1.5,119.51,119.51,0,0,1-15.3-2c-3.4-.9-7.2-.2-4.7,4.7,2.9,5.8,6.8,14.2,14.1,14.8h0a73.89,73.89,0,0,0-6.2,21.4c-.9,6.8-1.5,13.7-2.2,20.6h0A5,5,0,0,0,30.9,196.39Z"/><path class="cls-6" d="M31.1,194.89h0c-.1.5-.1,1-.2,1.6v-.1A7.72,7.72,0,0,1,31.1,194.89Z"/><path class="cls-6" d="M146.9,196.39Z"/><path class="cls-6" d="M139.7,156.09h0c0,.1,0,.1.1.2C139.8,156.19,139.7,156.19,139.7,156.09Z"/><path class="cls-8" d="M39.5,153h0c-.5,1-.9,2-1.4,3l2.1.1a48.13,48.13,0,0,0,2.7-7.1c-7.3.4-16.4-13.7-16.4-13.7l-1.2-1.5c-.8.7-1,2.1.1,4.3C28.4,144,32.2,152.39,39.5,153Z"/><path class="cls-9" d="M122,351.19c-2.7,7.7-3.1,9.6-3.1,9.6s-4.5,5.5-12.9,1.6c0,0-.6-3.6-1.4-8.7C110.1,354.59,117.7,352.59,122,351.19Z"/><path class="cls-10" d="M119.7,131.39a36,36,0,0,0-.4-3.6.9.9,0,0,0-.1-.5c-.3-2.4-1.5-12.4-5.7-8.6-2.3,2.1-4.8,4.4-7,6.8A50.36,50.36,0,0,1,119.7,131.39Z"/><path class="cls-11" d="M98.9,194.19"/><ellipse class="cls-12" cx="88.4" cy="205.49" rx="40.9" ry="32.3" transform="matrix(1, 0, 0, 1, -0.56, 0.24)"/><path class="cls-13" d="M92.4,182.09a9,9,0,0,1,3.6,3.1c2.7,5.6,3.4,12.6-2.6,15.7a12.36,12.36,0,0,1-5,1.3,13.6,13.6,0,0,1-5-1.2c-6-3-5.3-10-2.7-15.6a9.75,9.75,0,0,1,3.5-3.2c-11.1-.1-14.3,13.9-9,20.5,3,3.8,8.2,5.4,13.2,5.4s10.1-1.6,13.1-5.4C106.7,195.89,103.5,181.89,92.4,182.09Z"/><ellipse class="cls-14" cx="68.62" cy="157.17" rx="0.9" ry="1.8" transform="translate(-91.62 218.29) rotate(-87.29)"/><ellipse class="cls-14" cx="108.14" cy="157.21" rx="0.9" ry="1.8" transform="translate(-54.01 257.79) rotate(-87.29)"/><path class="cls-8" d="M151.2,140.49c.4-.8.8-1.6,1.2-2.3-11.7,15.3-23.1,11.5-23.1,11.5,4.4,6.7,7.6,17.6,8.2,21.3,2.7,15.7,8.4,37.9-6.6,48.8-1.6,1.2-4.9,2.6-8.7,4-7.3,8.5-19.6,14-33.6,14.1-18.6.1-34.3-9.7-39.3-23.1-.8-.1,8.9,19.7,22.2,25,8,3.3,15.1,8,17.5,10.6,2.5-2.6,9.5-7.3,17.5-10.6,13.3-5.4,25.2-12.9,35.2-23.3,1.9-1.9,8-6.4,6.7-9.1-.2-1.7-.5-3.4-.7-5.1,0-.3-.1-.7-.1-1-.2-1.6-.4-3.2-.5-4.8h0v-.1c-.8-7.3-1.4-14.7-2.4-21.9a57.33,57.33,0,0,0-1.3-7h0a.37.37,0,0,0-.1-.3c-.2-1.1-.5-2.1-.8-3.2h0c-.4-1.4-.8-2.7-1.2-4l-2.8-6.9c.3,0,.6-.1.9-.1C144.6,151.69,149.1,144.39,151.2,140.49Z"/><path class="cls-15" d="M89.9,231.79a53.58,53.58,0,0,1-36.8-10.1c7.1,9.6,20.3,16,35.4,16,22.6-.1,40.8-14.6,40.8-32.4,0-12.3-8.7-22.9-21.4-28.3-1.8-.7-3.7-1.3-5.6-2-.2-.1-.5-.1-.7-.2,12.1,4.6,23.1,16.8,22.1,30.1C122.4,221.69,104.8,230.19,89.9,231.79Z"/><path class="cls-16" d="M60.3,130.19a56.52,56.52,0,0,1,11.1-4.6.1.1,0,0,0-.1-.1c-2.2-2.4-4.7-4.7-7-6.8-4.2-3.8-5.4,6.2-5.7,8.6a.9.9,0,0,1-.1.5c-.1,1.1-.3,2.4-.4,3.6v.2A16.44,16.44,0,0,1,60.3,130.19Z"/><ellipse class="cls-17" cx="88.4" cy="205.49" rx="40.9" ry="32.3" transform="matrix(1, 0, 0, 1, -0.56, 0.24)"/><path class="cls-6" d="M34.1,257.49h-.3Q34.25,257.64,34.1,257.49Z"/><path class="cls-18" d="M147.5,201.19c-.2-1.6-.4-3.2-.5-4.8C147.1,198,147.3,199.59,147.5,201.19Z"/><path class="cls-18" d="M29.6,207.19c.2-1.6.5-3.3.7-4.9C30,203.89,29.8,205.49,29.6,207.19Z"/><path class="cls-18" d="M148.3,207.29c-.2-1.7-.5-3.4-.7-5.1C147.8,203.89,148,205.59,148.3,207.29Z"/><path class="cls-18" d="M30.4,201.09c.2-1.5.4-3.1.5-4.6C30.7,198,30.5,199.59,30.4,201.09Z"/><path class="cls-19" d="M30.2,202.19c0-.4.1-.7.1-1.1A3.75,3.75,0,0,1,30.2,202.19Z"/><path class="cls-19" d="M147.6,202.19c0-.3-.1-.7-.1-1A3.4,3.4,0,0,0,147.6,202.19Z"/><path class="cls-19" d="M30.9,196.39a7.72,7.72,0,0,1,.2-1.5h0a10.4,10.4,0,0,0-.2,1.5Z"/><path class="cls-19" d="M146.9,196.39Z"/><path class="cls-20" d="M30.9,196.39h0c-.2,1.6-.4,3.2-.5,4.7,0,.4-.1.7-.1,1.1-.2,1.6-.4,3.3-.7,4.9v.1c-1.4,2.7,4.8,7.2,6.7,9.1a101.66,101.66,0,0,0,35.2,23.3c8,3.3,15.1,8,17.5,10.6,2.5-2.6,9.5-7.3,17.5-10.6,13.3-5.4,25.2-12.9,35.2-23.3,1.9-1.9,8-6.4,6.7-9.1-.2-1.7-.5-3.4-.7-5.1,0-.3-.1-.7-.1-1-.2-1.6-.4-3.2-.5-4.8h0v-.1c-.8-7.3-1.4-14.7-2.4-21.9a73.89,73.89,0,0,0-6.2-21.4c7.3-.7,11.1-9,14-14.8,2.5-4.9-1.3-5.6-4.7-4.7a119.51,119.51,0,0,1-15.3,2,15.55,15.55,0,0,1-10.4-2.6l-.2-.2c-.3-.2-.5-.4-.8-.6l.1.1a53.58,53.58,0,0,0-24.4-8.7,76.82,76.82,0,0,0-15.9.1,58,58,0,0,0-20.5,6.6c-2.9,1.6-5.6,3.8-8.8,4.7a20.71,20.71,0,0,1-6.1.5,119.51,119.51,0,0,1-15.3-2c-3.4-.9-7.2-.2-4.7,4.7,2.9,5.8,6.8,14.2,14.1,14.8h0a73.89,73.89,0,0,0-6.2,21.4c-.9,6.8-1.5,13.7-2.2,20.6h0A5,5,0,0,0,30.9,196.39Z"/><path class="cls-9" d="M55.8,351.19c2.7,7.7,3.1,9.6,3.1,9.6s4.5,5.5,12.9,1.6c0,0,.6-3.6,1.4-8.7C67.7,354.59,60.1,352.59,55.8,351.19Z"/><path class="cls-20" d="M154.1,243.79s13.5-41.1,17.6-52.8c0,0-7.7-2.4-12.2-6.8-1.5,2.9-3.3,6.4-5.2,10.5s-3.9,8.7-6,13.7c-.5,1.1-1.1,2.3-1.7,3.4-1.7,1.9-4,3.7-5,4.8a101.66,101.66,0,0,1-35.2,23.3c-8,3.3-15,8-17.5,10.6-2.5-2.6-9.5-7.3-17.5-10.6-13.3-5.4-25.2-12.9-35.2-23.3-1.6-1.6-6.2-5.1-6.8-7.7l-.1.8c-.2-.4-.4-.8-.6-1.3-2-5-4.1-9.6-6-13.7s-3.7-7.6-5.2-10.5c-4.6,4.4-12.2,6.8-12.2,6.8,4.1,11.8,17.6,52.8,17.6,52.8h0a86.82,86.82,0,0,0-3.4,21.3c-.6,15.9,4.4,31.4,11.3,45.5,6.3,12.9,17.2,22.7,23.2,35.7.8,1.8,1.2,3.5,1.7,4.9,4.3,1.4,11.9,3.4,17.4,2.5.5-3,1-6.5,1.5-10,.6-4.5,1.2-9,1.4-12.8a12.75,12.75,0,0,0,.1-1.9c3.9.6,12.6.9,12.6.9a119.7,119.7,0,0,0,12.6-.9c0,.6.1,1.3.1,1.9.3,3.8.8,8.3,1.4,12.8.5,3.5,1,7,1.5,10,5.5.9,13.1-1.1,17.4-2.5.5-1.4.9-3.1,1.7-4.9,6.3-13.5,17.4-24,24.2-37.3,6.7-13.1,11-29.2,10.4-43.9C158,257.89,156.1,250.79,154.1,243.79Z"/><path class="cls-9" d="M13,175.79s1.8,3.1,4.5,8.3c-4.6,4.4-12.2,6.8-12.2,6.8h0A83.29,83.29,0,0,0,1.9,182S6.7,175.19,13,175.79Z"/><path class="cls-6" d="M78.5,251.69s-42.5-11.3-50.4-18.8a18.89,18.89,0,0,1-5.7-17Z"/><path class="cls-6" d="M99.1,251.69s42.5-11.3,50.4-18.8a18.89,18.89,0,0,0,5.7-17Z"/><path class="cls-3" d="M98.6,250c14.9-8,31.5-12.4,46.7-19.6a20.55,20.55,0,0,0,5.3-4c2.3-2.2,4.8-5,5.3-8.2.2-1,.1-2.8-.9-3.4a6.74,6.74,0,0,0-2.4-.4s3.3-7.7,1.1-10.8c-.4-.6-6.9-8.6-6.9-8.6.1.5.1,1,.2,1.5.4,3.6.8,7.3,1.4,10.9,1.4,2.7-4.8,7.2-6.7,9.1a101.66,101.66,0,0,1-35.2,23.3c-8,3.3-15,8-17.5,10.6-2.5-2.6-9.5-7.3-17.5-10.6-13.3-5.4-25.2-12.9-35.2-23.3-1.9-1.9-8-6.4-6.7-9.1.5-3.6,1-7.2,1.4-10.9a7.72,7.72,0,0,1,.2-1.5s-6.5,8-6.9,8.6c-2.2,3.1,1.1,10.8,1.1,10.8a9.65,9.65,0,0,0-2.4.4c-1,.6-1,2.4-.9,3.4.5,3.3,3,6,5.3,8.2a23.08,23.08,0,0,0,5.3,4c15.2,7.2,31.8,11.6,46.7,19.6"/><path class="cls-6" d="M23.4,207.79s10.2,14.4,10.1,14.9c0,0-7.5-5.1-11.5-6.8a1.83,1.83,0,0,1,.7-1,6.74,6.74,0,0,1,2.4-.4,35.18,35.18,0,0,1-1.7-6.7Z"/><path class="cls-6" d="M154.4,207.79s-10.2,14.4-10.1,14.9c0,0,7.5-5.1,11.5-6.8a1.83,1.83,0,0,0-.7-1,6.74,6.74,0,0,0-2.4-.4,28.41,28.41,0,0,0,1.7-6.7Z"/><path class="cls-20" d="M98.6,250c14.9-8,31.5-12.4,46.7-19.6a20.55,20.55,0,0,0,5.3-4c2.3-2.2,4.8-5,5.3-8.2.2-1,.1-2.8-.9-3.4a6.74,6.74,0,0,0-2.4-.4s3.3-7.7,1.1-10.8c-.4-.6-6.9-8.6-6.9-8.6.1.5.1,1,.2,1.5.4,3.6.8,7.3,1.4,10.9,1.4,2.7-4.8,7.2-6.7,9.1a101.66,101.66,0,0,1-35.2,23.3c-8,3.3-15,8-17.5,10.6-2.5-2.6-9.5-7.3-17.5-10.6-13.3-5.4-25.2-12.9-35.2-23.3-1.9-1.9-8-6.4-6.7-9.1.5-3.6,1-7.2,1.4-10.9a7.72,7.72,0,0,1,.2-1.5s-6.5,8-6.9,8.6c-2.2,3.1,1.1,10.8,1.1,10.8a9.65,9.65,0,0,0-2.4.4c-1,.6-1,2.4-.9,3.4.5,3.3,3,6,5.3,8.2a23.08,23.08,0,0,0,5.3,4c15.2,7.2,31.8,11.6,46.7,19.6"/><path class="cls-21" d="M92.3,270c2.8-5.2-3.7-9.2-10.1-9.5s-15.6,12.1-16.7,13.6-4.6,7-1.7,8.7c3.5,2,4-.9,11.5-3.5S89.4,275.19,92.3,270Z"/><path class="cls-21" d="M131.9,286.89c-8.7-4.1-14,2.1-21.9,9.7-2.5,2.4-17.5,22.6-13,24.5,4.3,1.8,12.5-4.7,16.1-6.6,7.8-4,15.3-9.1,22.9-13.6C143.8,296.39,137.9,289.79,131.9,286.89Z"/><path class="cls-21" d="M22.4,288.49s25.4,3.9,30.7,12.1,2,14.3-3.9,16-12.9,3.1-12.9,3.1S24.9,301.79,22.4,288.49Z"/><path class="cls-21" d="M32.5,230.39s3.3,12.1,8.3,15.2,16.6,1.3,21.8-3C62.6,242.59,34.1,233.09,32.5,230.39Z"/><path class="cls-21" d="M105.3,274.69c2.7-1.4,8.7-4.9,2.7-7.9s-9.4,6-9.4,6C97.9,278,102.6,276.09,105.3,274.69Z"/><path class="cls-21" d="M132.4,224.69a11.72,11.72,0,0,0,9.8-3.2c4.7-4.2,2.9-8.5,2.9-8.5S135.3,224,132.4,224.69Z"/><path class="cls-21" d="M76.2,330.89s-7.9-.3-8.1,6.7,4,11.7,5.9,11.4Z"/><path class="cls-21" d="M119.2,332.49c-6,2.4-5.7,7-2.5,8.4s8.6-4.1,8.6-4.1h0C127.4,332.39,125.2,330.09,119.2,332.49Z"/><path class="cls-21" d="M129.2,258.59c.2-5.7,2.8-13.3,6.9-12.8s11.3,7.9,6.2,14.4-4.6,9.3-8.7,9.4C131.2,269.49,129,265.69,129.2,258.59Z"/><path class="cls-22" d="M260,32.09a53.1,53.1,0,1,0,53.1,53.1A53.13,53.13,0,0,0,260,32.09Zm11.4,53.1H264v26.5H253V85.19h-5.2v-9.4H253v-6.1c0-4.3,2.1-11.1,11.1-11.1h8.2v9.1h-5.9c-1,0-2.3.5-2.3,2.6v5.5h8.4Z"/></g></g></svg>