<svg id="レイヤー_1" data-name="レイヤー 1" xmlns="http://www.w3.org/2000/svg" xmlns:xlink="http://www.w3.org/1999/xlink" viewBox="0 0 1697.93 1099.05"><defs><style>.cls-1{fill:none;}.cls-2,.cls-6{fill:#fff;}.cls-3{fill:#ff4867;}.cls-4{fill:#ff7694;}.cls-5{clip-path:url(#clip-path);}.cls-6,.cls-7{stroke:#ff4867;stroke-miterlimit:10;}.cls-6{stroke-width:3px;}.cls-7{fill:#ff474d;}</style><clipPath id="clip-path"><rect class="cls-1" y="589.95" width="1697.93" height="509.1"/></clipPath></defs><title>goal</title><rect class="cls-2" x="267.43" y="652.82" width="309.1" height="213.4" transform="translate(-214.73 168.3) rotate(-18.07)"/><path class="cls-3" d="M309.29,913.15l99.3-32.4q79.2-25.8,158.3-51.6c12.1-4,24.2-7.9,36.4-11.9a4.5,4.5,0,0,0,3.1-5.5c-7.4-22.8-14.9-45.5-22.3-68.3l-35.7-109.5c-2.7-8.4-5.4-16.7-8.2-25.1a4.5,4.5,0,0,0-5.5-3.1l-99.3,32.4q-79.2,25.8-158.3,51.6c-12.1,4-24.2,7.9-36.4,11.9a4.5,4.5,0,0,0-3.1,5.5c7.4,22.8,14.9,45.5,22.3,68.3l35.7,109.5c2.7,8.4,5.4,16.7,8.2,25.1,1.8,5.5,10.5,3.1,8.7-2.4-7.4-22.8-14.9-45.5-22.3-68.3l-35.7-109.5c-2.7-8.4-5.4-16.7-8.2-25.1-1,1.8-2.1,3.7-3.1,5.5l99.3-32.4q79.2-25.8,158.3-51.6c12.1-4,24.2-7.9,36.4-11.9-1.8-1-3.7-2.1-5.5-3.1,7.4,22.8,14.9,45.5,22.3,68.3L589.69,789c2.7,8.4,5.4,16.7,8.2,25.1,1-1.8,2.1-3.7,3.1-5.5L501.69,841q-79.35,25.8-158.4,51.6c-12.1,4-24.2,7.9-36.4,11.9C301.39,906.25,303.79,914.95,309.29,913.15Z"/><rect class="cls-4" x="296.8" y="719.82" width="17.7" height="161.4" transform="translate(-233.18 134.24) rotate(-18.07)"/><path class="cls-3" d="M337.89,870.25c-5.6,1.8-11.2,3.7-16.8,5.5,1.8,1,3.7,2.1,5.5,3.1q-21.9-67.35-43.9-134.8c-2-6.2-4.1-12.5-6.1-18.7-1,1.8-2.1,3.7-3.1,5.5,5.6-1.8,11.2-3.7,16.8-5.5-1.8-1-3.7-2.1-5.5-3.1q21.9,67.35,43.9,134.8c2,6.2,4.1,12.5,6.1,18.7,1.8,5.5,10.5,3.1,8.7-2.4q-21.9-67.35-43.9-134.8c-2-6.2-4.1-12.5-6.1-18.7a4.5,4.5,0,0,0-5.5-3.1c-5.6,1.8-11.2,3.7-16.8,5.5a4.5,4.5,0,0,0-3.1,5.5Q290,795.1,312,862.55c2,6.2,4.1,12.5,6.1,18.7a4.5,4.5,0,0,0,5.5,3.1c5.6-1.8,11.2-3.7,16.8-5.5C345.79,877.15,343.39,868.45,337.89,870.25Z"/><rect class="cls-4" x="530.91" y="643.52" width="17.7" height="161.4" transform="translate(-197.97 203.08) rotate(-18.07)"/><path class="cls-3" d="M572,793.95c-5.6,1.8-11.2,3.7-16.8,5.5,1.8,1,3.7,2.1,5.5,3.1q-21.9-67.35-43.9-134.8c-2-6.2-4.1-12.5-6.1-18.7-1,1.8-2.1,3.7-3.1,5.5,5.6-1.8,11.2-3.7,16.8-5.5-1.8-1-3.7-2.1-5.5-3.1q21.9,67.35,43.9,134.8c2,6.2,4.1,12.5,6.1,18.7,1.8,5.5,10.5,3.1,8.7-2.4q-21.9-67.35-43.9-134.8c-2-6.2-4.1-12.5-6.1-18.7a4.5,4.5,0,0,0-5.5-3.1c-5.6,1.8-11.2,3.7-16.8,5.5a4.5,4.5,0,0,0-3.1,5.5q21.9,67.35,43.9,134.8c2,6.2,4.1,12.5,6.1,18.7a4.5,4.5,0,0,0,5.5,3.1c5.6-1.8,11.2-3.7,16.8-5.5C579.89,800.75,577.49,792,572,793.95Z"/><rect class="cls-4" x="314.21" y="706.51" width="51.8" height="30.6" transform="translate(-207.07 141.05) rotate(-18.07)"/><path class="cls-3" d="M368.29,724c-16.4,5.4-32.9,10.7-49.3,16.1,1.8,1,3.7,2.1,5.5,3.1-3.2-9.7-6.3-19.4-9.5-29.1-1,1.8-2.1,3.7-3.1,5.5,16.4-5.4,32.9-10.7,49.3-16.1-1.8-1-3.7-2.1-5.5-3.1,3.2,9.7,6.3,19.4,9.5,29.1,1.8,5.5,10.5,3.1,8.7-2.4-3.2-9.7-6.3-19.4-9.5-29.1a4.5,4.5,0,0,0-5.5-3.1c-16.4,5.4-32.9,10.7-49.3,16.1a4.5,4.5,0,0,0-3.1,5.5c3.2,9.7,6.3,19.4,9.5,29.1a4.5,4.5,0,0,0,5.5,3.1c16.4-5.4,32.9-10.7,49.3-16.1C376.09,730.95,373.79,722.25,368.29,724Z"/><rect class="cls-4" x="326.62" y="744.62" width="51.8" height="30.6" transform="translate(-218.27 146.78) rotate(-18.07)"/><path class="cls-3" d="M380.69,762.15c-16.4,5.4-32.9,10.7-49.3,16.1,1.8,1,3.7,2.1,5.5,3.1-3.2-9.7-6.3-19.4-9.5-29.1-1,1.8-2.1,3.7-3.1,5.5,16.4-5.4,32.9-10.7,49.3-16.1-1.8-1-3.7-2.1-5.5-3.1,3.2,9.7,6.3,19.4,9.5,29.1,1.8,5.5,10.5,3.1,8.7-2.4-3.2-9.7-6.3-19.4-9.5-29.1a4.5,4.5,0,0,0-5.5-3.1c-16.4,5.4-32.9,10.7-49.3,16.1a4.5,4.5,0,0,0-3.1,5.5c3.2,9.7,6.3,19.4,9.5,29.1a4.5,4.5,0,0,0,5.5,3.1c16.4-5.4,32.9-10.7,49.3-16.1C388.59,768.95,386.19,760.35,380.69,762.15Z"/><rect class="cls-4" x="338.99" y="782.63" width="51.8" height="30.6" transform="translate(-229.45 152.49) rotate(-18.07)"/><path class="cls-3" d="M393.09,800.15c-16.4,5.4-32.9,10.7-49.3,16.1,1.8,1,3.7,2.1,5.5,3.1-3.2-9.7-6.3-19.4-9.5-29.1-1,1.8-2.1,3.7-3.1,5.5,16.4-5.4,32.9-10.7,49.3-16.1-1.8-1-3.7-2.1-5.5-3.1,3.2,9.7,6.3,19.4,9.5,29.1,1.8,5.5,10.5,3.1,8.7-2.4-3.2-9.7-6.3-19.4-9.5-29.1a4.5,4.5,0,0,0-5.5-3.1c-16.4,5.4-32.9,10.7-49.3,16.1a4.5,4.5,0,0,0-3.1,5.5c3.2,9.7,6.3,19.4,9.5,29.1a4.5,4.5,0,0,0,5.5,3.1c16.4-5.4,32.9-10.7,49.3-16.1C401,807,398.59,798.35,393.09,800.15Z"/><rect class="cls-4" x="351.4" y="820.73" width="51.8" height="30.6" transform="translate(-240.65 158.21) rotate(-18.07)"/><path class="cls-3" d="M405.49,838.25c-16.4,5.4-32.9,10.7-49.3,16.1,1.8,1,3.7,2.1,5.5,3.1-3.2-9.7-6.3-19.4-9.5-29.1-1,1.8-2.1,3.7-3.1,5.5,16.4-5.4,32.9-10.7,49.3-16.1-1.8-1-3.7-2.1-5.5-3.1,3.2,9.7,6.3,19.4,9.5,29.1,1.8,5.5,10.5,3.1,8.7-2.4-3.2-9.7-6.3-19.4-9.5-29.1a4.5,4.5,0,0,0-5.5-3.1c-16.4,5.4-32.9,10.7-49.3,16.1a4.5,4.5,0,0,0-3.1,5.5c3.2,9.7,6.3,19.4,9.5,29.1a4.5,4.5,0,0,0,5.5,3.1c16.4-5.4,32.9-10.7,49.3-16.1C413.39,845.15,411.09,836.45,405.49,838.25Z"/><rect class="cls-4" x="377.99" y="685.63" width="51.8" height="30.6" transform="translate(-197.45 159.8) rotate(-18.07)"/><path class="cls-3" d="M432.09,703.15c-16.4,5.4-32.9,10.7-49.3,16.1,1.8,1,3.7,2.1,5.5,3.1-3.2-9.7-6.3-19.4-9.5-29.1-1,1.8-2.1,3.7-3.1,5.5,16.4-5.4,32.9-10.7,49.3-16.1-1.8-1-3.7-2.1-5.5-3.1,3.2,9.7,6.3,19.4,9.5,29.1,1.8,5.5,10.5,3.1,8.7-2.4-3.2-9.7-6.3-19.4-9.5-29.1a4.5,4.5,0,0,0-5.5-3.1c-16.4,5.4-32.9,10.7-49.3,16.1a4.5,4.5,0,0,0-3.1,5.5c3.2,9.7,6.3,19.4,9.5,29.1a4.5,4.5,0,0,0,5.5,3.1c16.4-5.4,32.9-10.7,49.3-16.1C440,710,437.69,701.35,432.09,703.15Z"/><rect class="cls-4" x="390.4" y="723.73" width="51.8" height="30.6" transform="translate(-208.65 165.53) rotate(-18.07)"/><path class="cls-3" d="M444.49,741.25c-16.4,5.4-32.9,10.7-49.3,16.1,1.8,1,3.7,2.1,5.5,3.1-3.2-9.7-6.3-19.4-9.5-29.1-1,1.8-2.1,3.7-3.1,5.5,16.4-5.4,32.9-10.7,49.3-16.1-1.8-1-3.7-2.1-5.5-3.1,3.2,9.7,6.3,19.4,9.5,29.1,1.8,5.5,10.5,3.1,8.7-2.4-3.2-9.7-6.3-19.4-9.5-29.1a4.5,4.5,0,0,0-5.5-3.1c-16.4,5.4-32.9,10.7-49.3,16.1a4.5,4.5,0,0,0-3.1,5.5c3.2,9.7,6.3,19.4,9.5,29.1a4.5,4.5,0,0,0,5.5,3.1c16.4-5.4,32.9-10.7,49.3-16.1C452.39,748.15,450.09,739.45,444.49,741.25Z"/><rect class="cls-4" x="402.8" y="761.84" width="51.8" height="30.6" transform="translate(-219.86 171.25) rotate(-18.07)"/><path class="cls-3" d="M457,779.35c-16.4,5.4-32.9,10.7-49.3,16.1,1.8,1,3.7,2.1,5.5,3.1-3.2-9.7-6.3-19.4-9.5-29.1-1,1.8-2.1,3.7-3.1,5.5,16.4-5.4,32.9-10.7,49.3-16.1-1.8-1-3.7-2.1-5.5-3.1,3.2,9.7,6.3,19.4,9.5,29.1,1.8,5.5,10.5,3.1,8.7-2.4-3.2-9.7-6.3-19.4-9.5-29.1a4.5,4.5,0,0,0-5.5-3.1c-16.4,5.4-32.9,10.7-49.3,16.1a4.5,4.5,0,0,0-3.1,5.5c3.2,9.7,6.3,19.4,9.5,29.1a4.5,4.5,0,0,0,5.5,3.1c16.4-5.4,32.9-10.7,49.3-16.1C464.79,786.25,462.49,777.55,457,779.35Z"/><rect class="cls-4" x="415.3" y="799.91" width="51.8" height="30.6" transform="translate(-231.05 177.01) rotate(-18.07)"/><path class="cls-3" d="M469.39,817.45c-16.4,5.4-32.9,10.7-49.3,16.1,1.8,1,3.7,2.1,5.5,3.1-3.2-9.7-6.3-19.4-9.5-29.1-1,1.8-2.1,3.7-3.1,5.5,16.4-5.4,32.9-10.7,49.3-16.1-1.8-1-3.7-2.1-5.5-3.1,3.2,9.7,6.3,19.4,9.5,29.1,1.8,5.5,10.5,3.1,8.7-2.4-3.2-9.7-6.3-19.4-9.5-29.1a4.5,4.5,0,0,0-5.5-3.1c-16.4,5.4-32.9,10.7-49.3,16.1a4.5,4.5,0,0,0-3.1,5.5c3.2,9.7,6.3,19.4,9.5,29.1a4.5,4.5,0,0,0,5.5,3.1c16.4-5.4,32.9-10.7,49.3-16.1C477.29,824.35,474.89,815.65,469.39,817.45Z"/><rect class="cls-4" x="441.89" y="664.81" width="51.8" height="30.6" transform="translate(-187.84 178.59) rotate(-18.07)"/><path class="cls-3" d="M496,682.35c-16.4,5.4-32.9,10.7-49.3,16.1,1.8,1,3.7,2.1,5.5,3.1-3.2-9.7-6.3-19.4-9.5-29.1-1,1.8-2.1,3.7-3.1,5.5,16.4-5.4,32.9-10.7,49.3-16.1-1.8-1-3.7-2.1-5.5-3.1,3.2,9.7,6.3,19.4,9.5,29.1,1.8,5.5,10.5,3.1,8.7-2.4-3.2-9.7-6.3-19.4-9.5-29.1a4.5,4.5,0,0,0-5.5-3.1c-16.4,5.4-32.9,10.7-49.3,16.1a4.5,4.5,0,0,0-3.1,5.5c3.2,9.7,6.3,19.4,9.5,29.1a4.5,4.5,0,0,0,5.5,3.1c16.4-5.4,32.9-10.7,49.3-16.1C503.89,689.25,501.49,680.55,496,682.35Z"/><rect class="cls-4" x="454.3" y="702.92" width="51.8" height="30.6" transform="translate(-199.05 184.32) rotate(-18.07)"/><path class="cls-3" d="M508.39,720.45c-16.4,5.4-32.9,10.7-49.3,16.1,1.8,1,3.7,2.1,5.5,3.1-3.2-9.7-6.3-19.4-9.5-29.1-1,1.8-2.1,3.7-3.1,5.5,16.4-5.4,32.9-10.7,49.3-16.1-1.8-1-3.7-2.1-5.5-3.1,3.2,9.7,6.3,19.4,9.5,29.1,1.8,5.5,10.5,3.1,8.7-2.4-3.2-9.7-6.3-19.4-9.5-29.1a4.5,4.5,0,0,0-5.5-3.1c-16.4,5.4-32.9,10.7-49.3,16.1a4.5,4.5,0,0,0-3.1,5.5c3.2,9.7,6.3,19.4,9.5,29.1a4.5,4.5,0,0,0,5.5,3.1c16.4-5.4,32.9-10.7,49.3-16.1C516.29,727.35,513.89,718.65,508.39,720.45Z"/><rect class="cls-4" x="466.71" y="741.02" width="51.8" height="30.6" transform="translate(-210.25 190.04) rotate(-18.07)"/><path class="cls-3" d="M520.79,758.55c-16.4,5.4-32.9,10.7-49.3,16.1,1.8,1,3.7,2.1,5.5,3.1-3.2-9.7-6.3-19.4-9.5-29.1-1,1.8-2.1,3.7-3.1,5.5,16.4-5.4,32.9-10.7,49.3-16.1-1.8-1-3.7-2.1-5.5-3.1,3.2,9.7,6.3,19.4,9.5,29.1,1.8,5.5,10.5,3.1,8.7-2.4-3.2-9.7-6.3-19.4-9.5-29.1a4.5,4.5,0,0,0-5.5-3.1c-16.4,5.4-32.9,10.7-49.3,16.1A4.5,4.5,0,0,0,459,751c3.2,9.7,6.3,19.4,9.5,29.1a4.5,4.5,0,0,0,5.5,3.1c16.4-5.4,32.9-10.7,49.3-16.1C528.69,765.45,526.29,756.75,520.79,758.55Z"/><rect class="cls-4" x="479.11" y="779.13" width="51.8" height="30.6" transform="translate(-221.46 195.77) rotate(-18.07)"/><path class="cls-3" d="M533.19,796.65c-16.4,5.4-32.9,10.7-49.3,16.1,1.8,1,3.7,2.1,5.5,3.1-3.2-9.7-6.3-19.4-9.5-29.1-1,1.8-2.1,3.7-3.1,5.5,16.4-5.4,32.9-10.7,49.3-16.1-1.8-1-3.7-2.1-5.5-3.1,3.2,9.7,6.3,19.4,9.5,29.1,1.8,5.5,10.5,3.1,8.7-2.4-3.2-9.7-6.3-19.4-9.5-29.1a4.5,4.5,0,0,0-5.5-3.1c-16.4,5.4-32.9,10.7-49.3,16.1a4.5,4.5,0,0,0-3.1,5.5c3.2,9.7,6.3,19.4,9.5,29.1a4.5,4.5,0,0,0,5.5,3.1c16.4-5.4,32.9-10.7,49.3-16.1C541.09,803.55,538.79,794.85,533.19,796.65Z"/><polygon class="cls-2" points="184.49 594.35 188.39 604.85 168.39 612.15 174.69 629.35 158.49 635.25 263.29 922.15 393.89 874.45 289.09 587.55 272.89 593.45 266.59 576.25 246.59 583.65 242.79 573.05 184.49 594.35"/><path class="cls-3" d="M180.19,595.55c1.3,3.5,2.6,7,3.8,10.5,1-1.8,2.1-3.7,3.1-5.5-6.7,2.4-13.3,4.9-20,7.3-2.1.8-4,3.1-3.1,5.5,2.1,5.7,4.2,11.5,6.3,17.2,1-1.8,2.1-3.7,3.1-5.5-5.4,2-10.8,3.9-16.2,5.9-2.1.8-4,3.1-3.1,5.5l35.4,96.9,56.4,154.5c4.3,11.9,8.7,23.7,13,35.6.8,2.1,3.1,4,5.5,3.1q57.15-20.85,114.4-41.8c5.4-2,10.8-3.9,16.2-5.9,2.1-.8,4-3.1,3.1-5.5l-35.4-96.9-56.4-154.5c-4.3-11.9-8.7-23.7-13-35.6-.8-2.1-3.1-4-5.5-3.1-5.4,2-10.8,3.9-16.2,5.9,1.8,1,3.7,2.1,5.5,3.1-2.1-5.7-4.2-11.5-6.3-17.2-.8-2.1-3.1-4-5.5-3.1-6.7,2.4-13.3,4.9-20,7.3,1.8,1,3.7,2.1,5.5,3.1-1.3-3.5-2.6-7-3.8-10.5-.8-2.1-3.1-4-5.5-3.1L183.29,590c-5.4,2-3.1,10.7,2.4,8.7l58.2-21.3c-1.8-1-3.7-2.1-5.5-3.1,1.3,3.5,2.6,7,3.8,10.5.8,2.1,3.1,4,5.5,3.1,6.7-2.4,13.3-4.9,20-7.3-1.8-1-3.7-2.1-5.5-3.1,2.1,5.7,4.2,11.5,6.3,17.2.8,2.1,3.1,4,5.5,3.1,5.4-2,10.8-3.9,16.2-5.9-1.8-1-3.7-2.1-5.5-3.1l35.4,96.9,56.4,154.5c4.3,11.9,8.7,23.7,13,35.6,1-1.8,2.1-3.7,3.1-5.5q-57.15,20.85-114.4,41.8c-5.4,2-10.8,3.9-16.2,5.9,1.8,1,3.7,2.1,5.5,3.1l-35.4-96.9-56.4-154.5c-4.3-11.9-8.7-23.7-13-35.6-1,1.8-2.1,3.7-3.1,5.5,5.4-2,10.8-3.9,16.2-5.9,2.1-.8,4-3.1,3.1-5.5-2.1-5.7-4.2-11.5-6.3-17.2-1,1.8-2.1,3.7-3.1,5.5,6.7-2.4,13.3-4.9,20-7.3,2.1-.8,4-3.1,3.1-5.5-1.3-3.5-2.6-7-3.8-10.5C186.89,587.75,178.19,590.15,180.19,595.55Z"/><rect class="cls-4" x="256.53" y="830.25" width="104.6" height="27.7" transform="translate(-270.93 157.25) rotate(-20.07)"/><path class="cls-3" d="M361.39,834.85c-28.6,10.4-57.2,20.9-85.8,31.3-4.2,1.5-8.3,3-12.5,4.6,1.8,1,3.7,2.1,5.5,3.1-3.2-8.7-6.3-17.3-9.5-26-1,1.8-2.1,3.7-3.1,5.5,28.6-10.4,57.2-20.9,85.8-31.3,4.2-1.5,8.3-3,12.5-4.6-1.8-1-3.7-2.1-5.5-3.1,3.2,8.7,6.3,17.3,9.5,26,2,5.4,10.7,3.1,8.7-2.4-3.2-8.7-6.3-17.3-9.5-26-.8-2.1-3.1-4-5.5-3.1-28.6,10.4-57.2,20.9-85.8,31.3-4.2,1.5-8.3,3-12.5,4.6-2.1.8-4,3.1-3.1,5.5,3.2,8.7,6.3,17.3,9.5,26,.8,2.1,3.1,4,5.5,3.1,28.6-10.4,57.2-20.9,85.8-31.3,4.2-1.5,8.3-3,12.5-4.6C369.19,841.55,366.89,832.85,361.39,834.85Z"/><rect class="cls-4" x="242.11" y="790.75" width="104.6" height="27.7" transform="translate(-258.25 149.91) rotate(-20.07)"/><path class="cls-3" d="M347,795.35c-28.6,10.4-57.2,20.9-85.8,31.3-4.2,1.5-8.3,3-12.5,4.6,1.8,1,3.7,2.1,5.5,3.1-3.2-8.7-6.3-17.3-9.5-26-1,1.8-2.1,3.7-3.1,5.5,28.6-10.4,57.2-20.9,85.8-31.3,4.2-1.5,8.3-3,12.5-4.6-1.8-1-3.7-2.1-5.5-3.1,3.2,8.7,6.3,17.3,9.5,26,2,5.4,10.7,3.1,8.7-2.4-3.2-8.7-6.3-17.3-9.5-26-.8-2.1-3.1-4-5.5-3.1-28.6,10.4-57.2,20.9-85.8,31.3-4.2,1.5-8.3,3-12.5,4.6-2.1.8-4,3.1-3.1,5.5,3.2,8.7,6.3,17.3,9.5,26,.8,2.1,3.1,4,5.5,3.1,28.6-10.4,57.2-20.9,85.8-31.3,4.2-1.5,8.3-3,12.5-4.6C354.79,802,352.49,793.35,347,795.35Z"/><rect class="cls-4" x="227.61" y="751.27" width="104.6" height="27.7" transform="translate(-245.58 142.53) rotate(-20.07)"/><path class="cls-3" d="M332.59,755.85c-28.6,10.4-57.2,20.9-85.8,31.3-4.2,1.5-8.3,3-12.5,4.6,1.8,1,3.7,2.1,5.5,3.1-3.2-8.7-6.3-17.3-9.5-26-1,1.8-2.1,3.7-3.1,5.5,28.6-10.4,57.2-20.9,85.8-31.3,4.2-1.5,8.3-3,12.5-4.6-1.8-1-3.7-2.1-5.5-3.1,3.2,8.7,6.3,17.3,9.5,26,2,5.4,10.7,3.1,8.7-2.4-3.2-8.7-6.3-17.3-9.5-26-.8-2.1-3.1-4-5.5-3.1-28.6,10.4-57.2,20.9-85.8,31.3-4.2,1.5-8.3,3-12.5,4.6-2.1.8-4,3.1-3.1,5.5,3.2,8.7,6.3,17.3,9.5,26,.8,2.1,3.1,4,5.5,3.1,28.6-10.4,57.2-20.9,85.8-31.3,4.2-1.5,8.3-3,12.5-4.6C340.39,762.55,338.09,753.85,332.59,755.85Z"/><rect class="cls-4" x="213.23" y="711.86" width="104.6" height="27.7" transform="translate(-232.93 135.2) rotate(-20.07)"/><path class="cls-3" d="M318.19,716.35c-28.6,10.4-57.2,20.9-85.8,31.3-4.2,1.5-8.3,3-12.5,4.6,1.8,1,3.7,2.1,5.5,3.1-3.2-8.7-6.3-17.3-9.5-26-1,1.8-2.1,3.7-3.1,5.5,28.6-10.4,57.2-20.9,85.8-31.3,4.2-1.5,8.3-3,12.5-4.6-1.8-1-3.7-2.1-5.5-3.1,3.2,8.7,6.3,17.3,9.5,26,2,5.4,10.7,3.1,8.7-2.4-3.2-8.7-6.3-17.3-9.5-26-.8-2.1-3.1-4-5.5-3.1-28.6,10.4-57.2,20.9-85.8,31.3-4.2,1.5-8.3,3-12.5,4.6-2.1.8-4,3.1-3.1,5.5,3.2,8.7,6.3,17.3,9.5,26,.8,2.1,3.1,4,5.5,3.1,28.6-10.4,57.2-20.9,85.8-31.3,4.2-1.5,8.3-3,12.5-4.6C326,723,323.59,714.35,318.19,716.35Z"/><rect class="cls-4" x="198.82" y="672.35" width="104.6" height="27.7" transform="translate(-220.25 127.86) rotate(-20.07)"/><path class="cls-3" d="M303.69,676.95c-28.6,10.4-57.2,20.9-85.8,31.3-4.2,1.5-8.3,3-12.5,4.6,1.8,1,3.7,2.1,5.5,3.1-3.2-8.7-6.3-17.3-9.5-26-1,1.8-2.1,3.7-3.1,5.5,28.6-10.4,57.2-20.9,85.8-31.3,4.2-1.5,8.3-3,12.5-4.6-1.8-1-3.7-2.1-5.5-3.1,3.2,8.7,6.3,17.3,9.5,26,2,5.4,10.7,3.1,8.7-2.4-3.2-8.7-6.3-17.3-9.5-26-.8-2.1-3.1-4-5.5-3.1-28.6,10.4-57.2,20.9-85.8,31.3-4.2,1.5-8.3,3-12.5,4.6-2.1.8-4,3.1-3.1,5.5,3.2,8.7,6.3,17.3,9.5,26,.8,2.1,3.1,4,5.5,3.1,28.6-10.4,57.2-20.9,85.8-31.3,4.2-1.5,8.3-3,12.5-4.6C311.49,683.65,309.19,674.95,303.69,676.95Z"/><rect class="cls-4" x="184.41" y="632.85" width="104.6" height="27.7" transform="translate(-207.56 120.51) rotate(-20.07)"/><path class="cls-3" d="M276.69,616.95c3.2,8.7,6.3,17.3,9.5,26,1-1.8,2.1-3.7,3.1-5.5-28.6,10.4-57.2,20.9-85.8,31.3-4.2,1.5-8.3,3-12.5,4.6,1.8,1,3.7,2.1,5.5,3.1-3.2-8.7-6.3-17.3-9.5-26-1,1.8-2.1,3.7-3.1,5.5,28.6-10.4,57.2-20.9,85.8-31.3,4.2-1.5,8.3-3,12.5-4.6,5.4-2,3.1-10.7-2.4-8.7-28.6,10.4-57.2,20.9-85.8,31.3-4.2,1.5-8.3,3-12.5,4.6-2.1.8-4,3.1-3.1,5.5,3.2,8.7,6.3,17.3,9.5,26,.8,2.1,3.1,4,5.5,3.1,28.6-10.4,57.2-20.9,85.8-31.3,4.2-1.5,8.3-3,12.5-4.6,2.1-.8,4-3.1,3.1-5.5-3.2-8.7-6.3-17.3-9.5-26C283.39,609.15,274.69,611.55,276.69,616.95Z"/><polygon class="cls-2" points="1246.99 439.55 1235.29 468.25 1207.59 395.85 1023.79 847.05 1084.79 871.95 1241.99 485.95 1238.59 477.15 1252.99 441.95 1246.99 439.55"/><path class="cls-3" d="M1242.59,438.35l-11.7,28.8h8.7c-9.2-24.1-18.4-48.3-27.6-72.4-1.7-4.3-7-4.2-8.7,0q-9.15,22.5-18.4,45Q1163,493.6,1141,547.45q-26.55,65.1-53,130.2-23,56.4-46,112.9c-5,12.3-10,24.6-15.1,36.9-2.4,5.8-5.3,11.7-7.2,17.7-.1.3-.2.5-.3.8-1,2.4,1.1,4.7,3.1,5.5q30.45,12.45,61,24.8c2.4,1,4.7-1.1,5.5-3.1q9.6-23.55,19.2-47,22.2-54.6,44.5-109.1,25-61.65,50.2-123.2,18.15-44.7,36.4-89.3c2.2-5.5,5.4-11.2,6.9-16.9a6.68,6.68,0,0,0-.2-3.7,43.15,43.15,0,0,0-2.4-6.3c-1.4-2.8.3.8-.6.8a2.82,2.82,0,0,0,.4-1.1c2.1-3.2,3.2-7.9,4.7-11.5,2.1-5,4.1-10.1,6.2-15.1,1-2.5,2-5,3.1-7.5s-1.1-4.7-3.1-5.5l-6-2.4c-5.4-2.2-7.7,6.5-2.4,8.7l6,2.4c-1-1.8-2.1-3.7-3.1-5.5-3.1,7.5-6.1,15.1-9.2,22.6-1.5,3.8-3.4,7.6-4.7,11.5-1.2,3.4.6,6.3,1.9,9.6.1.2.6,2.3.9,2.4.6.2.3-2.1.1-2.1s-.1.4-.2.4a7,7,0,0,0-.8,2c-1.2,2.9-2.3,5.7-3.5,8.6q-16.65,40.95-33.4,81.9-24.75,60.9-49.6,121.7l-46.2,113.4c-5.2,12.8-10.5,25.7-15.7,38.5-2.4,6-6,12.3-7.6,18.6a6.87,6.87,0,0,1-.3.8c1.8-1,3.7-2.1,5.5-3.1q-30.45-12.45-61-24.8c1,1.8,2.1,3.7,3.1,5.5q9.15-22.5,18.4-45,21.9-53.85,43.9-107.7,26.55-65.1,53-130.2,23-56.4,46-112.9c5-12.3,10-24.6,15.1-36.9,2.3-5.6,5.8-11.7,7.2-17.7.1-.3.2-.5.3-.8h-8.7c9.2,24.1,18.4,48.3,27.6,72.4,1.7,4.3,7,4.2,8.7,0l11.7-28.8C1253.49,435.35,1244.79,433,1242.59,438.35Z"/><rect class="cls-4" x="1187.22" y="482.35" width="29.5" height="29.5" transform="translate(288.11 1422.68) rotate(-67.83)"/><path class="cls-3" d="M1211.19,511.95l-27.3-11.1c1,1.8,2.1,3.7,3.1,5.5l11.1-27.3c-1.8,1-3.7,2.1-5.5,3.1l27.3,11.1c-1-1.8-2.1-3.7-3.1-5.5l-11.1,27.3c-2.2,5.4,6.5,7.7,8.7,2.4l11.1-27.3c1-2.4-1.1-4.7-3.1-5.5l-27.3-11.1c-2.4-1-4.7,1.1-5.5,3.1l-11.1,27.3c-1,2.4,1.1,4.7,3.1,5.5l27.3,11.1C1214.19,522.85,1216.49,514.15,1211.19,511.95Z"/><rect class="cls-4" x="1168.97" y="527.05" width="29.5" height="29.5" transform="translate(235.35 1433.61) rotate(-67.83)"/><path class="cls-3" d="M1193,556.75l-27.3-11.1c1,1.8,2.1,3.7,3.1,5.5l11.1-27.3c-1.8,1-3.7,2.1-5.5,3.1l27.3,11.1c-1-1.8-2.1-3.7-3.1-5.5l-11.1,27.3c-2.2,5.4,6.5,7.7,8.7,2.4l11.1-27.3c1-2.4-1.1-4.7-3.1-5.5l-27.3-11.1c-2.4-1-4.7,1.1-5.5,3.1l-11.1,27.3c-1,2.4,1.1,4.7,3.1,5.5l27.3,11.1C1195.89,567.55,1198.29,558.85,1193,556.75Z"/><rect class="cls-4" x="1150.68" y="571.84" width="29.5" height="29.5" transform="translate(182.48 1444.57) rotate(-67.83)"/><path class="cls-3" d="M1174.69,601.45l-27.3-11.1c1,1.8,2.1,3.7,3.1,5.5l11.1-27.3c-1.8,1-3.7,2.1-5.5,3.1l27.3,11.1c-1-1.8-2.1-3.7-3.1-5.5l-11.1,27.3c-2.2,5.4,6.5,7.7,8.7,2.4l11.1-27.3c1-2.4-1.1-4.7-3.1-5.5l-27.3-11.1c-2.4-1-4.7,1.1-5.5,3.1l-11.1,27.3c-1,2.4,1.1,4.7,3.1,5.5l27.3,11.1C1177.69,612.35,1180,603.65,1174.69,601.45Z"/><rect class="cls-4" x="1132.52" y="616.58" width="29.5" height="29.5" transform="translate(129.74 1455.61) rotate(-67.83)"/><path class="cls-3" d="M1156.49,646.25l-27.3-11.1c1,1.8,2.1,3.7,3.1,5.5l11.1-27.3c-1.8,1-3.7,2.1-5.5,3.1l27.3,11.1c-1-1.8-2.1-3.7-3.1-5.5l-11.1,27.3c-2.2,5.4,6.5,7.7,8.7,2.4l11.1-27.3c1-2.4-1.1-4.7-3.1-5.5l-27.3-11.1c-2.4-1-4.7,1.1-5.5,3.1l-11.1,27.3c-1,2.4,1.1,4.7,3.1,5.5l27.3,11.1C1159.49,657,1161.79,648.35,1156.49,646.25Z"/><rect class="cls-4" x="1114.27" y="661.27" width="29.5" height="29.5" transform="translate(76.98 1466.54) rotate(-67.83)"/><path class="cls-3" d="M1138.29,690.95l-27.3-11.1c1,1.8,2.1,3.7,3.1,5.5l11.1-27.3c-1.8,1-3.7,2.1-5.5,3.1l27.3,11.1c-1-1.8-2.1-3.7-3.1-5.5l-11.1,27.3c-2.2,5.4,6.5,7.7,8.7,2.4l11.1-27.3c1-2.4-1.1-4.7-3.1-5.5l-27.3-11.1c-2.4-1-4.7,1.1-5.5,3.1l-11.1,27.3c-1,2.4,1.1,4.7,3.1,5.5l27.3,11.1C1141.29,701.85,1143.59,693.15,1138.29,690.95Z"/><rect class="cls-4" x="1096.07" y="706.1" width="29.5" height="29.5" transform="translate(24.14 1477.6) rotate(-67.83)"/><path class="cls-3" d="M1120.09,735.65l-27.3-11.1c1,1.8,2.1,3.7,3.1,5.5l11.1-27.3c-1.8,1-3.7,2.1-5.5,3.1l27.3,11.1c-1-1.8-2.1-3.7-3.1-5.5l-11.1,27.3c-2.2,5.4,6.5,7.7,8.7,2.4l11.1-27.3c1-2.4-1.1-4.7-3.1-5.5l-27.3-11.1c-2.4-1-4.7,1.1-5.5,3.1l-11.1,27.3c-1,2.4,1.1,4.7,3.1,5.5l27.3,11.1C1123,746.55,1125.39,737.85,1120.09,735.65Z"/><rect class="cls-4" x="1077.82" y="750.8" width="29.5" height="29.5" transform="translate(-28.62 1488.53) rotate(-67.83)"/><path class="cls-3" d="M1101.79,780.45l-27.3-11.1c1,1.8,2.1,3.7,3.1,5.5l11.1-27.3c-1.8,1-3.7,2.1-5.5,3.1l27.3,11.1c-1-1.8-2.1-3.7-3.1-5.5l-11.1,27.3c-2.2,5.4,6.5,7.7,8.7,2.4l11.1-27.3c1-2.4-1.1-4.7-3.1-5.5l-27.3-11.1c-2.4-1-4.7,1.1-5.5,3.1l-11.1,27.3c-1,2.4,1.1,4.7,3.1,5.5l27.3,11.1C1104.79,791.25,1107.09,782.55,1101.79,780.45Z"/><rect class="cls-2" x="1138.56" y="715.14" width="208.1" height="139" transform="translate(-19.47 1537.55) rotate(-63.09)"/><path class="cls-3" d="M1131.29,849.85q54.3,27.6,108.6,55.1c5.1,2.6,10.2,5.2,15.4,7.8,2.1,1,5,.7,6.2-1.6,10.6-20.9,21.2-41.7,31.8-62.6l50.7-99.9,11.7-23.1c1-2.1.7-5-1.6-6.2q-54.3-27.6-108.6-55.1c-5.1-2.6-10.2-5.2-15.4-7.8-2.1-1-5-.7-6.2,1.6-10.6,20.9-21.2,41.7-31.8,62.6l-50.7,99.9-11.7,23.1c-2.6,5.2,5.1,9.7,7.8,4.5,10.6-20.9,21.2-41.7,31.8-62.6l50.7-99.9,11.7-23.1c-2.1.5-4.1,1.1-6.2,1.6q54.3,27.6,108.6,55.1c5.1,2.6,10.2,5.2,15.4,7.8-.5-2.1-1.1-4.1-1.6-6.2-10.6,20.9-21.2,41.7-31.8,62.6l-50.7,99.9-11.7,23.1c2.1-.5,4.1-1.1,6.2-1.6q-54.3-27.6-108.6-55.1c-5.1-2.6-10.2-5.2-15.4-7.8S1126.09,847.15,1131.29,849.85Z"/><rect class="cls-4" x="1121.01" y="755.2" width="161.4" height="17.7" transform="translate(-23.51 1489.81) rotate(-63.09)"/><path class="cls-3" d="M1175.39,836c-5.3-2.7-10.5-5.3-15.8-8,.5,2.1,1.1,4.1,1.6,6.2q32.1-63.15,64.1-126.4c3-5.9,5.9-11.7,8.9-17.6-2.1.5-4.1,1.1-6.2,1.6,5.3,2.7,10.5,5.3,15.8,8-.5-2.1-1.1-4.1-1.6-6.2q-32.1,63.15-64.1,126.4c-3,5.9-5.9,11.7-8.9,17.6-2.6,5.2,5.1,9.7,7.8,4.5q32.1-63.15,64.1-126.4c3-5.9,5.9-11.7,8.9-17.6,1-2.1.7-5-1.6-6.2-5.3-2.7-10.5-5.3-15.8-8-2.1-1-5-.7-6.2,1.6q-32.1,63.15-64.1,126.4c-3,5.9-5.9,11.7-8.9,17.6-1,2.1-.7,5,1.6,6.2,5.3,2.7,10.5,5.3,15.8,8S1180.49,838.75,1175.39,836Z"/><rect class="cls-4" x="1203.98" y="797.32" width="161.4" height="17.7" transform="translate(-15.64 1586.86) rotate(-63.09)"/><path class="cls-3" d="M1258.39,878.25c-5.3-2.7-10.5-5.3-15.8-8,.5,2.1,1.1,4.1,1.6,6.2q32.1-63.15,64.1-126.4c3-5.9,5.9-11.7,8.9-17.6-2.1.5-4.1,1.1-6.2,1.6,5.3,2.7,10.5,5.3,15.8,8-.5-2.1-1.1-4.1-1.6-6.2q-32.1,63.15-64.1,126.4c-3,5.9-5.9,11.7-8.9,17.6-2.6,5.2,5.1,9.7,7.8,4.5q32.1-63.15,64.1-126.4c3-5.9,5.9-11.7,8.9-17.6,1-2.1.7-5-1.6-6.2-5.3-2.7-10.5-5.3-15.8-8-2.1-1-5-.7-6.2,1.6q-32.1,63.15-64.1,126.4c-3,5.9-5.9,11.7-8.9,17.6-1,2.1-.7,5,1.6,6.2,5.3,2.7,10.5,5.3,15.8,8S1263.49,880.85,1258.39,878.25Z"/><rect class="cls-4" x="1256.94" y="701.9" width="30.6" height="51.8" transform="translate(47.43 1532.86) rotate(-63.09)"/><path class="cls-3" d="M1290.69,749.35q-23.1-11.7-46.2-23.5c.5,2.1,1.1,4.1,1.6,6.2,4.6-9.1,9.2-18.2,13.9-27.3-2.1.5-4.1,1.1-6.2,1.6q23.1,11.7,46.2,23.5c-.5-2.1-1.1-4.1-1.6-6.2-4.6,9.1-9.2,18.2-13.9,27.3-2.6,5.2,5.1,9.7,7.8,4.5,4.6-9.1,9.2-18.2,13.9-27.3,1-2.1.7-5-1.6-6.2q-23.1-11.7-46.2-23.5c-2.1-1-5-.7-6.2,1.6-4.6,9.1-9.2,18.2-13.9,27.3-1,2.1-.7,5,1.6,6.2q23.1,11.7,46.2,23.5C1291.39,759.65,1295.89,751.95,1290.69,749.35Z"/><rect class="cls-4" x="1238.76" y="737.67" width="30.6" height="51.8" transform="translate(5.58 1536.23) rotate(-63.09)"/><path class="cls-3" d="M1272.59,785q-23.1-11.7-46.2-23.5c.5,2.1,1.1,4.1,1.6,6.2,4.6-9.1,9.2-18.2,13.9-27.3-2.1.5-4.1,1.1-6.2,1.6q23.1,11.7,46.2,23.5c-.5-2.1-1.1-4.1-1.6-6.2-4.6,9.1-9.2,18.2-13.9,27.3-2.6,5.2,5.1,9.7,7.8,4.5,4.6-9.1,9.2-18.2,13.9-27.3,1-2.1.7-5-1.6-6.2q-23.1-11.7-46.2-23.5c-2.1-1-5-.7-6.2,1.6-4.6,9.1-9.2,18.2-13.9,27.3-1,2.1-.7,5,1.6,6.2q23.1,11.7,46.2,23.5C1273.19,795.45,1277.79,787.65,1272.59,785Z"/><rect class="cls-4" x="1220.71" y="773.4" width="30.6" height="51.8" transform="translate(-36.16 1539.69) rotate(-63.09)"/><path class="cls-3" d="M1254.49,820.75q-23.1-11.7-46.2-23.5c.5,2.1,1.1,4.1,1.6,6.2,4.6-9.1,9.2-18.2,13.9-27.3-2.1.5-4.1,1.1-6.2,1.6q23.1,11.7,46.2,23.5c-.5-2.1-1.1-4.1-1.6-6.2-4.6,9.1-9.2,18.2-13.9,27.3-2.6,5.2,5.1,9.7,7.8,4.5,4.6-9.1,9.2-18.2,13.9-27.3,1-2.1.7-5-1.6-6.2q-23.1-11.7-46.2-23.5c-2.1-1-5-.7-6.2,1.6-4.6,9.1-9.2,18.2-13.9,27.3-1,2.1-.7,5,1.6,6.2q23.1,11.7,46.2,23.5C1255.09,831.15,1259.69,823.35,1254.49,820.75Z"/><rect class="cls-4" x="1202.57" y="809.09" width="30.6" height="51.8" transform="translate(-77.91 1543.05) rotate(-63.09)"/><path class="cls-3" d="M1236.39,856.45q-23.1-11.7-46.2-23.5c.5,2.1,1.1,4.1,1.6,6.2,4.6-9.1,9.2-18.2,13.9-27.3-2.1.5-4.1,1.1-6.2,1.6q23.1,11.7,46.2,23.5c-.5-2.1-1.1-4.1-1.6-6.2-4.6,9.1-9.2,18.2-13.9,27.3-2.6,5.2,5.1,9.7,7.8,4.5,4.6-9.1,9.2-18.2,13.9-27.3,1-2.1.7-5-1.6-6.2q-23.1-11.7-46.2-23.5c-2.1-1-5-.7-6.2,1.6-4.6,9.1-9.2,18.2-13.9,27.3-1,2.1-.7,5,1.6,6.2q23.1,11.7,46.2,23.5C1237,866.85,1241.49,859,1236.39,856.45Z"/><polygon class="cls-2" points="970.69 478.95 968.19 491.05 916.89 480.35 913.79 495.35 899.59 492.35 846.69 746.35 834.69 804.05 999.59 838.35 1011.59 780.75 1064.49 526.75 1048.89 523.55 1051.99 508.55 1002.19 498.15 1004.69 486.05 970.69 478.95"/><path class="cls-3" d="M966.39,477.75c-.8,4-1.7,8.1-2.5,12.1,1.8-1,3.7-2.1,5.5-3.1-17.1-3.6-34.2-7.1-51.3-10.7-2.3-.5-5,.6-5.5,3.1-1,5-2.1,10-3.1,14.9,1.8-1,3.7-2.1,5.5-3.1-4.7-1-9.4-2-14.1-2.9-2.3-.5-5,.6-5.5,3.1q-12.45,59.55-24.8,119.2-14,66.75-27.8,133.5c-4.1,19.6-8.2,39.3-12.3,58.9-.5,2.3.6,5,3.1,5.5q72.15,15,144.2,30.1c6.9,1.4,13.8,2.9,20.7,4.3,2.3.5,5-.6,5.5-3.1q10.2-48.9,20.4-97.7l35.1-168.6c3.1-15.1,6.3-30.2,9.4-45.3.5-2.3-.6-5-3.1-5.5l-15.6-3.3c1,1.8,2.1,3.7,3.1,5.5,1-5,2.1-10,3.1-14.9.5-2.3-.6-5-3.1-5.5-16.6-3.5-33.2-6.9-49.8-10.4,1,1.8,2.1,3.7,3.1,5.5.8-4,1.7-8.1,2.5-12.1.5-2.3-.6-5-3.1-5.5-11.3-2.4-22.7-4.7-34-7.1-5.7-1.2-8.1,7.5-2.4,8.7,11.3,2.4,22.7,4.7,34,7.1-1-1.8-2.1-3.7-3.1-5.5-.8,4-1.7,8.1-2.5,12.1-.5,2.3.6,5,3.1,5.5,16.6,3.5,33.2,6.9,49.8,10.4-1-1.8-2.1-3.7-3.1-5.5-1,5-2.1,10-3.1,14.9-.5,2.3.6,5,3.1,5.5l15.6,3.3c-1-1.8-2.1-3.7-3.1-5.5q-12.45,59.55-24.8,119.2-14,66.75-27.8,133.5c-4.1,19.6-8.2,39.3-12.3,58.9,1.8-1,3.7-2.1,5.5-3.1q-72.15-15-144.2-30.1c-6.9-1.4-13.8-2.9-20.7-4.3,1,1.8,2.1,3.7,3.1,5.5q10.2-48.9,20.4-97.7l35.1-168.6c3.1-15.1,6.3-30.2,9.4-45.3-1.8,1-3.7,2.1-5.5,3.1,4.7,1,9.4,2,14.1,2.9,2.3.5,5-.6,5.5-3.1,1-5,2.1-10,3.1-14.9-1.8,1-3.7,2.1-5.5,3.1,17.1,3.6,34.2,7.1,51.3,10.7,2.3.5,5-.6,5.5-3.1.8-4,1.7-8.1,2.5-12.1C976.19,474.55,967.59,472.15,966.39,477.75Z"/><rect class="cls-4" x="802.79" y="620.2" width="195.51" height="21.4" transform="translate(99.13 1383.73) rotate(-78.22)"/><path class="cls-3" d="M892.29,724.55c-7-1.5-14-2.9-21-4.4,1,1.8,2.1,3.7,3.1,5.5q6.75-32.25,13.4-64.5,10.8-51.6,21.5-103.3c1.6-7.9,3.3-15.7,4.9-23.6-1.8,1-3.7,2.1-5.5,3.1,7,1.5,14,2.9,21,4.4-1-1.8-2.1-3.7-3.1-5.5q-6.75,32.25-13.4,64.5-10.8,51.6-21.5,103.3c-1.6,7.9-3.3,15.7-4.9,23.6-1.2,5.7,7.5,8.1,8.7,2.4q6.75-32.25,13.4-64.5,10.8-51.6,21.5-103.3c1.6-7.9,3.3-15.7,4.9-23.6.5-2.3-.6-5-3.1-5.5-7-1.5-14-2.9-21-4.4-2.3-.5-5,.6-5.5,3.1q-6.75,32.25-13.4,64.5-10.8,51.6-21.5,103.3c-1.6,7.9-3.3,15.7-4.9,23.6-.5,2.3.6,5,3.1,5.5,7,1.5,14,2.9,21,4.4C895.49,734.35,897.89,725.75,892.29,724.55Z"/><rect class="cls-4" x="913.14" y="643.29" width="195.51" height="21.4" transform="translate(164.36 1510.13) rotate(-78.22)"/><path class="cls-3" d="M1002.59,747.55c-7-1.5-14-2.9-21-4.4,1,1.8,2.1,3.7,3.1,5.5q6.75-32.25,13.4-64.5,10.8-51.6,21.5-103.3c1.6-7.9,3.3-15.7,4.9-23.6-1.8,1-3.7,2.1-5.5,3.1,7,1.5,14,2.9,21,4.4-1-1.8-2.1-3.7-3.1-5.5q-6.75,32.25-13.4,64.5-10.8,51.6-21.5,103.3c-1.6,7.9-3.3,15.7-4.9,23.6-1.2,5.7,7.5,8.1,8.7,2.4q6.75-32.25,13.4-64.5,10.8-51.6,21.5-103.3c1.6-7.9,3.3-15.7,4.9-23.6.5-2.3-.6-5-3.1-5.5-7-1.5-14-2.9-21-4.4-2.3-.5-5,.6-5.5,3.1q-6.75,32.25-13.4,64.5-10.8,51.6-21.5,103.3c-1.6,7.9-3.3,15.7-4.9,23.6-.5,2.3.6,5,3.1,5.5,7,1.5,14,2.9,21,4.4C1005.89,757.45,1008.29,748.75,1002.59,747.55Z"/><rect class="cls-4" x="953.09" y="534.93" width="37.1" height="62.8" transform="translate(218.93 1401.93) rotate(-78.22)"/><path class="cls-3" d="M999.79,586.55c-20.5-4.3-41-8.5-61.5-12.8,1,1.8,2.1,3.7,3.1,5.5,2.5-12.1,5-24.2,7.6-36.3-1.8,1-3.7,2.1-5.5,3.1,20.5,4.3,41,8.5,61.5,12.8-1-1.8-2.1-3.7-3.1-5.5-2.5,12.1-5,24.2-7.6,36.3-1.2,5.7,7.5,8.1,8.7,2.4,2.5-12.1,5-24.2,7.6-36.3.5-2.3-.6-5-3.1-5.5-20.5-4.3-41-8.5-61.5-12.8-2.3-.5-5,.6-5.5,3.1-2.5,12.1-5,24.2-7.6,36.3-.5,2.3.6,5,3.1,5.5,20.5,4.3,41,8.5,61.5,12.8C1003,596.45,1005.39,587.75,999.79,586.55Z"/><rect class="cls-4" x="943.18" y="582.43" width="37.1" height="62.8" transform="translate(164.54 1430.04) rotate(-78.22)"/><path class="cls-3" d="M989.79,634c-20.5-4.3-41-8.5-61.5-12.8,1,1.8,2.1,3.7,3.1,5.5,2.5-12.1,5-24.2,7.6-36.3-1.8,1-3.7,2.1-5.5,3.1,20.5,4.3,41,8.5,61.5,12.8-1-1.8-2.1-3.7-3.1-5.5-2.5,12.1-5,24.2-7.6,36.3-1.2,5.7,7.5,8.1,8.7,2.4,2.5-12.1,5-24.2,7.6-36.3.5-2.3-.6-5-3.1-5.5-20.5-4.3-41-8.5-61.5-12.8-2.3-.5-5,.6-5.5,3.1-2.5,12.1-5,24.2-7.6,36.3-.5,2.3.6,5,3.1,5.5,20.5,4.3,41,8.5,61.5,12.8C993.09,643.95,995.49,635.25,989.79,634Z"/><rect class="cls-4" x="933.27" y="629.93" width="37.1" height="62.8" transform="translate(110.15 1458.15) rotate(-78.22)"/><path class="cls-3" d="M979.89,681.55c-20.5-4.3-41-8.5-61.5-12.8,1,1.8,2.1,3.7,3.1,5.5,2.5-12.1,5-24.2,7.6-36.3-1.8,1-3.7,2.1-5.5,3.1,20.5,4.3,41,8.5,61.5,12.8-1-1.8-2.1-3.7-3.1-5.5-2.5,12.1-5,24.2-7.6,36.3-1.2,5.7,7.5,8.1,8.7,2.4,2.5-12.1,5-24.2,7.6-36.3.5-2.3-.6-5-3.1-5.5-20.5-4.3-41-8.5-61.5-12.8-2.3-.5-5,.6-5.5,3.1-2.5,12.1-5,24.2-7.6,36.3-.5,2.3.6,5,3.1,5.5,20.5,4.3,41,8.5,61.5,12.8C983.19,691.45,985.59,682.75,979.89,681.55Z"/><rect class="cls-4" x="923.36" y="677.43" width="37.1" height="62.8" transform="translate(55.76 1486.25) rotate(-78.22)"/><path class="cls-3" d="M970,729c-20.5-4.3-41-8.5-61.5-12.8,1,1.8,2.1,3.7,3.1,5.5,2.5-12.1,5-24.2,7.6-36.3-1.8,1-3.7,2.1-5.5,3.1,20.5,4.3,41,8.5,61.5,12.8-1-1.8-2.1-3.7-3.1-5.5-2.5,12.1-5,24.2-7.6,36.3-1.2,5.7,7.5,8.1,8.7,2.4,2.5-12.1,5-24.2,7.6-36.3.5-2.3-.6-5-3.1-5.5-20.5-4.3-41-8.5-61.5-12.8-2.3-.5-5,.6-5.5,3.1-2.5,12.1-5,24.2-7.6,36.3-.5,2.3.6,5,3.1,5.5,20.5,4.3,41,8.5,61.5,12.8C973.29,738.95,975.69,730.25,970,729Z"/><g class="cls-5"><path class="cls-3" d="M1608.89,1048.45c-42.1-28.2-86.2-56-127-78.4-140-77-215-90.7-239.7-102s-80.7-22-80.7-22c-63.3-24-148-31.3-148-31.3l-24-3.3c-24.7-13.3-98-18-98-18-22,2.7-44-6-44-6-134.7-39.3-212.7,8.7-212.7,8.7a211.78,211.78,0,0,1-69.3,16c-38.7,2-72,25.3-72,25.3s-269.2,87.8-297.7,99.8c-17.9,7.6-169.8,144.3-279.8,244.6-313.5,254.7-523.5,634.7-550.2,1069.6-50.7,824.7,576.7,1534.3,1401.4,1585s1534.3-576.7,1585-1401.4C2388.09,1850.45,2083.19,1323.65,1608.89,1048.45Z"/><path class="cls-3" d="M1611.19,1044.55c-84.5-56.4-172.6-107.7-267.2-145.3-24.9-9.9-50.2-18.5-75.7-26.7-21.3-6.9-41.8-15.7-63.6-21.4-62.8-16.2-124.5-33.4-189.2-40.8-20.8-2.4-44.5-11.2-67.1-15-15.1-2.5-30.4-4.3-45.6-5.6-14.2-1.3-28.2.2-42.3-3.2-41.9-10.1-81.7-20.4-125.3-19-28.3.9-57,5.5-83.5,15.8-11.9,4.6-22.6,10.7-34.9,14.6-22.2,7.1-44.7,7.4-67.4,11.6-18.2,3.4-36,10.6-52,20-7.2,4.3-16.1,7.1-26.4,10.4-22.8,7.5-45.6,14.9-68.3,22.5-55.5,18.3-111,36.6-166.3,55.5-14.2,4.9-29.8,8.8-43.3,15.6-16.5,8.3-31.1,23.3-45,35.1-64.3,54.6-126.8,111.5-189.3,168.3-66.4,60.2-135.5,116.9-196.8,182.6a1509.89,1509.89,0,0,0-163.5,209.3A1495.36,1495.36,0,0,0-609.31,2033a1516.7,1516.7,0,0,0-18.4,515.2,1491.72,1491.72,0,0,0,138.5,454.2,1506.1,1506.1,0,0,0,638.7,663.3,1493.42,1493.42,0,0,0,451.3,155.7,1516.63,1516.63,0,0,0,489.9,4.6,1494.06,1494.06,0,0,0,449.1-145.4,1506.89,1506.89,0,0,0,653.1-649.4,1496.49,1496.49,0,0,0,148.8-456.9,1515.08,1515.08,0,0,0-9.8-519.8,1497.42,1497.42,0,0,0-185.6-482.7,1510.26,1510.26,0,0,0-331.4-385.4,1536.13,1536.13,0,0,0-203.7-141.9c-5-2.9-9.6,4.9-4.5,7.8a1497.49,1497.49,0,0,1,648.7,765.5,1488.61,1488.61,0,0,1,95.2,513.9,1503.9,1503.9,0,0,1-78.2,489.3,1490.05,1490.05,0,0,1-1438.6,1013.5c-162.6-2.9-324.6-32-477.8-86.8a1484.52,1484.52,0,0,1-410.3-225.2,1503.43,1503.43,0,0,1-316.8-335.8A1485,1485,0,0,1-631.51,2290c6.7-184.7,47.3-368.1,120.6-537.8A1494.06,1494.06,0,0,1-215.81,1309c60.7-63.1,128.5-118.4,193.4-177.1,60.3-54.6,120.6-109.6,182.9-162,12.3-10.4,25.1-23.4,40.1-29.9,16.2-6.9,33.5-11.9,50.1-17.6,55.1-18.8,110.4-37,165.7-55.2,29-9.6,61.4-16.2,88-31.4a152.34,152.34,0,0,1,64-19.7,224.38,224.38,0,0,0,58.4-12.3c10.4-3.7,19.9-9.3,30.3-13.2,28.9-10.6,60-14.8,90.8-14.5a345.41,345.41,0,0,1,73.7,8.9c17.9,4.1,35.5,11.3,53.9,12.8,27.9,2.2,55.1,2.5,83,8.3,12.4,2.6,23.9,8.5,36.2,10.2,7.6,1.1,15.2,2.2,22.8,3,34.5,3.8,68.8,9.4,102.4,18.1,15.5,4,30.5,10.2,46.1,13.8,15.3,3.5,30.6,6.6,45.8,10.8,19.4,5.4,37.9,13.6,57.1,19.8,26.3,8.5,52.4,17.5,78.1,27.9,91.9,37.2,177.6,87.4,259.9,142.3C1611.49,1055.55,1616,1047.75,1611.19,1044.55Z"/></g><path class="cls-3" d="M708.79,707.95s-7.8,10.1-4.7,22.5-14,47.3,2.3,58.9c0,0,42.6,3.1,47.3-.8s4.7-14,4.7-14-14.7-20.2-14-36.4a254.38,254.38,0,0,0-.8-32.6Z"/><path class="cls-3" d="M704.89,705.65c-5,6.7-6.9,16.1-5.5,24.3,1.4,7.6-.8,15.1-2.3,22.5-1.7,8.8-3.4,18.1-1.6,27,1.2,5.9,5,13.6,11.6,14.4a193.25,193.25,0,0,0,39.5.8c7.1-.6,11.8-2.2,14.5-9.5a26.93,26.93,0,0,0,1.8-10.1c-.2-2.2-1.1-3.3-2.3-5.1-5.6-8.5-11.2-18.7-11.7-29.1-.6-11.7.3-23.4-.8-35.2-.2-2.3-1.9-4.7-4.5-4.5-11.6.8-23.3,1.6-34.9,2.3-5.7.4-5.8,9.4,0,9,11.6-.8,23.3-1.6,34.9-2.3l-4.5-4.5a227.51,227.51,0,0,1,1,24.8c0,5.2-.5,10.3.4,15.5A58,58,0,0,0,745,760a98,98,0,0,0,5.5,10.7c.5.9,2.8,5.8,3.8,6-.8-.1.1-3.4-.6-.6-.3,1.5-.3,3-.7,4.5-.9,3.2-1.3,4.3-3.9,4.8-11.8,2.2-25.1.5-37-.1L707,785c-1.7-.2.9.2.9,0-.1-.8-2.5-3.4-3-4.4-2.8-7.1-1.1-16,.3-23.3,1.4-7.8,4-16,3.6-24-.2-5.3-1.7-9.8-.2-15.1a26.21,26.21,0,0,1,3.8-7.9C716.19,705.55,708.39,701,704.89,705.65Z"/><path class="cls-3" d="M655.29,531.95s3.1,40.3,15.5,47.3c0,0,10.9,7.8,17.8-44.2Z"/><path class="cls-3" d="M650.79,531.95a177.11,177.11,0,0,0,2.6,19.2c1.8,9.5,4.2,20.6,10.7,28.2s14.3,4.8,18.8-3.5c6.5-11.8,8.2-26.5,10-39.6.4-3.1-1.1-5.4-4.3-5.7-11.1-1-22.2-2.1-33.3-3.1-5.8-.5-5.7,8.5,0,9,11.1,1,22.2,2.1,33.3,3.1-1.4-1.9-2.9-3.8-4.3-5.7-1.6,11.4-3.2,23.3-7.5,34a39,39,0,0,1-3.1,5.9c-.3.3-1.7,1.8-.9,1-1.1,1-.3,0-.7.4,0,0,.5.2.3-.1,1.7,1.7-1.1-1.2-1.4-1.6-5.3-6-7-15.7-8.6-23.3a161.19,161.19,0,0,1-2.6-18.3C659.39,526.15,650.39,526.15,650.79,531.95Z"/><path class="cls-4" d="M643.69,399.35c-8.5,17.1-6.2,77.5-6.2,77.5s3.9,68.2,32.6,73.7,33.3-26.4,33.3-26.4l7.8,55.8c-3.1,18.6-7.8,124.8-7.8,124.8,22.5,30.2,54.3-.8,52.7-3.1,3.1-26.4-1.6-94,3.1-145,6.2-66.7,2.3-155.1,2.3-155.1C762.29,396.25,643.69,399.35,643.69,399.35Z"/><path class="cls-3" d="M639.79,397c-3.6,7.5-4.6,16.1-5.5,24.3-1.1,10.2-1.5,20.6-1.6,30.9-.1,9.5-.3,19,.5,28.5,1.4,15.3,4,31,9.5,45.4,6.3,16.4,17.3,31.5,36.8,29.4,15.3-1.6,25.9-15.5,28.1-30.1h-8.7c2.4,17.6,4.9,35.2,7.3,52.8.1.7,0,2.1.4,2.7.3.4.4-2.1-.1-1.4s-.3,2.2-.4,2.9c-.5,3.7-.8,7.4-1.1,11.2-1,11.5-1.7,23-2.4,34.6-1.4,22.8-2.5,45.6-3.5,68.5-.1,2.4-.3,4.8-.3,7.2,0,4.5,4.3,8.2,7.5,10.9,11.2,9.5,25.6,9.5,38.2,3a47.36,47.36,0,0,0,12.5-9.3c3-3.3,3.1-5.8,3.7-9.1,1-6,.7-12.5.8-18.6.1-8,.1-16.1,0-24.1-.1-19.3-.4-38.5-.1-57.8s2-38.3,3.3-57.4c2.4-35.6,2.7-71.3,2-106.9-.2-9.9-.4-19.9-.8-29.8-.2-4.6-1.2-7.6-6.2-8.7-7.1-1.6-14.9-1.5-22.1-1.7q-16.95-.45-33.9-.3c-19,.1-37.9.3-56.9.8-1.1,0-2.2.1-3.4.1-5.8.2-5.8,9.2,0,9,34.3-.9,68.9-2,103.1-.2l5,.3c1.1.1,3.8.4,3.8.4,1,.1,2,.4,2.9.5s.4.3.5.1c-.1.4-3.2-3.1-2-3.4-.4.1.5,15.4.6,16.3.9,31,1,62.1-.1,93.1-.6,18.3-2.2,36.5-3.5,54.7-1.3,18.6-1.5,37.2-1.5,55.8,0,17.2.3,34.3.3,51.5,0,6.7-.1,13.4-.5,20.1-.1,2.5-.4,5.1-.6,7.6-.2,4,.6-.4.3-.5.1.1-.9,1.2-.8,1.2-7.1,7.2-17.4,13.3-27.9,11.6a22.54,22.54,0,0,1-9.3-3.9c-1.6-1.1-2.8-2.9-4.4-4-.5-.3-2-1.3-1.7-.7-.5-1.1.2-3.7.2-4.9.9-20.4,1.9-40.9,3.1-61.3.7-11.9,1.4-23.8,2.2-35.7.5-7.3,1.8-15.8,2.1-22.2.3-6.6-1.8-14-2.7-20.5-1.4-10.4-2.9-20.9-4.3-31.3-.3-1.9-.5-3.9-.8-5.8-.6-4.3-8-4.3-8.7,0-1.5,9.8-7.4,20.6-17.6,23.1-17.1,4.2-26.2-11.5-31-25.2-7.2-20.6-8.8-42-8.8-63.5,0-10.4.3-20.7,1.2-31.1.7-8,1.2-17.3,4.7-24.7C650.09,396.45,642.29,391.85,639.79,397Z"/><line class="cls-1" x1="701.39" y1="467.25" x2="703.39" y2="524.15"/><path class="cls-3" d="M696.89,467.25c.7,19,1.3,37.9,2,56.9.2,5.8,9.2,5.8,9,0-.7-19-1.3-37.9-2-56.9-.2-5.8-9.2-5.8-9,0Z"/><path class="cls-2" d="M536.49,44.15s-23-12.3-15.8-28.1c0,0,5.5-18.6,22.3-8.8s10.7,31.7,10.7,31.7Z"/><path class="cls-3" d="M538.79,40.25c-5.2-2.8-10.5-7-13.3-12.2-3-5.5-1.1-11.9,2.4-16.1,6.7-8,18,1.2,20.8,8.5a29.16,29.16,0,0,1,.6,17.3l3.1-3.1c-5.7,1.7-11.5,3.4-17.2,5.2-5.5,1.7-3.2,10.4,2.4,8.7,4-1.2,7.9-2.4,11.9-3.6,3.2-1,7.2-1.4,8.5-4.9,2.9-8,1.3-19.2-2.7-26.5-5.8-10.4-20.9-18.4-31.4-10.1-6.1,4.8-10.1,14.2-8.9,21.8,1.6,10,10.6,18.2,19.2,22.8C539.29,50.85,543.89,43,538.79,40.25Z"/><path class="cls-2" d="M842.89,41s-3.9-25.8,13-29.5c0,0,18.2-6.8,20.4,12.6s-19,27.6-19,27.6Z"/><path class="cls-3" d="M847.19,39.85c.3,2,0-.2-.1-.8-.1-1.4-.2-2.9-.2-4.3a29.91,29.91,0,0,1,1.9-11.5c2.3-5.6,8.1-8.3,13.9-8.3,10.4.1,10.8,13.8,6.9,20.8a25.56,25.56,0,0,1-8.7,8.9c-1.3.8-2.6,1.5-3.9,2.3a9.23,9.23,0,1,0-1,.5c1.2.2,2.3.3,3.5.5-4.8-3.6-9.6-7.1-14.5-10.7-4.7-3.4-9.2,4.4-4.5,7.8,3.4,2.6,6.9,5.1,10.3,7.7,3.1,2.3,5.2,4.5,9.1,2.8,8.8-3.6,16.9-11.4,19.7-20.6,3.6-11.7-1.1-27.1-14.6-28.7-7.8-.9-16.9,2-21.7,8.3-5.8,7.7-6.4,18.6-5,27.8C839.39,48,848.09,45.55,847.19,39.85Z"/><path class="cls-4" d="M663.39,194.75s-88.7-153.3-98-160.7-36,9.7-36,20.7c0,1.3,84,150,106,203.3l2.7,48.7,2.7,100.7s85.3,22.7,124.7-.7l6.7-93.3,5.3-68.7s78.7-165.3,91.3-188c0,0-20-26-38-19.3l-90.7,156.7Z"/><path class="cls-3" d="M667.29,192.55c-19.3-33.3-38.8-66.6-58.6-99.6-10.9-18.1-21.6-36.3-33.6-53.7-3.6-5.3-6.9-10.6-13.9-11.3-12.4-1.2-28.2,8.8-34.1,19.5-3.5,6.2-1.6,9.8,1.3,15.2,4,7.3,8,14.6,12,22,13.5,24.6,27,49.2,40.2,74,13.8,25.9,27.6,51.9,40.3,78.4,2.4,5.1,4.8,10.2,7.1,15.4.9,2,1.8,4,2.6,6.1.4.9.1-.8.3.2a13.41,13.41,0,0,1,.1,2l1.8,33.3c2,36.3,2.3,72.7,3.3,109,0,1.5.1,3,.1,4.5a4.62,4.62,0,0,0,3.3,4.3,330.88,330.88,0,0,0,45.3,8.2c24.9,2.9,52.8,4.2,76.3-6,3.8-1.6,8.2-3.1,8.8-7.5.2-1.7.3-3.5.4-5.3.6-8,1.1-16,1.7-24.1,1.3-18.8,2.7-37.7,4-56.5.7-10.1,1.5-20.2,2.3-30.3l2.4-30.9c.3-3.6.6-7.2.8-10.8a13.21,13.21,0,0,0,.2-2.8c-.1-2.4.3,1.1-.5,1.2.8-.1,3-6.3,3.3-7,2.8-5.8,5.5-11.5,8.3-17.3,8.7-18.2,17.4-36.3,26.1-54.5,16.7-34.7,33-69.7,50.8-103.9.9-1.8,1.9-3.6,2.9-5.3,1.1-1.9.6-3.8-.7-5.5a69.32,69.32,0,0,0-18.7-16.7c-6.4-3.8-20.9-9.1-26.5-1.4-5.9,8.1-10.3,17.8-15.3,26.5q-29.7,51.15-59.3,102.4c-5.3,9.2-10.6,18.3-15.9,27.5,1.3-.7,2.6-1.5,3.9-2.2-25.6.2-51.1.4-76.7.7-5.8.1-5.8,9.1,0,9,18.8-.2,37.7-.3,56.5-.5,6.5-.1,13.7.7,20.2-.2,4.1-.5,5.7-5.4,7.6-8.6q32.7-56.55,65.5-113.2c7.2-12.4,14.3-24.7,21.5-37.1l-2.7,2.1c12.9-4.3,26.3,8.8,33.6,18.2-.2-1.8-.5-3.6-.7-5.5-12.4,22.2-22.9,45.5-34,68.4q-22.2,45.75-44,91.5c-4.1,8.5-8.1,17-12.2,25.5-2.6,5.5-2.4,11.5-2.8,17.5-1.7,21.6-3.4,43.1-5,64.7-2,27.5-3.9,55.1-5.9,82.6,0,.7-.1,1.4-.1,2.1.7-1.3,1.5-2.6,2.2-3.9-17.1,9.9-38.5,10.5-57.7,9.7a313.2,313.2,0,0,1-52.7-7c-3.6-.8-7.2-1.6-10.8-2.5,1.1,1.4,2.2,2.9,3.3,4.3-.9-33.6-1.3-67.2-2.7-100.8-.4-9.1-1-18.1-1.5-27.2l-.9-16.5c-.2-3.1-.2-5.6-1.5-8.5-9.8-23.3-21.6-45.9-33.3-68.3-22.7-43.6-46.7-86.4-70-129.6-.2-.4-1.5-3.7-2-3.8,1.2.3-.6,2.5.7,1.1.5-.6.8-1.9,1.3-2.7a28.57,28.57,0,0,1,7.1-7.2c4.6-3.4,12.1-8.2,18.2-7.1,1.6.3,1.6.3,2.4,1.1a9.36,9.36,0,0,1,1.3,1.5c11,14.3,19.9,30.4,29.2,45.7,22,36.3,43.5,72.9,64.8,109.6.4.7.9,1.5,1.3,2.2C662.39,202,670.19,197.55,667.29,192.55Z"/><path class="cls-2" d="M683.29,176.25l1.7,22s30.2,1.4,30.2,0v-24.4S683.29,176.55,683.29,176.25Z"/><path class="cls-3" d="M678.79,176.25c.6,7.3,1.1,14.6,1.7,22a4.61,4.61,0,0,0,4.5,4.5c4.7.2,9.4.4,14.1.5,5.2.1,11.7,1.1,16.8-.4,5.3-1.6,3.8-8.5,3.8-12.8v-16.2c0-2.3-2.1-4.7-4.5-4.5-5.2.4-10.3.9-15.5,1.3-3.6.3-7.3.6-10.9.8-1.2.1-2.4.1-3.5.2-1.8.2-2.7-.6.2.7-5.3-2.3-9.8,5.5-4.5,7.8,4.7,2.1,12.3,0,17.3-.4,5.6-.5,11.3-.9,16.9-1.4l-4.5-4.5v22a7.38,7.38,0,0,0,0,2.1c.6,1.4,3.9-3.1,2.7-3.7.4.2.3.1-.3,0-5.2-.7-11.1.1-16.4,0-3.9-.1-7.8-.3-11.7-.4l4.5,4.5c-.6-7.3-1.1-14.6-1.7-22C687.29,170.45,678.29,170.45,678.79,176.25Z"/><path class="cls-2" d="M742.49,127.25c0-8.3-4.4-8.9-5.4-9,0-1.9-.1-3.8-.2-5.8,0,0,3-40.4-43.3-38.6-45.8,1.8-39.1,43.1-39.1,43.1v1.4c-1.2.1-5.2.9-5.2,9a14.54,14.54,0,0,0,7.5,13s4.7,42.3,42.1,42.3c0,0,31.5,2.5,37.3-43.2A14.88,14.88,0,0,0,742.49,127.25Z"/><path class="cls-3" d="M747,127.25c-.2-6.3-2.8-13-9.9-13.5l4.5,4.5c-.2-6.6-.1-13.3-1.9-19.8-2.9-10.4-9.6-19.4-19.4-24.2-24-11.8-60.7-4.3-68.8,23.7a48.55,48.55,0,0,0-1.9,13.6c0,1.4.1,2.7.2,4.1,0,.4.1.7.1,1.1.3,3.7,0-1.4,0,1.6l4.5-4.5c-15.3,1.6-10.5,25.1,0,30.4-.7-1.3-1.5-2.6-2.2-3.9,1.8,15.8,10,32.4,23.8,40.8,13.5,8.2,31.8,8.3,44.6-1.1,12.5-9.2,17.8-24.5,19.8-39.3l-2.1,2.7a20.48,20.48,0,0,0,8.7-16.2c.3-5.8-8.7-5.8-9,0-.2,4.1-2,5.9-4.6,8.7-2.9,3.1-2.7,9.3-3.7,13.4-1.8,6.7-4.6,13.4-9.3,18.7a30.64,30.64,0,0,1-11.1,8.1,44.19,44.19,0,0,1-4.8,1.5,15.58,15.58,0,0,1-3.3.5c-21.4,1-34.9-14.8-39.3-34.4-.3-1.3-.5-2.5-.7-3.8-.2-1.1.2.9,0,.4-.5-1.8-.8-2.7-2.3-3.9-1.9-1.6-3.5-2.6-4.5-5.1a11.45,11.45,0,0,1-.4-7.1c.4-1.2,1-1.5.3-1.4a4.61,4.61,0,0,0,4.5-4.5c0-1.1-.3-3.7-.1-1.9a24.52,24.52,0,0,1-.2-2.7,56.23,56.23,0,0,1,.3-8.2c1.3-8.7,5.6-16.7,13.2-21.5,11.5-7.1,28.5-7.8,41-3.1a28.62,28.62,0,0,1,17.5,18.7c1.9,6.2,1.7,12,1.9,18.6a4.61,4.61,0,0,0,4.5,4.5c-1-.1-.1-.2.1.3a9.84,9.84,0,0,1,.8,4.2C738.19,132.95,747.19,133,747,127.25Z"/><circle class="cls-3" cx="676.29" cy="130.85" r="3.6"/><circle class="cls-3" cx="714.09" cy="130.85" r="3.6"/><path class="cls-2" d="M681.59,83.15s-1.3,27.7,10,30.8c0,0,2.1-1.2,2.1-7.3,0,0,11.3,12.7,31.9,9.4,0,0,9,1.6,13.4.7,0,0,5.2.2,5.4,9.4s-6.4,12.8-6.4,12.8l-.6,9.5s1,5.2,7.5-6.6,15.2-61.2-19-77.2c-32.7-15.3-75.7-6-78.5,50.6,0,0,.6,30.2,12.6,34.8l-1.3-10.3s-7.7-4.9-7.5-13.6,5.2-9.4,5.2-9.4,2.3,7.7,4.6-.7c0,0,8.2,7.7,11.1-5.4S681.59,83.15,681.59,83.15Z"/><path class="cls-3" d="M677.09,83.15c-.4,8.2.3,17.3,3.4,24.9,1.7,4.3,5,9.2,9.9,10.2,6.3,1.2,7.6-7.2,7.8-11.6-2.6,1.1-5.1,2.1-7.7,3.2,7.9,8.7,21.4,12.2,32.7,11,.3,0,3.3-.5,1.4-.5a3.55,3.55,0,0,1,1,.2c1.7.1,3.4.5,5.1.7a41.93,41.93,0,0,0,5,.3,13.82,13.82,0,0,0,3.5-.3c-1.1.2-1.1-.7-.6,0,3,3.9.7,10.5-2.8,13.7-4,3.7-5.5,21.5,4.3,18.9,5.2-1.4,8.4-8.6,10.2-13.1a62.92,62.92,0,0,0,3.7-14c2.1-12.9,2.1-26.7-2.4-39.1-4.9-13.8-14.8-23.5-28.3-28.9-24.1-9.6-52.9-5.7-68.5,16.4-8.4,11.9-12.8,28.6-11.8,43.1.7,11.4,2.5,30.4,14.6,35.7,2.7,1.2,7.2-.1,6.8-3.9-.6-4.7-.1-11.1-3.8-14.4-1.8-1.6-4.6-4.7-5-8.1-.2-2.1.5-6.2,1.8-6.5-1.8-1-3.7-2.1-5.5-3.1.8,2.6,2.2,5.4,5,6.3,4.8,1.5,7.2-3.3,8.3-7-2.5.7-5,1.3-7.5,2,5.2,4.8,12.8,4.8,16.6-1.8,3.3-5.9,4-13.7,6.3-20,1.4-4,3-8,4.8-11.9,2.4-5.2-5.3-9.8-7.8-4.5a145.24,145.24,0,0,0-8,21.1c-.6,2-1.9,11.3-3.6,11.8-.5.1-.9-.4-1.3-.5-1-.3-.1,0-.6-.4a4.55,4.55,0,0,0-7.5,2c-1.4,2.6,0,3.2,4.3,1.5.1-.1.1-.2-.1-.3,0-.3-.1-.1-.2-.5a4.55,4.55,0,0,0-5.5-3.1c-6.5,1.2-8.7,9.6-8.5,15.1.3,6.5,4.3,12.6,9.7,16.1-.7-1.3-1.5-2.6-2.2-3.9.4,3.4.9,6.9,1.3,10.3,2.3-1.3,4.5-2.6,6.8-3.9-6.8-3-8.3-13.4-9.3-19.9a65.06,65.06,0,0,1-.4-18.7c2.4-18.2,11.3-36.4,29.8-42.6,14.9-5,33.4-2.2,46.6,6.5,15.4,10.1,18.6,30.1,17.2,47.1-.6,6.7-1.8,14.2-4.6,20.2-.9,1.9-3.7,4.5-4,6.4l-.5.5c1.5-1.1,3-.7,4.6,1.1.1.1.6,1.4.4,1.6,1-.7.5-8,.6-9.4-.7,1.3-1.5,2.6-2.2,3.9,6.7-3.8,9.3-12.2,8.3-19.5s-5.3-11.1-12.4-10.8c-3.4.1-6.7-.7-10-.9-5.7-.4-10.8.8-16.4-.8-4.7-1.3-9.6-3.7-12.9-7.4-2.7-3-7.6-.5-7.7,3.2,0,.6-.7,3.4-.6,4,0,.2-.1,0,.7-.6,1.2-.2,2.3-.3,3.5-.5-4.9-1.6-5.8-10.4-6.3-14.6a77.68,77.68,0,0,1-.5-11.8C686.39,77.35,677.39,77.35,677.09,83.15Z"/><path class="cls-2" d="M740.09,194.15c-1.3,2.7-34.7,118-42,126.7S662.49,193,662.49,193Z"/><path class="cls-3" d="M736.19,191.85c-2.1,4.6-3.2,9.8-4.7,14.6-3.1,10.2-6.2,20.5-9.3,30.7-7,22.9-13.9,45.9-22.2,68.3-1.2,3.2-2.4,6.4-3.7,9.1-.4,1-1.1,1.9-1.5,2.9s-.4.1-.1.2c-.1,0,1.7-.9,1.5-.9a6.66,6.66,0,0,1,2.7.3c.7.3.7.9,0-.3s-1.1-2.1-1.6-3.2c-1-2.2-2.4-6.4-3.4-9.4-6.8-21.1-11.7-42.9-16.7-64.4-3.7-15.9-7.2-31.9-10.5-47.8-1.4,1.9-2.9,3.8-4.3,5.7,25.9.4,51.7.7,77.6,1.1,5.8.1,5.8-8.9,0-9-25.9-.4-51.7-.7-77.6-1.1a4.53,4.53,0,0,0-4.3,5.7c7.7,37.1,15.3,74.8,26.8,111,1.8,5.8,3.6,13.8,7.9,18.4,5.2,5.4,9.5-.4,11.6-5.1,9.2-20.5,15.2-42.6,21.8-64,4.1-13.2,8.1-26.4,12.1-39.6,1.4-4.5,2.7-9,4.1-13.5.4-1.4.9-2.7,1.3-4.1.2-.6,1.2-2.9.2-.9C746.39,191.15,738.59,186.55,736.19,191.85Z"/><path class="cls-6" d="M717.39,190.25l-19.6,8.5,12.7,15.8,24.8-19.9C735.19,194.65,718.69,187.35,717.39,190.25Z"/><path class="cls-7" d="M715.09,186.35c-6.5,2.8-13.1,5.7-19.6,8.5-2.9,1.3-2.5,5.1-.9,7.1,4.2,5.3,8.4,10.5,12.7,15.8,1.6,2,4.6,1.4,6.4,0,8.3-6.6,16.5-13.3,24.8-19.9,2.1-1.7,1.6-6-.9-7.1-6-2.6-18.9-9.7-24-2.8-3.4,4.7,4.4,9.2,7.8,4.5-4.5,6.1-3,.7-1.8,1.6a10.27,10.27,0,0,0,2.4.5,41.61,41.61,0,0,1,5,1.6c2,.7,4.7,1.8,6,2.3-.3-2.4-.6-4.7-.9-7.1-8.3,6.6-16.5,13.3-24.8,19.9h6.4c-4.2-5.3-8.4-10.5-12.7-15.8-.3,2.4-.6,4.7-.9,7.1,6.5-2.8,13.1-5.7,19.6-8.5C724.89,191.85,720.39,184,715.09,186.35Z"/><path class="cls-6" d="M678.09,188.45c1.2.5,19.6,10.3,19.6,10.3l-12.1,14.7-19.9-17.3S675.49,187.35,678.09,188.45Z"/><path class="cls-7" d="M675.79,192.35c6.7,3,13.2,6.9,19.6,10.3-.3-2.4-.6-4.7-.9-7.1-4,4.9-8.1,9.8-12.1,14.7h6.4c-6.6-5.8-13.3-11.5-19.9-17.3v6.4c1.2-1,2.4-2.1,3.6-3a37.11,37.11,0,0,1,3.2-2.3c.8-.5,2.8-1,1.2-1.3,5.7,1.1,8.1-7.6,2.4-8.7-6.2-1.2-12.5,5.1-16.8,8.9a4.56,4.56,0,0,0,0,6.4c6.6,5.8,13.3,11.5,19.9,17.3,1.7,1.5,4.7,2,6.4,0,4-4.9,8.1-9.8,12.1-14.7,1.8-2.1,1.9-5.6-.9-7.1-6.5-3.5-12.9-7.4-19.6-10.3C675.09,182.25,670.49,189.95,675.79,192.35Z"/><path class="cls-7" d="M695.29,205.15l-9.7,8.4s.9,13.9,4.7,18.1c0,0-12.8,44.2-6.5,57.8l14.3,31.4,13.2-30.4s-5.8-48.8-9.2-58.5l7-19L701,202Z"/></svg>