<svg xmlns="http://www.w3.org/2000/svg" viewBox="0 0 888.22 489.96"><defs><style>.cls-1{fill:#fff;}.cls-2{fill:#ff4867;}.cls-3{fill:none;}.cls-4{fill:#ff7694;}</style></defs><title>アセット 1</title><g id="レイヤー_2" data-name="レイヤー 2"><g id="レイヤー_1-2" data-name="レイヤー 1"><polygon class="cls-1" points="376.51 3.5 370.51 205.4 515.81 205.4 515.81 3.5 376.51 3.5"/><path class="cls-2" d="M373,3.5c-.7,22.7-1.3,45.3-2,68q-1.65,54.45-3.2,109c-.2,8.3-.5,16.6-.7,24.9a3.48,3.48,0,0,0,3.5,3.5h145.3a3.54,3.54,0,0,0,3.5-3.5V3.5a3.54,3.54,0,0,0-3.5-3.5H376.61c-4.4,0-4.4,6.9,0,6.9h139.3c-1.1-1.2-2.3-2.3-3.5-3.4V205.4c1.2-1.1,2.3-2.3,3.5-3.4H370.61c1.1,1.1,2.3,2.3,3.5,3.4.7-22.7,1.3-45.3,2-68q1.65-54.45,3.2-109c.2-8.3.5-16.6.7-24.9C380.11-.9,373.21-.9,373,3.5Z"/><polygon class="cls-1" points="116.31 107.7 129.21 430 196.11 456.6 321.11 441.3 325.11 111.7 183.21 81.1 116.31 107.7"/><path class="cls-2" d="M112.91,107.7c1.5,36.4,2.9,72.7,4.4,109.1l6.9,173.7c.5,13.2,1.1,26.4,1.6,39.6a3.68,3.68,0,0,0,2.5,3.3c12.4,4.9,24.8,9.8,37.2,14.8,7.7,3.1,15.4,6.1,23.1,9.2,2.5,1,5.3,2.7,8,2.7,3.8,0,7.9-1,11.7-1.4,7.5-.9,15-1.8,22.4-2.8,18.6-2.3,37.1-4.6,55.7-6.8l34.6-4.2a3.61,3.61,0,0,0,3.5-3.5c.5-37.1.9-74.2,1.4-111.3q1.05-88.8,2.2-177.5c.2-13.6.3-27.3.5-40.9a3.54,3.54,0,0,0-2.5-3.3c-29.8-6.4-59.5-12.9-89.3-19.3-15.7-3.4-31.3-6.8-47-10.1-2.4-.5-5.3-1.6-7.7-1.1-5.7,1.2-11.7,4.6-17.1,6.8-16.5,6.6-33,13.1-49.6,19.7-4.1,1.6-2.3,8.3,1.8,6.7,14.1-5.6,28.1-11.2,42.2-16.8,7.3-2.9,14.7-5.8,22-8.8a9.17,9.17,0,0,0,2.3-.9c.7-.8-1.1,0-1.3-.1.6.5,2.5.5,3.2.7l102.7,22.2c11.9,2.6,23.8,5.1,35.8,7.7-.8-1.1-1.7-2.2-2.5-3.3-.5,37.1-.9,74.2-1.4,111.3q-1.05,88.8-2.2,177.5c-.2,13.6-.3,27.3-.5,40.9L321,438l-82.9,10.2-39.5,4.8a21.31,21.31,0,0,1-2.5.3c2,0-1.4-.8-2.2-1.1-6.8-2.7-13.5-5.4-20.3-8.1-14.5-5.8-29-11.5-43.5-17.3.8,1.1,1.7,2.2,2.5,3.3-1.5-36.4-2.9-72.7-4.4-109.1l-6.9-173.7c-.5-13.2-1.1-26.4-1.6-39.6C119.61,103.2,112.71,103.2,112.91,107.7Z"/><polygon class="cls-1" points="344.41 55.3 335.61 438.1 550.81 438.1 550.81 55.3 344.41 55.3"/><path class="cls-2" d="M341,55.3c-.3,12.6-.6,25.3-.9,37.9-.7,30.5-1.4,61.1-2.1,91.6-.9,36.8-1.7,73.6-2.6,110.4-.7,32-1.5,63.9-2.2,95.9-.2,10.5-.5,21-.7,31.5-.1,4.9-.6,10-.3,15v.7a3.54,3.54,0,0,0,3.5,3.5h215.2a3.54,3.54,0,0,0,3.5-3.5V71c0-4.9.4-10,0-15v-.7a3.46,3.46,0,0,0-3.5-3.4H344.61c-4.4,0-4.4,6.9,0,6.9h206.3c-1.1-1.1-2.3-2.3-3.5-3.4V432.5c0,1.5-.4,3.7,0,5.2v.7c1.2-1.1,2.3-2.3,3.5-3.4H335.71c1.1,1.1,2.3,2.3,3.5,3.4.3-12.6.6-25.3.9-37.9.7-30.5,1.4-61.1,2.1-91.6.9-36.8,1.7-73.6,2.6-110.4.7-32,1.5-63.9,2.2-95.9.2-10.5.5-21,.7-31.5.1-4.9.6-10,.3-15v-.7C348,50.8,341.11,50.8,341,55.3Z"/><line class="cls-3" x1="183.21" y1="81.1" x2="196.11" y2="456.6"/><path class="cls-2" d="M179.81,81.1c.4,12.4.9,24.9,1.3,37.3,1,29.9,2.1,59.7,3.1,89.6,1.2,36.1,2.5,72.3,3.7,108.4,1.1,31.3,2.1,62.6,3.2,93.8.5,15.2.1,30.7,1.6,45.8v.6c.2,4.4,7.1,4.4,6.9,0-.4-12.4-.9-24.9-1.3-37.3-1-29.9-2.1-59.7-3.1-89.6-1.2-36.1-2.5-72.3-3.7-108.4-1.1-31.3-2.1-62.6-3.2-93.8-.5-15.2-.1-30.7-1.6-45.8v-.6c-.2-4.5-7.1-4.5-6.9,0Z"/><polygon class="cls-1" points="772.11 107.7 759.21 430 692.31 456.6 567.31 441.3 563.31 111.7 705.21 81.1 772.11 107.7"/><path class="cls-2" d="M768.61,107.7c-1.5,36.4-2.9,72.7-4.4,109.1l-6.9,173.7c-.5,13.2-1.1,26.4-1.6,39.6.8-1.1,1.7-2.2,2.5-3.3-12.4,4.9-24.8,9.8-37.2,14.8-7.6,3-15.2,6.1-22.8,9.1-2,.8-4.1,1.6-6.1,2.4-1.5.7.9.3-.6.1-30-3.9-60-7.4-90-11l-34.2-4.2c1.1,1.2,2.3,2.3,3.5,3.5-.5-37.1-.9-74.2-1.4-111.3q-1.05-88.8-2.2-177.5c-.2-13.6-.3-27.3-.5-40.9-.8,1.1-1.7,2.2-2.5,3.3,29.4-6.4,58.9-12.7,88.3-19.1l47.1-10.2c1.7-.4,3.5-.6,5.2-1.1.2-.1.9-.1,1.1-.2-.1.1-1.9-.6-1.2.1,1,1.2,4.8,1.9,6.2,2.5,3.7,1.5,7.4,3,11.2,4.4q24.6,9.75,49.1,19.5c4.1,1.6,5.9-5,1.8-6.7-14.2-5.7-28.4-11.3-42.6-17-7.3-2.9-14.6-5.8-22-8.7a10.22,10.22,0,0,0-6.9-.3l-102.9,22.2-36.2,7.8a3.31,3.31,0,0,0-2.5,3.3c.5,37.1.9,74.2,1.4,111.3q1.05,88.8,2.2,177.5c.2,13.6.3,27.3.5,40.9,0,2,1.6,3.2,3.5,3.5l83.4,10.2,39.4,4.8c2.4.3,3.6-.1,5.9-1,6.7-2.7,13.4-5.3,20-8,14.7-5.8,29.3-11.7,44-17.5a3.51,3.51,0,0,0,2.5-3.3c1.5-36.4,2.9-72.7,4.4-109.1L774,147.2c.5-13.2,1.1-26.4,1.6-39.6C775.71,103.2,768.81,103.2,768.61,107.7Z"/><line class="cls-3" x1="705.21" y1="81.1" x2="692.31" y2="456.6"/><path class="cls-2" d="M701.71,81.1c-.4,12.4-.9,24.9-1.3,37.3-1,29.9-2.1,59.7-3.1,89.6-1.2,36.1-2.5,72.3-3.7,108.4-1.1,31.3-2.1,62.6-3.2,93.8-.4,10.3-.7,20.7-1.1,31-.2,4.9-.8,10-.5,14.9v.6c-.2,4.4,6.7,4.4,6.9,0,.4-12.4.9-24.9,1.3-37.3,1-29.9,2.1-59.7,3.1-89.6,1.2-36.1,2.5-72.3,3.7-108.4,1.1-31.3,2.1-62.6,3.2-93.8.4-10.3.7-20.7,1.1-31,.2-4.9.8-10,.5-14.9v-.6c.2-4.5-6.7-4.5-6.9,0Z"/><rect class="cls-4" x="374.11" y="96.3" width="46.7" height="52.1"/><path class="cls-2" d="M420.81,145h-46.7l3.4,3.4V96.3l-3.4,3.4h46.7c-1.2-1.1-2.3-2.3-3.5-3.4v52.1c0,4.4,6.9,4.4,6.9,0V96.3a3.44,3.44,0,0,0-3.4-3.4h-46.7a3.52,3.52,0,0,0-3.5,3.4v52.1a3.54,3.54,0,0,0,3.5,3.5h46.7C425.31,151.9,425.31,145,420.81,145Z"/><rect class="cls-4" x="420.81" y="96.3" width="46.7" height="52.1"/><path class="cls-2" d="M467.61,145h-46.7l3.4,3.4V96.3l-3.4,3.4h46.7l-3.4-3.4v52.1c0,4.4,6.9,4.4,6.9,0V96.3a3.46,3.46,0,0,0-3.5-3.4h-46.7a3.52,3.52,0,0,0-3.5,3.4v52.1a3.54,3.54,0,0,0,3.5,3.5h46.7C472,151.9,472,145,467.61,145Z"/><rect class="cls-4" x="467.61" y="96.3" width="46.7" height="52.1"/><path class="cls-2" d="M514.31,145h-46.7c1.2,1.1,2.3,2.3,3.5,3.4V96.3c-1.1,1.1-2.3,2.3-3.5,3.4h46.7l-3.4-3.4v52.1c0,4.4,6.9,4.4,6.9,0V96.3a3.46,3.46,0,0,0-3.5-3.4h-46.7a3.44,3.44,0,0,0-3.4,3.4v52.1a3.52,3.52,0,0,0,3.4,3.5h46.7C518.81,151.9,518.81,145,514.31,145Z"/><rect class="cls-4" x="374.11" y="179.3" width="46.7" height="52.1"/><path class="cls-2" d="M420.81,228h-46.7c1.1,1.2,2.3,2.3,3.4,3.5V179.4c-1.1,1.2-2.3,2.3-3.4,3.5h46.7c-1.2-1.1-2.3-2.3-3.5-3.5v52.1c0,4.4,6.9,4.4,6.9,0V179.4a3.44,3.44,0,0,0-3.4-3.4h-46.7a3.52,3.52,0,0,0-3.5,3.4v52.1a3.54,3.54,0,0,0,3.5,3.5h46.7C425.31,234.9,425.31,228,420.81,228Z"/><rect class="cls-4" x="420.81" y="179.3" width="46.7" height="52.1"/><path class="cls-2" d="M467.61,228h-46.7c1.1,1.2,2.3,2.3,3.4,3.5V179.4c-1.1,1.2-2.3,2.3-3.4,3.5h46.7c-1.1-1.1-2.3-2.3-3.4-3.5v52.1c0,4.4,6.9,4.4,6.9,0V179.4a3.46,3.46,0,0,0-3.5-3.4h-46.7a3.52,3.52,0,0,0-3.5,3.4v52.1a3.54,3.54,0,0,0,3.5,3.5h46.7C472,234.9,472,228,467.61,228Z"/><rect class="cls-4" x="467.61" y="179.3" width="46.7" height="52.1"/><path class="cls-2" d="M514.31,228h-46.7l3.5,3.5V179.4c-1.1,1.2-2.3,2.3-3.5,3.5h46.7c-1.1-1.1-2.3-2.3-3.4-3.5v52.1c0,4.4,6.9,4.4,6.9,0V179.4a3.46,3.46,0,0,0-3.5-3.4h-46.7a3.44,3.44,0,0,0-3.4,3.4v52.1a3.52,3.52,0,0,0,3.4,3.5h46.7C518.81,234.9,518.81,228,514.31,228Z"/><rect class="cls-4" x="374.11" y="262.4" width="46.7" height="52.1"/><path class="cls-2" d="M420.81,311h-46.7l3.4,3.4V262.3c-1.1,1.1-2.3,2.3-3.4,3.5h46.7l-3.5-3.5v52.1c0,4.4,6.9,4.4,6.9,0V262.3a3.52,3.52,0,0,0-3.4-3.5h-46.7a3.54,3.54,0,0,0-3.5,3.5v52.1a3.54,3.54,0,0,0,3.5,3.5h46.7C425.31,317.9,425.31,311,420.81,311Z"/><rect class="cls-4" x="420.81" y="262.4" width="46.7" height="52.1"/><path class="cls-2" d="M467.61,311h-46.7l3.4,3.4V262.3c-1.1,1.1-2.3,2.3-3.4,3.5h46.7c-1.1-1.2-2.3-2.3-3.4-3.5v52.1c0,4.4,6.9,4.4,6.9,0V262.3a3.54,3.54,0,0,0-3.5-3.5h-46.7a3.54,3.54,0,0,0-3.5,3.5v52.1a3.54,3.54,0,0,0,3.5,3.5h46.7C472,317.9,472,311,467.61,311Z"/><rect class="cls-4" x="467.61" y="262.4" width="46.7" height="52.1"/><path class="cls-2" d="M514.31,311h-46.7c1.2,1.1,2.3,2.3,3.5,3.4V262.3l-3.5,3.5h46.7c-1.1-1.2-2.3-2.3-3.4-3.5v52.1c0,4.4,6.9,4.4,6.9,0V262.3a3.54,3.54,0,0,0-3.5-3.5h-46.7a3.46,3.46,0,0,0-3.4,3.5v52.1a3.52,3.52,0,0,0,3.4,3.5h46.7C518.81,317.9,518.81,311,514.31,311Z"/><polygon class="cls-1" points="167.91 135.1 97.01 111.7 3.51 152 34.91 476 115.51 486.5 178.41 463.1 167.91 135.1"/><path class="cls-2" d="M168.81,131.7c-10.6-3.5-21.1-7-31.7-10.4-12.6-4.2-25.3-9.3-38.2-12.6-2.4-.6-4,.2-6.2,1.1-4.8,2.1-9.6,4.1-14.4,6.2-15.2,6.6-30.4,13.1-45.6,19.7-10.3,4.5-20.7,8.9-31,13.4a3.29,3.29,0,0,0-1.7,3Q5.26,207,10.61,261.8q8.4,87.3,16.9,174.6c1.3,13.3,2.6,26.5,3.9,39.8a3.68,3.68,0,0,0,3.5,3.5l64.9,8.4c4.4.6,8.8,1.1,13.1,1.7a10.17,10.17,0,0,0,4.6-.2c10.7-3.4,21.2-7.9,31.7-11.8,10-3.7,20-7.4,30-11.2a3.42,3.42,0,0,0,2.5-3.3c-1.2-37.2-2.4-74.3-3.6-111.5q-2.85-88.05-5.6-176.2c-.4-13.4-.9-26.9-1.3-40.3-.1-4.4-7-4.4-6.9,0,1.2,37.2,2.4,74.3,3.6,111.5q2.85,88.05,5.6,176.2c.4,13.4.9,26.9,1.3,40.3.8-1.1,1.7-2.2,2.5-3.3-19.9,7.4-39.7,14.8-59.6,22.2a18.15,18.15,0,0,1-3,1.1c-.1,0,1.1.2-.4-.1-3.6-.8-7.5-1-11.2-1.5-13.3-1.7-26.5-3.5-39.8-5.2-9.5-1.2-19-2.5-28.6-3.7l3.4,3.4q-5.25-54.9-10.6-109.7-8.4-87.3-16.9-174.6c-1.3-13.3-2.6-26.5-3.9-39.8-.6,1-1.1,2-1.7,3,27.2-11.7,54.5-23.5,81.7-35.2,3.9-1.7,7.9-3.4,11.8-5.1l-2.7.3c23.6,7.8,47.3,15.6,70.9,23.4C171.21,139.8,173,133.1,168.81,131.7Z"/><line class="cls-3" x1="97.01" y1="111.7" x2="115.51" y2="486.5"/><path class="cls-2" d="M93.61,111.7c.6,12.4,1.2,24.9,1.8,37.3q2.25,44.85,4.4,89.6c1.8,36,3.6,71.9,5.3,107.9,1.5,31.2,3.1,62.5,4.6,93.7.7,15.1.6,30.5,2.3,45.6v.6c.2,4.4,7.1,4.4,6.9,0-.6-12.4-1.2-24.9-1.8-37.3q-2.25-44.85-4.4-89.6c-1.8-36-3.6-71.9-5.3-107.9-1.5-31.2-3.1-62.5-4.6-93.7-.7-15.1-.6-30.5-2.3-45.6v-.6c-.3-4.4-7.2-4.5-6.9,0Z"/><polygon class="cls-1" points="720.51 135.1 791.41 111.7 884.91 152 853.51 476 772.91 486.5 710.01 463.1 720.51 135.1"/><path class="cls-2" d="M721.41,138.4c23.6-7.8,47.3-15.6,70.9-23.4l-2.7-.3c27.2,11.7,54.5,23.5,81.7,35.2,3.9,1.7,7.9,3.4,11.8,5.1-.6-1-1.1-2-1.7-3q-5.25,54.9-10.6,109.7-8.4,87.3-16.9,174.6c-1.3,13.3-2.6,26.5-3.9,39.8,1.1-1.2,2.3-2.3,3.4-3.5l-64.5,8.4c-4.4.6-8.8,1.1-13.2,1.7a27,27,0,0,1-2.8.4c1.2,0,.4.1-.6-.4-10.2-4.4-21-7.8-31.4-11.7-10-3.7-20-7.4-30-11.2.8,1.1,1.7,2.2,2.5,3.3,1.2-37.2,2.4-74.3,3.6-111.5q2.85-88.05,5.6-176.2c.4-13.4.9-26.9,1.3-40.3.1-4.4-6.8-4.4-6.9,0-1.2,37.2-2.4,74.3-3.6,111.5q-2.85,88.05-5.6,176.2c-.4,13.4-.9,26.9-1.3,40.3a3.42,3.42,0,0,0,2.5,3.3c19.9,7.4,39.9,14.8,59.8,22.2,5.2,1.9,10,.5,15.5-.2,13.5-1.8,27-3.5,40.5-5.3,9.5-1.2,19-2.5,28.6-3.7a3.58,3.58,0,0,0,3.4-3.4q5.25-54.9,10.6-109.7,8.4-87.3,16.9-174.6c1.3-13.3,2.6-26.5,3.9-39.8a3.4,3.4,0,0,0-1.7-3L814.81,118c-5.5-2.4-11.1-4.8-16.6-7.2-2.3-1-5.4-2.9-7.9-2.6-3.5.5-7.2,2.4-10.5,3.5-7.5,2.5-15,5-22.6,7.4-12.6,4.2-25.2,8.3-37.8,12.5C715.41,133.1,717.21,139.8,721.41,138.4Z"/><line class="cls-3" x1="791.41" y1="111.7" x2="772.91" y2="486.5"/><path class="cls-2" d="M787.91,111.7c-.6,12.4-1.2,24.9-1.8,37.3q-2.25,44.85-4.4,89.6c-1.8,36-3.6,71.9-5.3,107.9-1.5,31.2-3.1,62.5-4.6,93.7l-1.5,30.9c-.2,4.8-.9,9.8-.7,14.7v.6c-.2,4.4,6.7,4.4,6.9,0,.6-12.4,1.2-24.9,1.8-37.3q2.25-44.85,4.4-89.6c1.8-36,3.6-71.9,5.3-107.9,1.5-31.2,3.1-62.5,4.6-93.7l1.5-30.9c.2-4.8.9-9.8.7-14.7v-.6c.3-4.5-6.6-4.4-6.9,0Z"/><polygon class="cls-4" points="209.61 153.3 209.61 191.7 304.41 196.2 304.41 167 209.61 153.3"/><path class="cls-2" d="M206.11,153.3v38.4a3.61,3.61,0,0,0,3.5,3.5c27.7,1.3,55.4,2.7,83,4l11.8.6a3.52,3.52,0,0,0,3.5-3.4V167.1a3.45,3.45,0,0,0-2.5-3.3l-82.9-12c-4-.6-8-1.2-12-1.7-4.3-.6-6.2,6-1.8,6.7l82.9,12c4,.6,8,1.2,12,1.7-.8-1.1-1.7-2.2-2.5-3.3v29.3l3.5-3.5c-27.7-1.3-55.4-2.7-83-4l-11.8-.6,3.4,3.4V153.4C213,148.8,206.11,148.8,206.11,153.3Z"/><polygon class="cls-4" points="211.41 211.3 211.41 249.7 306.21 245.4 306.21 216.1 211.41 211.3"/><path class="cls-2" d="M207.91,211.3v38.4a3.61,3.61,0,0,0,3.5,3.5c27.7-1.3,55.4-2.5,83-3.8,3.9-.2,7.9-.4,11.8-.5a3.54,3.54,0,0,0,3.5-3.5V216.1a3.61,3.61,0,0,0-3.5-3.5l-83-4.2-11.8-.6c-4.4-.2-4.4,6.7,0,6.9l83,4.2,11.8.6c-1.2-1.1-2.3-2.3-3.5-3.4v29.3c1.2-1.1,2.3-2.3,3.5-3.4-27.7,1.3-55.4,2.5-83,3.8-3.9.2-7.9.4-11.8.5,1.1,1.2,2.3,2.3,3.4,3.5V211.4C214.81,206.9,207.91,206.9,207.91,211.3Z"/><polygon class="cls-4" points="211.41 269.4 211.41 307.8 306.21 290.3 306.21 261 211.41 269.4"/><path class="cls-2" d="M207.91,269.4v38.4c0,2.4,2.2,3.7,4.4,3.3,27.7-5.1,55.3-10.2,83-15.4,3.9-.7,7.9-1.5,11.8-2.2a3.42,3.42,0,0,0,2.5-3.3V260.9a3.46,3.46,0,0,0-3.5-3.4c-27.7,2.5-55.4,4.9-83,7.4-3.9.3-7.9.7-11.8,1-4.4.4-4.4,7.3,0,6.9,27.7-2.5,55.4-4.9,83-7.4,3.9-.3,7.9-.7,11.8-1-1.2-1.1-2.3-2.3-3.5-3.5v29.3c.8-1.1,1.7-2.2,2.5-3.3-27.7,5.1-55.3,10.2-83,15.4-3.9.7-7.9,1.5-11.8,2.2,1.5,1.1,2.9,2.2,4.4,3.3V269.4C214.81,265,207.91,265,207.91,269.4Z"/><polygon class="cls-4" points="677.81 153.3 677.81 191.7 583.01 196.2 583.01 167 677.81 153.3"/><path class="cls-2" d="M674.31,153.3v38.4c1.1-1.1,2.3-2.3,3.5-3.4-27.7,1.3-55.4,2.7-83,4l-11.8.6c1.2,1.1,2.3,2.3,3.5,3.5V167.1c-.8,1.1-1.7,2.2-2.5,3.3l82.9-12c4-.6,8-1.2,12-1.7,4.4-.6,2.5-7.3-1.8-6.7l-82.9,12c-4,.6-8,1.2-12,1.7-1.5.2-2.5,2-2.5,3.3v29.3a3.44,3.44,0,0,0,3.4,3.4c27.7-1.3,55.4-2.7,83-4l11.8-.6a3.46,3.46,0,0,0,3.4-3.5V153.2C681.21,148.8,674.31,148.8,674.31,153.3Z"/><polygon class="cls-4" points="677.81 211.3 677.81 249.7 583.01 245.4 583.01 216.1 677.81 211.3"/><path class="cls-2" d="M674.31,211.3v38.4l3.5-3.5c-27.7-1.3-55.4-2.5-83-3.8-3.9-.2-7.9-.4-11.8-.5,1.2,1.1,2.3,2.3,3.5,3.4V216c-1.1,1.1-2.3,2.3-3.5,3.4l83-4.2,11.8-.6c4.4-.2,4.4-7.1,0-6.9l-83,4.2-11.8.6a3.46,3.46,0,0,0-3.4,3.5v29.3a3.6,3.6,0,0,0,3.4,3.5c27.7,1.3,55.4,2.5,83,3.8,3.9.2,7.9.4,11.8.5a3.4,3.4,0,0,0,3.4-3.5V211.2C681.21,206.9,674.31,206.9,674.31,211.3Z"/><polygon class="cls-4" points="677.81 269.4 677.81 307.8 583.01 290.3 583.01 261 677.81 269.4"/><path class="cls-2" d="M674.31,269.4v38.4c1.5-1.1,2.9-2.2,4.4-3.3-27.7-5.1-55.3-10.2-83-15.4-3.9-.7-7.9-1.5-11.8-2.2.8,1.1,1.7,2.2,2.5,3.3V260.9c-1.1,1.2-2.3,2.3-3.5,3.5,27.7,2.5,55.4,4.9,83,7.4,3.9.3,7.9.7,11.8,1,4.4.4,4.4-6.5,0-6.9-27.7-2.5-55.4-4.9-83-7.4-3.9-.3-7.9-.7-11.8-1-1.9-.2-3.4,1.7-3.4,3.4v29.3a3.45,3.45,0,0,0,2.5,3.3c27.7,5.1,55.3,10.2,83,15.4,3.9.7,7.9,1.5,11.8,2.2,2.2.4,4.4-.9,4.4-3.3V269.4C681.21,265,674.31,265,674.31,269.4Z"/><polygon class="cls-4" points="28.71 174.7 68.31 156.5 78.11 350.5 45.81 350.5 33.71 226.4 28.71 174.7"/><path class="cls-2" d="M30.41,177.7c13.2-6.1,26.4-12.2,39.7-18.3-1.7-1-3.5-2-5.2-3q1.65,32.85,3.3,65.6c1.7,34.8,3.5,69.7,5.2,104.5.4,8,.8,15.9,1.2,23.9l3.5-3.5H45.91c1.2,1.1,2.3,2.3,3.5,3.5q-3.45-35.7-7-71.4c-2-20.3-4-40.5-5.9-60.8-1.4-14.5-2.8-29-4.2-43.6-.4-4.4-7.3-4.4-6.9,0q2.85,28.95,5.6,57.9c2.9,29.8,5.8,59.5,8.7,89.3.9,9.5,1.9,19.1,2.8,28.6a3.44,3.44,0,0,0,3.4,3.4h32.2a3.44,3.44,0,0,0,3.4-3.4q-1.65-32.85-3.3-65.6c-1.7-34.8-3.5-69.7-5.2-104.5-.4-8-.8-15.9-1.2-23.9-.1-2.8-2.8-4.1-5.2-3-13.2,6.1-26.4,12.2-39.7,18.3C22.91,173.6,26.41,179.6,30.41,177.7Z"/><line class="cls-3" x1="33.71" y1="226.4" x2="71.41" y2="217.4"/><path class="cls-2" d="M34.61,229.7c12.6-3,25.1-6,37.7-8.9,4.3-1,2.5-7.7-1.8-6.7-12.6,3-25.1,6-37.7,8.9-4.3,1.1-2.5,7.7,1.8,6.7Z"/><line class="cls-3" x1="39.41" y1="284.4" x2="74.41" y2="278.5"/><path class="cls-2" d="M40.31,287.7c11.7-2,23.4-3.9,35.1-5.9,4.4-.7,2.5-7.4-1.8-6.7-11.7,2-23.4,3.9-35.1,5.9-4.4.8-2.6,7.5,1.8,6.7Z"/><polygon class="cls-4" points="114.41 152.3 153.81 161.3 155.91 210.6 116.31 211.3 114.41 152.3"/><path class="cls-2" d="M113.51,155.7c13.1,3,26.3,5.9,39.4,8.9-.8-1.1-1.7-2.2-2.5-3.3.7,16.5,1.4,32.9,2.1,49.4,1.1-1.1,2.3-2.3,3.5-3.4-13.2.2-26.4.5-39.5.7,1.1,1.1,2.3,2.3,3.4,3.5-.6-19.7-1.3-39.3-1.9-59-.1-4.4-7-4.4-6.9,0,.6,19.7,1.3,39.3,1.9,59a3.46,3.46,0,0,0,3.5,3.4c13.2-.2,26.4-.5,39.5-.7a3.46,3.46,0,0,0,3.4-3.5c-.7-16.5-1.4-32.9-2.1-49.4a3.45,3.45,0,0,0-2.5-3.3c-13.1-3-26.3-5.9-39.4-8.9C111,148,109.11,154.7,113.51,155.7Z"/><polygon class="cls-4" points="120.21 267.5 157.81 266.7 159.91 316.1 122.21 326.5 120.21 267.5"/><path class="cls-2" d="M120.21,271c12.5-.3,25.1-.5,37.6-.8-1.1-1.2-2.3-2.3-3.5-3.5.7,16.5,1.4,32.9,2.1,49.4.8-1.1,1.7-2.2,2.5-3.3-12.6,3.5-25.1,7-37.7,10.4,1.5,1.1,2.9,2.2,4.4,3.3-.6-19.7-1.3-39.3-1.9-59-.1-4.4-7-4.4-6.9,0,.6,19.7,1.3,39.3,1.9,59a3.5,3.5,0,0,0,4.4,3.3c12.6-3.5,25.1-7,37.7-10.4a3.42,3.42,0,0,0,2.5-3.3c-.7-16.5-1.4-32.9-2.1-49.4a3.6,3.6,0,0,0-3.4-3.5c-12.5.3-25.1.5-37.6.8C115.81,264.2,115.81,271.1,120.21,271Z"/><polygon class="cls-4" points="771.51 152.3 732.11 161.3 730.01 210.6 769.61 211.3 771.51 152.3"/><path class="cls-2" d="M770.61,149c-13.1,3-26.3,5.9-39.4,8.9a3.42,3.42,0,0,0-2.5,3.3c-.7,16.5-1.4,32.9-2.1,49.4a3.52,3.52,0,0,0,3.4,3.5c13.2.2,26.4.5,39.5.7a3.6,3.6,0,0,0,3.5-3.4c.6-19.7,1.3-39.3,1.9-59,.1-4.4-6.8-4.4-6.9,0-.6,19.7-1.3,39.3-1.9,59,1.1-1.2,2.3-2.3,3.4-3.5-13.2-.2-26.4-.5-39.5-.7,1.2,1.1,2.3,2.3,3.5,3.4.7-16.5,1.4-32.9,2.1-49.4-.8,1.1-1.7,2.2-2.5,3.3,13.1-3,26.3-5.9,39.4-8.9C776.81,154.7,774.91,148,770.61,149Z"/><polygon class="cls-4" points="765.71 267.5 728.11 266.7 726.01 316.1 763.71 326.5 765.71 267.5"/><path class="cls-2" d="M765.71,264.1c-12.5-.3-25.1-.5-37.6-.8a3.46,3.46,0,0,0-3.4,3.5c-.7,16.5-1.4,32.9-2.1,49.4a3.42,3.42,0,0,0,2.5,3.3c12.6,3.5,25.1,7,37.7,10.4a3.54,3.54,0,0,0,4.4-3.3c.6-19.7,1.3-39.3,1.9-59,.1-4.4-6.8-4.4-6.9,0-.6,19.7-1.3,39.3-1.9,59,1.5-1.1,2.9-2.2,4.4-3.3-12.6-3.5-25.1-7-37.7-10.4.8,1.1,1.7,2.2,2.5,3.3.7-16.5,1.4-32.9,2.1-49.4l-3.5,3.5c12.5.3,25.1.5,37.6.8C770.11,271.1,770.11,264.2,765.71,264.1Z"/></g></g></svg>