<svg xmlns="http://www.w3.org/2000/svg" viewBox="0 0 1126.9 847.44"><defs><style>.cls-1,.cls-12,.cls-15{fill:#ff7694;}.cls-1,.cls-11,.cls-12,.cls-14,.cls-2,.cls-7,.cls-8{stroke:#ff4867;}.cls-1,.cls-11,.cls-13,.cls-8{stroke-miterlimit:10;}.cls-1,.cls-11,.cls-12,.cls-13,.cls-14,.cls-2,.cls-4,.cls-7,.cls-8,.cls-9{stroke-width:11px;}.cls-11,.cls-13,.cls-2,.cls-4{fill:none;}.cls-12,.cls-14,.cls-2,.cls-4{stroke-linecap:round;}.cls-12,.cls-14,.cls-2,.cls-4,.cls-7,.cls-9{stroke-linejoin:round;}.cls-3{fill:#8e6a51;}.cls-13,.cls-4{stroke:#333;}.cls-5{fill:#fff;}.cls-6{fill:#ddd;}.cls-10,.cls-14,.cls-7,.cls-8{fill:#ff4867;}.cls-9{fill:#f4c143;stroke:#231815;}</style></defs><title>matching-count</title><g id="レイヤー_2" data-name="レイヤー 2"><g id="レイヤー_1-2" data-name="レイヤー 1"><path class="cls-1" d="M864.5,697.37c-72.1,32.3-65.2,96.5-65.2,96.5,19.7,12.2,48,7.5,48,7.5,7.9-30.8,28.2-27,82.7-40.9,23.1-5.9,42.7-21.7,57.1-40.2,32.9-42.2,47.4-91.1,45.3-144.5-.8-19.7-6-39.2-11.4-58.6,9.6-5.3,18.2-10.2,23.2-12.9,11.9-6.4,22.9-12.8,32.6-18.7s18-11.2,24.9-15.8c-12.4-10.3-20.5-28.9-20.5-28.9-24,11.5-60.6,26.6-71.3,30.9a5,5,0,0,1-.2-1.2l-4.6-50.5c-1.6,7.4-14.4,16.9-18.7,21.4-27.5,28.5-60.5,49.3-97.1,64.2-22.1,9-41.5,22.1-48.3,29.2-6.8-7.1-26.2-20.2-48.3-29.2-36.6-14.8-69.6-35.7-97.1-64.2-4.3-4.5-17.1-14-18.7-21.4l-4.6,50.5a3.55,3.55,0,0,1-.2,1c-11.2-4.6-47.1-19.4-70.8-30.7,0,0-8.1,18.6-20.5,28.9,6.8,4.5,15.2,9.9,24.9,15.8s20.7,12.3,32.6,18.7c4.9,2.7,13.4,7.4,22.8,12.7-5.4,19.4-10.8,39.5-11.5,58.8-1.6,40.8,10.2,85,28.7,121.2,18.6,36.6,70.2,65.5,87.5,102.9,2.3,4.9,5.7,9.6,7,13.6,11.9,3.8,28.7-1.4,45.8-9.3,1.3-8.2,3.7-16.7,3.8-52.2"/><path class="cls-2" d="M864.5,697.37c-72.1,32.3-65.2,96.5-65.2,96.5,19.7,12.2,48,7.5,48,7.5,7.9-30.8,28.2-27,82.7-40.9,23.1-5.9,42.7-21.7,57.1-40.2,32.9-42.2,47.4-91.1,45.3-144.5-.8-19.7-6-39.2-11.4-58.6,9.6-5.3,18.2-10.2,23.2-12.9,11.9-6.4,22.9-12.8,32.6-18.7s18-11.2,24.9-15.8c-12.4-10.3-20.5-28.9-20.5-28.9-24,11.5-60.6,26.6-71.3,30.9a5,5,0,0,1-.2-1.2l-4.6-50.5c-1.6,7.4-14.4,16.9-18.7,21.4-27.5,28.5-60.5,49.3-97.1,64.2-22.1,9-41.5,22.1-48.3,29.2-6.8-7.1-26.2-20.2-48.3-29.2-36.6-14.8-69.6-35.7-97.1-64.2-4.3-4.5-17.1-14-18.7-21.4l-4.6,50.5a3.55,3.55,0,0,1-.2,1c-11.2-4.6-47.1-19.4-70.8-30.7,0,0-8.1,18.6-20.5,28.9,6.8,4.5,15.2,9.9,24.9,15.8s20.7,12.3,32.6,18.7c4.9,2.7,13.4,7.4,22.8,12.7-5.4,19.4-10.8,39.5-11.5,58.8-1.6,40.8,10.2,85,28.7,121.2,18.6,36.6,70.2,65.5,87.5,102.9,2.3,4.9,5.7,9.6,7,13.6,11.9,3.8,28.7-1.4,45.8-9.3"/><path class="cls-3" d="M1005.2,420.17l-.3-3.8A5.42,5.42,0,0,1,1005.2,420.17Z"/><path class="cls-3" d="M677.3,416.37l-.3,3.8A4.93,4.93,0,0,1,677.3,416.37Z"/><path class="cls-3" d="M1005.2,420.17l-.3-3.8A5.42,5.42,0,0,1,1005.2,420.17Z"/><path class="cls-3" d="M677.3,416.37l-.3,3.8A4.93,4.93,0,0,1,677.3,416.37Z"/><path class="cls-4" d="M1005.2,420.17l-.3-3.8A5.42,5.42,0,0,1,1005.2,420.17Z"/><path class="cls-4" d="M677.3,416.37l-.3,3.8A4.93,4.93,0,0,1,677.3,416.37Z"/><path class="cls-5" d="M814.3,534.17c-41.2-22-86.8-34.3-128.9-54-5.5-2.6-10.3-6.8-14.7-11-6.3-6.1-13.1-13.7-14.6-22.7-.5-2.7-.3-7.7,2.4-9.3,1.8-1,6.7-1.2,6.7-1.2s-9.1-21.3-2.9-29.9c1.2-1.7,19.1-23.9,19.1-23.9a28.45,28.45,0,0,0-.4,4.1c-1.1,10-2.3,20.1-3.7,30-3.8,7.5,13.2,19.9,18.4,25.2,27.5,28.5,60.5,49.3,97.1,64.2,22.1,9,41.5,22.1,48.3,29.2,6.8-7.1,26.2-20.2,48.3-29.2,36.6-14.8,69.6-35.7,97.1-64.2,5.1-5.3,22.2-17.7,18.4-25.2-1.5-10-2.6-20-3.7-30-.1-1.3-.2-2.7-.4-4.1,0,0,17.9,22.2,19.1,23.9,6.2,8.6-2.9,29.9-2.9,29.9s4.9.2,6.7,1.2c2.8,1.5,2.9,6.6,2.4,9.3-1.5,9-8.3,16.6-14.6,22.7-4.3,4.2-9.2,8.4-14.7,11-42.1,19.7-87.7,32-128.9,54"/><path class="cls-5" d="M679.5,399.47l1.5-13.2Q680.25,393,679.5,399.47Z"/><path class="cls-5" d="M1004.8,416c-.7-4.5-1.3-9.1-1.8-13.6C1003.6,406.87,1004.2,411.47,1004.8,416Z"/><path class="cls-5" d="M677.3,416.37c.7-4.7,1.3-9.4,1.9-14.1C678.6,407,678,411.67,677.3,416.37Z"/><path class="cls-5" d="M1002.6,399.27c-.5-4.2-1-8.5-1.5-12.8C1001.6,390.77,1002.1,395.07,1002.6,399.27Z"/><path class="cls-5" d="M1003,402.37c-.1-1-.2-2-.4-3.1C1002.8,400.37,1002.9,401.37,1003,402.37Z"/><path class="cls-5" d="M679.2,402.27c.1-.9.2-1.8.3-2.8C679.4,400.47,679.3,401.37,679.2,402.27Z"/><path class="cls-5" d="M1001.1,386.27c-.1-1.3-.2-2.7-.4-4.1h0c.2,1.4.3,2.9.5,4.3A.31.31,0,0,0,1001.1,386.27Z"/><path class="cls-5" d="M681,386.37v0Z"/><path class="cls-5" d="M1001.1,386.27v.2c.5,4.3.9,8.5,1.5,12.8.1,1,.2,2,.4,3.1.6,4.5,1.2,9.1,1.8,13.6v.4c3.8,7.5-13.2,19.9-18.4,25.2-27.5,28.5-60.5,49.3-97.1,64.2-22.1,9-41.5,22.1-48.3,29.2-6.8-7.1-26.2-20.2-48.3-29.2-36.6-14.8-69.6-35.7-97.1-64.2-5.1-5.3-22.2-17.7-18.4-25.2.7-4.7,1.3-9.4,1.9-14.1.1-.9.2-1.8.3-2.8l1.5-13.2h0V386c2.2-20.2,3.9-40.5,6.6-60.5a199.23,199.23,0,0,1,17-59c-20.1-1.8-30.6-24.9-38.7-40.9-6.8-13.6,3.7-15.5,13-13s37.8,5.6,42.1,5.6c4,0,16.1,1.6,28.8-7.2.2-.1.4-.3.6-.4.7-.5,1.4-1.1,2.2-1.6l-.3.4a148.42,148.42,0,0,1,67.3-24,207.81,207.81,0,0,1,43.9.2c19.7,2.2,38.9,8.9,56.4,18.3,8,4.3,15.4,10.4,24.2,13,5.6,1.6,11.1,1.5,16.9,1.5,4.3,0,32.8-3.1,42.1-5.6s19.8-.6,13,13c-8,16.1-18.6,39.2-38.8,40.9h.1a200.09,200.09,0,0,1,17,59c2.5,18.8,4.2,37.8,6.1,56.7h0A10.36,10.36,0,0,1,1001.1,386.27Z"/><path class="cls-6" d="M1000.7,382.27h0c.2,1.4.3,2.9.5,4.3v-.2C1001.1,385,1000.9,383.57,1000.7,382.27Z"/><path class="cls-6" d="M681,386.37v0Z"/><path class="cls-6" d="M700.9,275.17h0c-.1.2-.1.3-.2.5A.76.76,0,0,1,700.9,275.17Z"/><path class="cls-7" d="M771.6,813.17c4.2,16.2,5.8,23.4,5.8,23.4s26.1,15.9,44.7-7c0,0-.8-7.8-2.3-21.9C805.7,813.87,784.1,813.87,771.6,813.17Z"/><path class="cls-8" d="M756.1,206.87a95.56,95.56,0,0,1,1.1-10c.1-.5.1-.9.2-1.4.8-6.5,4.2-34.3,15.8-23.7,6.4,5.8,13.3,12.1,19.4,18.7A151.71,151.71,0,0,0,756.1,206.87Z"/><path class="cls-9" d="M813.6,380.27"/><path class="cls-10" d="M831.4,346.67c-3,1.1-8.5,5.9-9.8,8.7-7.4,15.6-9.4,34.9,7.1,43.2a34.39,34.39,0,0,0,13.9,3.5,35.12,35.12,0,0,0,13.9-3.4c16.6-8.2,14.6-27.6,7.3-43.2-1.3-2.8-6.8-7.6-9.8-8.7,30.7-.4,39.3,38.3,24.8,56.6-8.4,10.6-22.5,14.9-36.3,14.8-13.8.1-27.9-4.4-36.3-15C791.9,384.77,800.8,346.17,831.4,346.67Z"/><ellipse class="cls-10" cx="896.92" cy="278.28" rx="4.9" ry="2.4" transform="translate(-12.16 42.73) rotate(-2.71)"/><ellipse class="cls-10" cx="788.22" cy="278.27" rx="4.9" ry="2.4" transform="translate(-12.28 37.59) rotate(-2.71)"/><path class="cls-7" d="M1121.4,456.27s-7.2,5.4-19.6,13.6c-12.4-10.3-20.5-28.9-20.5-28.9h0c11.1-5.3,19.6-9.5,21.5-10.9C1102.8,430.07,1121.3,440.37,1121.4,456.27Z"/><path class="cls-7" d="M920,203.67a173.77,173.77,0,0,0-30.6-12.8c0-.1.1-.2.1-.3,6.1-6.6,13-12.9,19.4-18.8,11.6-10.6,15,17.2,15.8,23.7.1.4.1.9.2,1.4.4,3,.9,6.6,1.1,10,0,.1.1.3.1.4C924.1,206.07,922.1,204.77,920,203.67Z"/><ellipse class="cls-11" cx="842.55" cy="411.26" rx="89.2" ry="112.7" transform="translate(428.99 1252.68) rotate(-89.84)"/><path class="cls-12" d="M814.3,534.17c-41.2-22-86.8-34.3-128.9-54-5.5-2.6-10.3-6.8-14.7-11-6.3-6.1-13.1-13.7-14.6-22.7-.5-2.7-.3-7.7,2.4-9.3,1.8-1,6.7-1.2,6.7-1.2s-9.1-21.3-2.9-29.9c1.2-1.7,19.1-23.9,19.1-23.9a28.45,28.45,0,0,0-.4,4.1c-1.1,10-2.3,20.1-3.7,30-3.8,7.5,13.2,19.9,18.4,25.2,27.5,28.5,60.5,49.3,97.1,64.2,22.1,9,41.5,22.1,48.3,29.2,6.8-7.1,26.2-20.2,48.3-29.2,36.6-14.8,69.6-35.7,97.1-64.2,5.1-5.3,22.2-17.7,18.4-25.2-1.5-10-2.6-20-3.7-30-.1-1.3-.2-2.7-.4-4.1,0,0,17.9,22.2,19.1,23.9,6.2,8.6-2.9,29.9-2.9,29.9s4.9.2,6.7,1.2c2.8,1.5,2.9,6.6,2.4,9.3-1.5,9-8.3,16.6-14.6,22.7-4.3,4.2-9.2,8.4-14.7,11-42.1,19.7-87.7,32-128.9,54"/><path class="cls-13" d="M679.5,399.47l1.5-13.2Q680.25,393,679.5,399.47Z"/><path class="cls-13" d="M1004.8,416c-.7-4.5-1.3-9.1-1.8-13.6C1003.6,406.87,1004.2,411.47,1004.8,416Z"/><path class="cls-13" d="M677.3,416.37c.7-4.7,1.3-9.4,1.9-14.1C678.6,407,678,411.67,677.3,416.37Z"/><path class="cls-13" d="M1002.6,399.27c-.5-4.2-1-8.5-1.5-12.8C1001.6,390.77,1002.1,395.07,1002.6,399.27Z"/><path class="cls-4" d="M1003,402.37c-.1-1-.2-2-.4-3.1C1002.8,400.37,1002.9,401.37,1003,402.37Z"/><path class="cls-4" d="M679.2,402.27c.1-.9.2-1.8.3-2.8C679.4,400.47,679.3,401.37,679.2,402.27Z"/><path class="cls-4" d="M1001.1,386.27c-.1-1.3-.2-2.7-.4-4.1h0c.2,1.4.3,2.9.5,4.3A.31.31,0,0,0,1001.1,386.27Z"/><path class="cls-4" d="M681,386.37v0Z"/><path class="cls-8" d="M847.3,801.37c-6.8,18-9.5,26.2-9.5,26.2s-22.7,7.4-41.7-9.5c0,0,1.2-10.1,3.2-24.1C813.2,800.67,834.9,801.57,847.3,801.37Z"/><path class="cls-14" d="M847.3,801.37c-6.8,18.4-9.5,26.2-9.5,26.2s-22.7,11.1-41.7-5.8c0,0,1.2-13.7,3.2-27.8C813.2,800.67,834.9,801.57,847.3,801.37Z"/><path class="cls-7" d="M561.2,456.27s7.2,5.4,19.6,13.6c12.4-10.3,20.5-28.9,20.5-28.9h0c-11.1-5.3-19.6-9.5-21.5-10.9C579.9,430.07,561.4,440.37,561.2,456.27Z"/><path class="cls-15" d="M990.3,296.17a201.1,201.1,0,0,0-11.1-30.1c20.1-1.8,30.6-24.9,38.7-40.9,6.8-13.6-3.7-15.5-13-13s-37.8,5.6-42.1,5.6c-4,0-16.1,1.6-28.8-7.2-.2-.1-.4-.3-.6-.4-.7-.5-1.4-1.1-2.2-1.6l.3.4a148.42,148.42,0,0,0-67.3-24C864.2,184.77,877.4,299.27,990.3,296.17Z"/><path class="cls-2" d="M1001.1,386.27v.2c.5,4.3.9,8.5,1.5,12.8.1,1,.2,2,.4,3.1.6,4.5,1.2,9.1,1.8,13.6v.4c3.8,7.5-13.2,19.9-18.4,25.2-27.5,28.5-60.5,49.3-97.1,64.2-22.1,9-41.5,22.1-48.3,29.2-6.8-7.1-26.2-20.2-48.3-29.2-36.6-14.8-69.6-35.7-97.1-64.2-5.1-5.3-22.2-17.7-18.4-25.2.7-4.7,1.3-9.4,1.9-14.1.1-.9.2-1.8.3-2.8l1.5-13.2h0V386c2.2-20.2,3.9-40.5,6.6-60.5a199.23,199.23,0,0,1,17-59c-20.1-1.8-30.6-24.9-38.7-40.9-6.8-13.6,3.7-15.5,13-13s37.8,5.6,42.1,5.6c4,0,16.1,1.6,28.8-7.2.2-.1.4-.3.6-.4.7-.5,1.4-1.1,2.2-1.6l-.3.4a148.42,148.42,0,0,1,67.3-24,207.81,207.81,0,0,1,43.9.2c19.7,2.2,38.9,8.9,56.4,18.3,8,4.3,15.4,10.4,24.2,13,5.6,1.6,11.1,1.5,16.9,1.5,4.3,0,32.8-3.1,42.1-5.6s19.8-.6,13,13c-8,16.1-18.6,39.2-38.8,40.9h.1a200.09,200.09,0,0,1,17,59c2.5,18.8,4.2,37.8,6.1,56.7h0A10.36,10.36,0,0,1,1001.1,386.27Z"/><path class="cls-1" d="M262.4,697.37c72.1,32.3,65.2,96.5,65.2,96.5-19.7,12.2-48,7.5-48,7.5-7.9-30.8-28.2-27-82.7-40.9-23.1-5.9-42.7-21.7-57.1-40.2-32.9-42.2-47.4-91.1-45.3-144.5.8-19.7,6-39.2,11.4-58.6-9.6-5.3-18.2-10.2-23.2-12.9-11.9-6.4-22.9-12.8-32.6-18.7s-18-11.2-24.9-15.8c12.4-10.3,20.5-28.9,20.5-28.9,24,11.5,60.6,26.6,71.3,30.9a5,5,0,0,0,.2-1.2l4.6-50.5c1.6,7.4,14.4,16.9,18.7,21.4,27.5,28.5,60.5,49.3,97.1,64.2,22.1,9,41.5,22.1,48.3,29.2,6.8-7.1,26.2-20.2,48.3-29.2,36.6-14.8,69.6-35.7,97.1-64.2,4.3-4.5,17.1-14,18.7-21.4l4.6,50.5a3.55,3.55,0,0,0,.2,1c11.2-4.6,47.1-19.4,70.8-30.7,0,0,8.1,18.6,20.5,28.9-6.8,4.5-15.2,9.9-24.9,15.8s-20.7,12.3-32.6,18.7c-4.9,2.7-13.4,7.4-22.8,12.7,5.4,19.4,10.8,39.5,11.5,58.8,1.6,40.8-10.2,85-28.7,121.2-18.6,36.6-70.2,65.5-87.5,102.9-2.3,4.9-5.7,9.6-7,13.6-11.9,3.8-28.7-1.4-45.8-9.3-1.3-8.2-3.7-16.7-3.8-52.2"/><path class="cls-2" d="M262.4,697.37c72.1,32.3,65.2,96.5,65.2,96.5-19.7,12.2-48,7.5-48,7.5-7.9-30.8-28.2-27-82.7-40.9-23.1-5.9-42.7-21.7-57.1-40.2-32.9-42.2-47.4-91.1-45.3-144.5.8-19.7,6-39.2,11.4-58.6-9.6-5.3-18.2-10.2-23.2-12.9-11.9-6.4-22.9-12.8-32.6-18.7s-18-11.2-24.9-15.8c12.4-10.3,20.5-28.9,20.5-28.9,24,11.5,60.6,26.6,71.3,30.9a5,5,0,0,0,.2-1.2l4.6-50.5c1.6,7.4,14.4,16.9,18.7,21.4,27.5,28.5,60.5,49.3,97.1,64.2,22.1,9,41.5,22.1,48.3,29.2,6.8-7.1,26.2-20.2,48.3-29.2,36.6-14.8,69.6-35.7,97.1-64.2,4.3-4.5,17.1-14,18.7-21.4l4.6,50.5a3.55,3.55,0,0,0,.2,1c11.2-4.6,47.1-19.4,70.8-30.7,0,0,8.1,18.6,20.5,28.9-6.8,4.5-15.2,9.9-24.9,15.8s-20.7,12.3-32.6,18.7c-4.9,2.7-13.4,7.4-22.8,12.7,5.4,19.4,10.8,39.5,11.5,58.8,1.6,40.8-10.2,85-28.7,121.2-18.6,36.6-70.2,65.5-87.5,102.9-2.3,4.9-5.7,9.6-7,13.6-11.9,3.8-28.7-1.4-45.8-9.3"/><path class="cls-3" d="M121.6,420.17l.3-3.8A6,6,0,0,0,121.6,420.17Z"/><path class="cls-3" d="M449.6,416.37l.3,3.8A5.42,5.42,0,0,0,449.6,416.37Z"/><path class="cls-3" d="M121.6,420.17l.3-3.8A6,6,0,0,0,121.6,420.17Z"/><path class="cls-3" d="M449.6,416.37l.3,3.8A5.42,5.42,0,0,0,449.6,416.37Z"/><path class="cls-4" d="M121.6,420.17l.3-3.8A6,6,0,0,0,121.6,420.17Z"/><path class="cls-4" d="M449.6,416.37l.3,3.8A5.42,5.42,0,0,0,449.6,416.37Z"/><path class="cls-5" d="M312.5,534.17c41.2-22,86.8-34.3,128.9-54,5.5-2.6,10.3-6.8,14.7-11,6.3-6.1,13.1-13.7,14.6-22.7.5-2.7.3-7.7-2.4-9.3-1.8-1-6.7-1.2-6.7-1.2s9.1-21.3,2.9-29.9c-1.2-1.7-19.1-23.9-19.1-23.9a28.45,28.45,0,0,1,.4,4.1c1.1,10,2.3,20.1,3.7,30,3.8,7.5-13.2,19.9-18.4,25.2-27.5,28.5-60.5,49.3-97.1,64.2-22.1,9-41.5,22.1-48.3,29.2-6.8-7.1-26.2-20.2-48.3-29.2-36.6-14.8-69.6-35.7-97.1-64.2-5.1-5.3-22.2-17.7-18.4-25.2,1.5-10,2.6-20,3.7-30,.1-1.3.2-2.7.4-4.1,0,0-17.9,22.2-19.1,23.9-6.2,8.6,2.9,29.9,2.9,29.9s-4.9.2-6.7,1.2c-2.8,1.5-2.9,6.6-2.4,9.3,1.5,9,8.3,16.6,14.6,22.7,4.3,4.2,9.2,8.4,14.7,11,42.1,19.7,87.7,32,128.9,54"/><path class="cls-5" d="M447.4,399.47l-1.5-13.2Q446.5,393,447.4,399.47Z"/><path class="cls-5" d="M122,416c.7-4.5,1.3-9.1,1.8-13.6C123.3,406.87,122.7,411.47,122,416Z"/><path class="cls-5" d="M449.6,416.37c-.7-4.7-1.3-9.4-1.9-14.1C448.3,407,448.9,411.67,449.6,416.37Z"/><path class="cls-5" d="M124.2,399.27c.5-4.2,1-8.5,1.5-12.8C125.2,390.77,124.7,395.07,124.2,399.27Z"/><path class="cls-5" d="M123.9,402.37c.1-1,.2-2,.4-3.1C124.1,400.37,124,401.37,123.9,402.37Z"/><path class="cls-5" d="M447.7,402.27c-.1-.9-.2-1.8-.3-2.8C447.5,400.47,447.6,401.37,447.7,402.27Z"/><path class="cls-5" d="M125.7,386.27c.1-1.3.2-2.7.4-4.1h0c-.2,1.4-.3,2.9-.5,4.3C125.7,386.47,125.7,386.37,125.7,386.27Z"/><path class="cls-5" d="M445.8,386.37v0Z"/><path class="cls-5" d="M125.7,386.27v.2c-.5,4.3-.9,8.5-1.5,12.8-.1,1-.2,2-.4,3.1-.6,4.5-1.2,9.1-1.8,13.6v.4c-3.8,7.5,13.2,19.9,18.4,25.2,27.5,28.5,60.5,49.3,97.1,64.2,22.1,9,41.5,22.1,48.3,29.2,6.8-7.1,26.2-20.2,48.3-29.2,36.6-14.8,69.6-35.7,97.1-64.2,5.1-5.3,22.2-17.7,18.4-25.2-.7-4.7-1.3-9.4-1.9-14.1-.1-.9-.2-1.8-.3-2.8l-1.5-13.2h0V386c-2.2-20.2-3.9-40.5-6.6-60.5a199.23,199.23,0,0,0-17-59c20.1-1.8,30.6-24.9,38.7-40.9,6.8-13.6-3.7-15.5-13-13s-37.8,5.6-42.1,5.6c-4,0-16.1,1.6-28.8-7.2-.2-.1-.4-.3-.6-.4-.7-.5-1.4-1.1-2.2-1.6l.3.4a148.42,148.42,0,0,0-67.3-24,207.81,207.81,0,0,0-43.9.2c-19.7,2.2-38.9,8.9-56.4,18.3-8,4.3-15.4,10.4-24.2,13-5.6,1.6-11.1,1.5-16.9,1.5-4.3,0-32.8-3.1-42.1-5.6s-19.8-.6-13,13c8,16.1,18.6,39.2,38.8,40.9h-.1a200.1,200.1,0,0,0-17,59c-2.5,18.8-4.2,37.8-6.1,56.7h0A12.8,12.8,0,0,0,125.7,386.27Z"/><path class="cls-6" d="M126.2,382.27h0c-.2,1.4-.3,2.9-.5,4.3v-.2A27,27,0,0,1,126.2,382.27Z"/><path class="cls-6" d="M445.8,386.37v0Z"/><path class="cls-6" d="M426,275.17h0c.1.2.1.3.2.5C426.1,275.47,426.1,275.27,426,275.17Z"/><path class="cls-7" d="M355.2,813.17c-4.2,16.2-5.8,23.4-5.8,23.4s-26.1,15.9-44.7-7c0,0,.8-7.8,2.3-21.9C321.1,813.87,342.8,813.87,355.2,813.17Z"/><path class="cls-8" d="M370.8,206.87a95.56,95.56,0,0,0-1.1-10c-.1-.5-.1-.9-.2-1.4-.8-6.5-4.2-34.3-15.8-23.7-6.4,5.8-13.3,12.1-19.4,18.7A151.71,151.71,0,0,1,370.8,206.87Z"/><path class="cls-9" d="M313.3,380.27"/><path class="cls-10" d="M295.4,346.67c3,1.1,8.5,5.9,9.8,8.7,7.4,15.6,9.4,34.9-7.1,43.2a34.39,34.39,0,0,1-13.9,3.5,35.12,35.12,0,0,1-13.9-3.4c-16.6-8.2-14.6-27.6-7.3-43.2,1.3-2.8,6.8-7.6,9.8-8.7-30.7-.4-39.3,38.3-24.8,56.6,8.4,10.6,22.5,14.9,36.3,14.8,13.8.1,27.9-4.4,36.3-15C335,384.77,326.1,346.17,295.4,346.67Z"/><ellipse class="cls-10" cx="229.97" cy="278.24" rx="2.4" ry="4.9" transform="translate(-58.84 494.79) rotate(-87.29)"/><ellipse class="cls-10" cx="338.73" cy="278.23" rx="2.4" ry="4.9" transform="translate(44.79 603.42) rotate(-87.29)"/><path class="cls-7" d="M5.5,456.27s7.2,5.4,19.6,13.6C37.5,459.57,45.6,441,45.6,441h0c-11.1-5.3-19.6-9.5-21.5-10.9C24.1,430.07,5.6,440.37,5.5,456.27Z"/><path class="cls-7" d="M206.9,203.67a173.77,173.77,0,0,1,30.6-12.8c0-.1-.1-.2-.1-.3-6.1-6.6-13-12.9-19.4-18.8-11.6-10.6-15,17.2-15.8,23.7-.1.4-.1.9-.2,1.4-.4,3-.9,6.6-1.1,10,0,.1-.1.3-.1.4C202.7,206.07,204.8,204.77,206.9,203.67Z"/><ellipse class="cls-11" cx="284.3" cy="411.27" rx="112.7" ry="89.2" transform="translate(-1.12 0.78) rotate(-0.16)"/><path class="cls-12" d="M312.5,534.17c41.2-22,86.8-34.3,128.9-54,5.5-2.6,10.3-6.8,14.7-11,6.3-6.1,13.1-13.7,14.6-22.7.5-2.7.3-7.7-2.4-9.3-1.8-1-6.7-1.2-6.7-1.2s9.1-21.3,2.9-29.9c-1.2-1.7-19.1-23.9-19.1-23.9a28.45,28.45,0,0,1,.4,4.1c1.1,10,2.3,20.1,3.7,30,3.8,7.5-13.2,19.9-18.4,25.2-27.5,28.5-60.5,49.3-97.1,64.2-22.1,9-41.5,22.1-48.3,29.2-6.8-7.1-26.2-20.2-48.3-29.2-36.6-14.8-69.6-35.7-97.1-64.2-5.1-5.3-22.2-17.7-18.4-25.2,1.5-10,2.6-20,3.7-30,.1-1.3.2-2.7.4-4.1,0,0-17.9,22.2-19.1,23.9-6.2,8.6,2.9,29.9,2.9,29.9s-4.9.2-6.7,1.2c-2.8,1.5-2.9,6.6-2.4,9.3,1.5,9,8.3,16.6,14.6,22.7,4.3,4.2,9.2,8.4,14.7,11,42.1,19.7,87.7,32,128.9,54"/><path class="cls-13" d="M447.4,399.47l-1.5-13.2Q446.5,393,447.4,399.47Z"/><path class="cls-13" d="M122,416c.7-4.5,1.3-9.1,1.8-13.6C123.3,406.87,122.7,411.47,122,416Z"/><path class="cls-13" d="M449.6,416.37c-.7-4.7-1.3-9.4-1.9-14.1C448.3,407,448.9,411.67,449.6,416.37Z"/><path class="cls-13" d="M124.2,399.27c.5-4.2,1-8.5,1.5-12.8C125.2,390.77,124.7,395.07,124.2,399.27Z"/><path class="cls-4" d="M123.9,402.37c.1-1,.2-2,.4-3.1C124.1,400.37,124,401.37,123.9,402.37Z"/><path class="cls-4" d="M447.7,402.27c-.1-.9-.2-1.8-.3-2.8C447.5,400.47,447.6,401.37,447.7,402.27Z"/><path class="cls-4" d="M125.7,386.27c.1-1.3.2-2.7.4-4.1h0c-.2,1.4-.3,2.9-.5,4.3C125.7,386.47,125.7,386.37,125.7,386.27Z"/><path class="cls-4" d="M445.8,386.37v0Z"/><path class="cls-8" d="M279.5,801.37c6.8,18,9.5,26.2,9.5,26.2s22.7,7.4,41.7-9.5c0,0-1.2-10.1-3.2-24.1C313.6,800.67,292,801.57,279.5,801.37Z"/><path class="cls-14" d="M279.5,801.37c6.8,18.4,9.5,26.2,9.5,26.2s22.7,11.1,41.7-5.8c0,0-1.2-13.7-3.2-27.8C313.6,800.67,292,801.57,279.5,801.37Z"/><path class="cls-7" d="M565.6,456.27s-7.2,5.4-19.6,13.6c-12.4-10.3-20.5-28.9-20.5-28.9h0c11.1-5.3,19.6-9.5,21.5-10.9C547,430.07,565.5,440.37,565.6,456.27Z"/><path class="cls-15" d="M136.5,296.17a201.09,201.09,0,0,1,11.1-30.1c-20.1-1.8-30.6-24.9-38.7-40.9-6.8-13.6,3.7-15.5,13-13s37.8,5.6,42.1,5.6c4,0,16.1,1.6,28.8-7.2.2-.1.4-.3.6-.4.7-.5,1.4-1.1,2.2-1.6l-.3.4a148.42,148.42,0,0,1,67.3-24C262.7,184.77,249.5,299.27,136.5,296.17Z"/><path class="cls-2" d="M125.7,386.27v.2c-.5,4.3-.9,8.5-1.5,12.8-.1,1-.2,2-.4,3.1-.6,4.5-1.2,9.1-1.8,13.6v.4c-3.8,7.5,13.2,19.9,18.4,25.2,27.5,28.5,60.5,49.3,97.1,64.2,22.1,9,41.5,22.1,48.3,29.2,6.8-7.1,26.2-20.2,48.3-29.2,36.6-14.8,69.6-35.7,97.1-64.2,5.1-5.3,22.2-17.7,18.4-25.2-.7-4.7-1.3-9.4-1.9-14.1-.1-.9-.2-1.8-.3-2.8l-1.5-13.2h0V386c-2.2-20.2-3.9-40.5-6.6-60.5a199.23,199.23,0,0,0-17-59c20.1-1.8,30.6-24.9,38.7-40.9,6.8-13.6-3.7-15.5-13-13s-37.8,5.6-42.1,5.6c-4,0-16.1,1.6-28.8-7.2-.2-.1-.4-.3-.6-.4-.7-.5-1.4-1.1-2.2-1.6l.3.4a148.42,148.42,0,0,0-67.3-24,207.81,207.81,0,0,0-43.9.2c-19.7,2.2-38.9,8.9-56.4,18.3-8,4.3-15.4,10.4-24.2,13-5.6,1.6-11.1,1.5-16.9,1.5-4.3,0-32.8-3.1-42.1-5.6s-19.8-.6-13,13c8,16.1,18.6,39.2,38.8,40.9h-.1a200.1,200.1,0,0,0-17,59c-2.5,18.8-4.2,37.8-6.1,56.7h0A12.8,12.8,0,0,0,125.7,386.27Z"/><path class="cls-10" d="M641.9,15.77c-16.6-22.4-55-21.6-72.6,6.7C550-4.63,511.6-3,496.4,20.37c-16.1,24.7-6.4,58.1,11.7,79.5,21,24.7,64.9,40.8,64.9,40.8s42.8-18.8,62.2-44.8C651.9,73.37,659.4,39.47,641.9,15.77Z"/><path class="cls-10" d="M593.5,190.37c-5.3-7.1-17.6-6.9-23.2,2.1-6.2-8.7-18.4-8.1-23.3-.7-5.1,7.9-2,18.6,3.7,25.4,6.7,7.9,20.7,13,20.7,13s13.7-6,19.9-14.3C596.7,208.77,599.1,197.87,593.5,190.37Z"/><path class="cls-10" d="M578.6,269.27c-1.8-2.5-6.1-2.4-8,.7a5,5,0,0,0-8.1-.2c-1.8,2.7-.7,6.4,1.3,8.8,2.3,2.7,7.2,4.5,7.2,4.5s4.7-2.1,6.9-5C579.8,275.57,580.6,271.87,578.6,269.27Z"/></g></g></svg>