<svg xmlns="http://www.w3.org/2000/svg" xmlns:xlink="http://www.w3.org/1999/xlink" viewBox="0 0 478.63 347.24"><defs><style>.cls-1{fill:none;}.cls-2{fill:#999899;}.cls-3{fill:#fff;}.cls-4{clip-path:url(#clip-path);}.cls-5{fill:#ff4867;}</style><clipPath id="clip-path"><rect class="cls-1" x="150.38" y="130.04" width="39.91" height="126.73"/></clipPath></defs><title>misuji</title><g id="レイヤー_2" data-name="レイヤー 2"><g id="_01" data-name="01"><path class="cls-2" d="M160.94,347.24c3.73-9,10.82-12.91,14.5-18.71,4.06-6.4,7.33-16.85,7.5-22,.83-12.67-7.89-17.17-10.56-23.83-1.95-4.87-5.59-21.12-7.41-29.53-19-7.51-35.3-27-43.09-42.39-10.83-21.42-14.76-43.37-17.6-55.21s-17.94-29.77-38.1-28.27c-3.41-4.66-10.24-12-18.69-16-8-3.79-17.54-4.34-27.29-3.93C9.53,107.38-6.62,91,2.88,79.19,5.71,77,14.71,65.35,20.71,58.52s10.34-17.83,19-25.33a41.34,41.34,0,0,1,24.67-9.67c5,0,8-2,7.75-7.5S58.63,9,53.38,8.85s-10.5-2.33-12-5.66c6.75,2.83,26-4.42,33.33-3s13.17,8.58,15,13.33c.68,1.74,2.64,4.14,5.69,6.6,1.23,0,4-3.22,7-4.85,4.81-2.88,10-3.63,11.25-5.5-.75,3,2.31,12.4-5.32,17.77a57.42,57.42,0,0,0,11,3.23c16.25,3,42.05-6.74,50.75-5.75,13.25,1.5,21.7,8.77,39.92,15.83,20.63,8,44.93,11.45,66.66,12.34,31.91,1.3,113.92-7.42,133.67-11.17,8-8.71,27.38-10,41.75-3.75,11.19,4.89,18.26,15.58,21.58,23.25,11.42,32.5-.08,66.66-4.08,79.75s-6.92,27.32-7.25,38.25c-.25,8.25,4.11,13.8,5.25,19.5,1.72,8.59.4,17.34,1.75,23.5-3.5-1.75-6-10.33-6-10.33a51.29,51.29,0,0,0,9,28c-5-2.84-13-3.42-19.33-18.34-1.84-5.91-3.67-25.08,3.33-41.66,2.5-9.09,5.63-30.68,8-40.92,4-17.25.5-50.75-15-61,6.17,10.83,10.5,40,9,57.25s-21,51.5-24.33,68.67,1.83,35.08,4.33,40.66c5.75,11.42,2,15.42-1,16.67s-1.5,6.75-.33,8.67,1.33,8.58-2.92,12.33-7.21,19.67-7.79,28,3.35,15.62,3.49,19.08c.14,3.13,1.88,9.58-1.45,11.08-4.45,2-4.33-4.67-6.67-4.17-2.85.61-3,10.66-3,10.66s-25.33-.06-33.66-.06c-1.78-11.36,14.25-21.11,17.62-27.63,4.28-8.27,4.76-32.48-.62-44-3.15-6.72-23-18.67-26.67-37.67-2.33-9-12-14.66-31-15.66s-39,15-45,15.66-35.33-4.66-52.67-1.33c-9.81,1.89-20.22,6.25-31.41,10.51,0,0-1.46,14.92-3.92,27.24-1.34,6.73-3.68,19.82-6,23-3.78,7.21-6,20.71-4.53,35.46.21,2.1,1,5.25-1.75,6.75-1.16.63-3.87-2.29-5.11-3-2.73-1.64-3.4,2.64-4,4.85a15.2,15.2,0,0,1-2.3,5.9Z"/><path class="cls-3" d="M112.71,140.52c3.41-3.7,14-2,29.34,1s45.83,3.67,61,14.33,20.33,38.33,19.33,53.67c-3.33,29.67-19,35.66-34,36.5s-38.17-5.67-50-21.17-22.33-42.33-25.33-58.66C111.65,158.56,108.32,145.29,112.71,140.52Z"/><g class="cls-4"><path class="cls-5" d="M112.71,140.52c3.41-3.7,14-2,29.34,1s45.83,3.67,61,14.33,20.33,38.33,19.33,53.67c-3.33,29.67-19,35.66-34,36.5s-38.17-5.67-50-21.17-22.33-42.33-25.33-58.66C111.65,158.56,108.32,145.29,112.71,140.52Z"/></g><path class="cls-3" d="M11.89,96.22c-1.34-3.68,7.25-11.34,12.14-14a43.46,43.46,0,0,1,17.16-5C51.88,76.77,57.76,79,62,84.81c2.5,3.45,7.24,20.24-8,15.38-6-1.93-19.66-2.82-24.18-2.65S13.12,99.61,11.89,96.22Z"/><path class="cls-2" d="M58.88,102.07a17.15,17.15,0,0,1-5.14-.93c-6-1.92-19.66-2.76-23.83-2.6-.88,0-2.05.13-3.42.24-7.82.67-14.39,1-15.54-2.22h0C9.26,91.92,19,83.81,23.56,81.37A44.34,44.34,0,0,1,41.14,76.3c10.91-.54,17.19,1.75,21.68,7.93,1.83,2.52,4.63,11,1.5,15.37A6.29,6.29,0,0,1,58.88,102.07Zm-27.8-5.55c5.34,0,17.49.86,23.27,2.71,4.19,1.34,7,1.07,8.35-.81,2.39-3.3.08-10.85-1.5-13-4.09-5.62-9.68-7.61-20-7.1a42.22,42.22,0,0,0-16.73,4.83c-5,2.69-12.68,10-11.68,12.75h0c.72,2,9.67,1.24,13.5.91,1.38-.12,2.58-.22,3.5-.25Z"/><path class="cls-3" d="M114.71,39.85c10,1.34,11.34,11,8.34,19s-13.53,46.66-16.87,55S94.27,125.66,86.94,123s-8.56-8.82-7.23-20.15S90.05,60.52,95.05,51.19,104.71,38.52,114.71,39.85Z"/><path class="cls-2" d="M91.89,124.87a15.62,15.62,0,0,1-5.3-.93c-8.28-3-9.15-10.35-7.87-21.21,1.3-11,10.29-42.39,15.45-52,5.46-10.19,10.68-13.18,20.68-11.85a11.52,11.52,0,0,1,8.79,5.36c2.3,3.83,2.42,9.43.34,15-1.37,3.66-4.35,13.85-7.5,24.64-3.71,12.71-7.56,25.85-9.37,30.38A16.57,16.57,0,0,1,91.89,124.87Zm18.91-84.3c-6.67,0-10.59,3.09-14.87,11.09C90.85,61.14,82,92.08,80.71,103c-1.41,12,.25,16.79,6.57,19.09,7.24,2.63,15-1.06,18-8.59,1.77-4.44,5.6-17.53,9.3-30.19,3.16-10.83,6.15-21.05,7.55-24.78,1.87-5,1.8-9.94-.18-13.25-1.48-2.47-4-4-7.35-4.41A28.7,28.7,0,0,0,110.8,40.57Z"/><path class="cls-3" d="M197.38,64.52c-.66-9-2.25-15-8.25-19.75s-18.75-9.25-18.75-9.25-17.5-.75-22.5,1.75-12.5,10-15,17.75-14.48,48.62-17.23,56.62,1.28,18.67,9.15,20.82c11,3,28.83,7.31,41.83,2.06s21.5-12.92,24.75-28.67S198.13,74.77,197.38,64.52Z"/><path class="cls-2" d="M152.19,138c-9.31,0-19.21-2.25-27.65-4.55a14,14,0,0,1-8.5-7.27,19.32,19.32,0,0,1-1.33-14.85c1.59-4.65,6.34-20.49,10.52-34.47,3-10.14,5.65-18.89,6.7-22.13,2.51-7.79,10-15.59,15.5-18.34,5.17-2.58,22.27-1.88,23-1.85l.29.06c.53.18,13,4.61,19,9.4,6.33,5,8,11.3,8.63,20.47h0c.69,9.41-2.12,22.86-5.09,37.11l-.93,4.49c-3,14.65-10.61,23.44-25.36,29.4A39.6,39.6,0,0,1,152.19,138ZM164.52,36.41c-5.48,0-13.25.28-16.19,1.75-4.48,2.24-12,9.45-14.5,17.17-1,3.21-3.78,12.38-6.69,22.09-4.18,14-8.93,29.85-10.54,34.54a17.28,17.28,0,0,0,1.21,13.26,12,12,0,0,0,7.26,6.28c12.88,3.51,29.21,6.93,41.19,2.09,14.24-5.75,21.23-13.85,24.14-27.94l.93-4.5c2.94-14.1,5.72-27.43,5-36.56h0c-.63-8.61-2.12-14.48-7.87-19-5.47-4.33-16.92-8.53-18.32-9C169.6,36.49,167.37,36.41,164.52,36.41Z"/><path class="cls-2" d="M185.75,247.09c-15.82,0-37.2-7.27-48.17-21.63-11.93-15.63-22.53-42.84-25.52-59.09-.16-.91-.36-1.89-.56-2.93-1.58-8-3.74-19,.48-23.6,3.79-4.12,14.44-2.4,30.26.7,4,.77,9.09,1.41,14.52,2.08,15.8,2,35.46,4.39,46.86,12.41,8.81,6.2,13.62,17.35,16.11,25.62a86.83,86.83,0,0,1,3.65,28.93c-3.6,32-21.67,36.7-34.94,37.44C187.56,247.07,186.67,247.09,185.75,247.09ZM120.18,139.41c-3.23,0-5.56.52-6.73,1.79h0c-3.53,3.83-1.4,14.68,0,21.86.21,1,.4,2,.57,2.95,2.94,16,13.39,42.84,25.14,58.24,11.19,14.64,33.68,21.62,49.15,20.77,25.92-1.44,31.29-19.79,33.07-35.61,1-15.18-4.34-42.49-18.92-52.74-11-7.73-30.38-10.14-46-12.06-5.46-.68-10.61-1.32-14.66-2.11C133.05,140.78,125.44,139.41,120.18,139.41Z"/><path class="cls-3" d="M205.71,65.19c.67-6.34,6.67-13,15.67-10.34s29.67,7.34,36,8.34S269,70.85,269,78.52s2.33,48.33,1,56.67-5.62,19-19.29,20.66-32.66-2.33-40.33-5.66-18.33-12.67-13.67-28S205.05,71.52,205.71,65.19Z"/><path class="cls-2" d="M243.69,157.25c-12.69,0-27.12-3.28-33.71-6.15a27.83,27.83,0,0,1-11.9-9.87c-3.66-5.62-4.46-12.3-2.32-19.34,2.94-9.67,6.11-29.74,8.93-56.5l0-.31a13.74,13.74,0,0,1,5.86-9.78,12.73,12.73,0,0,1,11.08-1.41c8.67,2.57,29.4,7.29,35.88,8.31,7,1.1,12.46,8.27,12.46,16.32,0,2.28.21,7.45.47,14,.62,15.57,1.47,36.89.52,42.82-2,12.71-9,20.14-20.16,21.5A58.5,58.5,0,0,1,243.69,157.25Zm-26.28-102A10.12,10.12,0,0,0,211.69,57a11.72,11.72,0,0,0-5,8.33l0,.31c-2.83,26.88-6,47.08-9,56.88-2.62,8.59-.75,20.76,13.11,26.79,7.83,3.4,26.77,7.18,39.81,5.59,10.32-1.26,16.52-7.93,18.42-19.83.92-5.74,0-27.82-.54-42.43C268.21,86,268,80.84,268,78.52c0-7-4.83-13.41-10.78-14.35-6.52-1-27.4-5.78-36.12-8.36A13.18,13.18,0,0,0,217.41,55.25Z"/><path class="cls-3" d="M276.38,78.85c.33-6.66,7-13.18,14.67-13.18s29.34-1.08,39.33-2.65c15-2.35,21,3.83,20.5,10.5s2.17,55,2.17,59.67c0,8-9.34,14-17,15.66s-35.67,3.34-42.67,2.67-15-3-15-13.5S276.05,85.52,276.38,78.85Z"/><path class="cls-2" d="M298.06,152.67c-2,0-3.63,0-4.78-.16-3.93-.37-15.9-1.51-15.9-14.49,0-4.81-.51-16.58-1-28-.58-13.58-1.18-27.61-1-31.26.38-7.53,7.7-14.13,15.67-14.13s29.3-1.09,39.17-2.64c10.5-1.65,15.83.89,18.45,3.3a10,10,0,0,1,3.21,8.26c-.33,4.33.71,26.62,1.47,42.89.39,8.43.7,15.09.7,16.71,0,6.19-6.24,14.13-17.79,16.64C329.93,151.21,308.88,152.67,298.06,152.67Zm38.35-89.15a37.87,37.87,0,0,0-5.88.49c-10,1.56-31.57,2.66-39.48,2.66-6.84,0-13.35,5.83-13.67,12.23-.18,3.55.42,17.54,1,31.07.52,11.93,1,23.19,1,28.05,0,7.72,4.35,11.57,14.09,12.5,7.26.7,35-1,42.36-2.64,6.74-1.47,16.22-7,16.22-14.69,0-1.58-.31-8.21-.7-16.61-.76-16.33-1.8-38.68-1.47-43.14a7.91,7.91,0,0,0-2.57-6.64C345,64.63,341.19,63.52,336.41,63.52Z"/><path class="cls-3" d="M356.88,72.77c.25-7.5,2.75-11.83,10.5-12.92s40.75-6.08,48-7.33c17.25-5,20.58,11.44,18.75,16.75-5.5,16-17.5,28.5-22.5,38s-6.75,21.75-12.25,28-13.25,12.5-24.25,12-17.25-5.5-17.25-16S356.63,80.27,356.88,72.77Z"/><path class="cls-2" d="M376.37,148.3l-1.29,0c-11.91-.54-18.2-6.42-18.2-17,0-4.51-.23-14.56-.48-25.19-.32-14.28-.66-29-.52-33.34.29-8.66,3.69-12.81,11.36-13.88s40.55-6,47.92-7.32c8.55-2.46,13.46.29,16.07,3,4.32,4.53,5,11.63,3.85,15-3.61,10.5-9.84,19.31-15.34,27.08a111.85,111.85,0,0,0-7.23,11.06,89.2,89.2,0,0,0-5,12.62c-2.07,6.07-4,11.8-7.35,15.58C392.82,144.24,385,148.3,376.37,148.3Zm45-95.7a20.57,20.57,0,0,0-5.7.88l-.11,0c-7.27,1.26-40.24,6.25-48,7.34-6.68.94-9.39,4.29-9.64,12-.14,4.25.2,19,.52,33.23.25,10.65.48,20.71.48,25.24,0,9.59,5.33,14.5,16.3,15,8.53.39,16.2-3.43,23.45-11.66,3.06-3.48,5-9,7-14.91a91.75,91.75,0,0,1,5.15-12.9,111.68,111.68,0,0,1,7.37-11.28c5.42-7.66,11.56-16.35,15.07-26.58,1-2.82.32-9.08-3.4-13A11.13,11.13,0,0,0,421.36,52.6Z"/><path class="cls-3" d="M440.33,53.69c-2.7-5.24-7.8-8.72-6.38-9.87s8.76-1.13,13.76.53c9.84,3.34,14.5,9.17,18.84,17,10.66,18.34,7.88,46.65,4.55,48.32-1.66.83-3.53-16.36-8.9-24.88a145.77,145.77,0,0,0-12.82-17A86.07,86.07,0,0,1,440.33,53.69Z"/><path class="cls-2" d="M471,110.69a1.4,1.4,0,0,1-.53-.11c-1-.48-1.51-2.2-2.86-7.55s-3.27-13-6.23-17.7a123.55,123.55,0,0,0-10.9-14.69L448.6,68.4a87.26,87.26,0,0,1-9.16-14.25h0a30.77,30.77,0,0,0-4.3-5.92c-1.52-1.77-2.53-2.94-2.43-4.06a1.6,1.6,0,0,1,.61-1.13c2.06-1.65,10-1.19,14.71.36,10,3.38,14.81,9.19,19.39,17.47,9.22,15.84,8.55,38.32,6.17,46.29-.57,1.91-1.22,3-2,3.4A1.25,1.25,0,0,1,471,110.69Zm-36.22-66.2a16.2,16.2,0,0,0,1.9,2.43,33.17,33.17,0,0,1,4.56,6.31,84.86,84.86,0,0,0,8.94,13.91c.55.68,1.16,1.41,1.84,2.22a126.91,126.91,0,0,1,11.05,14.9c3.13,5,5.06,12.66,6.48,18.28.54,2.14,1.13,4.49,1.57,5.65,2.22-4.23,4.75-28.86-5.42-46.33-4.36-7.88-8.93-13.39-18.29-16.56C442.54,43.68,436.23,43.78,434.76,44.49Z"/><path class="cls-3" d="M418.63,111.52c5-10.16,9.71-17.93,11.94-21.64,2.75-4.59,6.59-10.7,10.06-10.11,2.82.48,6.1,8.07,7.25,12.08,4,14,7.83,27.34,3.83,46.34s-17.33,38.66-21,51.66-4.33,24.67-19.33,29c-6.33,1.67-19,5.17-22.25,6.67-7.25,3.25-13.17,3.42-6.75-9.75,2.52-5.18,8.1-12.48,11-21.75,4.48-14.31,6.42-31.91,10.67-42.83C407.92,141.21,412.45,124.14,418.63,111.52Z"/><path class="cls-2" d="M382.65,228.36a3.94,3.94,0,0,1-3-1.09c-1.82-1.87-1.24-5.67,1.82-11.94.82-1.68,1.91-3.51,3.17-5.63,2.6-4.35,5.83-9.76,7.78-16,2.07-6.62,3.59-13.95,5.07-21,1.7-8.21,3.32-15.95,5.61-21.87,1.36-3.48,2.81-7.9,4.36-12.59,2.91-8.86,6.22-18.9,10.26-27.15h0C422.48,101.39,427,94,429.35,90l.36-.59c3.43-5.72,7.1-11.26,11.08-10.58,3.77.64,7.16,9.68,8,12.8l0,.11c4,14.15,7.86,27.51,3.82,46.7-2.36,11.22-7.93,22.65-12.85,32.74-3.43,7-6.66,13.67-8.16,19-.52,1.83-1,3.64-1.42,5.39-2.77,11-5.17,20.42-18.6,24.3-6.28,1.65-18.94,5.15-22.11,6.62A18.2,18.2,0,0,1,382.65,228.36Zm57.5-147.63c-2.93,0-6.82,6.49-8.73,9.66l-.35.59c-2.39,4-6.83,11.37-11.54,21h0c-4,8.12-7.27,18.1-10.16,26.9-1.55,4.71-3,9.16-4.39,12.69-2.24,5.76-3.84,13.42-5.53,21.54-1.48,7.14-3,14.52-5.12,21.23-2,6.44-5.31,12-8,16.41-1.24,2.08-2.31,3.88-3.09,5.48-3.49,7.16-2.69,9.15-2.18,9.67s2,1.23,7.62-1.27c4.12-1.9,21.66-6.53,22.41-6.72,12.3-3.56,14.46-12.08,17.19-22.87.45-1.76.91-3.59,1.43-5.44,1.55-5.49,4.82-12.21,8.29-19.32,4.87-10,10.38-21.31,12.69-32.28,3.94-18.71.19-31.84-3.78-45.74l0-.11c-1.43-5-4.56-11.06-6.46-11.38Z"/><path class="cls-3" d="M390.38,231.27c6.33-1.25,21.83-4.42,26.25-6.5s9.75-.42,11,4.5c4.08,13.75,3.42,23.42,1.75,29.08s-2.33,13.17-8.33,15.84-12.5-3-18.17-8.34-12.33-13.67-14.5-20.33S384.05,232.52,390.38,231.27Z"/><path class="cls-2" d="M417.86,275.86c-5.81,0-11.6-5.45-15.66-9.28-5.76-5.41-12.56-13.93-14.77-20.75l-.1-.32c-1.6-4.91-3.11-9.55-1.34-12.57a5.86,5.86,0,0,1,4.2-2.65c13.54-2.68,23-5,26-6.43a9.6,9.6,0,0,1,8.08-.14,7.87,7.87,0,0,1,4.32,5.3c4.57,15.38,3,25.16,1.74,29.61-.3,1-.56,2.08-.84,3.2-1.26,5.1-2.69,10.89-8.05,13.27A8.68,8.68,0,0,1,417.86,275.86Zm2.63-51a8.06,8.06,0,0,0-3.43.78c-4.29,2-18.44,5-26.49,6.58a4,4,0,0,0-2.86,1.7c-1.31,2.24.13,6.67,1.52,10.94l.1.32c2.11,6.48,8.67,14.67,14.24,19.91,5.74,5.41,11.79,10.5,17.07,8.15,4.46-2,5.71-7,6.92-11.92.28-1.14.55-2.23.86-3.28,1.25-4.24,2.68-13.59-1.75-28.52a5.85,5.85,0,0,0-3.24-4A6.82,6.82,0,0,0,420.49,224.89Z"/><path class="cls-3" d="M368.88,160.74c2.75,4.5,9.36,12.38,12.65,18.78,3.85,7.48,3.85,20.15-1.15,26.15-5.83,7-20,7.85-24,.6s-9.65-19-10.82-29.77-.33-21.61,7.49-24.65C360.43,149,366.13,156.24,368.88,160.74Z"/><path class="cls-2" d="M367,212.33q-.93,0-1.86-.09c-4.51-.43-7.93-2.38-9.65-5.49-4.35-7.89-9.78-19.53-10.93-30.14-1.56-14.35,1.17-23,8.11-25.69,5.93-2.3,12,1,17.06,9.3,1,1.69,2.67,3.94,4.41,6.33a104.6,104.6,0,0,1,8.27,12.51c3.86,7.51,4.14,20.75-1.27,27.25C378.05,210,372.54,212.33,367,212.33ZM356.42,152.2a8.31,8.31,0,0,0-3,.58c-6,2.33-8.31,10.28-6.86,23.61,1.12,10.29,6.44,21.66,10.71,29.4,1.38,2.51,4.25,4.09,8.08,4.46,5.41.52,11.28-1.63,14.27-5.22,4.85-5.82,4.53-18.24,1-25.05a102.23,102.23,0,0,0-8.1-12.25c-1.77-2.42-3.44-4.7-4.51-6.47C365.36,156.9,361.35,152.2,356.42,152.2Z"/><path class="cls-3" d="M227.44,174.22c2.28-8.51,9.21-12,20.12-12s64.63-4.34,75.23-4.69,14.9,4.66,15.73,9.5-1.26,13-7.41,15.12-16.25,5.47-42.95,7.64-39.17,2.32-46.53,1.8S223.87,187.6,227.44,174.22Z"/><path class="cls-2" d="M249.71,192.79c-3.14,0-5.85-.08-8.16-.24-3.66-.26-10.31-1.41-13.72-6.19-2.25-3.16-2.71-7.33-1.35-12.4h0c2.29-8.57,9.18-12.75,21.08-12.78,6.28,0,27-1.47,45.28-2.75,13.08-.92,25.44-1.79,29.92-1.94,13.81-.44,16.31,7.79,16.75,10.33.92,5.35-1.38,14-8.08,16.23-6.1,2.07-16.31,5.52-43.19,7.69C271.24,192.12,258.69,192.79,249.71,192.79Zm-21.3-18.32c-1.19,4.47-.84,8.08,1.05,10.73,2.93,4.11,8.93,5.12,12.24,5.35,8.79.62,23.53,0,46.38-1.8,26.64-2.16,36.7-5.56,42.71-7.59,5.57-1.88,7.52-9.47,6.75-14-1-5.7-6.48-8.94-14.72-8.67-4.44.15-16.78,1-29.84,1.93-18.31,1.29-39.06,2.75-45.42,2.76-11,0-17.1,3.61-19.15,11.29Z"/><path class="cls-3" d="M243.26,197.54c5.11-.48,23.92-.12,43.09-2,21-2,42.39-6.3,46.24-6.88,7.37-1.1,11.61,2,12.72,9.07s1.29,12.05-8.19,16.42-28,9.12-44.71,11.26-39.45,3.1-55-.4c-5-1.82-9.62-8.71-8.43-14.67S232.56,198.53,243.26,197.54Z"/><path class="cls-2" d="M262.84,228.36c-8.64,0-17.78-.58-25.66-2.35l-.13,0c-5.26-1.94-10.37-9.27-9.07-15.81s4-12.58,15.19-13.62h0c1.75-.16,4.92-.22,9.3-.31,8.39-.17,21.07-.43,33.78-1.66,16.65-1.62,33.6-4.65,41.74-6.11,2.12-.38,3.66-.65,4.45-.77,7.85-1.17,12.65,2.25,13.86,9.91,1.16,7.33,1.21,12.88-8.76,17.48-9.72,4.48-28.65,9.25-45,11.34A245.52,245.52,0,0,1,262.84,228.36Zm-25.16-4.29c15.44,3.45,38.32,2.45,54.6.37s34.86-6.77,44.42-11.18c8.91-4.11,8.7-8.51,7.62-15.35-1-6.56-4.82-9.25-11.58-8.24-.79.12-2.3.39-4.4.76-8.16,1.46-25.16,4.5-41.89,6.13-12.8,1.24-25.52,1.5-33.94,1.67-4.18.08-7.48.15-9.15.3h0c-10.36,1-12.36,6.71-13.41,12C228.85,216,233.27,222.4,237.68,224.07Z"/><path class="cls-3" d="M330.71,104.85c-.33-13.66,5.67-19.66,24-22.33s32.34,4.33,32.67,16-12.33,22.67-27.33,23.67S331.05,118.52,330.71,104.85Z"/><path class="cls-2" d="M356.14,124.32c-9.39,0-17-2.33-21.83-6.7a17.11,17.11,0,0,1-5.6-12.72c-.36-15,6.61-21.58,25.72-24.36,11.91-1.73,22.44.38,28.89,5.8a16.17,16.17,0,0,1,6.06,12.12c.37,12.86-13,24.64-29.2,25.72C358.8,124.27,357.46,124.32,356.14,124.32ZM362.24,84a50.56,50.56,0,0,0-7.24.54c-19.08,2.77-22.56,9.28-22.29,20.3a13.27,13.27,0,0,0,4.3,9.87c4.57,4.17,12.92,6.19,22.9,5.52,13.87-.92,25.77-11,25.47-21.61a12.25,12.25,0,0,0-4.64-9.18C376.53,85.86,369.89,84,362.24,84Z"/><path class="cls-3" d="M200.88,110.19c-19.33-8.34-37,16.66-38.67,29.33s7.5,62,9,68.67,5.67,9.66,9.67,9.83,11.83.83,16,.83,7.85-4.25,9.17-10.33c2.16-10,14.83-44.34,17.16-57.67S224.47,120.36,200.88,110.19Z"/><path class="cls-2" d="M196.88,220.85c-2.69,0-6.85-.27-10.51-.51-2.13-.13-4.11-.26-5.57-.32-4.38-.19-9.71-3.27-11.54-11.39-1.57-7-10.73-56.48-9-69.37,1.21-9.18,9.81-23.15,20.69-29.33,6.89-3.91,14.07-4.46,20.75-1.58h0c19.4,8.36,27.1,22.38,23.51,42.85-1.36,7.81-6.16,22.54-10.4,35.53-3,9.29-5.88,18.07-6.78,22.21C206.46,216.07,202,220.85,196.88,220.85ZM193,110.52a20.31,20.31,0,0,0-10.09,2.89c-9.7,5.51-17.64,18.32-18.7,26.37-1.55,11.78,7.06,59.48,9,68,1.13,5,4.05,8.11,7.8,8.27,1.49.06,3.51.19,5.67.33,3.6.24,7.69.5,10.25.5,3.13,0,6.1-3.6,7.21-8.76.94-4.34,3.7-12.8,6.89-22.59,4.19-12.87,8.94-27.46,10.26-35,4.29-24.48-10-33.69-21.15-38.49h0A17.86,17.86,0,0,0,193,110.52Z"/><path class="cls-3" d="M387.71,132.19c-14.83,10.08-17.45,23.09-14.33,29,6.25,11.83,18.83,17.33,22.67,23.33s9.66,12.42,18,8.33,10.33-19,10.33-19,2.42-24.66-1.67-33S402.55,122.1,387.71,132.19Z"/><path class="cls-2" d="M408.93,196.15c-5.2,0-10.08-3.53-14.57-10.55-1.34-2.1-4.1-4.29-7.29-6.83-5.12-4.07-11.49-9.13-15.46-16.65-3.45-6.54-1.09-20.67,15-31.59a24.7,24.7,0,0,1,20.74-3.62c8.56,2.26,14.79,8.19,17.18,13.06,4.28,8.74,2,33.05,1.86,34.08-.1.72-2.26,16.1-11.44,20.6A13.63,13.63,0,0,1,408.93,196.15ZM400.77,130a20.93,20.93,0,0,0-11.93,3.8c-13.88,9.43-16.37,21.34-13.69,26.41,3.58,6.78,9.33,11.35,14.4,15.38,3.48,2.77,6.48,5.15,8.18,7.81,5.11,8,9.87,10.35,15.44,7.62,7.26-3.56,9.21-17.34,9.23-17.47.65-6.64,1.66-25.44-1.48-31.86-1.93-3.92-7.32-9-14.61-11A22,22,0,0,0,400.77,130Z"/><path class="cls-3" d="M198.88,227.35c5.17.67,9.83,6.17,10,16.67.12,7.83-3.83,29.41-6.5,36.83s-14.92,7.67-19.17.84-10.83-23.34-11.5-40.34c-.35-9,4.92-13.16,9.17-13.83A80.23,80.23,0,0,1,198.88,227.35Z"/><path class="cls-2" d="M192.89,288.62a13.29,13.29,0,0,1-11.38-5.88c-4.36-7-11.11-23.82-11.8-41.31-.37-9.69,5.37-15,10.86-15.89a83.27,83.27,0,0,1,18.57-.17c5.29.68,11.54,6,11.74,18.62.13,8.32-3.95,30.13-6.62,37.54-1.4,3.89-5,6.51-9.75,7C194,288.59,193.42,288.62,192.89,288.62Zm-2.06-59.69a72,72,0,0,0-9.64.56c-2.93.46-7.8,3.46-7.48,11.78.65,16.6,7.22,33,11.2,39.36,2,3.18,6,4.26,9.18,3.93s5.54-2,6.41-4.39c2.53-7,6.5-28.35,6.38-36.12-.16-10.09-4.55-14.24-8.26-14.71A62.81,62.81,0,0,0,190.83,228.93Z"/></g></g></svg>