<svg xmlns="http://www.w3.org/2000/svg" viewBox="0 0 369.83 369.83"><defs><style>.cls-1,.cls-2{fill:#fff;}.cls-2{opacity:0.35;}.cls-3{fill:#ff4867;}</style></defs><title>point.svg</title><g id="レイヤー_2" data-name="レイヤー 2"><g id="レイヤー_1-2" data-name="レイヤー 1"><circle class="cls-1" cx="184.92" cy="184.92" r="117.87"/><circle class="cls-2" cx="184.92" cy="184.92" r="184.92"/><path class="cls-3" d="M166.83,103.62c-12.91,0-11.64,16.72-11.64,16.72v72.85L153,191,142.1,180.1l-2.74-2.74a11.25,11.25,0,0,0-16.45,14.41l2.2,2.93c8.56,11.36,26.59,35.11,37.24,47.76,14.33,17,37.62,14.62,37.62,14.62,39.86,0,38.07-39.78,38.07-39.78V165.87a12.36,12.36,0,0,0-7.09-10.41,16,16,0,0,0-13.51.11c-7.81-13.54-19.73-5.95-19.73-5.95-8.13-12.78-19.68-4.8-19.68-4.8V116.48C178,103.36,166.83,103.62,166.83,103.62Z"/></g></g></svg>