<svg xmlns="http://www.w3.org/2000/svg" viewBox="0 0 1394.34 365"><defs><style>.cls-1{fill:#fff;}.cls-2{fill:#ff4867;}.cls-3{fill:#ff7694;}.cls-4{fill:none;}</style></defs><title>registered-student</title><g id="レイヤー_2" data-name="レイヤー 2"><g id="レイヤー_2-2" data-name="レイヤー 2"><path class="cls-1" d="M781.21,287.2S769,306.9,772,311.8s33,30,33,30,16.8,28.4,30,15.2-20.3-25.1-20.3-25.1l-19.3-22.4,6.3-12.9Z"/><path class="cls-2" d="M778.21,285.4a91.36,91.36,0,0,0-8.9,18c-2.3,6.9-.6,10.6,4.3,15.4,6,6,12.5,11.5,18.9,17,2.5,2.2,5.1,4.3,7.6,6.5l1.9,1.6c.9.8-.7-1,.2.1,7,9.5,19.7,27.1,33.2,17,6.2-4.6,7.8-12,3.1-18.2-4.3-5.7-11.3-9.3-17.7-12.2a32,32,0,0,0-3.9-1.6c-2.2-.8,0-.4.1.3-.2-1.7-4.4-5.1-5.5-6.4-4.6-5.3-9.2-10.6-13.7-15.9.2,1.4.4,2.8.5,4.2l6.3-12.9c.8-1.5.6-3.9-1.2-4.7-6.8-3.2-13.7-6.3-20.5-9.5-4-1.8-7.5,4.1-3.5,6,6.8,3.2,13.7,6.3,20.5,9.5-.4-1.6-.8-3.1-1.2-4.7l-6.3,12.9a3.8,3.8,0,0,0,.5,4.2l9.3,10.8c3.1,3.6,6.2,8.6,10,11.6,2.8,2.3,7.3,3.2,10.4,4.9,3.8,2,12.5,6.4,11.9,11.8-.3,3.1-4.1,5.8-7,6-3.2.2-6.3-1.9-8.7-3.9-4.4-3.6-7.3-8.1-10.6-12.6-1.9-2.5-4.6-4.3-7-6.4-5.6-4.8-11.3-9.7-16.8-14.6-2.7-2.5-5.5-5-8-7.7-1.8-2-1.8-2.5-1-5.3,1.8-6.2,5.2-12.2,8.6-17.7C786.51,285.1,780.51,281.7,778.21,285.4Z"/><path class="cls-1" d="M955.81,287.2s12.2,19.7,9.2,24.6-33,30-33,30-16.8,28.4-30,15.2,20.3-25.1,20.3-25.1l19.3-22.4-6.3-12.9Z"/><path class="cls-2" d="M952.81,288.9a91.31,91.31,0,0,1,7.7,14.9c.6,1.7,2,4.9,1.4,6.4-.8,2-3.8,4-5.3,5.4-5.4,5.2-11.1,10.1-16.8,15-3.3,2.8-7.4,5.5-10.3,8.7-5.1,5.7-14.6,23.8-24.4,15.9-10.6-8.5,12-17.3,17.7-19.9,4-1.9,7-7,9.9-10.4L944,311.8a3.48,3.48,0,0,0,.5-4.2l-6.3-12.9c-.4,1.6-.8,3.1-1.2,4.7,6.8-3.2,13.7-6.3,20.5-9.5,4-1.9.5-7.8-3.5-6-6.8,3.2-13.7,6.3-20.5,9.5-1.8.8-2,3.2-1.2,4.7l6.3,12.9c.2-1.4.4-2.8.5-4.2-3.9,4.5-7.7,9-11.6,13.4-2.2,2.5-4.5,4.9-6.5,7.5-.2.3-1.8,2.5-.5,1,.9-1,.3-.2-.7.1-9.8,3.5-30.8,14-22.6,27.4,4.2,6.9,12.4,9,19.6,5.6,6.7-3.2,11.9-9.5,16.1-15.5.6-.9,1.1-1.8,1.7-2.6.8-1.1-.7.6.1-.1,1.7-1.5,3.5-2.9,5.2-4.4,6.5-5.5,13-11.1,19.2-16.9,5-4.6,10.9-8.8,9.4-16.4-1.5-7.4-5.8-14.6-9.7-21C956.41,281.7,950.41,285.1,952.81,288.9Z"/><path class="cls-1" d="M851.71,188.9l1.5,19.6c0,29.1,27,29.1,27,0V186.7S851.71,189.2,851.71,188.9Z"/><path class="cls-2" d="M848.21,188.9c.5,6.2,1.1,12.5,1.5,18.7.5,7.9,1.3,16.5,7.5,22.3a13.77,13.77,0,0,0,17.5,1.3c7.2-5.1,8.9-14.7,9-22.9.1-7.2,0-14.3,0-21.5a3.6,3.6,0,0,0-3.4-3.5c-4.6.4-9.2.8-13.8,1.1-3.1.3-6.2.5-9.3.7-1.2.1-2.4.1-3.7.2-.8.1-2.1-.3-.8.2-4.2-1.6-6,5.1-1.8,6.7,1.4.5,3.4,0,4.8,0,3.3-.2,6.6-.5,9.9-.8l14.8-1.2-3.5-3.5v20.4c0,6.2-1,19.3-9.7,19.7-8.9.4-10.1-12.7-10.4-18.8-.4-6.4-1-12.8-1.5-19.2C854.81,184.5,847.91,184.5,848.21,188.9Z"/><path class="cls-1" d="M956.81,287.2s-18.2-45.5-24.8-62.6-42.6-16.8-42.6-16.8c-1.5,3.1-8.8,9-20.9,10.3-12.2-1.3-19.4-7.2-20.9-10.3,0,0-36.1-.3-42.6,16.8s-24.7,62.6-24.7,62.6l18.6,16.3,27.5-41.4-.7,97.9h85.9l-.7-97.9,27.5,41.4Z"/><path class="cls-2" d="M960.11,286.3c-5.9-14.6-11.7-29.3-17.5-43.9-1.8-4.5-3.5-9-5.3-13.5-1.4-3.7-2.6-7.5-5.1-10.6-5.5-6.9-14.7-10-23.1-11.8a87.64,87.64,0,0,0-19.8-2.1,3.4,3.4,0,0,0-3,1.7c-2.9,5.2-12.4,8.5-18,8.5s-15-3.3-18-8.5a3.4,3.4,0,0,0-3-1.7c-13.3-.1-30.1,2.1-40.4,11.3-6.2,5.5-8.2,15-11.2,22.4-3.9,9.9-7.8,19.8-11.8,29.7-2.5,6.2-4.9,12.3-7.4,18.5a3.57,3.57,0,0,0,.9,3.4c6.2,5.4,12.4,10.9,18.6,16.3a3.53,3.53,0,0,0,5.4-.7c9.2-13.8,18.3-27.6,27.5-41.4-2.1-.6-4.3-1.2-6.4-1.7-.2,28.5-.4,57.1-.6,85.6,0,4.1-.1,8.2-.1,12.2a3.54,3.54,0,0,0,3.5,3.5h85.9a3.39,3.39,0,0,0,3.4-3.5c-.2-28.5-.4-57.1-.6-85.6,0-4.1-.1-8.2-.1-12.2-2.1.6-4.3,1.2-6.4,1.7,9.2,13.8,18.3,27.6,27.5,41.4a3.53,3.53,0,0,0,5.4.7c6.2-5.4,12.4-10.9,18.6-16.3,3.3-2.9-1.6-7.8-4.9-4.9-6.2,5.4-12.4,10.9-18.6,16.3,1.8.2,3.6.5,5.4.7-9.2-13.8-18.3-27.6-27.5-41.4-1.8-2.8-6.5-1.8-6.4,1.7.2,28.5.4,57.1.6,85.6,0,4.1.1,8.2.1,12.2l3.5-3.5h-85.9c1.1,1.2,2.3,2.3,3.5,3.5.2-28.5.4-57.1.6-85.6,0-4.1.1-8.2.1-12.2,0-3.6-4.6-4.5-6.4-1.7-9.2,13.8-18.3,27.6-27.5,41.4,1.8-.2,3.6-.5,5.4-.7-6.2-5.4-12.4-10.9-18.6-16.3.3,1.1.6,2.2.9,3.4,5.3-13.2,10.5-26.3,15.7-39.5,3.1-7.9,5.5-16.9,9.6-24.3,4-7.2,13.8-9.8,21.2-11.3a85.19,85.19,0,0,1,17.5-1.8c-1-.6-2-1.1-3-1.7,4.1,7.4,15.9,12,23.9,12s19.8-4.5,23.9-12c-1,.6-2,1.1-3,1.7,11.7-.1,28.5,1.4,36.8,10.5,2.5,2.7,3.5,6.4,4.8,9.8,1.7,4.4,3.4,8.8,5.2,13.2,3.6,9.1,7.2,18.3,10.9,27.4,2.1,5.3,4.3,10.7,6.4,16C955.11,292.2,961.71,290.4,960.11,286.3Z"/><path class="cls-1" d="M28.71,301.9s6.9,51.8,33.5,35.5c0,0,15-13.6-2-33.9l-18.5-10.3Z"/><path class="cls-2" d="M25.41,302.8c1.8,13,6.2,31,18,38.5,6.5,4.1,16.7,3.4,22.1-2.4,7.9-8.4,7.6-21,2.3-30.6-1.6-2.8-3.6-6.2-6.3-8.1a65.51,65.51,0,0,0-5.8-3.2c-4.1-2.3-8.2-4.6-12.3-6.8a3.38,3.38,0,0,0-3.5,0L27,298.9c-3.7,2.5-.2,8.4,3.5,6l12.9-8.7h-3.5c5.8,3.2,12.5,5.9,17.8,9.9,4.4,3.3,7.2,11.1,7.2,16.5a18.13,18.13,0,0,1-3.6,10.7c-3.5,4.6-10.8,4.9-15.2,1.5-5.8-4.4-8.7-12.4-10.7-19.1a83.3,83.3,0,0,1-3.3-14.8C31.51,296.6,24.81,298.4,25.41,302.8Z"/><path class="cls-1" d="M207.91,301.9s-6.9,51.8-33.5,35.5c0,0-15-13.6,2-33.9L195,293.2Z"/><path class="cls-2" d="M204.61,301c-1.4,10.7-4.5,23.9-12,31.9-4.2,4.5-11.3,5.9-16.3,1.5-7.9-7-4-18.9.7-26.2,2.1-3.3,6.6-4.8,9.9-6.7s6.5-3.6,9.7-5.4h-3.5l12.9,8.7c3.7,2.5,7.2-3.5,3.5-6l-12.9-8.7a3.38,3.38,0,0,0-3.5,0c-3.4,1.9-6.8,3.8-10.2,5.6-3.6,2-7.7,3.6-10.3,6.7-8,9.6-10.9,23.4-3.4,34.1a18.18,18.18,0,0,0,20.6,6.3c8.6-3.2,13.2-12.4,16.3-20.4a89,89,0,0,0,5-19.7C211.81,298.4,205.21,296.6,204.61,301Z"/><path class="cls-3" d="M229.41,244.9s-5.7-11.1-15.5-51.2-36.4-43.9-36.4-43.9l-30-10.9-28.7,1.2-28.7-1.2-30,10.9s-26.6,3.9-36.4,43.9-15.5,51.2-15.5,51.2-15,25.6,8,55l9,11.1a9.12,9.12,0,0,1,.8-1.6l17.5-16.3a26.81,26.81,0,0,1,2.7-.7l-9.8-26.9,19.1-29.7.8,65.9-.8,17.7L54,350.9s26.6,10.1,64.1,10.7h1.4c37.5-.6,64.1-10.7,64.1-10.7l-1.5-31.5-.8-17.6.8-65.9,19.1,29.7-9.8,26.9a26.81,26.81,0,0,1,2.7.7l17.5,16.3.8,1.6,9-11.1C244.41,270.5,229.41,244.9,229.41,244.9Z"/><path class="cls-2" d="M232.41,243.2c-5.2-10.3-8.6-25.1-11.8-37.1-5.5-20.8-10.9-42.9-30.6-54.9-7.3-4.4-16.7-6.6-24.7-9.5-5.5-2-11.6-5.3-17.3-6.2-5.9-.9-12.8.4-18.7.7-12.2.5-24.2-.1-36.4-.6-4.5-.2-8.1,1.6-12.3,3.1-6.8,2.5-13.7,5.3-20.6,7.5-9.3,2.9-17.2,7.1-23.8,14.6-7.5,8.4-12.3,18.8-15.2,29.6-3.4,12.7-6.4,25.4-10.4,37.9-2.6,8.1-5.7,13.8-8.2,21.6-6.7,20.5,1.4,40.2,14.4,56.2,2,2.5,4,4.9,6,7.4,1.3,1.6,4.6,1.2,5.4-.7,1.5-3.5,6.2-6.5,9-9.1,2-1.9,4-3.7,6-5.6.7-.6,1.4-1.5,2.1-2,1.3-.8-.8.2,1.8-.4a3.49,3.49,0,0,0,2.4-4.2c-3.3-9-6.5-17.9-9.8-26.9l-.3,2.7c6.4-9.9,12.8-19.8,19.1-29.7-2.1-.6-4.3-1.2-6.4-1.7.3,28.9,1.3,57.8-.2,86.7-.5,9.4-.9,18.8-1.4,28.3a3.42,3.42,0,0,0,2.5,3.3c20.4,7.7,43.4,10.4,65,10.8l-3.4-3.4h0A3.44,3.44,0,0,0,118,365h.2a3.52,3.52,0,0,0,3.5-3.4h0c-1.2,1.1-2.3,2.3-3.5,3.4h1l-3.4-3.4h0a3.44,3.44,0,0,0,3.4,3.4h.2a3.52,3.52,0,0,0,3.5-3.4h0c-1.2,1.1-2.3,2.3-3.5,3.4,21.6-.4,44.6-3.1,65-10.8a3.42,3.42,0,0,0,2.5-3.3c-.8-15.4-1.5-30.8-2.2-46.2s.2-31.2.4-46.7l.3-22.2c-2.1.6-4.3,1.2-6.4,1.7,6.4,9.9,12.8,19.8,19.1,29.7l-.3-2.7c-3.3,9-6.5,17.9-9.8,26.9a3.4,3.4,0,0,0,2.4,4.2c1.8.4.7-.3,1.8.4a15.37,15.37,0,0,1,1.9,1.7c2.1,1.9,4.2,3.9,6.3,5.8,2.8,2.6,7.5,5.6,9,9.1.8,1.9,4.1,2.3,5.4.7,9.6-11.7,19.3-23.3,22-38.7,1.8-10.1.9-22.1-4.4-31.4-2.2-3.8-8.2-.4-6,3.5,4.6,8,5.2,18.8,3.5,27.6-2.7,13.7-11.5,23.9-20,34.3,1.8.2,3.6.5,5.4.7-1.9-4.4-7-7.7-10.4-10.8-3.9-3.6-7.3-8.2-12.6-9.4l2.4,4.2c2-5.6,4.1-11.1,6.1-16.7,1.3-3.7,5-9.5,3.1-13.3-2.8-5.6-6.9-10.8-10.3-16-2.8-4.4-5.7-8.8-8.5-13.2-1.8-2.8-6.4-1.8-6.4,1.7-.3,28.9-1.3,57.8.2,86.7.5,9.4.9,18.8,1.4,28.3.8-1.1,1.7-2.2,2.5-3.3-19.9,7.5-42.1,10.2-63.2,10.6a3.46,3.46,0,0,0-3.4,3.5h0c1.2-1.2,2.3-2.3,3.4-3.5h-.2c1.2,1.1,2.3,2.3,3.5,3.5h0a3.61,3.61,0,0,0-3.5-3.5h-1a3.46,3.46,0,0,0-3.4,3.5h0c1.2-1.2,2.3-2.3,3.4-3.5h-.2c1.2,1.1,2.3,2.3,3.5,3.5h0a3.61,3.61,0,0,0-3.5-3.5c-21.1-.4-43.3-3-63.2-10.6.8,1.1,1.7,2.2,2.5,3.3.8-15.4,1.5-30.8,2.2-46.2s-.2-31.2-.4-46.7L59,235.7a3.45,3.45,0,0,0-6.4-1.7c-2.8,4.4-5.7,8.8-8.5,13.2-3.4,5.2-7.5,10.5-10.3,16-1.9,3.8,1.7,9.6,3.1,13.3,2,5.6,4.1,11.1,6.1,16.7l2.4-4.2c-5.3,1.2-8.7,5.8-12.6,9.4-3.4,3.1-8.5,6.5-10.4,10.8,1.8-.2,3.6-.5,5.4-.7-4.6-5.6-9.5-11.1-13.3-17.3-6-9.9-8.9-21.5-7-33,1.2-7.1,4.7-13.3,7.1-19.9,3.1-8.7,5.7-17.6,8.1-26.5,3.5-12.8,5.7-26.2,12.5-37.8,6-10.2,14.5-17.5,25.8-20.9,4.6-1.4,9.2-3.3,13.7-4.9,3.7-1.3,7.3-2.7,11-4,1.2-.4,2.5-.9,3.7-1.3.3-.1,2.2-.7,1.3-.6s1.2.1,1.5.1c1.5.1,3,.1,4.5.2,3.9.2,7.8.3,11.8.5,4.2.2,8.5.5,12.7.3l22-.9c1.2,0,2.3-.1,3.5-.1,1.4-.1.4-.1.4-.1,2.3.6,4.5,1.6,6.7,2.4,9,3.3,18.3,6.2,27.2,9.5,16.5,6.2,25.5,23.5,29.6,39.5,4.4,17,7.8,35.3,15.4,51.3a10.09,10.09,0,0,0,.7,1.5C228.51,250.7,234.41,247.2,232.41,243.2Z"/><line class="cls-4" x1="55.01" y1="195.7" x2="54.21" y2="225.9"/><path class="cls-2" d="M51.51,195.7c-.3,10.1-.5,20.2-.8,30.2-.1,4.4,6.8,4.4,6.9,0,.3-10.1.5-20.2.8-30.2.1-4.5-6.8-4.5-6.9,0Z"/><line class="cls-4" x1="33.91" y1="261.6" x2="23.61" y2="250.2"/><path class="cls-2" d="M36.41,259.2c-3.5-3.8-6.9-7.6-10.4-11.5-3-3.3-7.9,1.6-4.9,4.9,3.5,3.8,6.9,7.6,10.4,11.5,3,3.3,7.8-1.6,4.9-4.9Z"/><line class="cls-4" x1="823.91" y1="252.9" x2="821.31" y2="237.3"/><path class="cls-2" d="M827.21,252c-.9-5.2-1.7-10.4-2.6-15.7-.7-4.4-7.4-2.5-6.7,1.8.9,5.2,1.7,10.4,2.6,15.7.8,4.4,7.4,2.6,6.7-1.8Z"/><line class="cls-4" x1="911.31" y1="237.3" x2="908.71" y2="252.9"/><path class="cls-2" d="M908,236.4c-.9,5.2-1.7,10.4-2.6,15.7-.7,4.3,5.9,6.2,6.7,1.8.9-5.2,1.7-10.4,2.6-15.7.6-4.4-6-6.2-6.7-1.8Z"/><line class="cls-4" x1="181.21" y1="195.7" x2="182.01" y2="225.9"/><path class="cls-2" d="M177.71,195.7c.3,10.1.5,20.2.8,30.2.1,4.4,7,4.4,6.9,0-.3-10.1-.5-20.2-.8-30.2-.1-4.5-7-4.5-6.9,0Z"/><line class="cls-4" x1="201.11" y1="261.6" x2="211.41" y2="250.2"/><path class="cls-2" d="M203.51,264.1c3.5-3.8,6.9-7.6,10.4-11.5,3-3.3-1.9-8.2-4.9-4.9-3.5,3.8-6.9,7.6-10.4,11.5-2.9,3.3,1.9,8.2,4.9,4.9Z"/><path class="cls-1" d="M102.61,121.2l1.7,22s30.2,1.4,30.2,0V118.8S102.61,121.6,102.61,121.2Z"/><path class="cls-2" d="M99.11,121.2c.6,7.3,1.1,14.6,1.7,22a3.5,3.5,0,0,0,3.4,3.4c4.7.2,9.4.4,14.1.5,5,.1,11.7,1.2,16.5-.3,4.5-1.5,3-8.1,3-11.8V118.8c0-1.7-1.6-3.6-3.4-3.4-5.2.4-10.3.9-15.5,1.3-3.6.3-7.3.6-10.9.8-1.2.1-2.4.1-3.5.2-1.5.2-2.7-.5-.3.5-4-1.8-7.5,4.2-3.5,6,1.8.8,3.9.4,5.8.3,3.6-.2,7.3-.5,10.9-.8,5.6-.5,11.3-.9,16.9-1.4-1.2-1.1-2.3-2.3-3.4-3.5v22a7.38,7.38,0,0,0,0,2.1c.5.9,2.8-2.2,1.9-2.7.3.2-.4.1-.6,0-2.2-.4-5,.1-7.2.1-3.1,0-6.1-.1-9.2-.2-3.9-.1-7.8-.3-11.7-.4,1.2,1.1,2.3,2.3,3.5,3.5-.6-7.3-1.1-14.6-1.7-22C105.71,116.8,98.81,116.8,99.11,121.2Z"/><path class="cls-1" d="M161.81,72.2c0-8.3-4.4-8.9-5.4-9,0-1.9-.1-3.8-.2-5.8,0,0,3-40.4-43.3-38.6C67,20.6,73.71,61.9,73.71,61.9v1.4c-1.2.1-5.2.9-5.2,9a14.54,14.54,0,0,0,7.5,13s4.7,42.3,42.1,42.3c0,0,31.5,2.5,37.3-43.2A14.51,14.51,0,0,0,161.81,72.2Z"/><path class="cls-2" d="M165.21,72.2c-.2-5.7-2.3-12-8.9-12.4,1.2,1.1,2.3,2.3,3.4,3.5-.2-6.6-.1-13.1-1.9-19.5a36.78,36.78,0,0,0-18.9-23.6c-23.4-11.5-59.3-4.2-67.3,23a50.34,50.34,0,0,0-1.8,13.4c0,1.4.1,2.7.2,4.1s.2,2.4.2,2.7c1.1-1.2,2.3-2.3,3.4-3.5-14.2,1.5-8.9,23.6.6,28.4-.6-1-1.1-2-1.7-3,2,17.6,12.1,36,29.2,42.8,16.4,6.5,34.7,2.3,45.6-11.8a56.62,56.62,0,0,0,9.8-21.8c.5-2.1.7-6.2,1-7.4-.1.3.4-.4.9-1s1.3-1.2,1.9-1.9a19.57,19.57,0,0,0,4.3-12c.2-4.4-6.7-4.4-6.9,0-.2,4.6-2.2,6.4-5,9.5-2.6,2.9-2.4,9.1-3.4,12.9-1.8,6.9-4.7,13.8-9.5,19.2-5.1,5.8-12.6,9.9-19.9,10.3-21.8,1.3-35.8-15.4-40.3-35.1-.3-1.3-.5-2.5-.7-3.8-.2-1,.1.5,0,.1a5.21,5.21,0,0,0-1.8-3c-2-1.8-3.9-2.9-5-5.7-.8-2.1-1.2-9.6,1-9.8,1.8-.2,3.5-1.4,3.4-3.4a18.88,18.88,0,0,0-.1-1.9,24.52,24.52,0,0,1-.2-2.7,46.85,46.85,0,0,1,.4-8.4c1.3-9,5.8-17.2,13.6-22.1,11.7-7.2,29.1-7.9,41.8-3.2a29.76,29.76,0,0,1,18.2,19.5c1.9,6.2,1.8,12.5,2,18.9a3.44,3.44,0,0,0,3.4,3.4c1.1.1,1.9,3.6,2,5.5C158.51,76.7,165.41,76.7,165.21,72.2Z"/><circle class="cls-2" cx="95.61" cy="75.9" r="3.6"/><circle class="cls-2" cx="133.51" cy="75.9" r="3.6"/><path class="cls-2" d="M99,28.2S97.71,55.9,109,59c0,0,2.1-1.2,2.1-7.3,0,0,11.3,12.7,31.9,9.4,0,0,9,1.6,13.4.7,0,0,5.2.2,5.4,9.4s-6.4,12.8-6.4,12.8l-.6,9.5s1,5.2,7.5-6.6,15.2-61.2-19-77.2c-32.7-15.3-75.7-6-78.5,50.6,0,0,.6,30.2,12.6,34.8l-1.3-10.3s-7.7-4.9-7.5-13.6,5.2-9.4,5.2-9.4,2.3,7.7,4.6-.7c0,0,8.2,7.7,11.1-5.4S99,28.2,99,28.2Z"/><path class="cls-2" d="M95.51,28.2c-.4,8.1.3,17,3.3,24.5,1.6,3.9,4.7,8.8,9.2,9.6,5.5.9,6.3-6.9,6.4-10.6-2,.8-3.9,1.6-5.9,2.4,7.6,8.4,21,12.1,31.9,10.7a32.59,32.59,0,0,1,7.5.4,41.93,41.93,0,0,0,5,.3,17.75,17.75,0,0,1,3.2-.2c-.8-.1-.5-.3,0,0,2.6,1.8,2.4,6.6,1.8,9.3-.7,2.9-2.3,4.4-4.3,6.3-3.1,3.1-4.9,19.1,3.5,17,4.8-1.2,7.8-8.2,9.5-12.3a62.92,62.92,0,0,0,3.7-14c2.1-12.7,2-26.3-2.4-38.5-4.8-13.4-14.4-22.9-27.6-28.2-23.6-9.4-52-5.9-67.3,16-8.3,11.8-12.6,28.3-11.7,42.6.7,11,2.3,29.7,14.1,34.8,2.1.9,5.6-.1,5.2-3-.5-4.2,0-10.5-3.3-13.5-2.7-2.5-5.1-5.1-5.5-9-.2-1.9.1-7,2.6-7.5l-4.2-2.4c.7,2.2,1.9,4.8,4.2,5.5,4.2,1.3,6-3.1,7-6.2-1.9.5-3.8,1-5.8,1.5,4.8,4.3,11.6,4.4,14.9-1.6,3.3-5.8,3.9-13.5,6.2-19.8,1.5-4.1,3.1-8.2,4.9-12.2s-4.1-7.5-6-3.5a154.74,154.74,0,0,0-7.9,20.9c-1,3.3-2.1,15.9-7.2,11.3a3.53,3.53,0,0,0-5.8,1.5c-1.4,2.2-.6,2.9,2.6,2-.1-.2-.2-.3-.3-.5a2.61,2.61,0,0,0-.3-.8,3.49,3.49,0,0,0-4.2-2.4c-6,1.1-8,9-7.7,14.1.3,6.1,4.1,11.9,9.2,15.2-.6-1-1.1-2-1.7-3,.4,3.4.9,6.9,1.3,10.3,1.7-1,3.5-2,5.2-3-7.1-3.1-8.7-13.7-9.8-20.5a67.16,67.16,0,0,1-.4-19C71,34,80.21,15.4,99.11,9.1c15.2-5.1,34-2.2,47.4,6.6,15.7,10.3,19.2,30.6,17.7,48-.6,6.9-1.8,14.4-4.8,20.7-1,2.2-3.5,4.4-4.2,6.6-.3,1-1.5-.1,2.5,1.4.1,0,.4.9.2,1,.6-.9.3-4,.3-5.1.1-1.4.2-2.9.3-4.3-.6,1-1.1,2-1.7,3,6.3-3.6,8.8-11.4,7.8-18.3s-4.7-10.3-11.4-10c-3.5.1-6.8-.7-10.2-.9-5.7-.3-10.8.8-16.6-.8-4.8-1.4-9.9-3.9-13.4-7.6-2.1-2.3-5.8-.4-5.9,2.4,0,.6-.8,3.7-.6,4.3.1.3-.9.8.3,0l2.7-.3c-5.4-1.8-6.5-10.9-7.1-15.6a77.68,77.68,0,0,1-.5-11.8C102.61,23.7,95.71,23.8,95.51,28.2Z"/><path class="cls-3" d="M136.71,135.3l-19.6,8.5,12.7,15.8,24.8-19.9C154.51,139.6,138,132.4,136.71,135.3Z"/><path class="cls-2" d="M134.91,132.3c-6.5,2.8-13.1,5.7-19.6,8.5-2.2,1-1.9,3.9-.7,5.4,4.2,5.3,8.4,10.5,12.7,15.8,1.3,1.6,3.6,1.1,4.9,0,8.3-6.6,16.5-13.3,24.8-19.9,1.6-1.3,1.2-4.6-.7-5.4-5.3-2.3-18-9.3-22.6-3.2-2.6,3.6,3.4,7,6,3.5-2.3,3.1-1.8.3-.6,1.1a10.27,10.27,0,0,0,2.4.5,41.61,41.61,0,0,1,5,1.6,66.23,66.23,0,0,1,6.2,2.4c-.2-1.8-.5-3.6-.7-5.4-8.3,6.6-16.5,13.3-24.8,19.9h4.9c-4.2-5.3-8.4-10.5-12.7-15.8-.2,1.8-.5,3.6-.7,5.4,6.5-2.8,13.1-5.7,19.6-8.5C142.51,136.5,139,130.5,134.91,132.3Z"/><path class="cls-3" d="M97.41,133.4c1.2.5,19.6,10.3,19.6,10.3l-12.1,14.7L85,141.1C85,141.2,94.81,132.4,97.41,133.4Z"/><path class="cls-2" d="M95.71,136.4c6.7,3,13.2,6.9,19.6,10.3-.2-1.8-.5-3.6-.7-5.4-4,4.9-8.1,9.8-12.1,14.7h4.9c-6.6-5.8-13.3-11.5-19.9-17.3v4.9c1.2-1,2.4-2.1,3.6-3,1-.8,5-3.9,5.4-3.8,4.3.8,6.2-5.8,1.8-6.7-5.7-1.1-11.8,5.2-15.8,8.6a3.57,3.57,0,0,0,0,4.9c6.6,5.8,13.3,11.5,19.9,17.3,1.3,1.1,3.6,1.5,4.9,0,4-4.9,8.1-9.8,12.1-14.7,1.3-1.6,1.4-4.3-.7-5.4-6.5-3.5-12.9-7.4-19.6-10.3C95.11,128.7,91.61,134.6,95.71,136.4Z"/><path class="cls-2" d="M97.41,105.8a28.26,28.26,0,0,0,39.3,0c3.2-3.1-1.6-7.9-4.9-4.9a21.13,21.13,0,0,1-29.5,0c-3.3-3-8.1,1.9-4.9,4.9Z"/><path class="cls-1" d="M904.61,145.1c0-7.4-3.9-8-4.9-8,0-1.7-.1-3.4-.2-5.2,0,0,2.7-36.1-38.7-34.5-41,1.6-35,38.5-35,38.5v1.2c-1,.1-4.6.8-4.6,8a13,13,0,0,0,6.7,11.6s4.2,37.8,37.6,37.8c0,0,28.1,2.2,33.3-38.6A12.22,12.22,0,0,0,904.61,145.1Z"/><path class="cls-2" d="M908.11,145.1c-.2-5.4-2.2-11-8.3-11.5l3.4,3.4c-.2-6.1-.1-12.1-1.8-18a33.16,33.16,0,0,0-17.2-21c-21.1-10.2-53.3-3.6-60.4,20.9a41.74,41.74,0,0,0-1.6,12.2c0,1.2.1,2.4.2,3.6a5.85,5.85,0,0,0,.2,1.3c.1,1.9-.1-1.5,0,1,1.2-1.1,2.3-2.3,3.5-3.4-13,1.4-8.5,21.6.3,26.1-.6-1-1.1-2-1.7-3,1.8,15.9,11,32.5,26.4,38.6,14.5,5.8,30.9,2.1,40.7-10.2a50.58,50.58,0,0,0,9-19.2c.6-2.4.7-5.1,1.4-7.4,0,0-.7.5-.1-.5.3-.6,1.6-1.4,2-1.9a18.07,18.07,0,0,0,4-11c.2-4.4-6.7-4.4-6.9,0s-2.3,5.5-4.7,8.5c-2.2,2.7-2,8.5-2.9,11.9-1.7,6.1-4.3,12.2-8.6,16.9-4.5,4.9-11,8.4-17.4,8.7-19.3,1.2-31.6-13.8-35.5-31.2-.7-3.1.1-3.9-2.4-6.2-1.5-1.4-3.1-2.2-4-4.2-.8-1.8-1.4-8.8.3-9a3.61,3.61,0,0,0,3.5-3.5c0-.4-.2-3.4-.1-1.7-.1-.7-.1-1.4-.2-2.2a37.69,37.69,0,0,1,.3-7.5c1.1-7.9,5-15.3,11.9-19.6,10.3-6.5,25.8-7.1,37.1-3.1a26.22,26.22,0,0,1,16.2,17.2c1.7,5.5,1.6,11.1,1.7,16.8a3.61,3.61,0,0,0,3.5,3.5c.7.1,1.3,3.1,1.4,4.6C901.41,149.5,908.31,149.6,908.11,145.1Z"/><circle class="cls-2" cx="848.51" cy="150.3" r="3.2"/><circle class="cls-2" cx="878.21" cy="150.3" r="3.2"/><path class="cls-2" d="M846.81,175.4a25.6,25.6,0,0,0,35.6,0c3.2-3-1.6-7.9-4.9-4.9a18.6,18.6,0,0,1-25.9,0c-3.2-3-8,1.9-4.8,4.9Z"/><path class="cls-3" d="M848.61,112.8s6.9,24.8,47.2,31.5c.8,10.1.8,51.2-15.8,65.3,0,0,4.3,5.4,8.3.5,0,0-2.2,23,7.5,24.3,0,0-1.4-15.7,5.7-19.7,12.6-7.2,43-134.4-30.5-133.2,0,0-42.9-16.5-53.8,47.3,0,0-12.3,53.4,9.2,77.1,0,0,7.4,17.3,0,24.8,0,0,10.7-7.2,9.3-22.6a8,8,0,0,0,9.8-2.2s-16.2-7.9-14.2-61.9C831.31,144,846.91,135.4,848.61,112.8Z"/><path class="cls-2" d="M845.31,113.7c5.8,20.5,30.9,30.7,49.6,33.9-.8-1.1-1.7-2.2-2.5-3.3a139.54,139.54,0,0,1-1.2,29.6c-1.6,11.5-4.5,25.1-13.6,33.2-1.5,1.3-1.2,3.5,0,4.9,3.7,4.4,9.2,4.5,13.2.5-2-.8-3.9-1.6-5.9-2.4-.8,8.5-1,25.4,10,27.6,2,.4,4.6-.9,4.4-3.3-.5-5.8-.4-13,4.3-17a22,22,0,0,0,5.5-7.3c4.7-9.5,7.4-20.1,9.4-30.4,4.9-25.2,7.1-55.7-5.9-78.9a42.89,42.89,0,0,0-28.8-21.6c-4.3-.9-8.9-.6-13-1.4a63.12,63.12,0,0,0-8.5-1.5,38.64,38.64,0,0,0-29.2,9.8c-12.2,11-16.5,27.6-19.6,43.1-3.1,15.8-4.5,32.3-2.3,48.3,1.3,9.7,4.1,20.8,10.7,28.5.1.1,2.1,2.6,1.1.9a3.58,3.58,0,0,1,.4,1.1,26.72,26.72,0,0,1,1.5,4.8c1.2,4.8,2.5,11.4-1.1,15.4-2.4,2.8.8,7.8,4.2,5.4,8.2-5.7,11.6-16,11-25.6-1.7,1-3.5,2-5.2,3,5,2.4,10.2,1.2,14-2.7a3.46,3.46,0,0,0-.7-5.4,2.09,2.09,0,0,1-.6-.4c.6.6-.7-.6-1.1-1.1a26.11,26.11,0,0,1-4.8-7.9c-6.6-15.2-6.5-33.3-5.9-49.5-.6,1-1.1,2-1.7,3,12-6.7,17.9-21.2,19.1-34.2.4-4.4-6.5-4.4-6.9,0-.9,9.8-4.9,19.4-12.5,25.9-1,.8-2.2,1.5-3.2,2.3-2.3,2-1.8,4.8-1.8,7.6-.1,3.7-.1,7.3.1,11,.5,14.6,1.8,32.2,10.9,44.4a16.69,16.69,0,0,0,5,4.9c-.2-1.8-.5-3.6-.7-5.4-1.5,1.5-3.6,2.6-5.6,1.6-2.2-1.1-5.4.2-5.2,3,.4,7.3-2.5,16.1-7.6,19.7l4.2,5.4c5.6-6.4,4.8-15.4,2.6-23.1-1.9-6.6-6.6-11.1-9.2-17.4-6.5-15.8-5.8-34.3-3.7-50.9,2.9-22.6,9.8-56.3,37.5-58.6,5.6-.5,10.1,1.3,15.5,1.8,6.6.6,12.7.8,18.9,3.7a35.22,35.22,0,0,1,13,10.6c15.2,20.2,13.2,51.2,9.2,74.6-1.9,11-4.4,22.7-9.4,32.8-.6,1.2-1.9,3.5-2.2,3.9-1.2,1.7-2,1.4-3.9,3.5-4.6,5.2-5.1,13.8-4.5,20.3,1.5-1.1,2.9-2.2,4.4-3.3-6.6-1.3-5.4-15.9-4.9-21,.3-3.1-3.9-4.4-5.9-2.4-1.3,1.3-2.5.6-3.4-.5v4.9c9.7-8.6,13.3-22.7,15.2-35.1a148.29,148.29,0,0,0,1.6-32.6c-.1-1.4-1-3.1-2.5-3.3-13.6-2.4-27.4-7.2-37.2-17.4-3.2-3.3-6.5-7.9-7.6-11.7C850.71,107.6,844.11,109.4,845.31,113.7Z"/><path class="cls-1" d="M994,287.2s-12.2,19.7-9.2,24.6,33,30,33,30,16.8,28.4,30,15.2-20.3-25.1-20.3-25.1l-19.3-22.4,6.3-12.9Z"/><path class="cls-2" d="M991,285.4a91.36,91.36,0,0,0-8.9,18c-2.3,6.9-.6,10.6,4.3,15.4,6,6,12.5,11.5,18.9,17,2.5,2.2,5.1,4.3,7.6,6.5l1.9,1.6c.9.8-.7-1,.2.1,7,9.5,19.7,27.1,33.2,17,6.2-4.6,7.8-12,3.1-18.2-4.3-5.7-11.3-9.3-17.7-12.2a32,32,0,0,0-3.9-1.6c-2.2-.8,0-.4.1.3-.2-1.7-4.4-5.1-5.5-6.4-4.6-5.3-9.2-10.6-13.7-15.9.2,1.4.4,2.8.5,4.2l6.3-12.9c.8-1.5.6-3.9-1.2-4.7-6.8-3.2-13.7-6.3-20.5-9.5-4-1.8-7.5,4.1-3.5,6,6.8,3.2,13.7,6.3,20.5,9.5-.4-1.6-.8-3.1-1.2-4.7l-6.3,12.9a3.8,3.8,0,0,0,.5,4.2l9.3,10.8c3.1,3.6,6.2,8.6,10,11.6,2.8,2.3,7.3,3.2,10.4,4.9,3.8,2,12.5,6.4,11.9,11.8-.3,3.1-4.1,5.8-7,6-3.2.2-6.3-1.9-8.7-3.9-4.4-3.6-7.3-8.1-10.6-12.6-1.9-2.5-4.6-4.3-7-6.4-5.6-4.8-11.3-9.7-16.8-14.6-2.7-2.5-5.5-5-8-7.7-1.8-2-1.8-2.5-1-5.3,1.8-6.2,5.2-12.2,8.6-17.7C999.31,285.1,993.31,281.7,991,285.4Z"/><path class="cls-1" d="M1168.51,287.2s12.2,19.7,9.2,24.6-33,30-33,30-16.8,28.4-30,15.2,20.3-25.1,20.3-25.1l19.3-22.4-6.3-12.9Z"/><path class="cls-2" d="M1165.61,288.9a91.31,91.31,0,0,1,7.7,14.9c.6,1.7,2,4.9,1.4,6.4-.8,2-3.8,4-5.3,5.4-5.4,5.2-11.1,10.1-16.8,15-3.3,2.8-7.4,5.5-10.3,8.7-5.1,5.7-14.6,23.8-24.4,15.9-10.6-8.5,12-17.3,17.7-19.9,4-1.9,7-7,9.9-10.4l11.3-13.1a3.48,3.48,0,0,0,.5-4.2l-6.3-12.9c-.4,1.6-.8,3.1-1.2,4.7,6.8-3.2,13.7-6.3,20.5-9.5,4-1.9.5-7.8-3.5-6-6.8,3.2-13.7,6.3-20.5,9.5-1.8.8-2,3.2-1.2,4.7l6.3,12.9c.2-1.4.4-2.8.5-4.2-3.9,4.5-7.7,9-11.6,13.4-2.2,2.5-4.5,4.9-6.5,7.5-.2.3-1.8,2.5-.5,1,.9-1,.3-.2-.7.1-9.8,3.5-30.8,14-22.6,27.4,4.2,6.9,12.4,9,19.6,5.6,6.7-3.2,11.9-9.5,16.1-15.5.6-.9,1.1-1.8,1.7-2.6.8-1.1-.7.6.1-.1,1.7-1.5,3.5-2.9,5.2-4.4,6.5-5.5,13-11.1,19.2-16.9,5-4.6,10.9-8.8,9.4-16.4-1.5-7.4-5.8-14.6-9.7-21C1169.21,281.7,1163.21,285.1,1165.61,288.9Z"/><path class="cls-1" d="M1064.51,188.9l1.5,19.6c0,29.1,27,29.1,27,0V186.7S1064.51,189.2,1064.51,188.9Z"/><path class="cls-2" d="M1061,188.9c.5,6.2,1.1,12.5,1.5,18.7.5,7.9,1.3,16.5,7.5,22.3a13.77,13.77,0,0,0,17.5,1.3c7.2-5.1,8.9-14.7,9-22.9.1-7.2,0-14.3,0-21.5a3.61,3.61,0,0,0-3.5-3.5c-4.6.4-9.2.8-13.8,1.1-3.1.3-6.2.5-9.3.7-1.2.1-2.4.1-3.7.2-.8.1-2.1-.3-.8.2-4.2-1.6-6,5.1-1.8,6.7,1.4.5,3.4,0,4.8,0,3.3-.2,6.6-.5,9.9-.8l14.8-1.2c-1.2-1.2-2.3-2.3-3.4-3.5v20.4c0,6.2-1,19.3-9.7,19.7-8.9.4-10.1-12.7-10.4-18.8-.4-6.4-1-12.8-1.5-19.2C1067.61,184.5,1060.71,184.5,1061,188.9Z"/><path class="cls-1" d="M1169.51,287.2s-18.2-45.5-24.8-62.6-42.6-16.8-42.6-16.8c-1.5,3.1-8.8,9-20.9,10.3-12.2-1.3-19.4-7.2-20.9-10.3,0,0-36.1-.3-42.6,16.8S993,287.2,993,287.2l18.6,16.3,27.5-41.4-.7,97.9h85.9l-.7-97.9,27.5,41.4Z"/><path class="cls-2" d="M1172.91,286.3c-5.9-14.6-11.7-29.3-17.5-43.9-1.8-4.5-3.5-9-5.3-13.5-1.4-3.7-2.6-7.5-5.1-10.6-5.5-6.9-14.7-10-23.1-11.8a87.64,87.64,0,0,0-19.8-2.1,3.4,3.4,0,0,0-3,1.7c-2.9,5.2-12.4,8.5-18,8.5s-15-3.3-18-8.5a3.4,3.4,0,0,0-3-1.7c-13.3-.1-30.1,2.1-40.4,11.3-6.2,5.5-8.2,15-11.2,22.4-3.9,9.9-7.8,19.8-11.8,29.7-2.5,6.2-4.9,12.3-7.4,18.5a3.57,3.57,0,0,0,.9,3.4c6.2,5.4,12.4,10.9,18.6,16.3a3.53,3.53,0,0,0,5.4-.7c9.2-13.8,18.3-27.6,27.5-41.4-2.1-.6-4.3-1.2-6.4-1.7-.2,28.5-.4,57.1-.6,85.6,0,4.1-.1,8.2-.1,12.2a3.54,3.54,0,0,0,3.5,3.5H1124a3.39,3.39,0,0,0,3.4-3.5c-.2-28.5-.4-57.1-.6-85.6,0-4.1-.1-8.2-.1-12.2-2.1.6-4.3,1.2-6.4,1.7,9.2,13.8,18.3,27.6,27.5,41.4a3.53,3.53,0,0,0,5.4.7c6.2-5.4,12.4-10.9,18.6-16.3,3.3-2.9-1.6-7.8-4.9-4.9-6.2,5.4-12.4,10.9-18.6,16.3,1.8.2,3.6.5,5.4.7-9.2-13.8-18.3-27.6-27.5-41.4-1.8-2.8-6.5-1.8-6.4,1.7.2,28.5.4,57.1.6,85.6,0,4.1.1,8.2.1,12.2,1.2-1.1,2.3-2.3,3.5-3.5h-85.9c1.2,1.2,2.3,2.3,3.4,3.5.2-28.5.4-57.1.6-85.6,0-4.1.1-8.2.1-12.2,0-3.6-4.6-4.5-6.4-1.7-9.2,13.8-18.3,27.6-27.5,41.4,1.8-.2,3.6-.5,5.4-.7-6.2-5.4-12.4-10.9-18.6-16.3.3,1.1.6,2.2.9,3.4,5.3-13.2,10.5-26.3,15.7-39.5,3.1-7.9,5.5-16.9,9.6-24.3,4-7.2,13.8-9.8,21.2-11.3a85.19,85.19,0,0,1,17.5-1.8c-1-.6-2-1.1-3-1.7,4.1,7.4,15.9,12,23.9,12s19.8-4.5,23.9-12c-1,.6-2,1.1-3,1.7,11.7-.1,28.5,1.4,36.8,10.5,2.5,2.7,3.5,6.4,4.8,9.8,1.7,4.4,3.4,8.8,5.2,13.2,3.6,9.1,7.2,18.3,10.9,27.4,2.1,5.3,4.3,10.7,6.4,16C1167.81,292.2,1174.51,290.4,1172.91,286.3Z"/><line class="cls-4" x1="1036.71" y1="252.9" x2="1034.11" y2="237.3"/><path class="cls-2" d="M1040,252c-.9-5.2-1.7-10.4-2.6-15.7-.7-4.4-7.4-2.5-6.7,1.8.9,5.2,1.7,10.4,2.6,15.7.8,4.4,7.4,2.6,6.7-1.8Z"/><line class="cls-4" x1="1124.11" y1="237.3" x2="1121.51" y2="252.9"/><path class="cls-2" d="M1120.81,236.4c-.9,5.2-1.7,10.4-2.6,15.7-.7,4.3,5.9,6.2,6.7,1.8.9-5.2,1.7-10.4,2.6-15.7.6-4.4-6-6.2-6.7-1.8Z"/><path class="cls-1" d="M1117.41,145.1c0-7.4-3.9-8-4.9-8,0-1.7-.1-3.4-.2-5.2,0,0,2.7-36.1-38.7-34.5-41,1.6-35,38.5-35,38.5v1.2c-1,.1-4.6.8-4.6,8a13,13,0,0,0,6.7,11.6s4.2,37.8,37.6,37.8c0,0,28.1,2.2,33.3-38.6A12.22,12.22,0,0,0,1117.41,145.1Z"/><path class="cls-2" d="M1120.91,145.1c-.2-5.4-2.2-11-8.3-11.5,1.2,1.1,2.3,2.3,3.4,3.4-.2-6.1-.1-12.1-1.8-18A33.16,33.16,0,0,0,1097,98c-21.1-10.2-53.3-3.6-60.4,20.9a41.74,41.74,0,0,0-1.6,12.2c0,1.2.1,2.4.2,3.6a5.85,5.85,0,0,0,.2,1.3c.1,1.9-.1-1.5,0,1l3.4-3.4c-13,1.4-8.5,21.6.3,26.1-.6-1-1.1-2-1.7-3,1.8,15.9,11,32.5,26.4,38.6,14.5,5.8,30.9,2.1,40.7-10.2a50.58,50.58,0,0,0,9-19.2c.6-2.4.7-5.1,1.4-7.4,0,0-.7.5-.1-.5.3-.6,1.6-1.4,2-1.9,2.7-3.1,3.8-6.9,4.1-11,.2-4.4-6.7-4.4-6.9,0s-2.3,5.5-4.7,8.5c-2.2,2.7-2,8.5-2.9,11.9-1.7,6.1-4.3,12.2-8.6,16.9-4.5,4.9-11,8.4-17.4,8.7-19.3,1.2-31.6-13.8-35.5-31.2-.7-3.1.1-3.9-2.4-6.2-1.5-1.4-3.1-2.2-4-4.2-.8-1.8-1.4-8.8.3-9s3.5-1.4,3.4-3.5c0-.4-.2-3.4-.1-1.7-.1-.7-.1-1.4-.2-2.2a37.68,37.68,0,0,1,.3-7.5c1.1-7.9,5-15.3,11.9-19.6,10.3-6.5,25.8-7.1,37.1-3.1a26.22,26.22,0,0,1,16.2,17.2c1.7,5.5,1.6,11.1,1.7,16.8a3.61,3.61,0,0,0,3.5,3.5c.7.1,1.3,3.1,1.4,4.6C1114.11,149.5,1121,149.6,1120.91,145.1Z"/><circle class="cls-2" cx="1061.31" cy="150.3" r="3.2"/><circle class="cls-2" cx="1091.01" cy="150.3" r="3.2"/><path class="cls-2" d="M1059.61,175.4a25.6,25.6,0,0,0,35.6,0c3.2-3-1.6-7.9-4.9-4.9a18.6,18.6,0,0,1-25.9,0c-3.2-3-8.1,1.9-4.8,4.9Z"/><path class="cls-3" d="M1061.41,112.8s6.9,24.8,47.2,31.5c.8,10.1.8,51.2-15.8,65.3,0,0,4.3,5.4,8.3.5,0,0-2.2,23,7.5,24.3,0,0-1.4-15.7,5.7-19.7,12.6-7.2,43-134.4-30.5-133.2,0,0-42.9-16.5-53.8,47.3,0,0-12.3,53.4,9.2,77.1,0,0,7.4,17.3,0,24.8,0,0,10.7-7.2,9.3-22.6a8,8,0,0,0,9.8-2.2s-16.2-7.9-14.2-61.9C1044.11,144,1059.71,135.4,1061.41,112.8Z"/><path class="cls-2" d="M1058.11,113.7c5.8,20.5,30.9,30.7,49.6,33.9-.8-1.1-1.7-2.2-2.5-3.3a139.55,139.55,0,0,1-1.2,29.6c-1.6,11.5-4.5,25.1-13.6,33.2-1.5,1.3-1.2,3.5,0,4.9,3.7,4.4,9.2,4.5,13.2.5-2-.8-3.9-1.6-5.9-2.4-.8,8.5-1,25.4,10,27.6,2,.4,4.6-.9,4.4-3.3-.5-5.8-.4-13,4.3-17a22,22,0,0,0,5.5-7.3c4.7-9.5,7.4-20.1,9.4-30.4,4.9-25.2,7.1-55.7-5.9-78.9a42.89,42.89,0,0,0-28.8-21.6c-4.3-.9-8.9-.6-13-1.4a63.12,63.12,0,0,0-8.5-1.5,38.64,38.64,0,0,0-29.2,9.8c-12.2,11-16.5,27.6-19.6,43.1-3.1,15.8-4.5,32.3-2.3,48.3,1.3,9.7,4.1,20.8,10.7,28.5.1.1,2.1,2.6,1.1.9a3.58,3.58,0,0,1,.4,1.1,26.73,26.73,0,0,1,1.5,4.8c1.2,4.8,2.5,11.4-1.1,15.4-2.4,2.8.8,7.8,4.2,5.4,8.2-5.7,11.6-16,11-25.6-1.7,1-3.5,2-5.2,3,5,2.4,10.2,1.2,14-2.7a3.46,3.46,0,0,0-.7-5.4,2.09,2.09,0,0,1-.6-.4c.6.6-.7-.6-1.1-1.1a26.11,26.11,0,0,1-4.8-7.9c-6.6-15.2-6.5-33.3-5.9-49.5-.6,1-1.1,2-1.7,3,12-6.7,17.9-21.2,19.1-34.2.4-4.4-6.5-4.4-6.9,0-.9,9.8-4.9,19.4-12.5,25.9-1,.8-2.2,1.5-3.2,2.3-2.3,2-1.8,4.8-1.8,7.6-.1,3.7-.1,7.3.1,11,.5,14.6,1.8,32.2,10.9,44.4a16.69,16.69,0,0,0,5,4.9c-.2-1.8-.5-3.6-.7-5.4-1.5,1.5-3.6,2.6-5.6,1.6-2.2-1.1-5.4.2-5.2,3,.4,7.3-2.5,16.1-7.6,19.7l4.2,5.4c5.6-6.4,4.8-15.4,2.6-23.1-1.9-6.6-6.6-11.1-9.2-17.4-6.5-15.8-5.8-34.3-3.7-50.9,2.9-22.6,9.8-56.3,37.5-58.6,5.6-.5,10.1,1.3,15.5,1.8,6.6.6,12.7.8,18.9,3.7a35.22,35.22,0,0,1,13,10.6c15.2,20.2,13.2,51.2,9.2,74.6-1.9,11-4.4,22.7-9.4,32.8-.6,1.2-1.9,3.5-2.2,3.9-1.2,1.7-2,1.4-3.9,3.5-4.6,5.2-5.1,13.8-4.5,20.3,1.5-1.1,2.9-2.2,4.4-3.3-6.6-1.3-5.4-15.9-4.9-21,.3-3.1-3.9-4.4-5.9-2.4-1.3,1.3-2.5.6-3.4-.5v4.9c9.7-8.6,13.3-22.7,15.2-35.1a148.29,148.29,0,0,0,1.6-32.6c-.1-1.4-1-3.1-2.5-3.3-13.6-2.4-27.4-7.2-37.2-17.4-3.2-3.3-6.5-7.9-7.6-11.7C1063.51,107.6,1056.91,109.4,1058.11,113.7Z"/><path class="cls-1" d="M1206.71,287.2s-12.2,19.7-9.2,24.6,33,30,33,30,16.8,28.4,30,15.2-20.3-25.1-20.3-25.1l-19.3-22.4,6.3-12.9Z"/><path class="cls-2" d="M1203.81,285.4a91.37,91.37,0,0,0-8.9,18c-2.3,6.9-.6,10.6,4.3,15.4,6,6,12.5,11.5,18.9,17,2.5,2.2,5.1,4.3,7.6,6.5l1.9,1.6c.9.8-.7-1,.2.1,7,9.5,19.7,27.1,33.2,17,6.2-4.6,7.8-12,3.1-18.2-4.3-5.7-11.3-9.3-17.7-12.2a32,32,0,0,0-3.9-1.6c-2.2-.8,0-.4.1.3-.2-1.7-4.4-5.1-5.5-6.4-4.6-5.3-9.2-10.6-13.7-15.9.2,1.4.4,2.8.5,4.2l6.3-12.9c.8-1.5.6-3.9-1.2-4.7-6.8-3.2-13.7-6.3-20.5-9.5-4-1.8-7.5,4.1-3.5,6,6.8,3.2,13.7,6.3,20.5,9.5-.4-1.6-.8-3.1-1.2-4.7l-6.3,12.9a3.8,3.8,0,0,0,.5,4.2l9.3,10.8c3.1,3.6,6.2,8.6,10,11.6,2.8,2.3,7.3,3.2,10.4,4.9,3.8,2,12.5,6.4,11.9,11.8-.3,3.1-4.1,5.8-7,6-3.2.2-6.3-1.9-8.7-3.9-4.4-3.6-7.3-8.1-10.6-12.6-1.9-2.5-4.6-4.3-7-6.4-5.6-4.8-11.3-9.7-16.8-14.6-2.7-2.5-5.5-5-8-7.7-1.8-2-1.8-2.5-1-5.3,1.8-6.2,5.2-12.2,8.6-17.7C1212.11,285.1,1206.11,281.7,1203.81,285.4Z"/><path class="cls-1" d="M1381.31,287.2s12.2,19.7,9.2,24.6-33,30-33,30-16.8,28.4-30,15.2,20.3-25.1,20.3-25.1l19.3-22.4-6.3-12.9Z"/><path class="cls-2" d="M1378.41,288.9a91.31,91.31,0,0,1,7.7,14.9c.6,1.7,2,4.9,1.4,6.4-.8,2-3.8,4-5.3,5.4-5.4,5.2-11.1,10.1-16.8,15-3.3,2.8-7.4,5.5-10.3,8.7-5.1,5.7-14.6,23.8-24.4,15.9-10.6-8.5,12-17.3,17.7-19.9,4-1.9,7-7,9.9-10.4l11.3-13.1a3.48,3.48,0,0,0,.5-4.2l-6.3-12.9c-.4,1.6-.8,3.1-1.2,4.7,6.8-3.2,13.7-6.3,20.5-9.5,4-1.9.5-7.8-3.5-6-6.8,3.2-13.7,6.3-20.5,9.5-1.8.8-2,3.2-1.2,4.7l6.3,12.9c.2-1.4.4-2.8.5-4.2-3.9,4.5-7.7,9-11.6,13.4-2.2,2.5-4.5,4.9-6.5,7.5-.2.3-1.8,2.5-.5,1,.9-1,.3-.2-.7.1-9.8,3.5-30.8,14-22.6,27.4,4.2,6.9,12.4,9,19.6,5.6,6.7-3.2,11.9-9.5,16.1-15.5.6-.9,1.1-1.8,1.7-2.6.8-1.1-.7.6.1-.1,1.7-1.5,3.5-2.9,5.2-4.4,6.5-5.5,13-11.1,19.2-16.9,5-4.6,10.9-8.8,9.4-16.4-1.5-7.4-5.8-14.6-9.7-21C1382,281.7,1376,285.1,1378.41,288.9Z"/><path class="cls-1" d="M1277.31,188.9l1.5,19.6c0,29.1,27,29.1,27,0V186.7S1277.31,189.2,1277.31,188.9Z"/><path class="cls-2" d="M1273.81,188.9c.5,6.2,1.1,12.5,1.5,18.7.5,7.9,1.3,16.5,7.5,22.3a13.77,13.77,0,0,0,17.5,1.3c7.2-5.1,8.9-14.7,9-22.9.1-7.2,0-14.3,0-21.5a3.6,3.6,0,0,0-3.4-3.5c-4.6.4-9.2.8-13.8,1.1-3.1.3-6.2.5-9.3.7-1.2.1-2.4.1-3.7.2-.8.1-2.1-.3-.8.2-4.2-1.6-6,5.1-1.8,6.7,1.4.5,3.4,0,4.8,0,3.3-.2,6.6-.5,9.9-.8l14.8-1.2-3.5-3.5v20.4c0,6.2-1,19.3-9.7,19.7-8.9.4-10.1-12.7-10.4-18.8-.4-6.4-1-12.8-1.5-19.2C1280.41,184.5,1273.51,184.5,1273.81,188.9Z"/><path class="cls-1" d="M1382.31,287.2s-18.2-45.5-24.8-62.6-42.6-16.8-42.6-16.8c-1.5,3.1-8.8,9-20.9,10.3-12.2-1.3-19.4-7.2-20.9-10.3,0,0-36.1-.3-42.6,16.8s-24.7,62.6-24.7,62.6l18.6,16.3,27.5-41.4-.7,97.9h85.9l-.7-97.9,27.5,41.4Z"/><path class="cls-2" d="M1385.71,286.3c-5.9-14.6-11.7-29.3-17.5-43.9-1.8-4.5-3.5-9-5.3-13.5-1.4-3.7-2.6-7.5-5.1-10.6-5.5-6.9-14.7-10-23.1-11.8a87.64,87.64,0,0,0-19.8-2.1,3.4,3.4,0,0,0-3,1.7c-2.9,5.2-12.4,8.5-18,8.5s-15-3.3-18-8.5a3.4,3.4,0,0,0-3-1.7c-13.3-.1-30.1,2.1-40.4,11.3-6.2,5.5-8.2,15-11.2,22.4-3.9,9.9-7.8,19.8-11.8,29.7-2.5,6.2-4.9,12.3-7.4,18.5a3.57,3.57,0,0,0,.9,3.4c6.2,5.4,12.4,10.9,18.6,16.3a3.53,3.53,0,0,0,5.4-.7c9.2-13.8,18.3-27.6,27.5-41.4-2.1-.6-4.3-1.2-6.4-1.7-.2,28.5-.4,57.1-.6,85.6,0,4.1-.1,8.2-.1,12.2a3.52,3.52,0,0,0,3.4,3.5h85.9a3.54,3.54,0,0,0,3.5-3.5c-.2-28.5-.4-57.1-.6-85.6,0-4.1-.1-8.2-.1-12.2-2.1.6-4.3,1.2-6.4,1.7,9.2,13.8,18.3,27.6,27.5,41.4a3.53,3.53,0,0,0,5.4.7c6.2-5.4,12.4-10.9,18.6-16.3,3.3-2.9-1.6-7.8-4.9-4.9-6.2,5.4-12.4,10.9-18.6,16.3,1.8.2,3.6.5,5.4.7-9.2-13.8-18.3-27.6-27.5-41.4-1.8-2.8-6.5-1.8-6.4,1.7.2,28.5.4,57.1.6,85.6,0,4.1.1,8.2.1,12.2,1.2-1.1,2.3-2.3,3.4-3.5h-85.9l3.5,3.5c.2-28.5.4-57.1.6-85.6,0-4.1.1-8.2.1-12.2,0-3.6-4.6-4.5-6.4-1.7-9.2,13.8-18.3,27.6-27.5,41.4,1.8-.2,3.6-.5,5.4-.7-6.2-5.4-12.4-10.9-18.6-16.3.3,1.1.6,2.2.9,3.4,5.3-13.2,10.5-26.3,15.7-39.5,3.1-7.9,5.5-16.9,9.6-24.3,4-7.2,13.8-9.8,21.2-11.3a85.19,85.19,0,0,1,17.5-1.8c-1-.6-2-1.1-3-1.7,4.1,7.4,15.9,12,23.9,12s19.8-4.5,23.9-12c-1,.6-2,1.1-3,1.7,11.7-.1,28.5,1.4,36.8,10.5,2.5,2.7,3.5,6.4,4.8,9.8,1.7,4.4,3.4,8.8,5.2,13.2,3.6,9.1,7.2,18.3,10.9,27.4,2.1,5.3,4.3,10.7,6.4,16C1380.61,292.2,1387.31,290.4,1385.71,286.3Z"/><line class="cls-4" x1="1249.51" y1="252.9" x2="1246.91" y2="237.3"/><path class="cls-2" d="M1252.81,252c-.9-5.2-1.7-10.4-2.6-15.7-.7-4.4-7.4-2.5-6.7,1.8.9,5.2,1.7,10.4,2.6,15.7.8,4.4,7.4,2.6,6.7-1.8Z"/><line class="cls-4" x1="1336.91" y1="237.3" x2="1334.31" y2="252.9"/><path class="cls-2" d="M1333.51,236.4c-.9,5.2-1.7,10.4-2.6,15.7-.7,4.3,5.9,6.2,6.7,1.8.9-5.2,1.7-10.4,2.6-15.7.7-4.4-5.9-6.2-6.7-1.8Z"/><path class="cls-1" d="M1330.21,145.1c0-7.4-3.9-8-4.9-8,0-1.7-.1-3.4-.2-5.2,0,0,2.7-36.1-38.7-34.5-41,1.6-35,38.5-35,38.5v1.2c-1,.1-4.6.8-4.6,8a13,13,0,0,0,6.7,11.6s4.2,37.8,37.6,37.8c0,0,28.1,2.2,33.3-38.6A12.22,12.22,0,0,0,1330.21,145.1Z"/><path class="cls-2" d="M1333.71,145.1c-.2-5.4-2.2-11-8.3-11.5,1.2,1.1,2.3,2.3,3.5,3.4-.2-6.1-.1-12.1-1.8-18a33.16,33.16,0,0,0-17.2-21c-21.1-10.2-53.3-3.6-60.4,20.9a41.74,41.74,0,0,0-1.6,12.2c0,1.2.1,2.4.2,3.6a5.85,5.85,0,0,0,.2,1.3c.1,1.9-.1-1.5,0,1,1.2-1.1,2.3-2.3,3.4-3.4-13,1.4-8.5,21.6.3,26.1-.6-1-1.1-2-1.7-3,1.8,15.9,11,32.5,26.4,38.6,14.5,5.8,30.9,2.1,40.7-10.2a50.58,50.58,0,0,0,9-19.2c.6-2.4.7-5.1,1.4-7.4,0,0-.7.5-.1-.5.3-.6,1.6-1.4,2-1.9a18.71,18.71,0,0,0,4-11c.2-4.4-6.7-4.4-6.9,0s-2.3,5.5-4.7,8.5c-2.2,2.7-2,8.5-2.9,11.9-1.7,6.1-4.3,12.2-8.6,16.9-4.5,4.9-11,8.4-17.4,8.7-19.3,1.2-31.6-13.8-35.5-31.2-.7-3.1.1-3.9-2.4-6.2-1.5-1.4-3.1-2.2-4-4.2-.8-1.8-1.4-8.8.3-9a3.61,3.61,0,0,0,3.5-3.5c0-.4-.2-3.4-.1-1.7-.1-.7-.1-1.4-.2-2.2a37.68,37.68,0,0,1,.3-7.5c1.1-7.9,5-15.3,11.9-19.6,10.3-6.5,25.8-7.1,37.1-3.1a26.22,26.22,0,0,1,16.2,17.2c1.7,5.5,1.6,11.1,1.7,16.8a3.6,3.6,0,0,0,3.4,3.5c.7.1,1.3,3.1,1.4,4.6C1326.91,149.5,1333.81,149.6,1333.71,145.1Z"/><circle class="cls-2" cx="1274.11" cy="150.3" r="3.2"/><circle class="cls-2" cx="1303.81" cy="150.3" r="3.2"/><path class="cls-2" d="M1272.41,175.4a25.6,25.6,0,0,0,35.6,0c3.2-3-1.6-7.9-4.9-4.9a18.6,18.6,0,0,1-25.9,0c-3.2-3-8.1,1.9-4.8,4.9Z"/><path class="cls-3" d="M1274.21,112.8s6.9,24.8,47.2,31.5c.8,10.1.8,51.2-15.8,65.3,0,0,4.3,5.4,8.3.5,0,0-2.2,23,7.5,24.3,0,0-1.4-15.7,5.7-19.7,12.6-7.2,43-134.4-30.5-133.2,0,0-42.9-16.5-53.8,47.3,0,0-12.3,53.4,9.2,77.1,0,0,7.4,17.3,0,24.8,0,0,10.7-7.2,9.3-22.6a8,8,0,0,0,9.8-2.2s-16.2-7.9-14.2-61.9C1256.81,144,1272.51,135.4,1274.21,112.8Z"/><path class="cls-2" d="M1270.91,113.7c5.8,20.5,30.9,30.7,49.6,33.9-.8-1.1-1.7-2.2-2.5-3.3a139.55,139.55,0,0,1-1.2,29.6c-1.6,11.5-4.5,25.1-13.6,33.2-1.5,1.3-1.2,3.5,0,4.9,3.7,4.4,9.2,4.5,13.2.5-2-.8-3.9-1.6-5.9-2.4-.8,8.5-1,25.4,10,27.6,2,.4,4.6-.9,4.4-3.3-.5-5.8-.4-13,4.3-17a22,22,0,0,0,5.5-7.3c4.7-9.5,7.4-20.1,9.4-30.4,4.9-25.2,7.1-55.7-5.9-78.9a42.89,42.89,0,0,0-28.8-21.6c-4.3-.9-8.9-.6-13-1.4a63.12,63.12,0,0,0-8.5-1.5,38.64,38.64,0,0,0-29.2,9.8c-12.2,11-16.5,27.6-19.6,43.1-3.1,15.8-4.5,32.3-2.3,48.3,1.3,9.7,4.1,20.8,10.7,28.5.1.1,2.1,2.6,1.1.9a3.58,3.58,0,0,1,.4,1.1,26.73,26.73,0,0,1,1.5,4.8c1.2,4.8,2.5,11.4-1.1,15.4-2.4,2.8.8,7.8,4.2,5.4,8.2-5.7,11.6-16,11-25.6-1.7,1-3.5,2-5.2,3,5,2.4,10.2,1.2,14-2.7a3.46,3.46,0,0,0-.7-5.4,2.09,2.09,0,0,1-.6-.4c.6.6-.7-.6-1.1-1.1a26.11,26.11,0,0,1-4.8-7.9c-6.6-15.2-6.5-33.3-5.9-49.5-.6,1-1.1,2-1.7,3,12-6.7,17.9-21.2,19.1-34.2.4-4.4-6.5-4.4-6.9,0-.9,9.8-4.9,19.4-12.5,25.9-1,.8-2.2,1.5-3.2,2.3-2.3,2-1.8,4.8-1.8,7.6-.1,3.7-.1,7.3.1,11,.5,14.6,1.8,32.2,10.9,44.4a16.69,16.69,0,0,0,5,4.9c-.2-1.8-.5-3.6-.7-5.4-1.5,1.5-3.6,2.6-5.6,1.6-2.2-1.1-5.4.2-5.2,3,.4,7.3-2.5,16.1-7.6,19.7l4.2,5.4c5.6-6.4,4.8-15.4,2.6-23.1-1.9-6.6-6.6-11.1-9.2-17.4-6.5-15.8-5.8-34.3-3.7-50.9,2.9-22.6,9.8-56.3,37.5-58.6,5.6-.5,10.1,1.3,15.5,1.8,6.6.6,12.7.8,18.9,3.7a35.22,35.22,0,0,1,13,10.6c15.2,20.2,13.2,51.2,9.2,74.6-1.9,11-4.4,22.7-9.4,32.8-.6,1.2-1.9,3.5-2.2,3.9-1.2,1.7-2,1.4-3.9,3.5-4.6,5.2-5.1,13.8-4.5,20.3,1.5-1.1,2.9-2.2,4.4-3.3-6.6-1.3-5.4-15.9-4.9-21,.3-3.1-3.9-4.4-5.9-2.4-1.3,1.3-2.5.6-3.4-.5v4.9c9.7-8.6,13.3-22.7,15.2-35.1a148.29,148.29,0,0,0,1.6-32.6c-.1-1.4-1-3.1-2.5-3.3-13.6-2.4-27.4-7.2-37.2-17.4-3.2-3.3-6.5-7.9-7.6-11.7C1276.31,107.6,1269.71,109.4,1270.91,113.7Z"/><path class="cls-1" d="M277.81,301.9s6.9,51.8,33.5,35.5c0,0,15-13.6-2-33.9l-18.6-10.3Z"/><path class="cls-2" d="M274.51,302.8c1.8,13,6.2,31,18,38.5,6.5,4.1,16.7,3.4,22.1-2.4,7.9-8.4,7.6-21,2.3-30.6-1.6-2.8-3.6-6.2-6.3-8.1a65.5,65.5,0,0,0-5.8-3.2c-4.1-2.3-8.2-4.6-12.3-6.8a3.38,3.38,0,0,0-3.5,0l-12.9,8.7c-3.7,2.5-.2,8.4,3.5,6l12.9-8.7H289c5.8,3.2,12.5,5.9,17.8,9.9,4.4,3.3,7.2,11.1,7.2,16.5a18.13,18.13,0,0,1-3.6,10.7c-3.5,4.6-10.8,4.9-15.2,1.5-5.8-4.4-8.7-12.4-10.7-19.1a83.3,83.3,0,0,1-3.3-14.8C280.51,296.6,273.91,298.4,274.51,302.8Z"/><path class="cls-1" d="M457,301.9s-6.9,51.8-33.5,35.5c0,0-15-13.6,2-33.9l18.6-10.3Z"/><path class="cls-2" d="M453.71,301c-1.4,10.7-4.5,23.9-12,31.9-4.2,4.5-11.3,5.9-16.3,1.5-7.9-7-4-18.9.7-26.2,2.1-3.3,6.6-4.8,9.9-6.7s6.5-3.6,9.7-5.4h-3.5l12.9,8.7c3.7,2.5,7.2-3.5,3.5-6l-12.9-8.7a3.38,3.38,0,0,0-3.5,0c-3.4,1.9-6.8,3.8-10.2,5.6-3.6,2-7.7,3.6-10.3,6.7-8,9.6-10.9,23.4-3.4,34.1a18.18,18.18,0,0,0,20.6,6.3c8.6-3.2,13.2-12.4,16.3-20.4a89,89,0,0,0,5-19.7C460.91,298.4,454.31,296.6,453.71,301Z"/><path class="cls-3" d="M478.51,244.9s-5.7-11.1-15.5-51.2-36.4-43.9-36.4-43.9l-30-10.9-28.7,1.2-28.7-1.2-30,10.9s-26.6,3.9-36.4,43.9-15.5,51.2-15.5,51.2-15,25.6,8,55l9,11.1a9.12,9.12,0,0,1,.8-1.6l17.5-16.3a26.81,26.81,0,0,1,2.7-.7l-9.8-26.9,19.1-29.7.8,65.9-.8,17.6-1.5,31.5s26.6,10.1,64.1,10.7h1.4c37.5-.6,64.1-10.7,64.1-10.7l-1.5-31.5-.8-17.6.8-65.9,19.1,29.7-9.8,26.9a26.81,26.81,0,0,1,2.7.7l17.5,16.3.8,1.6,9-11.1C493.51,270.5,478.51,244.9,478.51,244.9Z"/><path class="cls-2" d="M481.51,243.2c-5.2-10.3-8.6-25.1-11.8-37.1-5.5-20.8-10.9-42.9-30.6-54.9-7.3-4.4-16.7-6.6-24.7-9.5-5.5-2-11.6-5.3-17.3-6.2-5.9-.9-12.8.4-18.7.7-12.2.5-24.2-.1-36.4-.6-4.5-.2-8.1,1.6-12.3,3.1-6.8,2.5-13.7,5.3-20.6,7.5-9.3,2.9-17.2,7.1-23.8,14.6-7.5,8.4-12.3,18.8-15.2,29.6-3.4,12.7-6.4,25.4-10.4,37.9-2.6,8.1-5.7,13.8-8.2,21.6-6.7,20.5,1.4,40.2,14.4,56.2,2,2.5,4,4.9,6,7.4,1.3,1.6,4.6,1.2,5.4-.7,1.5-3.5,6.2-6.5,9-9.1,2-1.9,4-3.7,6-5.6.7-.6,1.4-1.5,2.1-2,1.3-.8-.8.2,1.8-.4a3.49,3.49,0,0,0,2.4-4.2c-3.3-9-6.5-17.9-9.8-26.9l-.3,2.7c6.4-9.9,12.8-19.8,19.1-29.7-2.1-.6-4.3-1.2-6.4-1.7.3,28.9,1.3,57.8-.2,86.7-.5,9.4-.9,18.8-1.4,28.3a3.42,3.42,0,0,0,2.5,3.3c20.4,7.7,43.4,10.4,65,10.8l-3.4-3.4h0a3.44,3.44,0,0,0,3.4,3.4h.2a3.52,3.52,0,0,0,3.5-3.4h0c-1.1,1.1-2.3,2.3-3.5,3.4h1l-3.4-3.4h0a3.44,3.44,0,0,0,3.4,3.4h.2a3.52,3.52,0,0,0,3.5-3.4h0c-1.1,1.1-2.3,2.3-3.5,3.4,21.6-.4,44.6-3.1,65-10.8a3.42,3.42,0,0,0,2.5-3.3c-.8-15.4-1.5-30.8-2.2-46.2s.2-31.2.4-46.7l.3-22.2c-2.1.6-4.3,1.2-6.4,1.7,6.4,9.9,12.8,19.8,19.1,29.7l-.3-2.7c-3.3,9-6.5,17.9-9.8,26.9a3.4,3.4,0,0,0,2.4,4.2c1.8.4.7-.3,1.8.4a15.37,15.37,0,0,1,1.9,1.7c2.1,1.9,4.2,3.9,6.3,5.8,2.8,2.6,7.5,5.6,9,9.1.8,1.9,4.1,2.3,5.4.7,9.6-11.7,19.3-23.3,22-38.7,1.8-10.1.9-22.1-4.4-31.4-2.2-3.8-8.2-.4-6,3.5,4.6,8,5.2,18.8,3.5,27.6-2.7,13.7-11.5,23.9-20,34.3,1.8.2,3.6.5,5.4.7-1.9-4.4-7-7.7-10.4-10.8-3.9-3.6-7.3-8.2-12.6-9.4l2.4,4.2c2-5.6,4.1-11.1,6.1-16.7,1.3-3.7,5-9.5,3.1-13.3-2.8-5.6-6.9-10.8-10.3-16-2.8-4.4-5.7-8.8-8.5-13.2-1.8-2.8-6.4-1.8-6.4,1.7-.3,28.9-1.3,57.8.2,86.7.5,9.4.9,18.8,1.4,28.3.8-1.1,1.7-2.2,2.5-3.3-19.9,7.5-42.1,10.2-63.2,10.6a3.46,3.46,0,0,0-3.4,3.5h0c1.1-1.2,2.3-2.3,3.4-3.5h-.2c1.2,1.1,2.3,2.3,3.5,3.5h0a3.61,3.61,0,0,0-3.5-3.5h-1a3.46,3.46,0,0,0-3.4,3.5h0c1.1-1.2,2.3-2.3,3.4-3.5h-.2c1.2,1.1,2.3,2.3,3.5,3.5h0a3.61,3.61,0,0,0-3.5-3.5c-21.1-.4-43.3-3-63.2-10.6.8,1.1,1.7,2.2,2.5,3.3.8-15.4,1.5-30.8,2.2-46.2s-.2-31.2-.4-46.7l-.3-22.2a3.45,3.45,0,0,0-6.4-1.7c-2.8,4.4-5.7,8.8-8.5,13.2-3.4,5.2-7.5,10.5-10.3,16-1.9,3.8,1.7,9.6,3.1,13.3,2,5.6,4.1,11.1,6.1,16.7l2.4-4.2c-5.3,1.2-8.7,5.8-12.6,9.4-3.4,3.1-8.5,6.5-10.4,10.8,1.8-.2,3.6-.5,5.4-.7-4.6-5.6-9.5-11.1-13.3-17.3-6-9.9-8.9-21.5-7-33,1.2-7.1,4.7-13.3,7.1-19.9,3.1-8.7,5.7-17.6,8.1-26.5,3.5-12.8,5.7-26.2,12.5-37.8,6-10.2,14.5-17.5,25.8-20.9,4.6-1.4,9.2-3.3,13.7-4.9,3.7-1.3,7.3-2.7,11-4,1.2-.4,2.5-.9,3.7-1.3.3-.1,2.2-.7,1.3-.6s1.2.1,1.5.1c1.5.1,3,.1,4.5.2,3.9.2,7.8.3,11.8.5,4.2.2,8.5.5,12.7.3l22-.9c1.2,0,2.3-.1,3.5-.1,1.4-.1.4-.1.4-.1,2.3.6,4.5,1.6,6.7,2.4,9,3.3,18.3,6.2,27.2,9.5,16.5,6.2,25.5,23.5,29.6,39.5,4.4,17,7.8,35.3,15.4,51.3a10.09,10.09,0,0,0,.7,1.5C477.51,250.7,483.51,247.2,481.51,243.2Z"/><line class="cls-4" x1="304.11" y1="195.7" x2="303.31" y2="225.9"/><path class="cls-2" d="M300.61,195.7c-.3,10.1-.5,20.2-.8,30.2-.1,4.4,6.8,4.4,6.9,0,.3-10.1.5-20.2.8-30.2.1-4.5-6.8-4.5-6.9,0Z"/><line class="cls-4" x1="283.01" y1="261.6" x2="272.61" y2="250.2"/><path class="cls-2" d="M285.41,259.2c-3.5-3.8-6.9-7.6-10.4-11.5-3-3.3-7.9,1.6-4.9,4.9,3.5,3.8,6.9,7.6,10.4,11.5,3,3.3,7.9-1.6,4.9-4.9Z"/><line class="cls-4" x1="430.21" y1="195.7" x2="431.01" y2="225.9"/><path class="cls-2" d="M426.81,195.7c.3,10.1.5,20.2.8,30.2.1,4.4,7,4.4,6.9,0-.3-10.1-.5-20.2-.8-30.2-.1-4.5-7-4.5-6.9,0Z"/><line class="cls-4" x1="450.11" y1="261.6" x2="460.51" y2="250.2"/><path class="cls-2" d="M452.61,264.1c3.5-3.8,6.9-7.6,10.4-11.5,3-3.3-1.9-8.2-4.9-4.9-3.5,3.8-6.9,7.6-10.4,11.5-3,3.3,1.9,8.2,4.9,4.9Z"/><path class="cls-1" d="M351.61,121.2l1.7,22s30.2,1.4,30.2,0V118.8S351.61,121.6,351.61,121.2Z"/><path class="cls-2" d="M348.21,121.2c.6,7.3,1.1,14.6,1.7,22a3.52,3.52,0,0,0,3.5,3.4c4.7.2,9.4.4,14.1.5,5,.1,11.7,1.2,16.5-.3,4.5-1.5,3-8.1,3-11.8V118.8a3.46,3.46,0,0,0-3.5-3.4c-5.2.4-10.3.9-15.5,1.3-3.6.3-7.3.6-10.9.8-1.2.1-2.4.1-3.5.2-1.5.2-2.7-.5-.3.5-4-1.8-7.5,4.2-3.5,6,1.8.8,3.9.4,5.8.3,3.6-.2,7.3-.5,10.9-.8,5.6-.5,11.3-.9,16.9-1.4l-3.5-3.5v22a7.38,7.38,0,0,0,0,2.1c.5.9,2.8-2.2,1.9-2.7.3.2-.4.1-.6,0-2.2-.4-5,.1-7.2.1-3.1,0-6.1-.1-9.2-.2-3.9-.1-7.8-.3-11.7-.4,1.1,1.1,2.3,2.3,3.4,3.5-.6-7.3-1.1-14.6-1.7-22C354.71,116.8,347.81,116.8,348.21,121.2Z"/><path class="cls-1" d="M410.91,72.2c0-8.3-4.4-8.9-5.4-9,0-1.9-.1-3.8-.2-5.8,0,0,3-40.4-43.3-38.6-45.8,1.8-39.1,43.1-39.1,43.1v1.4c-1.2.1-5.2.9-5.2,9a14.54,14.54,0,0,0,7.5,13s4.7,42.3,42.1,42.3c0,0,31.5,2.5,37.3-43.2A14.72,14.72,0,0,0,410.91,72.2Z"/><path class="cls-2" d="M414.31,72.2c-.2-5.7-2.3-12-8.9-12.4l3.5,3.5c-.2-6.6-.1-13.1-1.9-19.5a36.78,36.78,0,0,0-18.9-23.6c-23.4-11.5-59.3-4.2-67.3,23A50.34,50.34,0,0,0,319,56.6c0,1.4.1,2.7.2,4.1s.2,2.4.2,2.7c1.1-1.2,2.3-2.3,3.5-3.5-14.2,1.5-8.9,23.6.6,28.4-.6-1-1.1-2-1.7-3,2,17.6,12.1,36,29.2,42.8,16.4,6.5,34.7,2.3,45.6-11.8a56.62,56.62,0,0,0,9.8-21.8c.5-2.1.7-6.2,1-7.4-.1.3.4-.4.9-1s1.3-1.2,1.9-1.9a20.68,20.68,0,0,0,4.1-12c.2-4.4-6.7-4.4-6.9,0-.2,4.6-2.2,6.4-5,9.5-2.6,2.9-2.4,9.1-3.4,12.9-1.8,6.9-4.7,13.8-9.5,19.2-5.1,5.8-12.6,9.9-19.9,10.3-21.8,1.3-35.8-15.4-40.3-35.1-.3-1.3-.5-2.5-.7-3.8-.2-1,.1.5,0,.1a5.21,5.21,0,0,0-1.8-3c-2-1.8-3.9-2.9-5-5.7-.8-2.1-1.2-9.6,1-9.8,1.8-.2,3.5-1.4,3.4-3.4a18.88,18.88,0,0,0-.1-1.9,24.52,24.52,0,0,1-.2-2.7,46.85,46.85,0,0,1,.4-8.4c1.3-9,5.8-17.2,13.6-22.1,11.7-7.2,29.1-7.9,41.8-3.2a29.76,29.76,0,0,1,18.2,19.5c1.9,6.2,1.8,12.5,2,18.9a3.44,3.44,0,0,0,3.4,3.4c1.1.1,1.9,3.6,2,5.5C407.61,76.7,414.51,76.7,414.31,72.2Z"/><circle class="cls-2" cx="344.71" cy="75.9" r="3.6"/><circle class="cls-2" cx="382.51" cy="75.9" r="3.6"/><path class="cls-2" d="M348,28.2s-1.3,27.7,10,30.8c0,0,2.1-1.2,2.1-7.3,0,0,11.3,12.7,31.9,9.4,0,0,9,1.6,13.4.7,0,0,5.2.2,5.4,9.4s-6.4,12.8-6.4,12.8l-.6,9.5s1,5.2,7.5-6.6,15.2-61.2-19-77.2c-32.7-15.3-75.7-6-78.5,50.6,0,0,.6,30.2,12.6,34.8l-1.3-10.3s-7.7-4.9-7.5-13.6,5.2-9.4,5.2-9.4,2.3,7.7,4.6-.7c0,0,8.2,7.7,11.1-5.4S348,28.2,348,28.2Z"/><path class="cls-2" d="M344.61,28.2c-.4,8.1.3,17,3.3,24.5,1.6,3.9,4.7,8.8,9.2,9.6,5.5.9,6.3-6.9,6.4-10.6-2,.8-3.9,1.6-5.9,2.4,7.6,8.4,21,12.1,31.9,10.7a32.59,32.59,0,0,1,7.5.4,41.93,41.93,0,0,0,5,.3,17.75,17.75,0,0,1,3.2-.2c-.8-.1-.5-.3,0,0,2.6,1.8,2.4,6.6,1.8,9.3-.7,2.9-2.3,4.4-4.3,6.3-3.1,3.1-4.9,19.1,3.5,17,4.8-1.2,7.8-8.2,9.5-12.3a62.92,62.92,0,0,0,3.7-14c2.1-12.7,2-26.3-2.4-38.5-4.8-13.4-14.4-22.9-27.6-28.2-23.6-9.4-52-5.9-67.3,16-8.3,11.8-12.6,28.3-11.7,42.6.7,11,2.3,29.7,14.1,34.8,2.1.9,5.6-.1,5.2-3-.5-4.2,0-10.5-3.3-13.5-2.7-2.5-5.1-5.1-5.5-9-.2-1.9.1-7,2.6-7.5l-4.2-2.4c.7,2.2,1.9,4.8,4.2,5.5,4.2,1.3,6-3.1,7-6.2-1.9.5-3.8,1-5.8,1.5,4.8,4.3,11.6,4.4,14.9-1.6,3.3-5.8,3.9-13.5,6.2-19.8,1.5-4.1,3.1-8.2,4.9-12.2s-4.1-7.5-6-3.5a154.73,154.73,0,0,0-7.9,20.9c-1,3.3-2.1,15.9-7.2,11.3a3.53,3.53,0,0,0-5.8,1.5c-1.4,2.2-.6,2.9,2.6,2-.1-.2-.2-.3-.3-.5a2.61,2.61,0,0,0-.3-.8,3.49,3.49,0,0,0-4.2-2.4c-6,1.1-8,9-7.7,14.1.3,6.1,4.1,11.9,9.2,15.2-.6-1-1.1-2-1.7-3,.4,3.4.9,6.9,1.3,10.3,1.7-1,3.5-2,5.2-3-7.1-3.1-8.7-13.7-9.8-20.5a67.15,67.15,0,0,1-.4-19c2.4-18.7,11.6-37.3,30.5-43.6,15.2-5.1,34-2.2,47.4,6.6,15.7,10.3,19.2,30.6,17.7,48-.6,6.9-1.8,14.4-4.8,20.7-1,2.2-3.5,4.4-4.2,6.6-.3,1-1.5-.1,2.5,1.4.1,0,.4.9.2,1,.6-.9.3-4,.3-5.1.1-1.4.2-2.9.3-4.3-.6,1-1.1,2-1.7,3,6.3-3.6,8.8-11.4,7.8-18.3s-4.7-10.3-11.4-10c-3.5.1-6.8-.7-10.2-.9-5.7-.3-10.8.8-16.6-.8-4.8-1.4-9.9-3.9-13.4-7.6-2.1-2.3-5.8-.4-5.9,2.4,0,.6-.8,3.7-.6,4.3.1.3-.9.8.3,0l2.7-.3c-5.4-1.8-6.5-10.9-7.1-15.6a77.68,77.68,0,0,1-.5-11.8C351.71,23.7,344.81,23.8,344.61,28.2Z"/><path class="cls-3" d="M385.71,135.3l-19.6,8.5,12.7,15.8,24.8-19.9C403.61,139.6,387,132.4,385.71,135.3Z"/><path class="cls-2" d="M384,132.3c-6.5,2.8-13.1,5.7-19.6,8.5-2.2,1-1.9,3.9-.7,5.4,4.2,5.3,8.4,10.5,12.7,15.8,1.3,1.6,3.6,1.1,4.9,0,8.3-6.6,16.5-13.3,24.8-19.9,1.6-1.3,1.2-4.6-.7-5.4-5.3-2.3-18-9.3-22.6-3.2-2.6,3.6,3.4,7,6,3.5-2.3,3.1-1.8.3-.6,1.1a10.27,10.27,0,0,0,2.4.5,41.61,41.61,0,0,1,5,1.6,66.23,66.23,0,0,1,6.2,2.4c-.2-1.8-.5-3.6-.7-5.4-8.3,6.6-16.5,13.3-24.8,19.9h4.9c-4.2-5.3-8.4-10.5-12.7-15.8-.2,1.8-.5,3.6-.7,5.4,6.5-2.8,13.1-5.7,19.6-8.5C391.51,136.5,388,130.5,384,132.3Z"/><path class="cls-3" d="M346.51,133.4c1.2.5,19.6,10.3,19.6,10.3L354,158.4l-19.9-17.3C334.11,141.2,343.91,132.4,346.51,133.4Z"/><path class="cls-2" d="M344.71,136.4c6.7,3,13.2,6.9,19.6,10.3-.2-1.8-.5-3.6-.7-5.4-4,4.9-8.1,9.8-12.1,14.7h4.9c-6.6-5.8-13.3-11.5-19.9-17.3v4.9c1.2-1,2.4-2.1,3.6-3,1-.8,5-3.9,5.4-3.8,4.3.8,6.2-5.8,1.8-6.7-5.7-1.1-11.8,5.2-15.8,8.6a3.57,3.57,0,0,0,0,4.9c6.6,5.8,13.3,11.5,19.9,17.3,1.3,1.1,3.6,1.5,4.9,0,4-4.9,8.1-9.8,12.1-14.7,1.3-1.6,1.4-4.3-.7-5.4-6.5-3.5-12.9-7.4-19.6-10.3C344.21,128.7,340.71,134.6,344.71,136.4Z"/><path class="cls-2" d="M346.51,105.8a28.26,28.26,0,0,0,39.3,0c3.2-3.1-1.6-7.9-4.9-4.9a21.13,21.13,0,0,1-29.5,0c-3.3-3-8.2,1.9-4.9,4.9Z"/><path class="cls-1" d="M526.91,301.9s6.9,51.8,33.5,35.5c0,0,15-13.6-2-33.9l-18.6-10.3Z"/><path class="cls-2" d="M523.61,302.8c1.8,13,6.2,31,18,38.5,6.5,4.1,16.7,3.4,22.1-2.4,7.9-8.4,7.6-21,2.3-30.6-1.6-2.8-3.6-6.2-6.3-8.1a65.51,65.51,0,0,0-5.8-3.2c-4.1-2.3-8.2-4.6-12.3-6.8a3.38,3.38,0,0,0-3.5,0l-12.9,8.7c-3.7,2.5-.2,8.4,3.5,6l12.9-8.7h-3.5c5.8,3.2,12.5,5.9,17.8,9.9,4.4,3.3,7.2,11.1,7.2,16.5a18.13,18.13,0,0,1-3.6,10.7c-3.5,4.6-10.8,4.9-15.2,1.5-5.8-4.4-8.7-12.4-10.7-19.1a83.3,83.3,0,0,1-3.3-14.8C529.61,296.6,523,298.4,523.61,302.8Z"/><path class="cls-1" d="M706.11,301.9s-6.9,51.8-33.5,35.5c0,0-15-13.6,2-33.9l18.6-10.3Z"/><path class="cls-2" d="M702.71,301c-1.4,10.7-4.5,23.9-12,31.9-4.2,4.5-11.3,5.9-16.3,1.5-7.9-7-4-18.9.7-26.2,2.1-3.3,6.6-4.8,9.9-6.7s6.5-3.6,9.7-5.4h-3.5l12.9,8.7c3.7,2.5,7.2-3.5,3.5-6l-12.9-8.7a3.38,3.38,0,0,0-3.5,0c-3.4,1.9-6.8,3.8-10.2,5.6-3.6,2-7.7,3.6-10.3,6.7-8,9.6-10.9,23.4-3.4,34.1a18.18,18.18,0,0,0,20.6,6.3c8.6-3.2,13.2-12.4,16.3-20.4a89,89,0,0,0,5-19.7C710,298.4,703.31,296.6,702.71,301Z"/><path class="cls-3" d="M727.61,244.9s-5.7-11.1-15.5-51.2-36.4-43.9-36.4-43.9l-30-10.9L617,140.1l-28.7-1.2-30,10.9s-26.6,3.9-36.4,43.9-15.5,51.2-15.5,51.2-15,25.6,8,55l9,11.1a9.12,9.12,0,0,1,.8-1.6l17.5-16.3a26.81,26.81,0,0,1,2.7-.7l-9.8-26.9,19.1-29.7.8,65.9-.8,17.6-1.5,31.5s26.6,10.1,64.1,10.7h1.4c37.5-.6,64.1-10.7,64.1-10.7l-1.5-31.5-.8-17.6.8-65.9,19.1,29.7-9.8,26.9a26.81,26.81,0,0,1,2.7.7l17.5,16.3.8,1.6,9-11.1C742.51,270.5,727.61,244.9,727.61,244.9Z"/><path class="cls-2" d="M730.51,243.2c-5.2-10.3-8.6-25.1-11.8-37.1-5.5-20.8-10.9-42.9-30.6-54.9-7.3-4.4-16.7-6.6-24.7-9.5-5.5-2-11.6-5.3-17.3-6.2-5.9-.9-12.8.4-18.7.7-12.2.5-24.2-.1-36.4-.6-4.5-.2-8.1,1.6-12.3,3.1-6.8,2.5-13.7,5.3-20.6,7.5-9.3,2.9-17.2,7.1-23.8,14.6-7.5,8.4-12.3,18.8-15.2,29.6-3.4,12.7-6.4,25.4-10.4,37.9-2.6,8.1-5.7,13.8-8.2,21.6-6.7,20.5,1.4,40.2,14.4,56.2,2,2.5,4,4.9,6,7.4,1.3,1.6,4.6,1.2,5.4-.7,1.5-3.5,6.2-6.5,9-9.1,2-1.9,4-3.7,6-5.6.7-.6,1.4-1.5,2.1-2,1.3-.8-.8.2,1.8-.4a3.49,3.49,0,0,0,2.4-4.2c-3.3-9-6.5-17.9-9.8-26.9l-.3,2.7c6.4-9.9,12.8-19.8,19.1-29.7-2.1-.6-4.3-1.2-6.4-1.7.3,28.9,1.3,57.8-.2,86.7-.5,9.4-.9,18.8-1.4,28.3a3.42,3.42,0,0,0,2.5,3.3c20.4,7.7,43.4,10.4,65,10.8-1.2-1.1-2.3-2.3-3.5-3.4h0a3.46,3.46,0,0,0,3.5,3.4h.2a3.52,3.52,0,0,0,3.5-3.4h0c-1.2,1.1-2.3,2.3-3.5,3.4h1c-1.2-1.1-2.3-2.3-3.5-3.4h0a3.46,3.46,0,0,0,3.5,3.4h.2a3.52,3.52,0,0,0,3.5-3.4h0c-1.2,1.1-2.3,2.3-3.5,3.4,21.6-.4,44.6-3.1,65-10.8a3.42,3.42,0,0,0,2.5-3.3c-.8-15.4-1.5-30.8-2.2-46.2s.2-31.2.4-46.7l.3-22.2c-2.1.6-4.3,1.2-6.4,1.7,6.4,9.9,12.8,19.8,19.1,29.7l-.3-2.7c-3.3,9-6.5,17.9-9.8,26.9a3.4,3.4,0,0,0,2.4,4.2c1.8.4.7-.3,1.8.4a15.37,15.37,0,0,1,1.9,1.7c2.1,1.9,4.2,3.9,6.3,5.8,2.8,2.6,7.5,5.6,9,9.1.8,1.9,4.1,2.3,5.4.7,9.6-11.7,19.3-23.3,22-38.7,1.9-10.1,1-22.1-4.4-31.4-2.2-3.8-8.2-.4-6,3.5,4.6,8,5.2,18.8,3.5,27.6-2.7,13.7-11.5,23.9-20,34.3,1.8.2,3.6.5,5.4.7-1.9-4.4-7-7.7-10.4-10.8-3.9-3.6-7.3-8.2-12.6-9.4l2.4,4.2c2-5.6,4.1-11.1,6.1-16.7,1.3-3.7,5-9.5,3.1-13.3-2.8-5.6-6.9-10.8-10.3-16-2.8-4.4-5.7-8.8-8.5-13.2-1.8-2.8-6.4-1.8-6.4,1.7-.3,28.9-1.3,57.8.2,86.7.5,9.4.9,18.8,1.4,28.3.8-1.1,1.7-2.2,2.5-3.3-19.9,7.5-42.1,10.2-63.2,10.6a3.54,3.54,0,0,0-3.5,3.5h0l3.5-3.5h-.2c1.2,1.1,2.3,2.3,3.5,3.5h0a3.61,3.61,0,0,0-3.5-3.5h-1a3.54,3.54,0,0,0-3.5,3.5h0l3.5-3.5h-.2c1.2,1.1,2.3,2.3,3.5,3.5h0a3.61,3.61,0,0,0-3.5-3.5c-21.1-.4-43.3-3-63.2-10.6.8,1.1,1.7,2.2,2.5,3.3.8-15.4,1.5-30.8,2.2-46.2s-.2-31.2-.4-46.7l-.3-22.2a3.45,3.45,0,0,0-6.4-1.7c-2.8,4.4-5.7,8.8-8.5,13.2-3.4,5.2-7.5,10.5-10.3,16-1.9,3.8,1.7,9.6,3.1,13.3,2,5.6,4.1,11.1,6.1,16.7l2.4-4.2c-5.3,1.2-8.7,5.8-12.6,9.4-3.4,3.1-8.5,6.5-10.4,10.8,1.8-.2,3.6-.5,5.4-.7-4.6-5.6-9.5-11.1-13.3-17.3-6-9.9-8.9-21.5-7-33,1.2-7.1,4.7-13.3,7.1-19.9,3.1-8.7,5.7-17.6,8.1-26.5,3.5-12.8,5.7-26.2,12.5-37.8,6-10.2,14.5-17.5,25.8-20.9,4.6-1.4,9.2-3.3,13.7-4.9,3.7-1.3,7.3-2.7,11-4,1.2-.4,2.5-.9,3.7-1.3.3-.1,2.2-.7,1.3-.6s1.2.1,1.5.1c1.5.1,3,.1,4.5.2,3.9.2,7.8.3,11.8.5,4.2.2,8.5.5,12.7.3l22-.9c1.2,0,2.3-.1,3.5-.1,1.4-.1.4-.1.4-.1,2.3.6,4.5,1.6,6.7,2.4,9,3.3,18.3,6.2,27.2,9.5,16.5,6.2,25.5,23.5,29.6,39.5,4.4,17,7.8,35.3,15.4,51.3a10.09,10.09,0,0,0,.7,1.5C726.61,250.7,732.51,247.2,730.51,243.2Z"/><line class="cls-4" x1="553.11" y1="195.7" x2="552.31" y2="225.9"/><path class="cls-2" d="M549.71,195.7c-.3,10.1-.5,20.2-.8,30.2-.1,4.4,6.8,4.4,6.9,0,.3-10.1.5-20.2.8-30.2.1-4.5-6.8-4.5-6.9,0Z"/><line class="cls-4" x1="532.11" y1="261.6" x2="521.71" y2="250.2"/><path class="cls-2" d="M534.51,259.2c-3.5-3.8-6.9-7.6-10.4-11.5-3-3.3-7.9,1.6-4.9,4.9,3.5,3.8,6.9,7.6,10.4,11.5,3,3.3,7.9-1.6,4.9-4.9Z"/><line class="cls-4" x1="679.31" y1="195.7" x2="680.11" y2="225.9"/><path class="cls-2" d="M675.91,195.7c.3,10.1.5,20.2.8,30.2.1,4.4,7,4.4,6.9,0-.3-10.1-.5-20.2-.8-30.2-.2-4.5-7.1-4.5-6.9,0Z"/><line class="cls-4" x1="699.21" y1="261.6" x2="709.61" y2="250.2"/><path class="cls-2" d="M701.71,264.1c3.5-3.8,6.9-7.6,10.4-11.5,3-3.3-1.9-8.2-4.9-4.9-3.5,3.8-6.9,7.6-10.4,11.5-3,3.3,1.9,8.2,4.9,4.9Z"/><path class="cls-1" d="M600.71,121.2l1.7,22s30.2,1.4,30.2,0V118.8S600.71,121.6,600.71,121.2Z"/><path class="cls-2" d="M597.31,121.2c.6,7.3,1.1,14.6,1.7,22a3.52,3.52,0,0,0,3.5,3.4c4.7.2,9.4.4,14.1.5,5,.1,11.7,1.2,16.5-.3,4.5-1.5,3-8.1,3-11.8V118.8a3.46,3.46,0,0,0-3.5-3.4c-5.2.4-10.3.9-15.5,1.3-3.6.3-7.3.6-10.9.8-1.2.1-2.4.1-3.5.2-1.5.2-2.7-.5-.3.5-4-1.8-7.5,4.2-3.5,6,1.8.8,3.9.4,5.8.3,3.6-.2,7.3-.5,10.9-.8,5.6-.5,11.3-.9,16.9-1.4-1.2-1.1-2.3-2.3-3.5-3.5v22a7.38,7.38,0,0,0,0,2.1c.5.9,2.8-2.2,1.9-2.7.3.2-.4.1-.6,0-2.2-.4-5,.1-7.2.1-3.1,0-6.1-.1-9.2-.2-3.9-.1-7.8-.3-11.7-.4,1.1,1.1,2.3,2.3,3.4,3.5-.6-7.3-1.1-14.6-1.7-22C603.81,116.8,596.91,116.8,597.31,121.2Z"/><path class="cls-1" d="M659.91,72.2c0-8.3-4.4-8.9-5.4-9,0-1.9-.1-3.8-.2-5.8,0,0,3-40.4-43.3-38.6-45.8,1.8-39.1,43.1-39.1,43.1v1.4c-1.2.1-5.2.9-5.2,9a14.54,14.54,0,0,0,7.5,13s4.7,42.3,42.1,42.3c0,0,31.5,2.5,37.3-43.2A14.47,14.47,0,0,0,659.91,72.2Z"/><path class="cls-2" d="M663.41,72.2c-.2-5.7-2.3-12-8.9-12.4,1.2,1.1,2.3,2.3,3.5,3.5-.2-6.6-.1-13.1-1.9-19.5a36.78,36.78,0,0,0-18.9-23.6c-23.4-11.5-59.3-4.2-67.3,23a50.34,50.34,0,0,0-1.8,13.4c0,1.4.1,2.7.2,4.1s.2,2.4.2,2.7c1.1-1.2,2.3-2.3,3.5-3.5-14.2,1.5-8.9,23.6.6,28.4-.6-1-1.1-2-1.7-3,2,17.6,12.1,36,29.2,42.8,16.4,6.5,34.7,2.3,45.6-11.8a56.62,56.62,0,0,0,9.8-21.8c.5-2.1.7-6.2,1-7.4-.1.3.4-.4.9-1s1.3-1.2,1.9-1.9a20.67,20.67,0,0,0,4.1-12c.2-4.4-6.7-4.4-6.9,0-.2,4.6-2.2,6.4-5,9.5-2.6,2.9-2.4,9.1-3.4,12.9-1.8,6.9-4.7,13.8-9.5,19.2-5.1,5.8-12.6,9.9-19.9,10.3-21.8,1.3-35.8-15.4-40.3-35.1-.3-1.3-.5-2.5-.7-3.8-.2-1,.1.5,0,.1a5.21,5.21,0,0,0-1.8-3c-2-1.8-3.9-2.9-5-5.7-.8-2.1-1.2-9.6,1-9.8,1.8-.2,3.5-1.4,3.4-3.4a19,19,0,0,0-.1-1.9,24.52,24.52,0,0,1-.2-2.7,46.85,46.85,0,0,1,.4-8.4c1.3-9,5.8-17.2,13.6-22.1,11.7-7.2,29.1-7.9,41.8-3.2A29.76,29.76,0,0,1,649,44.6c1.9,6.2,1.8,12.5,2,18.9a3.44,3.44,0,0,0,3.4,3.4c1.1.1,1.9,3.6,2,5.5C656.61,76.7,663.51,76.7,663.41,72.2Z"/><circle class="cls-2" cx="593.81" cy="75.9" r="3.6"/><circle class="cls-2" cx="631.61" cy="75.9" r="3.6"/><path class="cls-2" d="M597.11,28.2s-1.3,27.7,10,30.8c0,0,2.1-1.2,2.1-7.3,0,0,11.3,12.7,31.9,9.4,0,0,9,1.6,13.4.7,0,0,5.2.2,5.4,9.4s-6.4,12.8-6.4,12.8l-.6,9.5s1,5.2,7.5-6.6,15.2-61.2-19-77.2c-32.7-15.3-75.7-6-78.5,50.6,0,0,.6,30.2,12.6,34.8l-1.3-10.3s-7.7-4.9-7.5-13.6,5.2-9.4,5.2-9.4,2.3,7.7,4.6-.7c0,0,8.2,7.7,11.1-5.4S597.11,28.2,597.11,28.2Z"/><path class="cls-2" d="M593.71,28.2c-.4,8.1.3,17,3.3,24.5,1.6,3.9,4.7,8.8,9.2,9.6,5.5.9,6.3-6.9,6.4-10.6-2,.8-3.9,1.6-5.9,2.4,7.6,8.4,21,12.1,31.9,10.7a32.59,32.59,0,0,1,7.5.4,41.93,41.93,0,0,0,5,.3,17.75,17.75,0,0,1,3.2-.2c-.8-.1-.5-.3,0,0,2.6,1.8,2.4,6.6,1.8,9.3-.7,2.9-2.3,4.4-4.3,6.3-3.1,3.1-4.9,19.1,3.5,17,4.8-1.2,7.8-8.2,9.5-12.3a62.92,62.92,0,0,0,3.7-14c2.1-12.7,2-26.3-2.4-38.5-4.8-13.4-14.4-22.9-27.6-28.2-23.6-9.4-52-5.9-67.3,16-8.3,11.8-12.6,28.3-11.7,42.6.7,11,2.3,29.7,14.1,34.8,2.1.9,5.6-.1,5.2-3-.5-4.2,0-10.5-3.3-13.5-2.7-2.5-5.1-5.1-5.5-9-.2-1.9.1-7,2.6-7.5l-4.2-2.4c.7,2.2,1.9,4.8,4.2,5.5,4.2,1.3,6-3.1,7-6.2-1.9.5-3.8,1-5.8,1.5,4.8,4.3,11.6,4.4,14.9-1.6,3.3-5.8,3.9-13.5,6.2-19.8,1.5-4.1,3.1-8.2,4.9-12.2s-4.1-7.5-6-3.5a154.74,154.74,0,0,0-7.9,20.9c-1,3.3-2.1,15.9-7.2,11.3a3.53,3.53,0,0,0-5.8,1.5c-1.4,2.2-.6,2.9,2.6,2-.1-.2-.2-.3-.3-.5a2.61,2.61,0,0,0-.3-.8,3.49,3.49,0,0,0-4.2-2.4c-6,1.1-8,9-7.7,14.1.3,6.1,4.1,11.9,9.2,15.2-.6-1-1.1-2-1.7-3,.4,3.4.9,6.9,1.3,10.3,1.7-1,3.5-2,5.2-3-7.1-3.1-8.7-13.7-9.8-20.5a67.16,67.16,0,0,1-.4-19c2.4-18.7,11.6-37.3,30.5-43.6,15.2-5.1,34-2.2,47.4,6.6,15.7,10.3,19.2,30.6,17.7,48-.6,6.9-1.8,14.4-4.8,20.7-1,2.2-3.5,4.4-4.2,6.6-.3,1-1.5-.1,2.5,1.4.1,0,.4.9.2,1,.6-.9.3-4,.3-5.1.1-1.4.2-2.9.3-4.3-.6,1-1.1,2-1.7,3,6.3-3.6,8.8-11.4,7.8-18.3s-4.7-10.3-11.4-10c-3.5.1-6.8-.7-10.2-.9-5.7-.3-10.8.8-16.6-.8-4.8-1.4-9.9-3.9-13.4-7.6-2.1-2.3-5.8-.4-5.9,2.4,0,.6-.8,3.7-.6,4.3.1.3-.9.8.3,0l2.7-.3c-5.4-1.8-6.5-10.9-7.1-15.6a77.68,77.68,0,0,1-.5-11.8C600.71,23.7,593.81,23.8,593.71,28.2Z"/><path class="cls-3" d="M634.81,135.3l-19.6,8.5,12.7,15.8,24.8-19.9C652.61,139.6,636.11,132.4,634.81,135.3Z"/><path class="cls-2" d="M633.11,132.3c-6.5,2.8-13.1,5.7-19.6,8.5-2.2,1-1.9,3.9-.7,5.4,4.2,5.3,8.4,10.5,12.7,15.8,1.3,1.6,3.6,1.1,4.9,0,8.3-6.6,16.5-13.3,24.8-19.9,1.6-1.3,1.2-4.6-.7-5.4-5.3-2.3-18-9.3-22.6-3.2-2.6,3.6,3.4,7,6,3.5-2.3,3.1-1.8.3-.6,1.1a10.27,10.27,0,0,0,2.4.5,41.61,41.61,0,0,1,5,1.6,66.23,66.23,0,0,1,6.2,2.4c-.2-1.8-.5-3.6-.7-5.4-8.3,6.6-16.5,13.3-24.8,19.9h4.9c-4.2-5.3-8.4-10.5-12.7-15.8-.2,1.8-.5,3.6-.7,5.4,6.5-2.8,13.1-5.7,19.6-8.5C640.61,136.5,637.11,130.5,633.11,132.3Z"/><path class="cls-3" d="M595.51,133.4c1.2.5,19.6,10.3,19.6,10.3L603,158.4l-19.9-17.3C583.11,141.2,592.91,132.4,595.51,133.4Z"/><path class="cls-2" d="M593.81,136.4c6.7,3,13.2,6.9,19.6,10.3-.2-1.8-.5-3.6-.7-5.4-4,4.9-8.1,9.8-12.1,14.7h4.9c-6.6-5.8-13.3-11.5-19.9-17.3v4.9c1.2-1,2.4-2.1,3.6-3,1-.8,5-3.9,5.4-3.8,4.3.8,6.2-5.8,1.8-6.7-5.7-1.1-11.8,5.2-15.8,8.6a3.57,3.57,0,0,0,0,4.9c6.6,5.8,13.3,11.5,19.9,17.3,1.3,1.1,3.6,1.5,4.9,0,4-4.9,8.1-9.8,12.1-14.7,1.3-1.6,1.4-4.3-.7-5.4-6.5-3.5-12.9-7.4-19.6-10.3C593.21,128.7,589.71,134.6,593.81,136.4Z"/><path class="cls-2" d="M595.51,105.8a28.26,28.26,0,0,0,39.3,0c3.2-3.1-1.6-7.9-4.9-4.9a21.13,21.13,0,0,1-29.5,0c-3.2-3-8.1,1.9-4.9,4.9Z"/></g></g></svg>