<svg xmlns="http://www.w3.org/2000/svg" viewBox="0 0 484.19 358.1"><defs><style>.cls-1{fill:#fff;}.cls-2{fill:#ff4867;}.cls-3{fill:#ff7694;}.cls-4{fill:none;}</style></defs><title>step-scout</title><g id="レイヤー_2" data-name="レイヤー 2"><g id="レイヤー_2-2" data-name="レイヤー 2"><path class="cls-1" d="M49.23,317.17c2.1-86.6-13.6-174.3-46.8-258.9q43.8-19.65,88.9-40,50.4,17.7,97.6,36.4c-2.9,89.1-19.5,178.9-49.2,265.8-17.4,8.7-34.5,17.3-51.5,25.8Q69.48,331.57,49.23,317.17Z"/><polygon class="cls-1" points="86.93 17.57 1.43 57.67 3.23 63.87 98.33 97.27 186.93 56.27 86.93 17.57"/><path class="cls-1" d="M4.23,64.57l95,33.4s11.8,56.3,5,134.2-16.1,114.1-16.1,114.1l-39-29.1s6.5-55.7-13.6-147.3C15.63,78.27,4.23,64.57,4.23,64.57Z"/><path class="cls-2" d="M51.23,316.57a651.64,651.64,0,0,0-3.9-88.2,671.62,671.62,0,0,0-31.2-139.2c-3.6-10.6-7.4-21.1-11.5-31.6-.3,1-.7,2-1,3,24.9-11.1,50.1-22.5,75.7-34,2.7-1.2,5.4-2.4,8.1-3.7,1.2-.5,3.6-1,4.4-2s-1.7-1-.5-.2c1.5,1,3.9,1.4,5.5,1.9,17.2,6.1,34,12.2,50.6,18.5,13.7,5.2,27.2,10.4,40.5,15.8-.5-.9-.9-1.9-1.4-2.8a905,905,0,0,1-13.1,127.6,909.55,909.55,0,0,1-20.5,89.8c-3,10.5-6.1,21-9.4,31.4-1.1,3.5-2.2,6.9-3.4,10.4-.5,1.6-1.8,4.1-1.9,5.7-.2,2-1.1-1.1.9-.6-.6-.1-2.5,1.3-3.1,1.6-6,3-11.9,6-17.9,9-10.2,5.1-20.4,10.2-30.5,15.2.7,0,1.3.1,2,.1-12.5-9.8-25.6-19.5-39.1-29.1-2.1-1.5-4.7,2.6-2.6,4.1,9.1,6.5,17.9,13,26.5,19.5,3.9,3,7.7,6.6,11.8,9.1,2.2,1.4,4.6-.6,7.3-1.9q20.25-10.05,41-20.4c2.1-1.1,5.6-2,7.1-4.5.9-1.6,1.3-3.9,1.9-5.6,8.8-26.2,16.5-52.6,22.9-79.2a903.85,903.85,0,0,0,20-113.4c2.5-22.1,5-44.4,4.9-66.6v-1c0-1-.3-2.4-1.4-2.8q-42.75-17-88.1-33c-3-1.1-7.5-3.6-10.7-3.7-3-.1-6.5,2.6-8.9,3.7-15.3,6.9-30.4,13.8-45.5,20.6C24.83,45.47,13,50.77,1.23,56c-1.2.5-1.5,1.6-1,3a693.72,693.72,0,0,1,27.7,86.8A648.7,648.7,0,0,1,47,285.47c.3,10.7.3,21.5,0,32.2C47.13,320.77,51.13,319.67,51.23,316.57Z"/><path class="cls-1" d="M415.83,268l9-3.4s11.6,7.7,7.7,17.6l-6.4,2.6Z"/><path class="cls-2" d="M416.43,270.07c1.7-.7,3.5-1.3,5.2-2a11.72,11.72,0,0,0,3.1-1.2c.2-.1.3-.1.5-.2q.9-.3-1.5-.3l.4.3c.1.4,1.5,1.3,1.9,1.6a19.28,19.28,0,0,1,2.7,3,10.78,10.78,0,0,1,1.7,10.1l1.6-1.6c-2.1.9-4.3,1.7-6.4,2.6.8.3,1.7.7,2.5,1-3.4-5.6-6.9-11.1-10.3-16.7-1.5-2.5-5.4-.2-3.9,2.3,3.4,5.6,6.9,11.1,10.3,16.7a2.15,2.15,0,0,0,2.5,1c2.9-1.2,7.4-1.8,8.3-5.2,1.4-5-.4-10-3.6-14-1.5-1.8-4.3-5.5-6.9-5.4-2.9.1-6.6,2.4-9.3,3.5S413.73,271.17,416.43,270.07Z"/><path class="cls-1" d="M430.83,258.77s-8.6,2.4-9.8,4.5,2.1,3.4,2.1,3.4,7.7,1.1,9.4,15.4l-4.5,1.8-1.9.8s6,9.8,5.1,13.3,4.1,7.1,7.7,5.2,9.6-5,1.5-23.4l-.4-7.3S440,261.07,430.83,258.77Z"/><path class="cls-2" d="M430.23,256.57c-3.8,1.1-16.8,5.2-9.9,11,1.2,1,2.7,1.2,4.1,2,4.3,2.6,5.4,8.6,6,13.1.5-.9,1-1.8,1.6-2.8-2.1.9-4.3,1.7-6.4,2.6a2.21,2.21,0,0,0-1.3,3.3c1.9,3.1,4.4,6.9,4.8,10.6.5,4,.4,7.1,4.8,8.9,5.6,2.3,11.6-2.7,12.7-8.1.9-4.3-.5-9.1-1.9-13.1-.8-2.3-1.9-4.1-2-6.5l-.3-5.1c-.5-7.2-3.6-13.6-10.9-15.9-2.8-.9-4,3.5-1.2,4.3,5.5,1.7,7.3,6.9,7.6,12.2.1,2.3-.1,5,.5,7.2,1.1,4.6,3.7,8.5,4,13.4.1,2.2-.2,4.3-1.9,5.9-2.6,2.5-6.3,2.2-6.8-2-.7-5.2-2.8-9.6-5.5-14.1-.4,1.1-.9,2.2-1.3,3.3,2.1-.9,4.3-1.7,6.4-2.6a2.4,2.4,0,0,0,1.6-2.8c-.9-6.1-3-13.3-8.9-16.2l-2.8-.9c-.3-.9,7.4-3.1,8.5-3.5C434.23,260.17,433,255.77,430.23,256.57Z"/><path class="cls-1" d="M429.33,262s6.2,1.1,7.3,9.4.4,11.6,2.4,13.3,3.9,10.3,1.3,13.3"/><path class="cls-2" d="M428.73,264.07c7,1.4,5.9,11.6,6.5,16.8s6.7,10.4,3,15.8c-1.6,2.4,2.3,4.7,3.9,2.3,2.2-3.3,1.8-8,.6-11.6-.5-1.7-1.5-2.8-2.3-4.4s-.9-3.4-1.1-5.3c-.5-6.7-1.4-16.3-9.6-17.9-2.6-.6-3.8,3.8-1,4.3Z"/><path class="cls-1" d="M435.43,279.47l9-3.4s11.6,7.7,7.7,17.6l-6.4,2.6Z"/><path class="cls-2" d="M436,281.67c1.7-.7,3.5-1.3,5.2-2a11.72,11.72,0,0,0,3.1-1.2c.2-.1.3-.1.5-.2q.9-.3-1.5-.3l.4.3c.1.4,1.5,1.3,1.9,1.6a19.28,19.28,0,0,1,2.7,3A10.78,10.78,0,0,1,450,293l1.6-1.6c-2.1.9-4.3,1.7-6.4,2.6.8.3,1.7.7,2.5,1-3.4-5.6-6.9-11.1-10.3-16.7-1.5-2.5-5.4-.2-3.9,2.3,3.4,5.6,6.9,11.1,10.3,16.7a2.15,2.15,0,0,0,2.5,1c2.9-1.2,7.4-1.8,8.3-5.2,1.4-5-.4-10-3.6-14-1.5-1.8-4.3-5.5-6.9-5.4-2.9.1-6.6,2.4-9.3,3.5S433.33,282.67,436,281.67Z"/><path class="cls-1" d="M450.43,270.27s-8.6,2.4-9.8,4.5,2.1,3.4,2.1,3.4,7.7,1.1,9.4,15.4l-4.5,1.8-1.9.8s6,9.8,5.1,13.3,4.1,7.1,7.7,5.2,9.6-5,1.5-23.4l-.4-7.3S459.63,272.67,450.43,270.27Z"/><path class="cls-2" d="M449.83,268.07c-3.8,1.1-16.8,5.2-9.9,11,1.2,1,2.7,1.2,4.1,2,4.3,2.6,5.4,8.6,6,13.1.5-.9,1-1.8,1.6-2.8-2.1.9-4.3,1.7-6.4,2.6a2.21,2.21,0,0,0-1.3,3.3c1.9,3.1,4.4,6.9,4.8,10.6.5,4,.4,7.1,4.8,8.9,5.6,2.3,11.6-2.7,12.7-8.1.9-4.3-.5-9.1-1.9-13.1-.8-2.3-1.9-4.1-2-6.5L462,284c-.5-7.2-3.6-13.6-10.9-15.9-2.8-.9-4,3.5-1.2,4.3,5.5,1.7,7.3,6.9,7.6,12.2.1,2.3-.1,5,.5,7.2,1.1,4.6,3.7,8.5,4,13.4.1,2.2-.2,4.3-1.9,5.9-2.6,2.5-6.3,2.2-6.8-2-.7-5.2-2.8-9.6-5.5-14.1-.4,1.1-.9,2.2-1.3,3.3,2.1-.9,4.3-1.7,6.4-2.6a2.4,2.4,0,0,0,1.6-2.8c-.9-6.1-3-13.3-8.9-16.2l-2.8-.9c-.3-.9,7.4-3.1,8.5-3.5C453.73,271.67,452.63,267.27,449.83,268.07Z"/><path class="cls-1" d="M448.93,273.47s6.2,1.1,7.3,9.4.4,11.6,2.4,13.3,3.9,10.3,1.3,13.3"/><path class="cls-2" d="M448.33,275.67c7,1.4,5.9,11.6,6.5,16.8s6.7,10.4,3,15.8c-1.6,2.4,2.3,4.7,3.9,2.3,2.2-3.3,1.8-8,.6-11.6-.5-1.7-1.5-2.8-2.3-4.4s-.9-3.4-1.1-5.3c-.5-6.7-1.4-16.3-9.6-17.9-2.7-.6-3.9,3.7-1,4.3Z"/><path class="cls-1" d="M353.13,238.17s-1.7,52.7,19.7,66.4c0,0,4.5,4.7,10.4,3.4,0,0,11.5,17.2,39.7,3.4,9.6-4.7,24.1-12.6,24.1-12.6s5.4-23.8-13.8-21.3l-5.2,2.7s-2.5-13.7-11.3-14.6l-13.1,4.3s2.2-21.4-9.2-28.3Z"/><path class="cls-2" d="M350.83,238.17a148.57,148.57,0,0,0,3.6,37.6c1.9,8.4,4.8,17,10,23.9,4.5,6,11.5,11.6,19.3,10.4-.8-.3-1.7-.7-2.5-1,10.1,14.8,31.3,9.9,44.6,3.3,5.9-2.9,11.8-6,17.6-9.2,2-1.1,4.9-1.9,5.8-4.1,1.9-4.6,1-12.4-1-16.7a12.43,12.43,0,0,0-9.5-7.2c-4.9-.8-7.7.8-11.8,2.9,1.1.4,2.2.9,3.3,1.3-1.1-5.8-4.2-12.8-10-15.3-5.3-2.3-12.2,1.8-17.2,3.5.9.7,1.9,1.4,2.8,2.2,1-10.4-1-29.7-14.2-30.7-12.9-1.1-25.7-2.1-38.6-3.2-2.9-.2-2.9,4.3,0,4.5,11.7,1,23.4,1.9,35.1,2.9,1.6.1,4.3-.2,5.8.5,2.6,1.1,4.7,5.7,5.6,8.4a43.6,43.6,0,0,1,1.8,17.6,2.32,2.32,0,0,0,2.8,2.2c2-.7,4.1-1.3,6.1-2,1.8-.6,5.2-2.3,6.9-2.2,5.1.4,7.9,8.6,8.7,12.9a2.21,2.21,0,0,0,3.3,1.3c3.9-2,7.2-3.9,11.6-1.5,3.4,1.9,4.4,5.9,4.7,9.6a24.62,24.62,0,0,1-.1,4.7c0,.4-.6,2.5-.4,2.9.6,1.1-3.3-.2.9-.8-.3,0-.7.4-1,.5-2.1.6-4.3,2.3-6.3,3.4-11.8,6.3-24.9,15.1-38.8,13.6-5.3-.6-11.9-3.6-14.6-7.5a2.28,2.28,0,0,0-2.5-1c-7.4,1-14.5-7.8-17.6-13.5-3.9-7.1-5.9-15.1-7.3-23a147.67,147.67,0,0,1-2.3-31.1C355.43,235.27,350.93,235.27,350.83,238.17Z"/><path class="cls-1" d="M383.23,308s-14.1-20.8-15.3-30.5"/><path class="cls-2" d="M385.13,306.87c-5.9-8.7-13.5-19.3-15-30-.4-2.9-4.8-1.6-4.3,1.2,1.6,11,9.3,22,15.5,31,1.5,2.4,5.4.2,3.8-2.2Z"/><polyline class="cls-1" points="403.63 269.87 403.63 287.17 411.13 285.67 428.03 280.17"/><path class="cls-2" d="M401.43,269.87v17.3a2.28,2.28,0,0,0,2.8,2.2c8.4-1.7,16.3-4.4,24.4-7.1,2.7-.9,1.6-5.2-1.2-4.3-8.1,2.7-16,5.4-24.4,7.1.9.7,1.9,1.4,2.8,2.2V270c.1-3-4.4-3-4.4-.1Z"/><path class="cls-1" d="M354.63,105.47v-5.2s7-9.4,1-15.4c0,0-1.4-1.5-2.1-.4s.6,2.7.5,4c0,0-11.1-10.8-14.8-10.5a3.63,3.63,0,0,0-2.1.7c-.8.7-7.2,5.7,1.9,15.6.8.9,6.9,6.4,6.9,6.4l.9,6.6Z"/><path class="cls-2" d="M356.93,105.47a32.29,32.29,0,0,1,0-4.4c.2-1.8-.5,1-.1,0a14,14,0,0,1,1-1.6c1.8-3.1,3-6.9,2.4-10.5-.5-2.6-2.4-6.7-5.4-7.1-4.4-.6-3.3,4.1-3,6.6,1.3-.5,2.6-1.1,3.8-1.6-5.1-4.9-16.7-17.3-22.5-7-3.3,5.9.8,12.4,5,16.5,1.8,1.8,4.7,3.5,6.1,5.7-1.1-1.6-.1,1.6,0,2.4.1,1.1.3,2.2.4,3.3s1.7,1.8,2.8,1.6l7.9-1.8c2.8-.6,1.6-5-1.2-4.3l-7.9,1.8c.9.5,1.8,1,2.8,1.6-.4-3.1-.2-6.1-2.3-8.4-3.5-3.8-10-7.4-10.2-13.3-.4-11.2,13.3,2.4,16,5.1,1.3,1.2,4.1.5,3.8-1.6,0-.3-1.6-5.4-2.2-2,.5.7,1,1.5,1.4,2.2a6.72,6.72,0,0,1,.3,2.8c-.2,2.5-1.4,4.5-2.5,6.6-1.2,2.4-.9,4.5-.9,7.3S356.93,108.37,356.93,105.47Z"/><path class="cls-1" d="M450.63,138.77l3.7-3.7s1.5-11.6,10-11.7c0,0,2.1-.1,1.8,1.2s-2.4,1.5-3.1,2.5c0,0,15.5,0,18,2.8a3.09,3.09,0,0,1,1,1.9c.1,1,1.2,9.1-12.2,9.9-1.2.1-9.5-.2-9.5-.2l-5.3,4.1Z"/><path class="cls-2" d="M452.23,140.37c2.2-2.3,3.8-3.5,4.6-6.5a14.35,14.35,0,0,1,2.9-6.1c.8-.9,4.4-1.9,4.6-2.2,1.8-3.2-2.7-.3-2.9-.2-1.6,1.3-.2,3.8,1.6,3.8a64.28,64.28,0,0,1,13.1,1c3.8.8,5.3,3.6,1.9,6.6-4.2,3.8-11.3,2.2-16.5,2.3-3.2.1-5.5,2.8-8,4.7,1.2.2,2.4.3,3.5.5-1.5-2.3-3-4.5-4.4-6.8-1.6-2.4-5.5-.2-3.9,2.3,1.5,2.3,3,4.5,4.4,6.8a2.3,2.3,0,0,0,3.5.5c.9-.7,1.8-1.4,2.6-2.1a19.22,19.22,0,0,0,1.7-1.3c1.1-1.1,1.1-.1-.5-.1,2.9-.1,5.8.3,8.6.2,5.7-.1,12.9-1.9,14.7-8.1,3.5-11.6-13.8-10.9-20.9-10.9.5,1.3,1.1,2.6,1.6,3.8,2.1-1.7,6.3-4.8,1.9-7.1-2.8-1.4-6.8.3-8.9,2.1-2.6,2.2-4.1,5.5-5,8.7-.2.7-1,2.8,0,1.3a19.33,19.33,0,0,1-3.5,3.5C447,139.27,450.23,142.37,452.23,140.37Z"/><path class="cls-3" d="M377.53,166.47s-14.4-65.1-16.7-68.6c0,0-10.8-2.7-18.9,5.1,0,0,2.7,25,6.2,38.8s5.7,35.7,5.7,35.7"/><path class="cls-2" d="M379.73,165.87c-4.4-19.9-8.8-39.7-13.9-59.4-.7-2.8-1.2-7-2.9-9.5-2.3-3.2-9.5-1.9-12.7-1.1s-8,2.6-9.9,5.5c-.9,1.4-.5,2.6-.4,4.2.8,7.2,1.8,14.3,3,21.5,2.8,16.9,7,33.3,8.7,50.3.3,2.9,4.8,2.9,4.5,0A277.62,277.62,0,0,0,350,140a234.17,234.17,0,0,1-4.2-23.4c-.5-3.3-.9-6.6-1.3-9.9a11.34,11.34,0,0,1-.3-2.5c.3-1.7-.3-.2,1.2-1.3a19.13,19.13,0,0,1,11.9-3.2c.6,0,2,.5,2.5.3-.2.1-.6-1.1-.8-.5s1,3.2,1.2,3.8c.6,2,1.1,3.9,1.6,5.9,2.9,11.2,5.5,22.6,8.1,33.9,1.8,8,3.7,16.1,5.4,24.1.7,2.7,5,1.5,4.4-1.3Z"/><polygon class="cls-1" points="377.23 165.07 376.93 174.57 380.93 175.97 389.13 173.57 389.53 161.37 377.23 165.07"/><path class="cls-2" d="M374.93,165.07c-.1,3.2-.2,6.3-.3,9.5a2.34,2.34,0,0,0,1.7,2.2c2.1.8,3.9,1.8,6.1,1.2,2.4-.7,4.9-1.4,7.3-2.2a2.47,2.47,0,0,0,1.7-2.2c.1-4.1.3-8.1.4-12.2a2.32,2.32,0,0,0-2.8-2.2l-12.3,3.6c-2.8.8-1.6,5.2,1.2,4.3l12.3-3.6c-.9-.7-1.9-1.4-2.8-2.2-.1,4.1-.3,8.1-.4,12.2.6-.7,1.1-1.4,1.7-2.2-2.2.7-4.5,1.3-6.7,2-.1,0-1.3.2-1.3.4.2-.5,1.4.6.3-.2a18.55,18.55,0,0,0-3.3-1.2c.6.7,1.1,1.4,1.7,2.2.1-3.2.2-6.3.3-9.5C379.53,162.17,375,162.17,374.93,165.07Z"/><path class="cls-1" d="M408.13,148.47s7-19.1-10.8-25.7c0,0-18.7-8.3-26.9,14.7s5.7,28.5,5.7,28.5,9.6,5.7,23.8-4.3c0,0,5.2,1.5,8.4-4.6S408.13,148.47,408.13,148.47Z"/><path class="cls-2" d="M410.33,149.07c3.1-8.7,1.5-19.5-6.2-25.3-7.1-5.3-17.7-6.6-25.3-1.7-11.1,7.2-17.3,27.5-10.4,39.2,3.9,6.6,10.1,9,17.6,8.2,5.2-.5,8.9-3,13.6-5,1.7-.7-.6-.6.2-.8a11,11,0,0,1,1.8.2,8.49,8.49,0,0,0,3.8-.9c5-2.3,9.8-12,4.3-16.3-2.3-1.8-5.5,1.4-3.2,3.2s.2,6.1-1.3,7.7c-1.7,1.8-3,1.4-4.9,1.7-3.1.5-6.2,3.3-9.2,4.4a20.61,20.61,0,0,1-9.2,1.3c-4.3-.4-7.2-1.9-9.6-6-5.7-9.8,0-28,9.6-33.6a16.73,16.73,0,0,1,11-1.8,17,17,0,0,1,5.9,2c8.3,4.2,10.2,13.9,7.2,22.1C405,150.57,409.33,151.77,410.33,149.07Z"/><circle class="cls-2" cx="393.03" cy="147.37" r="1.5"/><circle class="cls-2" cx="377.63" cy="142.47" r="1.5"/><path class="cls-1" d="M387.33,125.57s-3.7,7-1.6,10.9,3,.9,3,.9,5.1,4.7,7,3.7c0,0,7.2,8.6,13,5.4,0,0-1.3,4.5,2.1,3.9,0,0-1.3,4.5,1.1,1.9s10.8-14.6,1.5-27.1c0,0-10.3-12.7-24.1-10.8-4.9.7-10.3,3.2-15.8,8.8,0,0-7.5,9.1-2.5,13.8,0,0,1.5.4,3.9-2.1,0,0,1.1,1.9,3.4-.6A115.93,115.93,0,0,1,387.33,125.57Z"/><path class="cls-2" d="M385.43,124.47c-2,3.8-3.7,9-1.6,13.1,1.7,3.3,5.7,4.3,7.1.3-1.3.3-2.5.7-3.8,1,2.4,2.2,5.7,5.1,9.2,4.3l-2.2-.6c3.9,4.6,9.7,8.3,15.7,5.8-1.1-.8-2.2-1.7-3.3-2.5-.9,3.4.3,6.8,4.3,6.7-.7-.9-1.4-1.9-2.2-2.8-.5,1.8-.7,3.4.5,4.9a2.26,2.26,0,0,0,2.2.6c3.3-.9,5.5-5.9,6.7-8.7a22.3,22.3,0,0,0,.2-17.2c-3.3-8-11.6-14.2-19.7-16.4-10.5-2.9-22.7,2.1-28.5,11.4-2.2,3.5-4.1,8.2-2.2,12.2,2.1,4.4,5.7,2.8,8.6.1-1.2-.2-2.4-.3-3.5-.5,1.4,2.1,3.9,2.2,5.9.8,3.7-2.6,6.7-6.7,10.1-9.6,2.2-1.9-1-5.1-3.2-3.2-1.2,1-10.2,7.9-8.9,9.7a2.29,2.29,0,0,0-3.5-.5c-2.4,2.2-2-.3-1.5-2.4a13.76,13.76,0,0,1,2.1-4.4,21.86,21.86,0,0,1,6.8-6.4c7.6-5,16.2-4.4,23.7.4,4.4,2.8,8.4,6.5,10,11.5a18.25,18.25,0,0,1-.4,12.2c-.5,1.2-2.4,6.2-4,6.7l2.2.6c.9,1.1.4.5.7-.5a2.2,2.2,0,0,0-2.2-2.8c-.2,0-.1-.5.1-1,.6-2.1-1.6-3.3-3.3-2.5-3.8,1.6-8-2.4-10.2-5.1a2.26,2.26,0,0,0-2.2-.6c-1.3.3-3.9-2.2-4.8-3.1a2.32,2.32,0,0,0-3.8,1c1.2-3.2,1.1-6.8,2.7-10C390.63,124.17,386.73,121.87,385.43,124.47Z"/><path class="cls-1" d="M376.93,154.47s3.3,3.3,10.1,3.6c0,0-4.5,4.5-7.7,3.2,0,0-2.3-.4-2.3-4.9"/><path class="cls-2" d="M375.83,155.47c2.8,2.8,7.3,3.8,11.1,4.1-.4-.9-.7-1.7-1.1-2.6-1.3,1.3-3.1,2.8-4.9,3-2.1.3-2.5-1.5-2.6-3.6-.1-1.9-3.1-1.9-3,0,.1,2.9,1.1,6,4.3,6.5s6.3-1.8,8.4-3.8a1.54,1.54,0,0,0-1.1-2.6c-3-.2-6.8-.9-9-3.2-1.3-1.3-3.5.9-2.1,2.2Z"/><path class="cls-1" d="M392.33,168.67"/><path class="cls-2" d="M392.33,171c2.9,0,2.9-4.5,0-4.5s-2.9,4.5,0,4.5Z"/><path class="cls-3" d="M374.63,165.87l4.6,8.8,11.7-7.2,1.4,1.2c1.8.4,14.2-6.1,33.2-19.3s27.8-20.5,27.8-20.5,2.7,11.8,12.9,13.4c0,0-48.2,40.6-55.2,44.4,0,0-4.4,6.7-4.6,11.1s-6.4,43-6.4,43l-.7,4.4s-32.5,16.3-49.8-3.6c0,0,4.7-39.3,4.8-48.6s-.7-18.2-.7-18.2"/><path class="cls-2" d="M372.73,167c1.5,2.9,3,5.9,4.6,8.8a2.26,2.26,0,0,0,3.1.8l11.7-7.2a25.13,25.13,0,0,1-2.7-.4c3.4,2.9,5.9,1.4,9.6-.4a195.23,195.23,0,0,0,22.3-13.6c11.5-7.7,23-15.8,33.8-24.6-1.3-.3-2.5-.7-3.8-1,1.7,7.2,7.1,13.5,14.5,14.9-.3-1.3-.7-2.5-1-3.8-11.4,9.6-22.8,19.1-34.4,28.5-6.1,4.9-12.1,10.1-18.6,14.5-5.5,3.7-7,10.5-7.7,16.8-1.1,9.2-2.7,18.3-4.1,27.5-.6,3.5-1.1,7.1-1.7,10.6-.1.6-.2,1.1-.3,1.7s-.2,1.2-.3,1.7a6.15,6.15,0,0,0-.3,1.8c.4,1.1-.2,0,.9-.5-6.9,2.7-13.6,5.2-21.1,5.8-5.9.5-12.1,0-17.5-2.5-2.4-1.1-6.3-3.1-7.6-5.5-.3-.5,0,1.1-.2.2-.1-.4.2-1.1.2-1.5,1.7-21.7,5.9-42.9,3.9-64.8-.3-2.9-4.8-2.9-4.5,0,1.9,20.9-1.2,41.8-3.6,62.6-.2,2-.9,4,.2,5.8,2.9,4.7,9.9,7.9,15,9.2,10.2,2.7,21.3.9,31-2.6,1.9-.7,5-1.4,6.6-2.7s1.5-4.2,1.9-6.3c1.3-8.3,2.7-16.7,3.9-25.1,1.2-8.2,1.2-18.2,5.2-25.5A25.3,25.3,0,0,1,413,188c.2-.2-.8.8.2.1a36.17,36.17,0,0,1,3.2-2.2c3.2-2.3,6.2-4.8,9.3-7.2,14.3-11.4,28.4-23.1,42.4-34.9a2.28,2.28,0,0,0-1-3.8c-5.9-1.2-10-6-11.4-11.8-.4-1.8-2.5-2-3.8-1-9,7.4-18.6,14.1-28.2,20.7-7.2,5-14.6,9.9-22.2,14.2-2.2,1.2-4.4,2.5-6.7,3.5a10.66,10.66,0,0,1-1.9.7c-.3.1-.6.1.3.2,1.1.2-.1-.4-.5-.7a2.46,2.46,0,0,0-2.7-.4l-11.7,7.2c1,.3,2.1.5,3.1.8-1.5-2.9-3-5.9-4.6-8.8-1.6-2.5-5.4-.2-4.1,2.4Z"/><path class="cls-2" d="M390.73,170.27l2.1,2.4a25.11,25.11,0,0,0-.4-2.7c-2.1,3.1-5.3,7.9-9,9,.8.3,1.7.7,2.5,1-1.6-2.2-3.3-4.4-4.9-6.5a2.38,2.38,0,0,0-3.1-.8c-2,1.3-5,3.6-7.5,3.7l2.2,2.2c-.4-3.4-.9-7.2-.1-10.6.7-2.8-3.7-4-4.3-1.2a32.86,32.86,0,0,0-.1,11.7,2.16,2.16,0,0,0,2.2,2.2c3.4-.1,6.9-2.5,9.7-4.3-1-.3-2.1-.5-3.1-.8,1.6,2.2,3.3,4.4,4.9,6.5a2.15,2.15,0,0,0,2.5,1c5.1-1.6,8.8-6.9,11.7-11.1a2.13,2.13,0,0,0-.4-2.7l-2.1-2.4c-1.5-1.9-4.7,1.3-2.8,3.4Z"/><path class="cls-2" d="M9,67.37q41.25,13.8,80.2,28.4c3.6,1.4,7.9,3.8,11.6,4.4,2.2.4,4.4-1.3,6.3-2.2q19.5-9.6,39.3-19.5c11.3-5.6,22.6-11.3,34-17,2.7-1.3-.2-5.6-2.9-4.3q-34.95,17.55-69.1,34.5c-1.9,1-7,2.2-8.3,4.1.9-1.3,2.2.5,1.1-.5a9.63,9.63,0,0,0-1.8-.7c-2.1-.8-4.2-1.6-6.3-2.3Q70,83.72,46.23,75.37C34,71.07,21.63,66.87,9,62.67c-2.8-1-3,3.7,0,4.7Z"/><path class="cls-2" d="M99.33,98a739.32,739.32,0,0,1,4.9,81.4,754.3,754.3,0,0,1-10.5,129c-1.7,9.9-3.6,19.7-5.6,29.6-.7,3.1,3.2,3.3,3.9.2a743.49,743.49,0,0,0,12.8-80.9,746.86,746.86,0,0,0,2-129.5c-.7-10-1.6-19.9-2.7-29.9-.5-3.2-5.2-3.1-4.8.1Z"/><path class="cls-2" d="M108.83,292.47c12.1-5.2,24.3-10.5,36.7-15.8a2.62,2.62,0,0,0,1.7-1.7c2.1-7.6,4-15.2,5.9-22.8.4-1.7-.4-3.9-2.2-3.1-13.1,5.4-26,10.7-38.9,16a3.07,3.07,0,0,0-1.8,2.4c-1.1,7.5-2.3,15.1-3.6,22.6-.6,3.2,3.5,3.3,4.1.1,1.3-7.5,2.6-15.1,3.7-22.6l-1.8,2.4c12.8-5.3,25.8-10.6,38.8-15.9-.7-1-1.5-2.1-2.2-3.1-1.8,7.6-3.8,15.2-5.8,22.8l1.7-1.7c-12.3,5.3-24.5,10.6-36.7,15.8C105.93,288.77,106.23,293.57,108.83,292.47Z"/><path class="cls-4" d="M175,88q-28.05,14.25-55.6,28c.4,8.2.7,16.3.8,24.5,17.5-8.5,35.1-17,52.9-25.7C173.93,105.87,174.63,96.87,175,88Z"/><path class="cls-2" d="M173.73,87.07q-28.05,14.25-55.6,28a2.57,2.57,0,0,0-1,2.2c.4,8.2.7,16.3.9,24.5,0,1.5,1.6,3,3,2.4,14.5-7,29-14.1,43.7-21.2,3.5-1.7,10.1-3.1,10.9-7.6,1.4-8.2,1.3-17.1,1.8-25.5.2-3.2-4.5-4.4-4.6-1.2-.5,8.9-1,17.9-1.8,26.8l1.5-1.8q-26.7,13.05-52.9,25.7l3,2.4c-.1-8.2-.4-16.4-.8-24.5-.3.7-.7,1.4-1,2.2q27.6-13.8,55.6-28C179.13,90,176.33,85.67,173.73,87.07Z"/><path class="cls-4" d="M113.23,259.87c13.1-5.3,26.2-10.6,39.5-16,2-8.6,3.9-17.3,5.7-26-14.1,5.6-28.2,11.1-42.1,16.6C115.43,242.87,114.43,251.37,113.23,259.87Z"/><path class="cls-2" d="M113.53,263.47c13.1-5.3,26.2-10.6,39.5-16a2.62,2.62,0,0,0,1.7-1.7c2-8.7,4-17.3,5.8-26,.4-1.7-.6-3.8-2.4-3.1-14.1,5.6-28.2,11.1-42.1,16.6a2.79,2.79,0,0,0-1.7,2.4c-.9,8.5-1.9,16.9-3,25.4-.4,3.2,3.7,3.3,4.2.1,1.2-8.5,2.2-16.9,3.1-25.4l-1.8,2.4c13.9-5.5,28-11,42.1-16.5-.8-1-1.6-2.1-2.4-3.1-1.7,8.7-3.6,17.3-5.6,26,.6-.6,1.1-1.2,1.7-1.7-13.3,5.4-26.4,10.7-39.5,16C110.33,259.67,110.93,264.47,113.53,263.47Z"/><path class="cls-4" d="M102.43,321.57q16.8-8.1,33.9-16.2c2.5-8.2,4.9-16.3,7.2-24.5-12.1,5.3-24.1,10.6-36.1,15.8C105.93,305,104.33,313.27,102.43,321.57Z"/><path class="cls-2" d="M103,323.77c10.3-4.9,20.7-9.9,31.1-14.9,3.9-1.9,4.1-3.1,5.6-7.9,2-6.5,3.9-12.9,5.7-19.4.4-1.6-.2-3.9-2-3.1-12.1,5.3-24.1,10.6-36.1,15.9a3.22,3.22,0,0,0-1.9,2.3c-1.5,8.3-3.2,16.7-5,24.9-.7,3.2,3.3,3.3,4,.1,1.8-8.3,3.5-16.6,5.1-25-.6.8-1.3,1.6-1.9,2.3l36.1-15.8c-.7-1-1.3-2.1-2-3.1-1.7,6-3.4,12-5.2,18-.4,1.5-1,3-1.4,4.5a8.33,8.33,0,0,0-.4,1.5c.6,1.3-4.1-1.3,1-.9-.9-.1-2.9,1.4-3.9,1.9q-15.15,7.2-30,14.4C99.33,320.67,100.53,325,103,323.77Z"/><path class="cls-4" d="M164.53,185c-15.3,6.6-30.6,13.2-45.7,19.6-.5,8-1.2,15.9-1.9,23.8,14.1-5.5,28.4-11,42.7-16.6C161.43,202.87,163,194,164.53,185Z"/><path class="cls-2" d="M164,183.77l-45.7,19.7a2.79,2.79,0,0,0-1.7,2.4c-.5,7.9-1.1,15.9-1.9,23.8-.1,1.5,1.2,2.9,2.5,2.4,14.1-5.4,28.4-11,42.7-16.5a2.86,2.86,0,0,0,1.7-1.7c1.8-9,3.4-17.9,4.9-26.9.5-3.2-3.7-4.5-4.2-1.3-1.5,9-3.1,17.9-4.8,26.9.5-.6,1.1-1.2,1.6-1.7-14.3,5.6-28.6,11.1-42.7,16.6.8.8,1.7,1.6,2.5,2.4.8-7.9,1.4-15.9,2-23.9-.6.8-1.1,1.6-1.7,2.4q22.65-9.75,45.6-19.6C167.63,187.47,166.73,182.57,164,183.77Z"/><path class="cls-4" d="M169.23,152.37c-16.5,7.6-32.9,15-49.1,22.4-.2,7.6-.5,15.2-1,22.8,15.3-6.3,30.8-12.7,46.3-19.2C166.93,169.77,168.13,161.07,169.23,152.37Z"/><path class="cls-2" d="M168.63,151.17q-24.75,11.4-49.1,22.5a2.55,2.55,0,0,0-1.6,2.4q-.3,11.4-.9,22.8c-.1,1.5,1.3,3,2.7,2.4q22.95-9.45,46.3-19.2a2.44,2.44,0,0,0,1.6-1.8c1.4-8.7,2.6-17.4,3.8-26.1.4-3.2-3.9-4.5-4.3-1.3-1.1,8.7-2.3,17.4-3.7,26,.5-.6,1.1-1.2,1.6-1.8q-23.4,9.75-46.3,19.2l2.7,2.4c.4-7.6.8-15.2,1-22.9-.5.8-1.1,1.6-1.6,2.4,16.2-7.4,32.6-14.8,49.1-22.4C172.53,154.77,171.33,150,168.63,151.17Z"/><path class="cls-4" d="M172.63,123.17c-17.6,8.5-34.9,16.9-52.2,25.2.1,7.1,0,14.2-.1,21.4,16.4-7.6,33-15.2,49.8-23C171,138.87,171.83,131,172.63,123.17Z"/><path class="cls-2" d="M171.93,119.47q-26.25,12.75-52.2,25.2a2.65,2.65,0,0,0-1.6,2.4c.1,7.1.1,14.2-.1,21.4,0,1.5,1.5,3,2.8,2.4,16.4-7.6,33-15.2,49.8-23a2.44,2.44,0,0,0,1.6-1.8c1-7.9,1.8-15.7,2.5-23.6.3-3.2-4.2-4.5-4.5-1.3-.7,7.8-1.5,15.7-2.4,23.5.5-.6,1-1.2,1.6-1.8q-25.05,11.7-49.8,23c.9.8,1.9,1.6,2.8,2.4.1-7.1.2-14.3.1-21.4-.5.8-1.1,1.6-1.6,2.4l52.2-25.2C175.93,123.07,174.63,118.17,171.93,119.47Z"/><path class="cls-2" d="M91.33,287.27C80.73,281.47,70,275.67,59,270c.4.6.9,1.2,1.3,1.7-.2-7.4-.5-14.9-.9-22.4-.9,1-1.8,2-2.8,3,12,5.7,23.7,11.4,35.3,17.2-.4-.8-.8-1.6-1.3-2.4-.6,7.5-1.4,15-2.2,22.5-.4,3.1,3.7,3.3,4.1.1.9-7.5,1.7-15,2.3-22.5a2.2,2.2,0,0,0-1.3-2.4C81.93,259,70,253.27,58,247.67c-1.6-.8-2.8,1.3-2.7,3,.5,7.4.8,14.9,1,22.3a2,2,0,0,0,1.3,1.7c10.9,5.7,21.6,11.5,32.1,17.3C91.83,293.17,93.53,288.47,91.33,287.27Z"/><path class="cls-4" d="M28.83,93.07q31.2,12.15,61.1,24.7c1,8.1,1.8,16.2,2.6,24.3q-27.45-11.85-56.3-23.4C33.83,110.07,31.43,101.57,28.83,93.07Z"/><path class="cls-2" d="M27.93,95.17q31.2,12.15,61,24.8a23.92,23.92,0,0,1-1.3-2.1c1,8.1,1.9,16.2,2.6,24.3l2.7-2.4q-27.6-11.85-56.5-23.4c.6.6,1.2,1.1,1.8,1.7-2.3-8.6-4.7-17.1-7.3-25.6-.9-3.1-5.2-1.6-4.3,1.4,2.4,8,4.1,16.5,7,24.3,1.6,4.3,8.3,5.4,12.1,6.9,15.7,6.4,31.2,12.9,46.3,19.5,1.4.6,2.9-1,2.7-2.4-.7-8.1-1.5-16.2-2.5-24.3a2.77,2.77,0,0,0-1.3-2.1q-29.85-12.6-61.2-24.7A2.25,2.25,0,1,0,27.93,95.17Z"/><path class="cls-4" d="M93.23,260.67q-17.85-8.55-36.3-17.1c-.6-8.5-1.3-16.9-2.3-25.4,13.6,5.7,26.9,11.4,40,17.1C94.33,243.77,93.83,252.27,93.23,260.67Z"/><path class="cls-2" d="M93.93,258.27c-11.9-5.7-24.1-11.4-36.4-17,.5.6.9,1.2,1.4,1.7-.6-8.5-1.3-16.9-2.2-25.4l-2.7,3c13.5,5.7,26.9,11.4,39.9,17.2-.5-.8-.9-1.6-1.4-2.4-.3,8.4-.8,16.9-1.4,25.3-.2,3.2,3.9,3.3,4.2.1.7-8.4,1.2-16.9,1.5-25.3a2.39,2.39,0,0,0-1.4-2.4c-13.2-5.8-26.5-11.5-40.2-17.1-1.7-.7-2.9,1.3-2.7,3,.9,8.4,1.7,16.9,2.3,25.4a2.25,2.25,0,0,0,1.4,1.7c12.3,5.6,24.4,11.3,36.2,17.1C94.83,264.17,96.33,259.47,93.93,258.27Z"/><path class="cls-4" d="M86,321c-9-6.1-18.3-12.2-27.8-18.2.2-8,.2-16.1.1-24.2,10.6,5.8,21.1,11.6,31.3,17.5Q88.13,308.52,86,321Z"/><path class="cls-2" d="M87.43,318.87c-8-5.4-16.2-10.8-24.6-16.1-.7-.5-2.3-2.1-3.2-2,1.5-.1.3,2.6.7-.2a29.8,29.8,0,0,0,.1-4.2c.1-6.1.1-12.2,0-18.2-.9,1-1.9,2-2.8,2.9,10.6,5.8,21,11.6,31.2,17.5a25.56,25.56,0,0,1-1.1-2.4c-1,8.3-2.2,16.6-3.5,24.9-.5,3.1,3.4,3.3,4,.1,1.3-8.3,2.6-16.6,3.6-24.9a2.09,2.09,0,0,0-1.1-2.4c-10.2-5.9-20.7-11.7-31.4-17.4-1.6-.8-2.8,1.4-2.8,2.9.1,6.2.1,12.4,0,18.7-.1,4.8-.4,6.3,2.9,8.4,8.6,5.5,17.1,11.1,25.4,16.7C86.73,324.47,89.53,320.27,87.43,318.87Z"/><path class="cls-4" d="M50.33,186.27c15.3,6.4,30.2,12.9,44.9,19.4,0,7.9-.1,15.8-.4,23.7-13.4-5.7-27-11.4-40.9-17Q52.43,199.32,50.33,186.27Z"/><path class="cls-2" d="M49.83,188.57q22.8,9.6,44.8,19.5l-1.5-2.4q0,11.85-.3,23.7c.9-.8,1.9-1.6,2.8-2.3-13.4-5.7-27.1-11.4-41-17,.5.6,1,1.1,1.5,1.7q-1.5-13.05-3.6-26.1c-.5-3.1-4.7-1.8-4.2,1.3q2.1,13.05,3.6,26.1a2.19,2.19,0,0,0,1.5,1.7c13.8,5.6,27.4,11.3,40.8,17,1.3.5,2.8-.8,2.8-2.3.3-7.9.4-15.8.4-23.7a2.47,2.47,0,0,0-1.5-2.4q-22.05-9.75-45-19.4C48.13,182.77,47.23,187.47,49.83,188.57Z"/><path class="cls-4" d="M44.63,154.77q25.5,10.5,50,21.3c.3,7.6.5,15.1.6,22.7q-22.5-9.6-45.9-18.9C47.93,171.57,46.33,163.17,44.63,154.77Z"/><path class="cls-2" d="M44.23,157.17q25.5,10.5,49.9,21.4c-.6-.8-1.1-1.6-1.7-2.4.3,7.6.6,15.1.7,22.7.9-.8,1.9-1.6,2.8-2.4-15.1-6.4-30.4-12.6-46.1-18.8.5.6,1.1,1.1,1.6,1.7-1.4-8.4-3-16.8-4.7-25.2-.6-3.1-4.9-1.7-4.2,1.3,1.7,8.4,3.3,16.8,4.7,25.2a2.3,2.3,0,0,0,1.6,1.7c15.6,6.2,30.8,12.5,45.8,18.9,1.3.6,2.8-.9,2.8-2.4-.1-7.6-.3-15.1-.6-22.7a2.49,2.49,0,0,0-1.7-2.4q-24.6-10.8-50.2-21.3C42.23,151.27,41.43,156,44.23,157.17Z"/><path class="cls-4" d="M37.83,125.47q28.2,11.4,55.1,23.1c.6,7.1,1,14.1,1.4,21.2-16.7-7.3-33.7-14.6-51.2-21.7C41.53,140.57,39.73,133,37.83,125.47Z"/><path class="cls-2" d="M37.53,127.87c18.7,7.6,37.1,15.3,55,23.2l-1.8-2.4c.6,7.1,1,14.1,1.4,21.2.9-.8,1.8-1.6,2.8-2.4-16.7-7.3-33.8-14.6-51.3-21.7.6.6,1.2,1.1,1.7,1.7-1.6-7.6-3.4-15.1-5.3-22.6-.8-3.1-5.1-1.7-4.3,1.4,1.9,7.5,3.7,15.1,5.3,22.6a2.62,2.62,0,0,0,1.7,1.7c17.4,7.1,34.4,14.4,51,21.7,1.4.6,2.8-.9,2.8-2.4-.3-7.1-.8-14.2-1.3-21.2a2.85,2.85,0,0,0-1.8-2.4q-27-11.7-55.3-23.1C35.33,122,34.73,126.67,37.53,127.87Z"/><path class="cls-2" d="M415.13,338.87a50,50,0,0,0,22.2,19c2.6,1.2,4.9-2.7,2.3-3.9a45.72,45.72,0,0,1-20.5-17.4c-1.7-2.4-5.6-.1-4,2.3Z"/><path class="cls-2" d="M431.83,333.57a40,40,0,0,0,19.6,15c2.7,1,3.9-3.4,1.2-4.3a34.92,34.92,0,0,1-16.9-12.9c-1.7-2.4-5.6-.1-3.9,2.2Z"/><path class="cls-2" d="M284.93,50.17a34.9,34.9,0,0,1-.1-27.1c2.2-5,6.4-10,11.9-9.8,4.3.1,7.9,3.6,9.3,7.6s.8,8.5-.6,12.6a13.77,13.77,0,0,1,16.2-3.2,10.47,10.47,0,0,1,4.8,4.5c1.9,4,.3,8.9-2.4,12.4a22.6,22.6,0,0,1-17.9,8.6c-7.2-.1-13.9-3.7-20.8-5.5-.9-.2-2.3.6-1.5,1.1"/><path class="cls-2" d="M287.13,49.57c-3.5-8.8-4-19.5,1-27.9,2.8-4.7,8.4-8.8,13.4-4,4.2,4,3.4,10.2,1.9,15.2-.7,2.2,2.2,3.8,3.8,2.2,4.4-4.5,15.4-6.2,17.8,1.7,2,6.7-5.5,13.1-10.9,15.3-6.2,2.5-12.3,1.2-18.4-.8-3.6-1.2-9.4-4.7-13-2.3a2.28,2.28,0,0,0-1,2.5c.1.2.1.4.2.6.8,2.8,5.1,1.6,4.3-1.2-.1-.2-.1-.4-.2-.6-.3.8-.7,1.7-1,2.5,1.3-.9,5.8,1.5,7.1,1.9,2.1.7,4.2,1.5,6.3,2a28,28,0,0,0,12.2.9c7.5-1.2,14.8-6.1,17.8-13.2,2.7-6.3.7-13-5.5-16.1a16.34,16.34,0,0,0-18.9,3.6c1.3.7,2.5,1.5,3.8,2.2,1.9-6.1,2.3-13.3-2.1-18.5a11.74,11.74,0,0,0-15-2.9c-12.3,7.1-12.5,26.6-7.9,38.1,1,2.7,5.4,1.5,4.3-1.2Z"/><path class="cls-2" d="M252.93,183.87a24.2,24.2,0,0,1-3.2-18.9c.9-3.7,3.3-7.7,7.1-8.2,3-.4,5.9,1.6,7.4,4.2a14.72,14.72,0,0,1,1.1,8.8,9.78,9.78,0,0,1,10.9-4.1,7.94,7.94,0,0,1,3.9,2.6c1.8,2.5,1.3,6.1-.2,8.9a16.16,16.16,0,0,1-11.4,8.1c-5,.8-10.1-.9-15.1-1.4-.7-.1-1.5.7-.9,1"/><path class="cls-2" d="M254.83,182.67c-3.2-5.3-4.6-11.7-2.8-17.8,1.1-3.6,3.6-7,7.9-5.3,3.6,1.4,3.4,7.1,3.1,10.1-.3,2.5,3,2.7,4.2,1.1,1.6-2.2,5.5-4.6,8.4-3.1,1.1,1.4,2.2,2.7,3.3,4.1a8.69,8.69,0,0,1-1.1,4.1,13.4,13.4,0,0,1-9.9,6.9c-4.2.6-8.3-.5-12.4-1.1-2-.3-3.4-.5-5,1a2.27,2.27,0,0,0-.4,2.7c.1.1.1.2.2.4,1.2,2.6,5.1.3,3.9-2.3-.1-.1-.1-.2-.2-.4a25.11,25.11,0,0,1-.4,2.7c.8-.7,9.4,1.6,11.3,1.6a18.16,18.16,0,0,0,8.6-1.7c4.7-2.2,8.8-6.7,9.6-12a9.05,9.05,0,0,0-6.5-10.4c-5.3-1.5-10.4,1-13.5,5.2,1.4.4,2.8.8,4.2,1.1.6-4.8-.1-9.9-4.1-13.1a8.77,8.77,0,0,0-11.3-.1c-8.2,6.7-5.9,20.6-1.2,28.5,1.7,2.6,5.6.3,4.1-2.2Z"/><path class="cls-2" d="M234.63,24.17a19.47,19.47,0,0,1-7.9-9.1c-1.7-4.1-1.6-9.7,2.3-11.9,2.6-1.5,6-.8,8.3,1.1a12.59,12.59,0,0,1,3.8,7.8,7.8,7.8,0,0,1,5.2-5.5,6.94,6.94,0,0,1,7.2,2c3.1,3.7,1.1,9.7-2.9,12.4s-9.1,2.9-13.9,3"/><path class="cls-2" d="M235.73,22.17c-4-2.6-7.9-6.9-7.9-11.9,0-3.8,2.7-7.3,7-4.9,2.7,1.5,3.5,4.6,3.9,7.3.4,2.4,3.7,1.9,4.3,0,1.3-3.8,7.2-6.6,9.3-1.3.9,2.2-.4,4.8-1.8,6.4-3.4,3.9-9.2,3.9-14,4-2.9.1-2.9,4.6,0,4.5,8.7-.2,23.1-3.4,20.3-15.5A8.82,8.82,0,0,0,248,4c-4.7,0-7.9,3.3-9.4,7.4h4.3c-.8-4.6-3-9-7.6-10.8a8.84,8.84,0,0,0-10.2,2.8c-5.8,7.9,1.5,18.2,8.2,22.5,2.6,1.8,4.8-2.1,2.4-3.7Z"/><path class="cls-2" d="M271.53,120.07c-2.7-2.3-5.5-4.8-6.3-8.5s1.6-8.5,5-8.3,4.8,4.3,5.6,7.7c2.3-1.8,5.4-3.6,7.8-2.1,2,1.2,2.5,4.3,1.4,6.6a8.62,8.62,0,0,1-5.4,4.5,19.57,19.57,0,0,1-6.8.5"/><path class="cls-2" d="M272.93,118.67c-2.8-2.5-6.5-5.6-5.8-9.8.4-2.4,2.3-4.6,4.6-2.8,1.5,1.1,1.9,3.6,2.3,5.3a1.92,1.92,0,0,0,2.8,1.1c1-.7,2.7-2.2,4-2.3,4.1-.2,3.1,4,1.6,5.8-2.4,2.8-6.3,2.6-9.6,2.5-2.4-.1-2.4,3.7,0,3.7,6,.2,14.3-1.3,14.6-8.9a6.66,6.66,0,0,0-3.1-6.2c-3.3-1.8-6.8.2-9.5,2.2.9.4,1.8.7,2.8,1.1-.7-3-1.8-6.6-4.7-8.3a5.71,5.71,0,0,0-7.3,1.3c-5.7,6.2-.4,13.5,4.6,17.8,1.8,1.8,4.5-.9,2.7-2.5Z"/><path class="cls-2" d="M234.83,166.07a74.59,74.59,0,0,1-31.5-9.9c-2.5-1.5-4.8,2.4-2.3,3.9a80.53,80.53,0,0,0,33.8,10.5c2.9.2,2.9-4.3,0-4.5Z"/><path class="cls-2" d="M271.23,59.17a241.66,241.66,0,0,1-60.8,56.8c-2.4,1.6-.2,5.5,2.3,3.9a245.92,245.92,0,0,0,62.4-58.4c1.7-2.3-2.2-4.5-3.9-2.3Z"/><path class="cls-2" d="M232.93,36.47A153.36,153.36,0,0,1,207,77.57c-1.9,2.2,1.3,5.4,3.2,3.2a154.9,154.9,0,0,0,26.6-42c1.1-2.7-2.8-5-3.9-2.3Z"/><path class="cls-2" d="M204.23,143.17a113.46,113.46,0,0,0,51.2-16.9c2.5-1.5.2-5.4-2.3-3.9a108.44,108.44,0,0,1-49,16.3c-2.8.2-2.8,4.7.1,4.5Z"/></g></g></svg>