<svg xmlns="http://www.w3.org/2000/svg" viewBox="0 0 264.54 288.87"><defs><style>.cls-1{fill:#fff;}.cls-2{fill:#ff4867;}.cls-3{fill:#ff7694;}.cls-4{fill:none;}.cls-5{fill:#d1d1d1;}</style></defs><title>step-eat</title><g id="レイヤー_2" data-name="レイヤー 2"><g id="レイヤー_2-2" data-name="レイヤー 2"><path class="cls-1" d="M128.69,249.5s-17.7,10.6-17.3,17.7,10.3-.7,10.3-.7l14.1-11Z"/><path class="cls-2" d="M128,248.2a64.81,64.81,0,0,0-13.7,10.7c-2.5,2.7-7.7,11.1-1.1,12.7,3.8.9,7.9-2.6,10.7-4.8,4.4-3.4,8.7-6.8,13.1-10.2a1.45,1.45,0,0,0,0-2.1c-2.4-2-4.7-4-7.1-6-1.5-1.2-3.6.9-2.1,2.1,2.4,2,4.7,4,7.1,6v-2.1c-5.4,4.2-10.7,9.3-16.6,12.7-2.3,1.3-6.1,2.7-4.9-1.6.8-2.8,3.7-5.2,5.8-7.1a72.64,72.64,0,0,1,10.5-7.7C131.19,249.8,129.59,247.2,128,248.2Z"/><path class="cls-1" d="M98.79,248.2s-1.2,11,2.8,9.1,8.5-19.4,8.5-19.4S102.79,233,98.79,248.2Z"/><path class="cls-2" d="M97.29,248.2c-.4,3.3.2,15.1,6.2,9.5,2.7-2.5,4.1-7,5.3-10.4,1-3,2-6,2.7-9a1.48,1.48,0,0,0-.7-1.7c-7.2-4.7-12.1,6-13.5,11.2a1.5,1.5,0,0,0,2.9.8c.9-3.1,4-12.7,9.1-9.4-.2-.6-.5-1.1-.7-1.7a85.3,85.3,0,0,1-4.7,14c-.9,1.9-3.1,6.6-3.7,2.3a26.22,26.22,0,0,1,.1-5.6C100.49,246.3,97.49,246.3,97.29,248.2Z"/><path class="cls-1" d="M117,224s-14.3,9.6-9.8,18.4c0,0,7.1,11.3,17.7,10.5,0,0,4.6.4,6,7.8,0,0,11.7-3.5,29-21.3,0,0,10-28-10.6-30C128.59,207.2,117,224,117,224Z"/><path class="cls-2" d="M116.19,222.7c-6.1,4.2-14.8,12.8-10.1,20.8a24.91,24.91,0,0,0,10.2,9.1c6.3,3,11.1-.3,13.1,8.4a1.4,1.4,0,0,0,1.8,1c5.8-1.8,11.3-5.8,16.1-9.4a94.54,94.54,0,0,0,7.7-6.5c2-1.8,5-4,6.3-6.4a26.36,26.36,0,0,0,1.5-5.5c1.4-6.5,2-14.5-2-20.3-5.6-8.1-18.1-7.2-26.3-4.5a39.1,39.1,0,0,0-18.8,13.7c-1.1,1.6,1.5,3.1,2.6,1.5,9.9-14,43.4-23.5,42.5,2a43.56,43.56,0,0,1-1.7,10.1c-1.2,4.1-5.5,6.7-8.6,9.4-5.7,4.9-12.6,10.7-20,13,.6.3,1.2.7,1.8,1-.8-3.5-2.6-7.7-6.5-8.7-1.8-.5-3.7-.1-5.6-.6a18.41,18.41,0,0,1-8.3-5.1c-3.5-3.5-5.5-6.7-2.8-11.7,1.9-3.5,5.3-6.6,8.6-8.9C119.29,224.2,117.79,221.6,116.19,222.7Z"/><path class="cls-2" d="M207.89,42.5s16.3,27-16.2,70.7l-16.1,2.7-32.3-28.5,5.1-23.6,7.5-6.1c.9-8.5,24-28.2,31-29.5Z"/><path class="cls-2" d="M206.59,43.2c6.7,11.3,4.1,27.8.1,39.4a104.24,104.24,0,0,1-10.4,21.2c-1.3,2-3.6,6.9-5.5,7.9-1.3.7-3.7.6-5.2.9-2.2.4-4.4.7-6.6,1.1a10.05,10.05,0,0,0-2.5.4c-1.5.6-1.5-.5,0,.6-1.5-1.1-2.9-2.6-4.3-3.8L151.89,93c-1.9-1.7-4.4-5-6.8-6-1.6-.7.2-.6-.3.6a15.25,15.25,0,0,0,.8-3.7c.9-4.3,1.9-8.7,2.8-13,.4-1.7.8-3.3,1.1-5a5,5,0,0,1,.3-1.3c.3-.6-.7.8.3-.1,2.1-2.2,5.8-3.6,7.3-6.3.9-1.5,1.1-3.4,2.1-4.9a47.79,47.79,0,0,1,5.2-6.5,86.18,86.18,0,0,1,14.4-12.6c2-1.4,4.3-2.4,6.3-3.8.7-.4,1.8-.4.8-.6a5,5,0,0,1,1.2.8c6.3,4.7,13.2,8.9,19.7,13.3,1.6,1.1,3.1-1.5,1.5-2.6-5.7-3.8-11.3-7.6-17-11.4-1.7-1.1-3.4-3-5.5-2.8-3.2.2-7,3.5-9.5,5.2C169,37.8,160.69,44.7,156,53c-.6,1.1-1.1,3.2-1.6,4-.6,1-2.8,2.4-3.9,3.3-1.9,1.5-3.4,2.3-4,4.6-2.1,7.3-3.2,15-4.8,22.4a1.67,1.67,0,0,0,.4,1.5c6.2,5.5,12.5,11,18.7,16.5l10.8,9.6c1.6,1.4,2.5,2.6,4.6,2.7,4.4.1,9.6-1.5,14-2.4,2.2-.4,2.2-.5,3.7-2.6a130.37,130.37,0,0,0,8.7-13.6c6.6-12,11.2-25.6,10.6-39.4-.2-5.8-1.2-12.4-4.2-17.5A1.33,1.33,0,1,0,206.59,43.2Z"/><path class="cls-1" d="M162,280.1s1.5,11.9,9.2,5.3l9.3-26.6L169,250.7Z"/><path class="cls-2" d="M160.59,280.5c.4,2.9,1.6,6.6,4.5,7.9,3.3,1.5,6.9-.8,8.1-3.8,3.3-8.3,5.9-16.9,8.9-25.4a1.62,1.62,0,0,0-.7-1.7c-3.8-2.7-7.7-5.4-11.5-8.1a1.52,1.52,0,0,0-2.2.9c-2.3,9.8-4.7,19.6-7,29.4a1.5,1.5,0,0,0,2.9.8c2.3-9.8,4.7-19.6,7-29.4-.7.3-1.5.6-2.2.9,3.8,2.7,7.7,5.4,11.5,8.1-.2-.6-.5-1.1-.7-1.7-2.2,6.4-4.5,12.7-6.7,19.1-.6,1.8-1.2,6.1-2.6,7.4-3.7,3.5-6-2.4-6.4-5.2C163.19,277.8,160.29,278.6,160.59,280.5Z"/><path class="cls-1" d="M243.09,200.4s1.5,11.9,9.2,5.3l9.3-26.6-11.5-8.1Z"/><path class="cls-2" d="M241.59,200.8c.4,2.9,1.6,6.6,4.5,7.9,3.3,1.5,6.9-.8,8.1-3.8,3.3-8.3,5.9-16.9,8.9-25.4a1.62,1.62,0,0,0-.7-1.7c-3.8-2.7-7.7-5.4-11.5-8.1a1.52,1.52,0,0,0-2.2.9c-2.3,9.8-4.7,19.6-7,29.4a1.5,1.5,0,0,0,2.9.8c2.3-9.8,4.7-19.6,7-29.4-.7.3-1.5.6-2.2.9,3.8,2.7,7.7,5.4,11.5,8.1-.2-.6-.5-1.1-.7-1.7-2.2,6.4-4.5,12.7-6.7,19.1-.6,1.8-1.2,6.1-2.6,7.4-3.7,3.5-6-2.4-6.4-5.2C244.29,198.1,241.39,198.9,241.59,200.8Z"/><polyline class="cls-1" points="13.39 101.39 180.59 258.8 262.69 171.59 95.59 14.2 12.69 102.19 12.29 112.09 179.89 269.89 180.59 258.8 179.89 269.89 262.29 182.4 262.69 171.59"/><path class="cls-2" d="M12.39,102.5q28.35,26.7,56.8,53.4Q114,198,158.79,240.3c6.9,6.5,13.8,13,20.8,19.5a1.54,1.54,0,0,0,2.1,0q35.85-38.1,71.8-76.2l10.4-11a1.54,1.54,0,0,0,0-2.1q-28.35-26.7-56.8-53.4-44.85-42.15-89.6-84.4c-6.9-6.5-13.8-13-20.8-19.5a1.54,1.54,0,0,0-2.1,0L42.39,68.7c-9.1,9.7-18.3,19.4-27.4,29.1-1.6,1.7-3.3,2.9-3.7,5.2-.5,3-1.4,8.3.6,10.8,4.1,5.2,10.2,9.6,15,14.1l30,28.2q37.65,35.4,75.2,70.9l30.4,28.6c5.2,4.8,10.1,10.4,15.7,14.8a4.62,4.62,0,0,1,.7.7,1.56,1.56,0,0,0,2.6-1.1c.2-3.7.5-7.4.7-11.1.1-1.9-2.9-1.9-3,0-.2,3.7-.5,7.4-.7,11.1a1.55,1.55,0,0,0,2.6,1.1q39.3-41.7,78.5-83.3c1.2-1.2,3.1-2.7,3.9-4.2,1.7-3.1.8-8.4.9-11.9.1-1.9-2.9-1.9-3,0l-.3,6.3c0,1.2-.2,2.4-.1,3.6s.1.2.3-.1a29,29,0,0,1-3.4,3.6c-6.1,6.5-12.2,12.9-18.3,19.4-16.2,17.2-32.4,34.5-48.7,51.7-4,4.2-8,8.5-12,12.7.9.4,1.7.7,2.6,1.1.2-3.7.5-7.4.7-11.1.1-1.9-2.9-1.9-3,0-.2,3.7-.5,7.4-.7,11.1.9-.4,1.7-.7,2.6-1.1l-37.2-35.1q-36.9-34.65-73.7-69.4Q43.64,139.35,17,114.3c-1-1-2.6-2-3.4-3.2.9,1.4.4.1.5-1.1a45.72,45.72,0,0,0,.3-6.4c-.1-1.4.2-1.1-.3-.4a4.62,4.62,0,0,1,.7-.7c3-2.4,5.5-5.8,8.1-8.6l14.3-15.2C48.79,66.4,60.39,54,72,41.7c4.9-5.2,9.8-10.5,14.8-15.7,2.9-3,6.3-6,8.8-9.4a7.41,7.41,0,0,1,1.2-1.3h-2.1Q123,42,151.49,68.7q44.85,42.15,89.6,84.4c6.9,6.5,13.8,13,20.8,19.5v-2.1q-35.85,38.1-71.8,76.2l-10.4,11h2.1Q153.44,231,125,204.3q-44.85-42.15-89.6-84.4c-6.9-6.5-13.8-13-20.8-19.5-1.5-1.4-3.7.8-2.2,2.1Z"/><ellipse class="cls-1" cx="167.41" cy="215.98" rx="8.1" ry="8.8" transform="translate(-104.6 189.82) rotate(-46.73)"/><path class="cls-2" d="M172.79,221c-6.2,6-16.7-3.7-10.8-10s16.4,3.5,10.8,10c-1.3,1.5.9,3.6,2.1,2.1A10.17,10.17,0,0,0,174,209c-3.8-3.6-10.3-4.2-14.1-.2s-3,10.4.9,14.1a10.15,10.15,0,0,0,14.1.2C176.29,221.8,174.19,219.7,172.79,221Z"/><ellipse class="cls-1" cx="133.52" cy="85.07" rx="7.3" ry="8" transform="translate(-19.94 123.97) rotate(-46.73)"/><path class="cls-2" d="M137.49,80.8c2.3,2.3,3.2,6.1.8,8.7s-6.3,2.1-8.7-.1-3.1-6.1-.8-8.7,6.2-2,8.7.1c1.5,1.3,3.6-.9,2.1-2.1-3.7-3.2-9.3-3.9-12.9-.1-3.5,3.6-2.7,9.6.8,12.9s9.4,3.8,12.9.1,2.6-9.4-.8-12.9A1.48,1.48,0,0,0,137.49,80.8Z"/><ellipse class="cls-1" cx="185.49" cy="127.59" rx="13.2" ry="14.4" transform="translate(-34.56 175.18) rotate(-46.73)"/><path class="cls-2" d="M177.49,136.2c-4.6-4.6-6.3-12.2-1.4-17.4,4.7-5,12.7-4.2,17.4.3s6.1,12.3,1.4,17.4-12.5,4-17.4-.3c-1.5-1.3-3.6.9-2.1,2.1,6.1,5.4,15.6,6.6,21.7.3,5.9-6.2,4.5-16-1.4-21.6s-15.8-6.4-21.7-.3c-6,6.3-4.3,15.8,1.4,21.6A1.48,1.48,0,1,0,177.49,136.2Z"/><ellipse class="cls-1" cx="58.57" cy="104.49" rx="7.1" ry="7.7" transform="translate(-57.66 75.51) rotate(-46.73)"/><path class="cls-2" d="M62.39,100.5c2.2,2.2,3.1,5.8.8,8.3s-6.1,2-8.3-.1-3-5.9-.8-8.3,6-2,8.3.1c1.5,1.3,3.6-.9,2.1-2.1-3.6-3.1-9.1-3.8-12.6-.1-3.4,3.5-2.7,9.3.8,12.5s9.2,3.7,12.6.1,2.5-9.2-.8-12.5C63.19,97,61,99.1,62.39,100.5Z"/><ellipse class="cls-1" cx="98.97" cy="66.36" rx="20" ry="21.9" transform="translate(-17.19 92.93) rotate(-46.73)"/><path class="cls-2" d="M111.69,52.9c7.2,7.2,9.8,19.4,2.2,27.5-7.5,7.9-20,6.7-27.5-.4-7.2-6.8-9.4-18.6-2.9-26.5,7.2-9.1,20.1-7.7,28.2-.6,1.4,1.3,3.6-.8,2.1-2.1-8.9-7.9-23-9.6-31.8-.4-8.6,9-6.5,23.5,2.2,31.7s23.2,9.5,31.8.4c8.7-9.3,6.3-23.2-2.2-31.7A1.48,1.48,0,0,0,111.69,52.9Z"/><ellipse class="cls-1" cx="183.94" cy="181.66" rx="21.3" ry="23.2" transform="translate(-74.41 191.06) rotate(-46.73)"/><path class="cls-2" d="M170.39,196.1c-7.5-7.5-10.2-19.7-3-28.4,7.7-9.3,21.7-8.3,30.1-.5,7.4,6.9,10,18.9,3.8,27.5-7.6,10.4-22.1,9.2-30.9,1.4-1.4-1.3-3.6.8-2.1,2.1,9.8,8.7,25.5,10.2,34.5-.6,8.1-9.7,5.6-24.2-3.2-32.5-9.2-8.6-24.5-10-33.6-.4-9.2,9.8-6.6,24.6,2.3,33.5C169.69,199.6,171.79,197.4,170.39,196.1Z"/><path class="cls-1" d="M200.19,48.9l-25.4,31.3s1-24.3,10.2-39.6Z"/><path class="cls-2" d="M199.09,47.9c-8.5,10.4-16.9,20.9-25.4,31.3.9.4,1.7.7,2.6,1.1.6-13.1,3.3-27.3,9.9-38.8a16,16,0,0,1-2.1.5c5.1,2.8,10.1,5.5,15.2,8.3,1.7.9,3.2-1.7,1.5-2.6-5.1-2.8-10.1-5.5-15.2-8.3a1.6,1.6,0,0,0-2.1.5c-6.9,11.9-9.8,26.6-10.4,40.3a1.55,1.55,0,0,0,2.6,1.1c8.5-10.4,16.9-20.9,25.4-31.3C202.39,48.5,200.29,46.4,199.09,47.9Z"/><path class="cls-1" d="M68.29,216.4c-.9.9-16.1,7.3-10.3,9.9s17.5-8.6,17.5-8.6Z"/><path class="cls-2" d="M67.19,215.3c-2,1.7-17,7.4-10.6,11.9,6,4.2,15.8-4.6,19.9-8.5a1.48,1.48,0,0,0-.7-2.5c-2.4-.4-4.8-.9-7.1-1.3-1.9-.4-2.7,2.5-.8,2.9,2.4.4,4.8.9,7.1,1.3a23.35,23.35,0,0,0-.7-2.5c-1.7,1.6-3.5,3-5.3,4.4-2.5,1.7-6.6,4.9-9.8,4.1-1.8-.5-.5-1.2.6-2a23,23,0,0,1,3.7-2.3c1.9-1.1,4.1-1.9,5.8-3.3C70.79,216.2,68.69,214.1,67.19,215.3Z"/><path class="cls-1" d="M59.39,211.9c-.5,1.2-.8,17.7-5.3,13.3s1.5-19.4,1.5-19.4Z"/><path class="cls-2" d="M58,211.5c-.7,2.1-.5,4.6-.8,6.7a23.92,23.92,0,0,1-.9,4.5c-.5,1.4-.4,2.1-1.3,1.1-2.3-2.5-.7-8.3,0-11.2a49.25,49.25,0,0,1,2.1-6.5,25.13,25.13,0,0,0-2.7.4c1.3,2,2.6,4.1,3.9,6.1,1,1.6,3.6.1,2.6-1.5-1.3-2-2.6-4.1-3.9-6.1a1.48,1.48,0,0,0-2.7.4c-1.9,4.9-6.8,18.4,0,21.7,6.4,3.1,5.9-11.8,6.8-14.7A1.62,1.62,0,0,0,58,211.5Z"/><path class="cls-1" d="M111.49,156.4c.2-.5,3.1-11.8,6.6-10.1,0,0,4.8,3.4-5.9,11.7Z"/><path class="cls-2" d="M113,156.8c.6-1.7,1-3.4,1.7-5a13.18,13.18,0,0,1,1.8-3.3c.4-.4,1.3-.8.7-1,.5.1.6,1.1.5,1.9-.5,3.2-4.1,5.8-6.4,7.6l2.4.3c-.2-.5-.5-1.1-.7-1.6-.8-1.8-3.4-.2-2.6,1.5.2.5.5,1.1.7,1.6.4,1,1.7.8,2.4.3,2.9-2.3,11.1-9.6,5.9-13.8-2.5-2-5,.9-6.1,2.9-1.4,2.5-2,5.2-3,7.9C109.39,157.8,112.29,158.5,113,156.8Z"/><path class="cls-2" d="M65.79,183.8s-21.7,17.7-3.4,34.4c0,0,14.4,14.1,31-11.8s-4.5-31.6-4.5-31.6Z"/><path class="cls-2" d="M64.79,182.8c-7.5,6.2-13.5,16.8-10.3,26.6,2.7,8.1,10.6,15,19.4,14.2,6.7-.6,12.2-5.2,16.3-10.2,5.2-6.2,10.2-14.2,10.9-22.4.6-6.8-3.8-16.3-11.5-17.4-2.9-.4-6.9,2.1-9.5,3.2l-14.7,5.7c-1.8.7-1,3.6.8,2.9,7-2.7,14-5.5,21-8.2.7-.3,2.7-.6,1.3-.8a10.41,10.41,0,0,1,1.6.6,14.73,14.73,0,0,1,6.6,6c2.9,5.4,1,11.9-1.5,17.1-3.5,7.2-8.8,15.1-16.2,18.9-6.6,3.4-13.4,1.3-18-4-8.6-9.9-3.2-22.5,5.7-29.9A1.49,1.49,0,1,0,64.79,182.8Z"/><path class="cls-1" d="M72.29,198.5S58.49,197,60,177.3c2.3-30.2,21.9-18.5,21.9-18.5s12.6,9,29-5.6l5.3,3.2S110,170,92.49,172.7C92.49,172.6,90.29,196.8,72.29,198.5Z"/><path class="cls-2" d="M72.29,197c-6.9-.8-10.9-9.5-10.9-16.7-.1-8.2,2.2-23.2,13.5-22.2,3.4.3,5.8,2,8.7,3.3,10.1,4.3,20.6-.5,28.4-7.2a11,11,0,0,1-1.8.2c1.8,1.1,3.5,2.1,5.3,3.2a16,16,0,0,1-.5-2.1c-4.1,8.8-13.6,14-22.8,15.6-.7.1-1,.8-1.1,1.4C90,183.2,84,195.6,72.29,197c-1.9.2-1.9,3.2,0,3,13.5-1.6,20.5-14.9,21.7-27.4a17.11,17.11,0,0,1-1.1,1.4c9.8-1.7,20.2-7.5,24.6-17a1.72,1.72,0,0,0-.5-2.1c-1.8-1.1-3.5-2.1-5.3-3.2a1.51,1.51,0,0,0-1.8.2c-7.8,6.7-17.5,10.4-27,5.5a20.3,20.3,0,0,0-7.9-2.5c-16.7-1.1-19.7,25.7-14,36.6,2.2,4.3,6.5,7.8,11.4,8.3C74.19,200.2,74.19,197.2,72.29,197Z"/><circle class="cls-3" cx="135.89" cy="130.8" r="30.1"/><path class="cls-2" d="M157.59,107.8a31.58,31.58,0,1,0,4.7,40.4c8.5-12.8,6.1-29.8-4.7-40.4-1.4-1.4-3.5.8-2.1,2.1,11.1,11,12.2,28.9,1.3,40.4a28.78,28.78,0,0,1-40.4,1.3c-11.3-10.6-12-29.1-1.3-40.4,10.9-11.5,28.8-11.7,40.4-1.3C156.89,111.2,159,109.1,157.59,107.8Z"/><path class="cls-1" d="M125.79,162.6c.2-.5,3.1-11.8,6.6-10.1,0,0,4.8,3.4-5.9,11.7Z"/><path class="cls-2" d="M127.29,163c.6-1.7,1-3.4,1.7-5a13.18,13.18,0,0,1,1.8-3.3c.4-.4,1.3-.8.7-1,.5.1.6,1.1.5,1.9-.5,3.2-4.1,5.8-6.4,7.6l2.4.3c-.2-.5-.5-1.1-.7-1.6-.8-1.8-3.4-.2-2.6,1.5.2.5.5,1.1.7,1.6.4,1,1.7.8,2.4.3,2.9-2.3,11.1-9.6,5.9-13.8-2.5-2-5,.9-6.1,2.9-1.4,2.5-2,5.2-3,7.9C123.69,164,126.59,164.7,127.29,163Z"/><path class="cls-1" d="M172.39,179.3c.1-.6.8-12.2,4.5-11.2,0,0,5.4,2.4-3.5,12.6Z"/><path class="cls-2" d="M173.89,179.7c.3-1.7.4-3.4.7-5a23.69,23.69,0,0,1,.9-3.6c.2-.4,1.1-1.8.8-1.7.4-.1.8,1,.8,1.6.3,3.1-2.9,6.5-4.7,8.6l2.4.3a17,17,0,0,0-1-1.4c-1.1-1.6-3.7-.1-2.6,1.5a17,17,0,0,0,1,1.4,1.57,1.57,0,0,0,2.4.3c2.5-3,5.8-6.9,5.6-11.1a4.76,4.76,0,0,0-2.3-3.9c-2.7-1.3-4.6,1.8-5.3,3.9a28.77,28.77,0,0,0-1.1,4.9c-.1.8-.2,1.5-.3,2.3,0,.3-.2,1.4-.1,1C170.69,180.8,173.59,181.6,173.89,179.7Z"/><path class="cls-3" d="M175.59,181.8l-4.9-4.1a59.09,59.09,0,0,1-19.4,16.9c-1.5-5.5-5.1-6.7-5.1-6.7l-12.3-3.1-6.9-2.5c-4.3-5.3,3.2-18.3,3.2-18.3l-5.4-1.6-3.3,4.9c-11.3,16.8-1.5,25.8-2.5,28.7s-3.1,32.7-3.1,32.7c.7,1,6.7,4.8,6.7,4.8,10.2,7.9,21.1-1.1,21.1-1.1s1.1-3.1,6.5-22.3c.5-1.8.8-3.4,1.1-4.9C163.09,202.3,175.59,181.8,175.59,181.8Z"/><path class="cls-2" d="M176.69,180.7c-1.6-1.4-3.2-2.7-4.9-4.1a1.58,1.58,0,0,0-2.4.3,57,57,0,0,1-18.8,16.4c.7.3,1.5.6,2.2.9-3-8.9-10.1-8.5-17.9-10.7-1.2-.3-2.3-.8-3.5-1.2-3.1-1.1-3.9-.8-4.1-4.3-.2-4.4,2.2-9.4,4.4-13.2a1.55,1.55,0,0,0-.9-2.2c-1.8-.5-3.6-1-5.4-1.6a1.48,1.48,0,0,0-1.7.7c-3.8,5.7-7.9,11.4-8.8,18.4a21.08,21.08,0,0,0,.7,9c.5,2,2.1,4.3,2.2,6.4.2,4-1.2,8.9-1.6,12.9-.5,6-1,12-1.4,17.9-.3,4.5,2.5,5.4,6.2,7.9,6.1,4.1,12.1,5.4,19,2.4,2.4-1,4.6-2.1,5.6-4.4,2.2-5,3.2-11,4.7-16.2.5-1.8,1-3.5,1.5-5.3.3-1.1.3-3.3,1-4.1s3.1-1.4,4.1-2a44.26,44.26,0,0,0,9.3-8,91.82,91.82,0,0,0,10.7-14.1c1-1.6-1.6-3.2-2.6-1.5-5.3,8.6-13.2,19.9-23.3,23a1.17,1.17,0,0,0-1,1c-1.3,6.8-3.5,13.5-5.4,20.1-.6,2.1-1,4.6-2,6.6-.5,1,.8-.7,0-.1a17.56,17.56,0,0,1-5.8,2.9c-6.5,2-11.6-1.1-16.8-4.6a9.66,9.66,0,0,1-2.6-1.9c.1.1.3,1.1.2.2a14.61,14.61,0,0,1,.3-3.6c.3-4.4.7-8.8,1-13.2.3-4.1.6-8.2,1.2-12.3.3-2.2.8-3.7.1-5.9-1.5-4.8-3.2-8.9-2.2-14.1,1.2-6.1,4.9-11,8.2-16-.6.2-1.1.5-1.7.7,1.8.5,3.6,1,5.4,1.6-.3-.7-.6-1.5-.9-2.2-3,5.3-9,18-.7,21.1a95.94,95.94,0,0,0,10.4,3.2c5.4,1.4,9.1,1.3,11.2,7.5a1.52,1.52,0,0,0,2.2.9A60.83,60.83,0,0,0,172,178.4l-2.4.3c1.6,1.4,3.2,2.7,4.9,4.1C176.09,184,178.19,181.9,176.69,180.7Z"/><path class="cls-3" d="M178.89,67.7s.2-11.4,8.5-17.3l2.6,2s-6.1,13-9,16.9C181,69.3,178.79,72,178.89,67.7Z"/><path class="cls-2" d="M180.39,67.7c.1-6,2.9-12.4,7.8-16a11,11,0,0,0-1.8-.2c.9.7,1.7,1.4,2.6,2a11,11,0,0,1-.2-1.8c-1.3,2.7-2.6,5.5-4,8.1-1,2-2.1,4.1-3.3,6-.5.8-1,1.5-1.4,2.3-1,1.5.3-.6.3-.4-.1-1.9-3.1-1.9-3,0s.5,4.4,2.9,3.9c1.7-.3,2.8-2.7,3.5-3.9,2.8-4.7,5.2-9.6,7.5-14.5a1.51,1.51,0,0,0-.2-1.8c-.9-.7-1.7-1.4-2.6-2-.5-.4-1.3-.7-1.8-.2a24,24,0,0,0-9.3,18.6C177.29,69.6,180.29,69.6,180.39,67.7Z"/><path class="cls-3" d="M187.59,44.4s-2.3,4.6.2,7.4,4.5,1,7.3-1.6Z"/><path class="cls-2" d="M186.29,43.7c-1.2,2.5-1.7,5.8-.3,8.3,1,1.6,2.7,3,4.6,2.8,2.2-.1,4-2.1,5.5-3.5a1.54,1.54,0,0,0,0-2.1c-2.5-1.9-5-3.9-7.5-5.8-1.5-1.2-3.6.9-2.1,2.1,2.5,1.9,5,3.9,7.5,5.8V49.2c-.9.8-2.1,2.4-3.4,2.6s-2.2-1.4-2.4-2.4a6.62,6.62,0,0,1,.7-4.2C189.79,43.5,187.19,42,186.29,43.7Z"/><path class="cls-1" d="M188.29,17.2s7.2-14,18.5-10.3c16.1,5.2,17.2,19.5,12.1,25.6,0,0,3,1.2-1.2,6.1,0,0-1.2,5.2-5,2.6-.1,0-12.8,13.6-23.8,5.7-13.4-9.5-5-22-5-22s-3-.3-1.7-4.2C183.89,15.6,188.29,17.2,188.29,17.2Z"/><path class="cls-2" d="M189.59,18c3.9-7.4,11.1-12.2,19.4-8.6,7.9,3.5,15.3,13.9,8.9,22.1a1.57,1.57,0,0,0,.3,2.4c.9.4-2.5,7.3-4.6,6.1a1.68,1.68,0,0,0-1.8.2c-5.7,5.3-13.8,10.5-21.4,5.9-7.1-4.3-9.7-13.2-5.1-20.3a1.52,1.52,0,0,0-.9-2.2c-2.5-.4.6-5.9,3.6-4.9,1.8.6,2.6-2.3.8-2.9-6.7-2.3-11.9,9.5-5.2,10.7-.3-.7-.6-1.5-.9-2.2-5.3,8-2.6,18,4.9,23.5,9,6.7,19.2,1.1,26.3-5.5a11,11,0,0,1-1.8.2c3.9,2.1,5.4-.2,7.1-3.4,1.2-2.2,4.2-6.2.5-8l.3,2.4c7-9,1.4-21.1-7.8-26-10.2-5.5-20-1-25.2,8.9C186.09,18.2,188.59,19.7,189.59,18Z"/><path class="cls-2" d="M202.79,14.1s7,20.4,19.1,19.6c0,0,10.8-14.7-6.2-28.1-17.2-13.5-29.3,9.7-29.3,9.7S198.09,18.7,202.79,14.1Z"/><path class="cls-2" d="M201.29,14.5c2,5.8,5.1,11.6,9.5,15.9,3.4,3.4,10.6,7.8,13.5,2.1a20.85,20.85,0,0,0-2.5-22.9c-5.6-7-14.5-12.1-23.4-8.3-5.8,2.5-10.6,7.8-13.5,13.3a1.49,1.49,0,0,0,.9,2.2c5.7,1.5,13.1,2.4,18-1.7,1.5-1.2-.6-3.4-2.1-2.1-3.9,3.2-10.5,2.1-15.1.9.3.7.6,1.5.9,2.2,2.4-4.5,6.2-9,10.7-11.4,11-5.9,24.7,5.7,25.4,17a17.68,17.68,0,0,1-2.4,10c-.9,1.5-.7.6-.5.6-2.3.3-5.1-1.5-6.8-3-4.6-3.9-7.9-10-9.8-15.6C203.59,11.9,200.69,12.7,201.29,14.5Z"/><path class="cls-1" d="M190.59,82l-14.1,11s-10.6-2.1-15.4,3.1,7.9,12,16.3,6.7,19.2-15.2,19.2-15.2S198.89,79.6,190.59,82Z"/><path class="cls-2" d="M189.59,80.9c-4.7,3.7-9.3,7.4-14,11,.9-.7,1.7.1.6-.5a5,5,0,0,0-1.7-.2,27.41,27.41,0,0,0-6.4.1c-3.4.5-8.1,2.1-9.2,5.8-2.4,7.9,11.1,9.9,16,8.4s9.3-5.6,13.2-8.7c2.9-2.4,7.3-5,9.4-8.1a6.14,6.14,0,0,0,.6-5.3c-1.1-3.7-4.7-3.7-7.9-3-1.9.4-1.1,3.3.8,2.9,3-.7,3.9-.3,4.3,2.4.1.3-.1.7-.1,1-.2.7.6-.9.1-.2-1.8,2.5-5.4,4.7-7.8,6.7-3.9,3.2-8.6,7.7-13.5,9.3a12.79,12.79,0,0,1-8.2-.3c-3.4-1.3-5.9-4.2-1.6-6.7,4.9-2.8,10.5.6,14.7-2.5,4.3-3.3,8.6-6.7,12.8-10C193.19,81.8,191.09,79.7,189.59,80.9Z"/><path class="cls-1" d="M133.89,194.2s-12-6.8-6.6-20.1,15.8-15.8,23.4-12.6c6.2,2.7,12.8,6.9,10.5,19.1a44,44,0,0,1-2.9,9.3S152,204.2,133.89,194.2Z"/><path class="cls-2" d="M134.59,192.9c-7.7-4.5-8.6-13.5-4.7-20.9,4.9-9.5,14.8-12.9,23.9-7.1,8.6,5.4,7.3,17.6,2.6,25.4-4.9,8-14.5,6.4-21.8,2.6-1.7-.9-3.2,1.7-1.5,2.6,7.5,3.9,16.7,5.9,23.3-.6,5.3-5.1,7.5-14.7,6.4-21.7-1.2-7.9-9.1-13.6-16.8-14.3-10.1-.9-17.9,7.3-20.7,16.3a17.43,17.43,0,0,0,7.8,20.4C134.79,196.4,136.29,193.9,134.59,192.9Z"/><line class="cls-4" x1="123.39" y1="251.4" x2="138.39" y2="244"/><path class="cls-2" d="M124.09,252.7c5-2.4,10-4.9,15.1-7.3,1.7-.8.2-3.4-1.5-2.6-5,2.4-10,4.9-15.1,7.3-1.7.8-.2,3.4,1.5,2.6Z"/><path class="cls-2" d="M95.29,145.6s-.8,19.2-16.6,14.6-15-20.5-15-20.5,3.2-32.1,30.3-23.2c0,0,10.4,3.6,9.9,12.3C104,128.9,106.19,137.7,95.29,145.6Z"/><path class="cls-2" d="M93.79,145.6c-.3,6.6-3.9,14.5-11.6,13.8-9.6-.8-17.5-9.9-17-19.6a31.92,31.92,0,0,1,4-12.9c5-9.2,14.6-12.6,24.5-8.8,5.2,2,8.4,5.7,8.8,11.3.5,6.5-3.2,11.3-8.2,15.2-1.5,1.2.6,3.3,2.1,2.1,9.2-7.2,13.9-21.6,2.5-29.3-8.8-5.9-21.5-5.2-28.7,2.9-11.4,12.9-10.9,35.9,8.2,41.4,11.1,3.2,17.9-5.8,18.4-16.1C96.89,143.7,93.89,143.7,93.79,145.6Z"/><line class="cls-4" x1="111.69" y1="112.7" x2="159.09" y2="114.1"/><path class="cls-2" d="M111.69,114.2c15.8.5,31.6.9,47.4,1.4,1.9.1,1.9-2.9,0-3-15.8-.5-31.6-.9-47.4-1.4a1.5,1.5,0,0,0,0,3Z"/><line class="cls-4" x1="104.99" y1="124.8" x2="164.69" y2="126.4"/><path class="cls-2" d="M105,126.3c19.9.5,39.8,1.1,59.6,1.6,1.9.1,1.9-2.9,0-3-19.9-.5-39.8-1.1-59.6-1.6a1.5,1.5,0,0,0,0,3Z"/><line class="cls-4" x1="163.39" y1="138.7" x2="106.29" y2="136.5"/><path class="cls-2" d="M163.39,137.2c-19.1-.8-38.1-1.5-57.2-2.3-1.9-.1-1.9,2.9,0,3,19.1.8,38.1,1.5,57.2,2.3,2,.1,2-2.9,0-3Z"/><line class="cls-4" x1="111.29" y1="146.4" x2="157.89" y2="149"/><path class="cls-2" d="M111.29,147.9c15.5.9,31.1,1.7,46.6,2.6,1.9.1,1.9-2.9,0-3-15.5-.9-31.1-1.7-46.6-2.6-2-.1-1.9,2.9,0,3Z"/><line class="cls-4" x1="152.89" y1="106.8" x2="151.49" y2="154.2"/><path class="cls-2" d="M151.39,106.8c-.5,15.8-.9,31.6-1.4,47.4-.1,1.9,2.9,1.9,3,0,.5-15.8.9-31.6,1.4-47.4a1.5,1.5,0,1,0-3,0Z"/><line class="cls-4" x1="140.79" y1="102.7" x2="139.19" y2="159.7"/><path class="cls-2" d="M139.29,102.7c-.6,19-1.1,38-1.7,57-.1,1.9,2.9,1.9,3,0,.6-19,1.1-38,1.7-57,.1-1.9-2.9-1.9-3,0Z"/><line class="cls-4" x1="126.89" y1="158.5" x2="129.09" y2="101.4"/><path class="cls-2" d="M128.39,158.5c.8-19.1,1.5-38.1,2.3-57.2.1-1.9-2.9-1.9-3,0-.8,19.1-1.5,38.1-2.3,57.2-.1,1.9,2.9,1.9,3,0Z"/><line class="cls-4" x1="113.89" y1="150.8" x2="139.69" y2="134.7"/><path class="cls-2" d="M114.59,152.1c8.6-5.4,17.2-10.7,25.8-16.1,1.6-1,.1-3.6-1.5-2.6-8.6,5.4-17.2,10.7-25.8,16.1-1.6,1.1-.1,3.7,1.5,2.6Z"/><line class="cls-4" x1="114.89" y1="151.6" x2="144.19" y2="139.2"/><path class="cls-2" d="M115.69,152.9c9.8-4.1,19.5-8.3,29.3-12.4,1.8-.8.2-3.3-1.5-2.6-9.8,4.1-19.5,8.3-29.3,12.4-1.8.8-.3,3.4,1.5,2.6Z"/><line class="cls-4" x1="67.99" y1="125.2" x2="51.89" y2="109.4"/><path class="cls-2" d="M69,124.1c-5.3-5.3-10.7-10.5-16-15.8-1.4-1.4-3.5.8-2.1,2.1,5.3,5.3,10.7,10.5,16,15.8a1.48,1.48,0,1,0,2.1-2.1Z"/><line class="cls-4" x1="68.39" y1="124.3" x2="54.39" y2="105.4"/><path class="cls-2" d="M69.69,123.5c-4.7-6.3-9.3-12.6-14-18.9-1.1-1.5-3.7,0-2.6,1.5,4.7,6.3,9.3,12.6,14,18.9,1.1,1.6,3.7.1,2.6-1.5Z"/><line class="cls-4" x1="151.49" y1="75.3" x2="158.89" y2="96.5"/><path class="cls-2" d="M150.09,75.7c2.5,7.1,4.9,14.2,7.4,21.2.6,1.8,3.5,1,2.9-.8-2.5-7.1-4.9-14.2-7.4-21.2-.7-1.9-3.6-1.1-2.9.8Z"/><line class="cls-4" x1="150.79" y1="75.9" x2="154.89" y2="99"/><path class="cls-2" d="M149.29,76.3c1.4,7.7,2.8,15.4,4.1,23.1.3,1.9,3.2,1.1,2.9-.8-1.4-7.7-2.8-15.4-4.1-23.1-.3-1.9-3.2-1.1-2.9.8Z"/><line class="cls-4" x1="183.39" y1="176.9" x2="167.39" y2="161.1"/><path class="cls-2" d="M184.49,175.8c-5.3-5.3-10.7-10.5-16-15.8-1.4-1.4-3.5.8-2.1,2.1,5.3,5.3,10.7,10.5,16,15.8,1.3,1.4,3.4-.7,2.1-2.1Z"/><line class="cls-4" x1="183.79" y1="176" x2="169.79" y2="157.1"/><path class="cls-2" d="M185.09,175.2c-4.7-6.3-9.3-12.6-14-18.9-1.1-1.5-3.7,0-2.6,1.5,4.7,6.3,9.3,12.6,14,18.9,1.1,1.6,3.7.1,2.6-1.5Z"/><line class="cls-4" x1="119.19" y1="106.3" x2="116.59" y2="152.9"/><path class="cls-2" d="M117.69,106.3c-.9,15.5-1.7,31.1-2.6,46.6-.1,1.9,2.9,1.9,3,0,.9-15.5,1.7-31.1,2.6-46.6.1-1.9-2.9-1.9-3,0Z"/><path class="cls-1" d="M155.59,57.6s8-9.6,13.1-2.6-6.9,25.3-6.9,25.3-3.8,8.4-6.9,7.3-2.6-5.1.3-11.3,5.8-8.4,5.1-12.4S155.59,57.6,155.59,57.6Z"/><path class="cls-2" d="M156.69,58.6c1.5-1.8,3.8-4.1,6.2-4.5,6.3-1.1,6,6.2,4.9,10.1-1.5,5.5-4.4,10.3-7.2,15.2-1.1,2-2.7,6.7-5.1,5.5-3.8-1.9,3.4-12.1,4.9-15,2.8-5.3,1.1-10.6-4-13.7a1.5,1.5,0,0,0-1.5,2.6c7.9,4.9,1.3,11.7-1.3,17.5-1.4,3.2-4.1,9.2-.4,12,5.1,3.9,9-5.5,11-8.9,3.7-6.2,9.5-16,6.8-23.4-3.1-8.4-12.2-4.4-16.4.5C153.29,58,155.39,60.1,156.69,58.6Z"/><path class="cls-1" d="M58.09,112.5c-3,7.2-9.8,11.4-15.2,16.8a3.14,3.14,0,0,0-1.2,2.7,3.54,3.54,0,0,0,2.4,2.2c2.1.5,3.7-.7,5.1-1.9,5.1-4.5,10.3-9.3,11.8-16.2a4.6,4.6,0,0,0,0-2.6,3.07,3.07,0,0,0-2-2"/><path class="cls-2" d="M56.79,111.8c-3.3,7.3-9.9,10.8-15,16.5-3,3.4-.8,8.1,4,7.5,6.5-.8,24.1-20.9,14-25.6-1.7-.8-3.3,1.8-1.5,2.6,1.3.6,1.1,3.2,1,4.3a14.34,14.34,0,0,1-1.4,3.4,23.79,23.79,0,0,1-3.7,5.1,46.42,46.42,0,0,1-3.9,3.8c-.5.4-1.4,1.6-2,1.8-1.4-.3-2.8-.6-4.2-.8.5-.5,1-.9,1.5-1.4,5.2-4.9,11-9.1,14-15.7.6-1.8-2-3.3-2.8-1.5Z"/><path class="cls-5" d="M17.49,170.3c-.9.9-16.1,7.3-10.3,9.9s17.5-8.6,17.5-8.6Z"/><path class="cls-2" d="M16.39,169.2c-2,1.7-17,7.4-10.6,11.9,6,4.2,15.8-4.6,19.9-8.5a1.48,1.48,0,0,0-.7-2.5c-2.4-.4-4.8-.9-7.1-1.3-1.9-.4-2.7,2.5-.8,2.9,2.4.4,4.8.9,7.1,1.3a23.35,23.35,0,0,0-.7-2.5c-1.7,1.6-3.5,3-5.3,4.4-2.5,1.7-6.6,4.9-9.8,4.1-1.8-.5-.5-1.2.6-2a23,23,0,0,1,3.7-2.3c1.9-1.1,4.1-1.9,5.8-3.3C20,170.1,17.89,168,16.39,169.2Z"/><path class="cls-5" d="M8.59,165.8c-.5,1.2-.8,17.7-5.3,13.3s1.5-19.4,1.5-19.4Z"/><path class="cls-2" d="M7.19,165.4c-.7,2.1-.5,4.6-.8,6.7a23.92,23.92,0,0,1-.9,4.5c-.5,1.4-.4,2.1-1.3,1.1-2.3-2.5-.7-8.3,0-11.2a49.25,49.25,0,0,1,2.1-6.5,25.13,25.13,0,0,0-2.7.4c1.3,2,2.6,4.1,3.9,6.1,1,1.6,3.6.1,2.6-1.5-1.3-2-2.6-4.1-3.9-6.1a1.48,1.48,0,0,0-2.7.4c-1.9,4.9-6.8,18.4,0,21.7,6.4,3.1,5.9-11.8,6.8-14.7C10.69,164.4,7.79,163.6,7.19,165.4Z"/><path class="cls-2" d="M15,137.7s-21.7,17.7-3.4,34.4c0,0,14.4,14.1,31-11.8s-4.5-31.6-4.5-31.6Z"/><path class="cls-2" d="M14,136.7c-7.5,6.2-13.5,16.8-10.3,26.6,2.7,8.1,10.6,15,19.4,14.2,6.7-.6,12.2-5.2,16.3-10.2,5.2-6.2,10.2-14.2,10.9-22.4.6-6.8-3.8-16.3-11.5-17.4-2.9-.4-6.9,2.1-9.5,3.2l-14.7,5.7c-1.8.7-1,3.6.8,2.9,7-2.7,14-5.5,21-8.2.7-.3,2.7-.6,1.3-.8a10.41,10.41,0,0,1,1.6.6,14.73,14.73,0,0,1,6.6,6c2.9,5.4,1,11.9-1.5,17.1-3.5,7.2-8.8,15.1-16.2,18.9-6.6,3.4-13.4,1.3-18-4C1.59,159,7,146.4,15.89,139,17.59,137.6,15.49,135.5,14,136.7Z"/><path class="cls-3" d="M21.59,152.4s-13.7-1.5-12.3-21.2,21.9-18.5,21.9-18.5,12.9-2,13.1,15l.7,10.2s-6.7.2-7.9-3.5C35.89,130.5,39.59,150.8,21.59,152.4Z"/><path class="cls-2" d="M21.59,150.9c-6.3-.8-10.5-8.5-10.9-15.3-.6-10.9,5-19.5,16-21.2,3.5-.5,7.1-1,10.4.8,7.1,3.8,5.8,15.6,6.3,22.6l1.5-1.5c-3,0-4.3-.9-6.5-2.7-.6-.5-.5-1.4-1.6-1.3a1.5,1.5,0,0,0-1.4,1.1c-.9,2.1-.5,4.9-1.1,7.1-1.8,6.2-6.5,9.6-12.7,10.4-1.9.2-1.9,3.2,0,3,6.2-.7,11.6-3.5,14.4-9.3,1.6-3.3,1.1-7.4,2.3-10.3a17.1,17.1,0,0,0-1.4,1.1c-.8.1-2-1.4-.6.7a6.72,6.72,0,0,0,2.8,2.2,14.74,14.74,0,0,0,5.9,1.1,1.47,1.47,0,0,0,1.5-1.5c-.5-6.9.4-16.1-4-21.9a12.13,12.13,0,0,0-7.6-4.6,15.14,15.14,0,0,0-3-.2c-.5,0-1.4.1-.9.1-5.7.2-11.4,1.3-16,5-7.7,6.2-9.2,18.4-5.8,27.3,2,5.2,6.6,9.7,12.3,10.4C23.49,154.1,23.39,151.1,21.59,150.9Z"/><path class="cls-1" d="M41.19,103.3s22.4-10.2,8.2-26.2c0,0-15.9-15.7-33.5,7.6s-11.6,44.9-11.6,44.9,3.6,10.6,14.7,7.2S41.69,115.6,41.19,103.3Z"/><path class="cls-2" d="M41.89,104.6c8.4-3.9,16.6-12.7,12.5-22.4-3.9-9.2-14.7-13.8-24.2-10.7-9.2,3-15.8,11.6-20.4,19.6a59.44,59.44,0,0,0-8,26c-.5,7.8-.1,17.7,8.4,21.1,7.8,3.1,15.9-2.6,20.9-8.1,6.5-7.1,11.6-16.9,11.5-26.7a1.5,1.5,0,0,0-3,0c.1,7.8-3.5,15.3-8.1,21.5-4.2,5.5-11.5,13-19.3,10.9-6.9-1.8-7.5-9.2-7.6-15.1-.1-15.9,7.9-35.4,21.8-44.1,6.7-4.2,15.9-4.1,21.8,1.7,9.2,9,1.4,19.5-7.9,23.8C38.69,102.8,40.19,105.4,41.89,104.6Z"/><path class="cls-2" d="M144,126.6c1.2,3.5.6,7.3.8,11,.1,2,.7,4.4,2.6,5.2a4,4,0,0,0,3.4-.2,6.08,6.08,0,0,0,2.4-2.6c2-3.7,1.3-8.5-.8-12.2-1-1.7-2.4-3.4-4.4-3.7a4,4,0,0,0-4.3,2.7"/><path class="cls-2" d="M181.59,120.4c1.2,3.5.6,7.3.8,11,.1,2,.7,4.4,2.6,5.2a4,4,0,0,0,3.4-.2,6.08,6.08,0,0,0,2.4-2.6c2-3.7,1.3-8.5-.8-12.2-1-1.7-2.4-3.4-4.4-3.7a4,4,0,0,0-4.3,2.7"/><path class="cls-2" d="M190.39,174.6c1,4.1-.1,8.3-.3,12.5-.1,2.3.3,5,2.3,6.2a4.25,4.25,0,0,0,3.8.2,6.62,6.62,0,0,0,2.9-2.6c2.7-3.9,2.3-9.4.4-13.8-.9-2.1-2.4-4.2-4.5-4.7a4.45,4.45,0,0,0-5.1,2.4"/><path class="cls-2" d="M124.19,118.5a2.78,2.78,0,0,1-.2,2.5,15.94,15.94,0,0,1-1.5,2.1,13.35,13.35,0,0,0-2.5,7.7c0,2,.7,4.3,2.5,5.3a6.13,6.13,0,0,0,4.8.2,11.26,11.26,0,0,0,7.3-8.1,11.07,11.07,0,0,0-3.4-10.4,5.29,5.29,0,0,0-2.3-1.3,6.56,6.56,0,0,0-2,.1c-1.3.3-2.8.6-3.5,1.8"/><path class="cls-2" d="M187.49,183.9a22.35,22.35,0,0,1-7.3-1.2c-2-.7-4.2-1.6-6-.5a4.32,4.32,0,0,0-1.6,4.4,10.06,10.06,0,0,0,3.5,6,12,12,0,0,0,6.4,3.1,8.49,8.49,0,0,0,6.7-1.9,6.68,6.68,0,0,0,2.2-6.5,5.63,5.63,0,0,0-5.1-4.2"/><path class="cls-2" d="M189,173.3a14.12,14.12,0,0,1-3.3,4,7.72,7.72,0,0,0-1.9,1.7c-1.5,1.8-1.3,4.6-.1,6.7a4.71,4.71,0,0,0,1.3,1.5,4.13,4.13,0,0,0,3.9.2,8.43,8.43,0,0,0,4-13,5.2,5.2,0,0,0-2.1-1.8,2.86,2.86,0,0,0-2.7.1"/><path class="cls-2" d="M108.19,65.6c-.7,4.5-1.8,9.4-5.6,12a5.82,5.82,0,0,1-3.1,1.1,6,6,0,0,1-3.6-1.4,9.84,9.84,0,0,1-4.4-7.3c0-2.6,1.3-4.9,2.9-7a13.16,13.16,0,0,1,4-3.8,7.33,7.33,0,0,1,5.4-.9,8.45,8.45,0,0,1,2.7,1.3,6.51,6.51,0,0,1,2.7,3.2,3.28,3.28,0,0,1-1.1,3.8"/><path class="cls-3" d="M99.69,66a1.28,1.28,0,0,1,1.4-.6,3.07,3.07,0,0,1,1.4.9,3.52,3.52,0,0,1,1,1.9A6.07,6.07,0,0,1,103,70a4.07,4.07,0,0,0-.1,2.2,1.17,1.17,0,0,1,0,1c-.1.3-.4.5-.6.7a7.84,7.84,0,0,1-1.5,1,3.77,3.77,0,0,1-4.9-5.3A7,7,0,0,1,98,67.5c.6-.5,1.3-1,1.9-1.5"/><path class="cls-2" d="M101,57.5c-.7,4.5-1.8,9.4-5.6,12a5.82,5.82,0,0,1-3.1,1.1,6,6,0,0,1-3.6-1.4,9.84,9.84,0,0,1-4.4-7.3c0-2.6,1.3-4.9,2.9-7a13.16,13.16,0,0,1,4-3.8,7.33,7.33,0,0,1,5.4-.9,8.45,8.45,0,0,1,2.7,1.3,6.51,6.51,0,0,1,2.7,3.2,3.28,3.28,0,0,1-1.1,3.8"/><path class="cls-3" d="M92.49,57.9a1.28,1.28,0,0,1,1.4-.6,3.07,3.07,0,0,1,1.4.9,3.52,3.52,0,0,1,1,1.9,6.07,6.07,0,0,1-.5,1.8,4.07,4.07,0,0,0-.1,2.2,1.17,1.17,0,0,1,0,1c-.1.3-.4.5-.6.7a7.84,7.84,0,0,1-1.5,1,3.77,3.77,0,0,1-4.9-5.3,7,7,0,0,1,2.1-2.1c.6-.5,1.3-1,1.9-1.5"/><path class="cls-2" d="M130.49,85.7a4.83,4.83,0,0,1,.8-3.1,2.56,2.56,0,0,1,2.9-.9,2,2,0,0,1,.9.9c.2.2.3.5.6.7a7.26,7.26,0,0,1,.9.5,1.43,1.43,0,0,1,.5,1.1,5,5,0,0,1-.2,1.2c-.4,1.3-1,2.6-2.2,3a3.26,3.26,0,0,1-2.8-.7,3.74,3.74,0,0,1-1.2-1.3,2.06,2.06,0,0,1-.2-1.7"/><path class="cls-2" d="M132,85.7c0-.8.1-2.8,1.4-2.6.5.1.9,1,1.2,1.3s.9.4,1,.7a3.07,3.07,0,0,1-1.1,2.5c-.9.5-2.8-.7-2.5-1.7.4-1.9-2.5-2.7-2.9-.8-.6,2.9,2,5.6,4.8,5.7s4.4-2.8,4.7-5.2a3.18,3.18,0,0,0-1.5-3.2c-1.2-.7-1.7-2-3.3-2.2-3.3-.5-4.8,2.9-4.8,5.6,0,1.9,3,1.9,3-.1Z"/><path class="cls-2" d="M62,104.3a5.73,5.73,0,0,1-.8,3.4,2.56,2.56,0,0,1-3.1.9,2.93,2.93,0,0,1-1-.9,2.17,2.17,0,0,0-.6-.7c-.3-.2-.7-.3-1-.5a1.74,1.74,0,0,1-.6-1.2,5.06,5.06,0,0,1,.2-1.3c.4-1.4,1.1-2.9,2.4-3.3a3.6,3.6,0,0,1,3,.7,4.36,4.36,0,0,1,1.3,1.4,2.54,2.54,0,0,1,.2,1.9"/><path class="cls-2" d="M60.49,104.3c0,.9-.2,3.3-1.7,3-.6-.1-1-1.1-1.4-1.4s-.9-.4-1.1-.9a3.21,3.21,0,0,1,1.2-2.8c1.1-.6,3.3.7,3,2.1-.3,1.8,2.6,2.6,3,.7.7-3-2.1-5.9-5.1-6s-4.7,2.9-5,5.6a3.09,3.09,0,0,0,1.6,3.3c1.3.8,1.9,2.2,3.5,2.4,3.5.5,5.1-3.1,5-6-.1-1.9-3.1-1.9-3,0Z"/><path class="cls-2" d="M164,215.9a5.18,5.18,0,0,1,.6-3.3,2.3,2.3,0,0,1,3-.7,3.46,3.46,0,0,1,1.1,1,2.7,2.7,0,0,0,.7.8c.3.3.7.3,1.1.6a2.13,2.13,0,0,1,.7,1.2,2.88,2.88,0,0,1-.1,1.3c-.3,1.3-.8,2.7-2.2,3.1a4.15,4.15,0,0,1-3.1-1,4,4,0,0,1-1.4-1.5,3.28,3.28,0,0,1-.4-1.9"/><path class="cls-2" d="M165.49,215.9c-.1-.9-.2-3.1,1.4-2.7.6.2,1,1.2,1.5,1.6s.9.4,1.2.9a2.78,2.78,0,0,1-.9,2.7c-1,.4-3.4-1.2-3.2-2.4.3-1.9-2.6-2.7-2.9-.8-.4,3.1,2.4,6,5.4,6.2s4.5-2.6,4.7-5.2a3.54,3.54,0,0,0-1.7-3.4c-1.3-.9-2-2.3-3.7-2.6-3.4-.6-4.9,2.9-4.7,5.7.1,1.9,3.1,1.9,2.9,0Z"/></g></g></svg>