<svg xmlns="http://www.w3.org/2000/svg" viewBox="0 0 1067.48 790.67"><defs><style>.cls-1{fill:#fff;}.cls-2{fill:#ff4867;}.cls-3{fill:#ff7694;}</style></defs><title>step-registration</title><g id="レイヤー_2" data-name="レイヤー 2"><g id="レイヤー_2-2" data-name="レイヤー 2"><path class="cls-1" d="M695.09,193.92s48.5-124.6-34.6-173-162.9,35-162.9,35l79.8,6.5,69.2,48.5,34.6,62.3Z"/><path class="cls-2" d="M700.89,195.52c4.9-12.5,8-25.9,10.4-39.1,4.8-26.3,6-54-1.4-79.9-9-31.8-31.4-55.9-61.9-68.4-33.4-13.8-70-8.9-102,6.4-19,9.1-37.8,21.8-52.5,37.1-3.8,4-.8,9.8,4.2,10.2l55.4,4.5,15.3,1.2c2.7.2,5.7.9,8.5.7,2.2-.1-2.6-1.4-2.2-.6.3.5,1.7,1.2,2.1,1.5,3.1,2.2,6.2,4.3,9.3,6.5,17.9,12.6,35.9,25.1,53.8,37.7a27.51,27.51,0,0,0,2.8,1.9c2.4,1.4-1.2-.5-1.1-1.4-.1,1.5,2.7,4.9,3.4,6.2l16.5,29.7c4.8,8.6,9.4,17.5,14.4,26,4.3,7.2,9.4,14.1,14.1,21.2,4.3,6.4,14.7.4,10.4-6.1-4.6-6.9-9.5-13.7-13.9-20.8-3.9-6.4-7.3-13.1-10.9-19.6-5.8-10.5-11.6-21-17.5-31.4-2.6-4.7-4.8-10.8-9.2-14-16.9-12.1-34.1-23.8-51.1-35.8-5.5-3.9-11.2-9-17.2-12.1-1.9-1-4.2-1-6.3-1.2-4.1-.3-8.1-.7-12.2-1-21.5-1.8-43-3.5-64.4-5.3l4.2,10.2c11.1-11.6,24.8-21.3,38.7-29.3,27.3-15.6,59.3-24,90.4-15.9,30.4,8,55.5,29.2,65.7,59.2,8.1,23.9,7.8,50.1,3.8,74.8-2.4,14.6-5.8,29.5-11.2,43.4C686.59,199.52,698.19,202.72,700.89,195.52Z"/><polygon class="cls-1" points="554.99 267.42 554.99 315.92 575.69 322.82 617.29 309.02 617.29 246.72 554.99 267.42"/><path class="cls-2" d="M549,267.42v48.5a6.21,6.21,0,0,0,4.4,5.8c5.9,2,11.8,3.9,17.7,5.9,4.7,1.6,7.5.6,12.1-.9,11.9-4,23.8-7.9,35.7-11.9a6.12,6.12,0,0,0,4.4-5.8v-62.3c0-3.7-3.9-7-7.6-5.8-20.8,6.9-41.5,13.8-62.3,20.8-7.3,2.4-4.2,14,3.2,11.6,20.8-6.9,41.5-13.8,62.3-20.8l-7.6-5.8V309c1.5-1.9,2.9-3.9,4.4-5.8-11.6,3.9-23.1,7.7-34.7,11.6-1.6.5-4.9.9-6.2,2.1s1.9-.4,2.3.2c-.4-.5-2.3-.8-2.8-.9-5.9-2-11.8-3.9-17.7-5.9,1.5,1.9,2.9,3.9,4.4,5.8v-48.5C561,259.72,549,259.72,549,267.42Z"/><path class="cls-1" d="M679.59,149.82s6.9-103.8-90-110.7c0,0-103.8-13.8-110.7,110.7s69.2,131.5,69.2,131.5,55.4,13.8,110.7-55.4c0,0,27.7,0,34.6-34.6S679.59,149.82,679.59,149.82Z"/><path class="cls-2" d="M685.59,149.82c.8-11.6-.8-23.7-3.2-35-4.7-22.5-15.4-44.5-33.3-59.5-27.3-22.8-68.5-28.1-102.1-17.8a96.69,96.69,0,0,0-52.5,38.6c-19.5,28.9-23.3,66.5-21.8,100.5,2,43.9,19.3,94.6,65.6,108.7a63,63,0,0,0,9.6,2c-2.7-.4-.6,0,.7.2a82.76,82.76,0,0,0,9.9.9c29.6.7,57.7-13.4,79.7-32.3a195.86,195.86,0,0,0,24.8-25.9l-4.2,1.8c12.4-.1,24.2-7.7,31.3-17.4,12-16.4,16.1-45.4,2.6-62.1a26.9,26.9,0,0,0-11.5-8.5c-7.3-2.5-10.5,9.1-3.2,11.6,1,.3-1.5-.8-.7-.3a8.26,8.26,0,0,1,1.3.7,13.6,13.6,0,0,1,3.9,3c4,4,5.9,10.3,6.3,16.2,1,16.1-4.8,35.4-20.7,42.5a28.3,28.3,0,0,1-5.8,1.8,18.46,18.46,0,0,1-2.3.4c1.9-.3-.1,0-.5,0-3.7.3-5,2-7.4,4.8a189.33,189.33,0,0,1-14.9,16.1c-14.2,13.7-30.9,25.1-49.8,31.1a87.19,87.19,0,0,1-32.4,4.2,22.75,22.75,0,0,0-2.6-.2c-1.7-.2,1.1.2-.4-.1-.7-.1-1.4-.3-2.1-.4l-1.9-.3c-.9-.1,2.1.4.3,0-12.7-2.8-22.7-7.6-32.4-16.6-21.3-19.8-29.1-49.7-30.9-77.8-2.3-35.2.9-76.6,24.5-104.9,22.6-27.3,58.1-35.5,91.5-29.6,28.6,5.1,51.4,22.4,63,49.1,7.2,16.5,10,33.6,9.8,51.2,0,1,0,2.1-.1,3.1C673.09,157.52,685.09,157.52,685.59,149.82Z"/><path class="cls-3" d="M783.39,558.22s-6.9-103.8-27.7-145.4S645,329.72,645,329.72c6.9-27.7-6.9-48.5-6.9-48.5l-62.3,27.7-34.6-13.8-6.9,27.7L472,350.52c-58,43.3-76.1,118.5-93.4,203.3s32,92.6,32,92.6c17.8,6.5,31-1.4,40.7-16.4V752c90,69.2,290.7,6.9,290.7,6.9l-6.9-96.9C797.19,662,783.39,558.22,783.39,558.22Z"/><path class="cls-2" d="M789.39,558.22c-2.4-36.4-6.9-73.2-15.3-108.8-5-21.1-11.5-41.5-26.2-57.9-16.4-18.1-37.5-32.2-58.3-44.7a437.15,437.15,0,0,0-41.6-22.3c.9,2.3,1.8,4.5,2.8,6.8,4.1-17.3,2.5-37.9-7.5-53.1-1.9-2.9-5.1-3.5-8.2-2.2-20.8,9.2-41.5,18.5-62.3,27.7l4.6-.6c-11.5-4.6-23.1-9.2-34.6-13.8-3-1.2-6.7,1.3-7.4,4.2-2.3,9.2-4.6,18.5-6.9,27.7.9-1.2,1.8-2.4,2.8-3.6-19.7,8.8-39.4,17.5-59.2,26.3-4.5,2-8.2,5.2-12,8.4a169.79,169.79,0,0,0-21,21.4c-13.3,16.3-23.6,34.5-31.8,53.8-8.7,20.3-15.2,41.5-20.7,62.8-6,23.3-11.7,47.2-15.5,71-4.3,27.4-4.2,62.4,19.5,81.5a49.55,49.55,0,0,0,17.8,9.2c7.3,2.1,14.3,3.4,21.8,1.8,11.5-2.5,20-11.3,26.3-20.8l-11.2-3v110.9c0,3.4-.1,6.8,0,10.2.3,6.4,8.6,10.3,13.6,13.3,32.9,20,73.2,25.6,111,26.2s75.8-4.1,113-11.3a578.14,578.14,0,0,0,60.8-14.6c2.4-.7,4.6-3.1,4.4-5.8l-6-84.6-.9-12.3-6,6c49.2-.5,57.3-57.8,55.5-96.1-.4-4.6-.7-9.2-1.3-13.7-.4-3.2-2.5-6-6-6-2.9,0-6.4,2.8-6,6a187.41,187.41,0,0,1,1.1,33.5c-.9,17.6-3.8,38.2-15.7,52.1-7.2,8.3-16.9,12.2-27.8,12.3-3.1,0-6.2,2.7-6,6l6,84.6.9,12.3c1.5-1.9,2.9-3.9,4.4-5.8-23.6,7.3-47.9,12.5-72.2,16.8-46.6,8.2-95.8,12.8-142.8,5-25.4-4.2-50.4-12.4-71.1-28.1,1,1.7,2,3.5,3,5.2v-122c0-6.2-8-7.9-11.2-3-5.7,8.6-13.6,16.1-24.7,15.7-3.7-.2-7.3-1.4-10.9-2.4-1-.3-1.9-.6-2.8-.9-.4-.2-2.2-.9-.5-.2-.8-.4-1.7-.8-2.5-1.2a34,34,0,0,1-8.6-6.2c-25-24.1-13.7-67.7-7.4-97.5,9.6-44.8,20.4-91.1,44.2-130.9,10.5-17.5,24.1-35.2,41-46.9,2.6-1.8,5.6-2.8,8.4-4.1,6-2.7,12-5.3,18-8,7.6-3.4,15.1-6.7,22.7-10.1,4.5-2,9.4-3.7,13.7-6.1s4.7-9.1,5.8-13.4c1.5-6,3-12.1,4.5-18.1-2.5,1.4-4.9,2.8-7.4,4.2,6.8,2.7,13.7,5.5,20.5,8.2,5.5,2.2,13,7.2,19,4.9,15.1-5.9,29.7-13.2,44.5-19.8,5.8-2.6,11.7-5.2,17.5-7.8-2.7-.7-5.5-1.4-8.2-2.2,8.3,12.6,9.7,29.6,6.3,43.8-.6,2.4.3,5.7,2.8,6.8,11.2,5.2,22.2,11.1,32.9,17.2,20.3,11.6,40.4,24.4,57.4,40.6,7.4,7,14.2,14.7,18.7,23.9s7.4,19.2,9.9,29.1c5.9,22.8,9.5,46.2,12.4,69.6,1.7,14.2,3.2,28.6,4.2,42.9C777.89,565.82,789.89,565.92,789.39,558.22Z"/><path class="cls-2" d="M546.49,252.52c14.5,2.9,39.8,5.8,48.3-9.7,3.7-6.8-6.6-12.8-10.4-6.1-3.3,6.1-13.8,5.8-19.7,5.7a81.36,81.36,0,0,1-15.1-1.5c-7.5-1.5-10.7,10.1-3.1,11.6Z"/><circle class="cls-2" cx="603.39" cy="163.62" r="6.9"/><circle class="cls-2" cx="520.39" cy="163.62" r="6.9"/><path class="cls-1" d="M534.19,80.62s-6.9,34.6,6.9,48.5,13.8,0,13.8,0,27.7,13.8,34.6,6.9c0,0,41.5,27.7,62.3,6.9,0,0,0,20.8,13.8,13.8,0,0,0,20.8,6.9,6.9s27.7-76.1-27.7-117.7c0,0-60.1-41.3-116.6-16.1-20.2,9-40,26.6-56.4,57.6,0,0-20.8,48.5,6.9,62.3,0,0,6.9,0,13.8-13.8,0,0,6.9,6.9,13.8-6.9C506.49,129,520.39,101.32,534.19,80.62Z"/><path class="cls-2" d="M528.39,79c-2.8,14.2-3.6,30.8,2,44.3,3.2,7.8,11.6,18.4,21,17.9,6.3-.4,9.5-6.4,9.5-12.1-3,1.7-6,3.5-9,5.2a115.68,115.68,0,0,0,17.6,7.1c7.7,2.4,17.6,4.7,24.2-1.2l-7.3.9c19.2,12.7,50.4,24.3,69.6,6l-10.2-4.2a29.26,29.26,0,0,0,3.2,13.9c4.3,7.8,12.2,8.6,19.7,5.1-3-1.7-6-3.5-9-5.2,0,4.5.1,10.1,2.6,14,5.4,8.3,13.2.9,16-5.1,4.9-10.4,7.6-21.8,9-33.1,4.4-35.5-10-71.9-40.2-92.2-10.3-7.1-22.3-12.3-34.1-16.4-20.4-7.2-42.4-10.2-63.8-6.5s-40.6,14.6-55.7,29.9c-12,12.1-23.5,27.4-29.2,43.7-5,14.5-8.8,32.4-3.2,47.2a32.88,32.88,0,0,0,6.9,11.1c2.6,2.7,7,6.5,11,6.6,8.8.1,15.4-10.2,18.9-16.8l-9.4,1.2a12.45,12.45,0,0,0,13,2.6c5.7-2.2,8.8-7.8,11.4-13a460.51,460.51,0,0,1,26.6-46.2c4.3-6.5-6.1-12.5-10.4-6.1a467.61,467.61,0,0,0-23.9,41.1c-1.6,3-3,6.1-4.6,9a11.62,11.62,0,0,1-2.9,3.7c-.4.3-1.4.6-.2.4-.4.1-1.3-.9-.5-.1-2.7-2.6-7.6-2.3-9.4,1.2s-4,7.6-7.4,10c-.4.3-2.3,1.6-1.3.8a3.81,3.81,0,0,1-1,.3c.2.2,3.6-.9,3.1.2-.3.6-5.7-4.8-6-5.1a22.35,22.35,0,0,1-3.6-8.2c-2.7-11.4.3-24,3.9-34.9.5-1.6,1.1-3.3,1.7-4.9.2-.4.3-.9.5-1.3.7-1.7-2.3,4,.5-.8,5.5-9.5,11.2-18.8,18.4-27.2,11.9-13.7,26.8-24.7,44.4-30,31.7-9.6,66.4-.5,94.5,15.4a82.56,82.56,0,0,1,40.8,64.9,104,104,0,0,1-4.9,39.5c-.7,2.2-1.5,4.3-2.3,6.5-.2.6.1,0-.6,1.3s-1.6,2.4-1.9,3.6a5.07,5.07,0,0,1-.6.7c2.9-1.4,5.1-1.2,6.5.5a1.61,1.61,0,0,1,.4.7,12.22,12.22,0,0,0-.6-2.7,45.33,45.33,0,0,1-.3-5.2c0-4.9-5-7-9-5.2-2.9,1.3-3.1.2-4-2.8a15.05,15.05,0,0,1-.8-5.8c0-5.3-6.5-7.8-10.2-4.2-14.6,14-41,1.5-55-7.9-2.3-1.5-5.3-.8-7.3.9.8-.7-.5.1-.9.1a19.72,19.72,0,0,1-4.2-.2,54.47,54.47,0,0,1-10.5-2.9,101.16,101.16,0,0,1-11.8-4.9c-4-2-9,.4-9,5.2v.8c.3-1.8.1.4-.2.7a6.51,6.51,0,0,0,1.5-1.1c.8-1,.8.1.8-.2s-1.7-1-1.9-1.2c-6.1-4.3-8.7-10.8-9.8-17.9a81.34,81.34,0,0,1,.8-27.9C541.49,74.62,529.89,71.42,528.39,79Z"/><path class="cls-2" d="M641.89,324.62c-18.5,11.5-36.9,23.1-55.4,34.6,2.9,1.2,5.9,2.4,8.8,3.6-4.6-18.5-9.2-36.9-13.8-55.4-1.2-4.8-8.7-6.2-11-1.4-3.8,8-7.2,16.2-10.2,24.5-3.8,10.5-9.1,24.2-6,35.5,3.7-1.5,7.3-3.1,11-4.6-8.7-13.8-17.3-27.7-26-41.5-4.1-6.5-14.5-.5-10.4,6.1,8.7,13.8,17.3,27.7,26,41.5,3.5,5.7,12.8,2.1,11-4.6-2.4-8.6,3.2-21.6,6.4-30.2,2.6-7,5.4-13.8,8.6-20.5-3.7-.5-7.3-1-11-1.4,4.6,18.5,9.2,36.9,13.8,55.4a6.05,6.05,0,0,0,8.8,3.6c18.5-11.5,36.9-23.1,55.4-34.6,6.6-4.4.6-14.8-6-10.6Z"/><path class="cls-2" d="M703.19,454.42c-6,6.5-12,13.1-18,19.6-2.9,3.2-6.3,5.7-5.8,10.5.2,1.5.5,2.9.8,4.4q5.25,30.6,10.6,61.2c1.1,6.6,2.3,13.2,3.4,19.9,1.3,7.6,12.9,4.4,11.6-3.2l-12.9-74.7c-.6-3.6-1.2-7.1-1.9-10.7-.5,1.9-1,3.9-1.5,5.8,7.4-8.1,14.8-16.2,22.3-24.2,5.1-5.8-3.3-14.3-8.6-8.6Z"/><path class="cls-2" d="M446,470.82v22.5c0,7.7,12,7.7,12,0v-22.5c0-7.8-12-7.8-12,0Z"/><path class="cls-1" d="M464.39,500.22s36.9-43.3,49-46.7c0,0,20.8-21.6,41.5,0v46.7l-81.3,50.2Z"/><path class="cls-2" d="M468.69,504.42c10.9-12.8,22.3-25.4,34.8-36.7a57.72,57.72,0,0,1,9.6-7.5,45.31,45.31,0,0,0,6.3-4,30.15,30.15,0,0,1,11.4-5.9c7.9-1.8,14.5,1.9,20,7.4l-1.8-4.2v46.7c1-1.7,2-3.5,3-5.2q-35.55,21.9-71.1,43.9c-3.4,2.1-6.8,4.2-10.3,6.3,2.9,1.2,5.9,2.4,8.8,3.6-3.1-16.7-6.1-33.5-9.2-50.2-1.4-7.6-13-4.4-11.6,3.2,3.1,16.7,6.1,33.5,9.2,50.2.7,3.8,5.7,5.5,8.8,3.6,13.1-8.1,26.3-16.2,39.4-24.3,9.2-5.7,18.4-11.4,27.6-17,4.7-2.9,9.8-5.5,14.2-8.8,5.3-3.9,3.1-15.1,3.1-20.9,0-9.8.2-19.7,0-29.5-.1-5.9-5.1-9.5-9.9-12.5a31.05,31.05,0,0,0-23.6-3.8,39.48,39.48,0,0,0-15.7,8.2c-.3.3-2.6,1.8-2.6,2.3,0-.3,3.3-1.6,1.7-1.2a7.72,7.72,0,0,0-1.9.8,21.48,21.48,0,0,0-2.6,1.4c-10.8,6.7-19.9,16.8-28.5,26-6.1,6.4-12,13-17.7,19.7C455.19,501.82,463.69,510.32,468.69,504.42Z"/><path class="cls-3" d="M406.79,541.42c30-33.4,79-70.7,79-70.7s-12.5,54.5,10.2,77.9L451.19,630"/><path class="cls-2" d="M411,545.72c15.4-17.1,32.7-32.6,50.2-47.4q9.9-8.4,20.1-16.5l5.9-4.7a7.63,7.63,0,0,1,1.1-.8c-1.7,1.3-.3.3-.2.2s.4-.3.6-.5c-2.9-2.3-5.9-4.5-8.8-6.8a158,158,0,0,0-3.7,32.9c-.2,17.8,2.7,37.4,15.4,50.8-.3-2.4-.6-4.8-.9-7.3-13.1,23.7-26.1,47.4-39.2,71.2-1.9,3.4-3.7,6.8-5.6,10.2-3.7,6.8,6.6,12.8,10.4,6.1,13.1-23.7,26.1-47.4,39.2-71.2,1.9-3.4,3.7-6.8,5.6-10.2a6.36,6.36,0,0,0-.9-7.3c-10.9-11.6-12.2-29.5-11.8-44.6a134.1,134.1,0,0,1,3.2-27.5c1-4.5-4.3-10.2-8.8-6.8-28.4,21.6-56.3,45.1-80.2,71.6-5.2,5.8,3.2,14.3,8.4,8.6Z"/><path class="cls-1" d="M507.39,493.32l-11.5-42.4s-11.2-28.6,5.7-31.1,53.3,0,53.3,0,14.1-3.5,24.8,19,21.9,83.9,21.9,83.9h-74.4Z"/><path class="cls-2" d="M513.19,491.72c-3.6-13.4-7.2-26.8-10.9-40.2-1.1-4.1-2.7-8.1-3.5-12.4-.6-3.2-1.3-7.5.1-10.7s5.2-3.1,8.3-3.3a290.27,290.27,0,0,1,34.9-.1c3.7.2,7.4.5,11.1.6.5,0,1.1.1,1.7.1s1.2-.2,1.8-.2c.8-.1-1.8,0-.4.1h1.5c1.1.1-.6-.2.6.1a12.8,12.8,0,0,1,4.6,1.7c5.5,3.2,8.9,9,11.6,14.5,4.2,8.9,6.7,18.7,9.3,28.1,4.8,17.9,8.7,36.1,12.1,54.3,1.9-2.5,3.9-5.1,5.8-7.6h-74.4c1.7,1,3.5,2,5.2,3-6.6-9.8-13.3-19.6-19.9-29.4-4.3-6.4-14.7-.4-10.4,6.1l13.2,19.5c3.2,4.8,6.5,12.6,13,12.9,17.9.6,36,0,53.9,0h19.4c4.2,0,6.5-3.8,5.8-7.6-3.2-17.2-6.9-34.4-11.3-51.4-5-19.2-11.7-51.6-35.2-55.8-2.8-.5-4.9-.1-7.6,0,3.4-.1.4-.3-.3-.3-1.8-.2-3.7-.2-5.5-.3-12.2-.6-24.6-1.1-36.8-.4-11,.6-21.8,2.6-24,15.2-1.4,8.1.7,16.2,3.2,23.9,4.5,14.1,7.8,28.6,11.6,42.9C503.59,502.32,515.19,499.12,513.19,491.72Z"/><path class="cls-1" d="M643.19,565.12s-26-11.4-26-32.1-1.7-42.3-20.8-46.6l3.4,27.1s-90-45.3-95.6-31.5-19.5,26,9.1,64c0,0,12.3,20.6,59.9,30.9,0,0,30.1,0,61.5,26.5"/><path class="cls-2" d="M646.29,559.92c-12-5.3-22.9-15.2-23-29-.1-19.6-2.6-44.6-25.2-50.3-3.4-.9-8.1,1.8-7.6,5.8,1.1,9,2.3,18.1,3.4,27.1,3-1.7,6-3.5,9-5.2-14.2-7.2-28.8-13.8-43.5-20a287.53,287.53,0,0,0-32.5-12c-7-2-16.8-5.1-23.7-1.4-3.7,2-4.5,5-6,8.1a110.79,110.79,0,0,0-5.3,11.7c-4,11.6-1.4,23.5,3.7,34.3,9.3,19.7,22.9,33.8,42.8,42.9a156.32,156.32,0,0,0,29.6,10c3.4.8,8,1.1,10.9,1.5,19.1,2.8,36.8,12,51.5,24.3,5.9,4.9,14.4-3.5,8.5-8.5-13.8-11.4-29.4-20.5-46.8-25.2-8.6-2.3-17.5-2.7-26.1-5-13.6-3.6-27.3-8.9-38.6-17.4a49.19,49.19,0,0,1-7.2-6.5c-.8-.9-1.9-2.3-1.1-1.2l-.6-.9c-7.6-10.8-17.1-23.3-16.6-37.3.3-7.8,4.7-13.5,7.5-20.8.6-1.6-.4.4-.2.2-1.1,1.2-.2-.7-1,.6.6-.9,1.2-.4,2.6-.3a47.22,47.22,0,0,1,9.7,1.7c10.1,2.6,19.9,6.4,29.6,10.3,15.8,6.4,31.3,13.6,46.5,21.3,3.6,1.8,9.6-.3,9-5.2-1.1-9-2.3-18.1-3.4-27.1l-7.6,5.8c21.9,5.5,12.8,34.4,17.8,50,4.1,12.6,15.6,22.8,27.5,28.1,7.3,3.1,13.4-7.3,6.4-10.4Z"/><path class="cls-2" d="M558.09,437.92H547a52.3,52.3,0,0,0-5.6,0c-.6.1-2.3.3-1.5.8,1.6,1.1,8.2,0,10.1,0a48.46,48.46,0,0,0,6.6,0c.4-.1,1.1.1,1.5,0,.2-.1-1.3-.7,0-.8-7.6.9-7.7,12.9,0,12,6.3-.7,11.5-4.8,11.6-11.6.1-6.6-5.4-11.2-11.6-11.6-6-.3-12.2-.3-18.2,0-14.9.8-14.9,22.2,0,23.2,6,.4,12.2,0,18.3,0C565.79,449.92,565.79,437.92,558.09,437.92Z"/><path class="cls-3" d="M718.49,573.22l-94.3-23.4s-6.9,45-13.8,58.8c0,0,74.4,48.5,103.8,48.5"/><path class="cls-2" d="M720.09,567.42,637.69,547c-4-1-8-2-11.9-3-2.9-.7-6.9.9-7.4,4.2-1.2,7.9-2.7,15.8-4.2,23.7-2.2,11.1-4.1,23.5-9,33.7a6.15,6.15,0,0,0,2.2,8.2c25.5,16.6,52.6,32.4,81,43.2,8.2,3.1,16.9,5.9,25.8,6,7.7.1,7.7-11.9,0-12-6.8-.1-13.7-2.4-20.2-4.7a221.78,221.78,0,0,1-25.9-11.5c-15.4-7.7-30.4-16.4-45.1-25.4-3.2-2-6.4-4-9.5-6,.7,2.7,1.4,5.5,2.2,8.2,5.3-11,7.6-23.6,10-35.5,1.7-8.2,3.2-16.5,4.4-24.8-2.5,1.4-4.9,2.8-7.4,4.2l82.4,20.4c4,1,8,2,11.9,3,7.4,1.9,10.6-9.6,3.1-11.5Z"/><path class="cls-1" d="M256.49,272.62A653.51,653.51,0,0,1,89,242.72c-20.3-6.4-40.7-14.1-57.2-27.5-9.1-7.5-17-16.8-21.4-27.7-4.9-12.4-5.2-26.2-3.1-39.4,5.2-33.1,24.5-63.2,50.4-84.6s57.7-34.7,90.4-41.9c60-13.2,123.3-6.5,181.6,12.9,33.7,11.2,68.5,29,83.2,61.3,13.3,29.1,13.5,67.2-5.3,93.1-37.1,50.8-83.3,67.7-83.3,67.7,12,8.5,70.5,59.8,82.5,68.4-28.4-10.9-118.6-47.3-148.4-53.5"/><path class="cls-2" d="M256.49,266.62a650.82,650.82,0,0,1-112.9-15.3c-18.2-4.1-36.1-9-53.9-14.6-16.5-5.3-32.9-11.3-47.3-21-13.8-9.3-25.3-22.3-29-38.9-3.5-15.9-.3-33.1,5-48.3,10.6-30.4,33.2-55.6,60.1-72.7,60.7-38.6,139.4-41.8,207.8-27,31.2,6.7,63.8,16.2,90.3,34.5,11.9,8.2,22.4,18.7,29.2,31.6,7.1,13.4,10.5,29,10.6,44.1.1,14.9-3.2,29.8-11,42.6-8.5,13.7-20.3,25.9-32.3,36.6-14.5,13-30.9,24.2-48.7,32-1,.4,1.2-.5-.2.1-.3.1-.5.2-.8.3s-.5.2-.7.3c-5,1.9-5.7,7.9-1.4,11,4.5,3.2,10.4,8.3,15.6,12.6,8.5,7.1,16.9,14.2,25.3,21.4,13.6,11.6,27,23.9,41.5,34.4,1.5-3.7,3.1-7.3,4.6-11-40.2-15.5-80-31.9-120.9-45.5a269.29,269.29,0,0,0-27.5-8c-7.5-1.6-10.8,10-3.2,11.6,18.8,4,37.2,11.1,55.3,17.7,22.2,8.1,44.3,16.6,66.4,25.3,8.9,3.5,17.9,7,26.8,10.5,6.8,2.6,9.7-7.3,4.6-11-4.5-3.2-10.4-8.3-15.6-12.6-8.5-7.1-16.9-14.2-25.3-21.4-13.6-11.6-27-23.9-41.5-34.4-.5,3.7-1,7.3-1.4,11,14.6-5.3,28.2-14.1,40.5-23.4a227.1,227.1,0,0,0,35.1-32.8c11.2-13.1,20.4-26.7,24.3-43.7,7.2-31.4-.6-67.3-22.2-91.5-21.7-24.4-54.1-37.1-84.6-46.2-72.9-21.7-155.9-24.3-225.7,9-31.6,15-59.5,38.5-76.6,69.3-16.4,29.4-25.6,70.5-4.6,100,21.8,30.4,60.9,41.7,95.1,51.4a665.87,665.87,0,0,0,118.9,22q15.15,1.35,30.3,2.1c7.7.2,7.7-11.8,0-12.1Z"/><path class="cls-1" d="M919.69,279.62c58.4-8.5,110-44.6,132.8-93.5,7.4-15.9,11.8-33.9,6.8-51.4-10.8-37.8-60.3-58.1-103.3-61.3-71.5-5.2-142.1,21.5-184.5,69.7-16.7,19-29.4,45.2-17.4,68.8,5.3,10.5,14.9,19,24.9,26.5a248.6,248.6,0,0,0,84.5,41q-38.55,25.35-77.1,50.8c0,.1,61.5-23.3,133.3-50.6"/><path class="cls-2" d="M921.29,285.42c49-7.3,95.6-33.9,124.1-74.9,15.1-21.7,27.1-49.9,20-76.5-5.7-21.5-23-37.5-42-47.8-44.9-24.3-101.3-23.8-149.5-11-25,6.7-49.3,17.4-70.6,32.1-20.7,14.3-41.4,32.8-52.5,55.8-5.8,11.9-8.8,25-6.5,38.2,2.4,13.9,11.5,25.4,21.9,34.4,21.7,18.9,47.9,33,74.8,42.8,6.9,2.5,13.9,4.7,20.9,6.6-.5-3.7-1-7.3-1.4-11q-38.55,25.35-77.1,50.8c-5.3,3.5-2.1,13.5,4.6,11q66.75-25,133.3-50.5c7.1-2.7,4-14.3-3.2-11.6q-66.6,25.35-133.3,50.6c1.5,3.7,3.1,7.3,4.6,11q38.55-25.35,77.1-50.8c4.2-2.8,3.7-9.6-1.4-11a247.63,247.63,0,0,1-73.2-33.4c-10.6-7.2-21.9-15.2-29.3-25.8-7.2-10.4-8.8-22.6-5.5-34.7,6.3-22.9,25.3-41.6,43.6-55.8a212.31,212.31,0,0,1,62.6-33c43.7-14.5,94.4-17.8,138.1-1.5,18.5,6.9,37.3,18.2,47.3,35.8,12.8,22.4,4.7,48.3-7.4,69.1-25.6,44.2-73.5,72.1-123.3,79.5-7.5,1.2-4.2,12.7,3.3,11.6Z"/><path class="cls-2" d="M957,194.52c-14.2,8-16.5,21.4-21.4,27.4-9.8,11.8-12.8,14.9-27.8,17.5-10.4,1.8-21.3-1.8-29.7-8.1s-14.7-15.3-19.3-24.8c-3.1-6.5-5.6-13.4-5.9-20.6-.5-13,6.2-25.4,15.2-34.9a80.43,80.43,0,0,1,69.8-23.7c15.3,2.4,30.8,10.6,36.8,24.8a33,33,0,0,1,.1,24.9,33.83,33.83,0,0,1-17.8,17.5"/><path class="cls-2" d="M954,189.32c-8.7,5.2-14.5,12.7-19,21.6-3.4,6.6-7.9,13.3-14,17.7-7.6,5.5-19.4,6.4-28.1,3.7-11.4-3.5-19.8-12.6-25.7-22.6-6.3-10.7-10.7-22.7-7-35,3.4-11.2,11.8-20.8,21.1-27.6,17.8-13.1,42-18.5,63.4-12,10.9,3.3,21.8,10.4,25.2,21.8,4.2,13.6-3.3,26.9-15.9,32.4-7.1,3.1-1,13.4,6.1,10.4A38.41,38.41,0,0,0,983,168c1.3-14.1-5.6-27-16.7-35.4-21.6-16.3-52.7-14.9-76.4-4.3-24.9,11.2-48.4,37.2-41.9,66.3,6.2,27.4,31.1,55.4,61.4,50.6,5.8-.9,11.9-2.4,16.9-5.6s8.8-7.7,12.6-12.2c7.7-9.3,10.1-21,21.2-27.6,6.6-4.1.5-14.5-6.1-10.5Z"/><path class="cls-3" d="M947.49,142.12c-21-7.9-45.9-1.6-62.5,13.4-7.1,6.4-13.1,15.4-12,24.9.2,1.9.9,3.9,2.5,4.7,3.3,1.7,6.4-2.3,8-5.7,3.3-7.1,6.9-14.2,12.4-19.7,12.9-13.1,33.4-15,51.5-11.7a5,5,0,0,0,1.7.1c2.4-.4,2.5-4.3.5-5.8s-4.7-1.2-7.1-.9"/><path class="cls-3" d="M914.59,172.32c1.6-2.5,5.1-3.2,7.9-2.3s5,3.2,6.7,5.6c2.3,3.1,4.2,6.9,3.7,10.8-.4,3.4-2.5,6.2-4,9.3a23.59,23.59,0,0,0-2.3,11.4c.1,1.9.3,3.8-.5,5.5a9.43,9.43,0,0,1-3.8,3.3,44.79,44.79,0,0,1-8.5,4.2,21.11,21.11,0,0,1-23-7.8,20.89,20.89,0,0,1,.5-24.2c3.3-4.2,8-6.9,12.6-9.5,3.8-2.1,7.6-4.3,11.4-6.4"/><path class="cls-2" d="M231.19,51c-10.8,14.9-21.3,23-23.3,24.5a57.76,57.76,0,0,0-51.4,36c-2.1,1.4-13.3,8.5-30.9,13.5-11.3,3.2-6.1,9.2-.2,14,5.7,4.6,15.4,9.3,25.9,7.7a7.69,7.69,0,0,0,2.4-1,59,59,0,0,0,9.1,20.8,57.71,57.71,0,0,0,46.6,24.6,40.67,40.67,0,0,1,3.2-18.6,40.39,40.39,0,0,1-9.8-.6v-.1a39.26,39.26,0,1,1,43-22.8c-.2.5-.5,1.1-.7,1.6a38.5,38.5,0,0,1-12.6,14.7h-.2a28.09,28.09,0,0,0-11.8,24.7,57.7,57.7,0,0,0,39.2-27.5,51.48,51.48,0,0,0,4.8-10.4,57.61,57.61,0,0,0-7.2-52.2,56.88,56.88,0,0,0-16.4-15.7,7.87,7.87,0,0,0,1.8-1.9c5-9.3,4-20,1.6-27C242,48.52,238.09,41.52,231.19,51Z"/><path class="cls-2" d="M281,165.82a38.94,38.94,0,0,0-16.3-13.4,57.59,57.59,0,0,1-4.8,10.4,28.06,28.06,0,1,1-34.2,41.8,27.45,27.45,0,0,1-5-14.3,28.09,28.09,0,0,1,11.8-24.7h.2a38.5,38.5,0,0,0,12.6-14.7,11.11,11.11,0,0,0,.7-1.6,40.19,40.19,0,0,0-19.9,7,39.46,39.46,0,0,0-13.5,16.4,38.2,38.2,0,0,0-3.2,18.6,40.19,40.19,0,0,0,7,19.9,39.48,39.48,0,1,0,64.6-45.4Z"/></g></g></svg>