<svg xmlns="http://www.w3.org/2000/svg" viewBox="0 0 346.49 365.68"><defs><style>.cls-1,.cls-3{fill:#8e6a51;}.cls-1,.cls-10,.cls-12,.cls-13,.cls-16,.cls-17,.cls-18,.cls-19,.cls-2,.cls-4,.cls-6{stroke:#333;}.cls-1,.cls-17,.cls-19,.cls-2,.cls-6{stroke-linecap:round;}.cls-1,.cls-11,.cls-12,.cls-17,.cls-19,.cls-2,.cls-4,.cls-6{stroke-linejoin:round;}.cls-1{stroke-width:3.8px;}.cls-2{fill:#f7f7f7;stroke-width:4.97px;}.cls-10,.cls-4,.cls-9{fill:#c4b4a9;}.cls-10,.cls-12,.cls-16,.cls-17,.cls-4{stroke-width:3.8px;}.cls-5{fill:#724c33;}.cls-16,.cls-17,.cls-18,.cls-19,.cls-6{fill:none;}.cls-6{stroke-width:3.51px;}.cls-7{fill:#fff;}.cls-8{fill:#ddd;}.cls-10,.cls-13,.cls-16,.cls-18{stroke-miterlimit:10;}.cls-11{fill:#f4c143;stroke:#231815;stroke-width:3.94px;}.cls-12{fill:#edc469;}.cls-13,.cls-15{fill:#333;}.cls-13{stroke-width:0.66px;}.cls-14{fill:#af9785;}.cls-18{stroke-width:0.88px;}.cls-19{stroke-width:3.51px;}.cls-20{fill:#b0a095;}.cls-21{fill:#30a6df;}</style></defs><title>twitter</title><g id="レイヤー_2" data-name="レイヤー 2"><g id="レイヤー_2-2" data-name="レイヤー 2"><rect class="cls-1" x="171.22" y="2.54" width="5.6" height="284.9"/><path class="cls-2" d="M2.49,2.49c42.2,0,42.2,11.5,84.4,11.5s42.2-11.5,84.4-11.5l-1.6,10.9a461.56,461.56,0,0,0,.2,133.3l1.4,9.7c-42.2,0-42.2,11.5-84.4,11.5s-42.2-11.5-84.4-11.5V2.49Z"/><path class="cls-3" d="M323.59,243.79s13.5-41.1,17.6-52.8c0,0-7.7-2.4-12.2-6.8-1.5,2.9-3.3,6.4-5.2,10.5s-3.9,8.7-6,13.7c-.5,1.1-1.1,2.3-1.7,3.4-1.7,1.9-4,3.7-5,4.8a101.65,101.65,0,0,1-35.2,23.3c-8,3.3-15,8-17.5,10.6-2.5-2.6-9.5-7.3-17.5-10.6-13.3-5.4-25.2-12.9-35.2-23.3-1.6-1.6-6.2-5.1-6.8-7.7l-.1.8c-.2-.4-.4-.8-.6-1.3-2-5-4.1-9.6-6-13.7s-3.7-7.6-5.2-10.5c-4.6,4.4-12.2,6.8-12.2,6.8,4.1,11.8,17.6,52.8,17.6,52.8l1-1.1c-2.1,7.4-4.2,14.9-4.5,22.5-.6,15.9,4.4,31.4,11.3,45.5,6.3,12.9,17.2,22.7,23.2,35.7.8,1.8,1.2,3.5,1.7,4.9,4.3,1.4,11.9,3.4,17.4,2.5.5-3,1-6.5,1.5-10,.6-4.5,1.2-9,1.4-12.8a12.75,12.75,0,0,0,.1-1.9c3.9.6,12.6.9,12.6.9a119.7,119.7,0,0,0,12.6-.9c0,.6.1,1.3.1,1.9.3,3.8.8,8.3,1.4,12.8.5,3.5,1,7,1.5,10,5.5.9,13.1-1.1,17.4-2.5.5-1.4.9-3.1,1.7-4.9,6.3-13.5,17.4-24,24.2-37.3,6.7-13.1,11-29.2,10.4-43.9C327.49,257.89,325.59,250.79,323.59,243.79Z"/><path class="cls-4" d="M333.49,175.79s-1.8,3.1-4.5,8.3c4.6,4.4,12.2,6.8,12.2,6.8h0a83.3,83.3,0,0,1,3.4-8.9C344.49,182,339.69,175.19,333.49,175.79Z"/><path class="cls-3" d="M198.89,208.69l.1-1.4A2.2,2.2,0,0,0,198.89,208.69Z"/><path class="cls-3" d="M317.69,207.29l.1,1.4A1.39,1.39,0,0,0,317.69,207.29Z"/><path class="cls-5" d="M247.59,251.69s-42.5-11.3-50.4-18.8a18.89,18.89,0,0,1-5.7-17Z"/><path class="cls-5" d="M268.19,251.69s42.5-11.3,50.4-18.8a18.89,18.89,0,0,0,5.7-17Z"/><path class="cls-3" d="M198.89,208.69l.1-1.4A2.2,2.2,0,0,0,198.89,208.69Z"/><path class="cls-3" d="M317.69,207.29l.1,1.4A1.39,1.39,0,0,0,317.69,207.29Z"/><path class="cls-5" d="M239.89,325.19s.3,25.2-.7,28.7a20,20,0,0,0,3.5-.2c.5-3,1-6.5,1.5-10,.6-4.5,1.2-9,1.4-12.8a12.75,12.75,0,0,0,.1-1.9,26.58,26.58,0,0,0,3.4.4l.7-1.7C249.89,327.79,241,326.29,239.89,325.19Z"/><path class="cls-6" d="M198.89,208.69l.1-1.4A2.2,2.2,0,0,0,198.89,208.69Z"/><path class="cls-6" d="M317.69,207.29l.1,1.4A1.39,1.39,0,0,0,317.69,207.29Z"/><path class="cls-3" d="M268.09,250c14.9-8,31.5-12.4,46.7-19.6a20.55,20.55,0,0,0,5.3-4c2.3-2.2,4.8-5,5.3-8.2.2-1,.1-2.8-.9-3.4a6.74,6.74,0,0,0-2.4-.4s3.3-7.7,1.1-10.8c-.4-.6-6.9-8.6-6.9-8.6.1.5.1,1,.2,1.5.4,3.6.8,7.3,1.4,10.9,1.4,2.7-4.8,7.2-6.7,9.1a101.65,101.65,0,0,1-35.2,23.3c-8,3.3-15,8-17.5,10.6-2.5-2.6-9.5-7.3-17.5-10.6-13.3-5.4-25.2-12.9-35.2-23.3-1.9-1.9-8-6.4-6.7-9.1.5-3.6,1-7.2,1.4-10.9a7.72,7.72,0,0,1,.2-1.5s-6.5,8-6.9,8.6c-2.2,3.1,1.1,10.8,1.1,10.8a9.65,9.65,0,0,0-2.4.4c-1,.6-1,2.4-.9,3.4.5,3.3,3,6,5.3,8.2a23.08,23.08,0,0,0,5.3,4c15.2,7.2,31.8,11.6,46.7,19.6"/><path class="cls-7" d="M316.89,201.19c-.2-1.6-.4-3.2-.5-4.8C316.59,198,316.69,199.59,316.89,201.19Z"/><path class="cls-7" d="M199,207.19c.2-1.6.5-3.3.7-4.9C199.49,203.89,199.29,205.49,199,207.19Z"/><path class="cls-7" d="M317.69,207.29c-.2-1.7-.5-3.4-.7-5.1C317.29,203.89,317.49,205.59,317.69,207.29Z"/><path class="cls-7" d="M199.79,201.09c.2-1.5.4-3.1.5-4.6C200.19,198,200,199.59,199.79,201.09Z"/><path class="cls-7" d="M199.69,202.19c0-.4.1-.7.1-1.1C199.79,201.49,199.69,201.89,199.69,202.19Z"/><path class="cls-7" d="M317.09,202.19c0-.3-.1-.7-.1-1A3.4,3.4,0,0,0,317.09,202.19Z"/><path class="cls-7" d="M200.39,196.39a7.72,7.72,0,0,1,.2-1.5h0a10.4,10.4,0,0,0-.2,1.5Z"/><path class="cls-7" d="M316.39,196.39Z"/><path class="cls-7" d="M200.39,196.39h0c-.2,1.6-.4,3.2-.5,4.7,0,.4-.1.7-.1,1.1-.2,1.6-.4,3.3-.7,4.9v.1c-1.4,2.7,4.8,7.2,6.7,9.1a101.65,101.65,0,0,0,35.2,23.3c8,3.3,15.1,8,17.5,10.6,2.5-2.6,9.5-7.3,17.5-10.6,13.3-5.4,25.2-12.9,35.2-23.3,1.9-1.9,8-6.4,6.7-9.1-.2-1.7-.5-3.4-.7-5.1,0-.3-.1-.7-.1-1-.2-1.6-.4-3.2-.5-4.8h0v-.1c-.8-7.3-1.4-14.7-2.4-21.9a73.89,73.89,0,0,0-6.2-21.4c7.3-.7,11.1-9,14-14.8,2.5-4.9-1.3-5.6-4.7-4.7a119.51,119.51,0,0,1-15.3,2,15.55,15.55,0,0,1-10.4-2.6l-.2-.2c-.3-.2-.5-.4-.8-.6l.1.1a53.58,53.58,0,0,0-24.4-8.7,76.82,76.82,0,0,0-15.9.1,58,58,0,0,0-20.5,6.6c-2.9,1.6-5.6,3.8-8.8,4.7a20.71,20.71,0,0,1-6.1.5,119.51,119.51,0,0,1-15.3-2c-3.4-.9-7.2-.2-4.7,4.7,2.9,5.8,6.8,14.2,14.1,14.8h0a73.89,73.89,0,0,0-6.2,21.4c-.9,6.8-1.5,13.7-2.2,20.6h0A3.23,3.23,0,0,0,200.39,196.39Z"/><path class="cls-8" d="M200.49,194.89h0c-.1.5-.1,1-.2,1.6v-.1C200.39,195.89,200.39,195.39,200.49,194.89Z"/><path class="cls-8" d="M316.39,196.39Z"/><path class="cls-8" d="M309.19,156.09h0c0,.1,0,.1.1.2C309.19,156.19,309.19,156.19,309.19,156.09Z"/><path class="cls-8" d="M302.19,163.29c1.3,3.5,2.4,6.9,3.4,10.5,4,15.4,9.8,35-5.3,45.9-1.6,1.2-4.9,2.6-8.7,4-7.3,8.5-19.6,14-33.6,14.1-18.6.1-34.3-9.7-39.3-23.1-.8-.1,8.9,19.7,22.2,25,8,3.3,15.1,8,17.5,10.6,2.5-2.6,9.5-7.3,17.5-10.6,13.3-5.4,25.2-12.9,35.2-23.3,1.9-1.9,8-6.4,6.7-9.1-.2-1.7-.5-3.4-.7-5.1,0-.3-.1-.7-.1-1-.2-1.6-.4-3.2-.5-4.8h0v-.1c-.8-7.3-1.4-14.7-2.4-21.9a97.51,97.51,0,0,0-2.1-10.5A50.59,50.59,0,0,1,302.19,163.29Z"/><path class="cls-5" d="M323.89,207.79s-10.2,14.4-10.1,14.9c0,0,7.5-5.1,11.5-6.8a1.83,1.83,0,0,0-.7-1,6.74,6.74,0,0,0-2.4-.4,35.17,35.17,0,0,0,1.7-6.7Z"/><path class="cls-8" d="M209,153h0c-.5,1-.9,2-1.4,3l2.1.1a48.13,48.13,0,0,0,2.7-7.1c-7.3.4-16.4-13.7-16.4-13.7l-1.2-1.5c-.8.7-1,2.1.1,4.3C197.79,144,201.69,152.39,209,153Z"/><path class="cls-4" d="M291.39,351.19c-2.7,7.7-3.1,9.6-3.1,9.6s-4.5,5.5-12.9,1.6c0,0-.6-3.6-1.4-8.7C279.59,354.59,287.19,352.59,291.39,351.19Z"/><path class="cls-9" d="M225.29,351.19c2.7,7.7,3.1,9.6,3.1,9.6s4.5,5.5,12.9,1.6c0,0,.6-3.6,1.4-8.7C237.19,354.59,229.59,352.59,225.29,351.19Z"/><path class="cls-10" d="M289.19,131.39a36,36,0,0,0-.4-3.6.9.9,0,0,0-.1-.5c-.3-2.4-1.5-12.4-5.7-8.6-2.3,2.1-4.8,4.4-7,6.8A50.36,50.36,0,0,1,289.19,131.39Z"/><path class="cls-11" d="M268.29,194.19"/><ellipse class="cls-9" cx="257.79" cy="205.49" rx="40.9" ry="32.3" transform="matrix(1, 0, 0, 1, -0.56, 0.7)"/><path class="cls-12" d="M261.89,182.09a9,9,0,0,1,3.6,3.1c2.7,5.6,3.4,12.6-2.6,15.7a12.36,12.36,0,0,1-5,1.3,13.6,13.6,0,0,1-5-1.2c-6-3-5.3-10-2.7-15.6a9.75,9.75,0,0,1,3.5-3.2c-11.1-.1-14.3,13.9-9,20.5,3,3.8,8.2,5.4,13.2,5.4s10.1-1.6,13.1-5.4C276.19,195.89,273,181.89,261.89,182.09Z"/><ellipse class="cls-13" cx="238.08" cy="157.26" rx="0.9" ry="1.8" transform="translate(69.74 387.63) rotate(-87.29)"/><ellipse class="cls-13" cx="277.6" cy="157.19" rx="0.9" ry="1.8" transform="translate(107.46 427.04) rotate(-87.29)"/><path class="cls-14" d="M259.39,231.79a53.58,53.58,0,0,1-36.8-10.1c7.1,9.6,20.3,16,35.4,16,22.6-.1,40.8-14.6,40.8-32.4,0-12.3-8.7-22.9-21.4-28.3-1.8-.7-3.7-1.3-5.6-2-.2-.1-.5-.1-.7-.2,12.1,4.6,23.1,16.8,22.1,30.1C291.89,221.69,274.19,230.19,259.39,231.79Z"/><path class="cls-4" d="M229.79,130.19a56.52,56.52,0,0,1,11.1-4.6.1.1,0,0,0-.1-.1c-2.2-2.4-4.7-4.7-7-6.8-4.2-3.8-5.4,6.2-5.7,8.6a.9.9,0,0,1-.1.5c-.1,1.1-.3,2.4-.4,3.6v.2A16.44,16.44,0,0,1,229.79,130.19Z"/><path class="cls-15" d="M311.89,163.89a71.2,71.2,0,0,0-4-10.9c7.3-.7,11.1-9,14-14.8,2.5-4.9-1.3-5.6-4.7-4.7a119.51,119.51,0,0,1-15.3,2,15.55,15.55,0,0,1-10.4-2.6l-.2-.2c-.3-.2-.5-.4-.8-.6l.1.1a53.58,53.58,0,0,0-24.4-8.7C266.09,123.49,270.89,165,311.89,163.89Z"/><ellipse class="cls-16" cx="257.79" cy="205.49" rx="40.9" ry="32.3" transform="matrix(1, 0, 0, 1, -0.56, 0.7)"/><path class="cls-8" d="M203.59,257.49h-.3Q203.74,257.64,203.59,257.49Z"/><path class="cls-5" d="M192.89,207.79s10.2,14.4,10.1,14.9c0,0-7.5-5.1-11.5-6.8a1.83,1.83,0,0,1,.7-1,6.74,6.74,0,0,1,2.4-.4,28.4,28.4,0,0,1-1.7-6.7Z"/><path class="cls-17" d="M268.09,250c14.9-8,31.5-12.4,46.7-19.6a20.55,20.55,0,0,0,5.3-4c2.3-2.2,4.8-5,5.3-8.2.2-1,.1-2.8-.9-3.4a6.74,6.74,0,0,0-2.4-.4s3.3-7.7,1.1-10.8c-.4-.6-6.9-8.6-6.9-8.6.1.5.1,1,.2,1.5.4,3.6.8,7.3,1.4,10.9,1.4,2.7-4.8,7.2-6.7,9.1a101.65,101.65,0,0,1-35.2,23.3c-8,3.3-15,8-17.5,10.6-2.5-2.6-9.5-7.3-17.5-10.6-13.3-5.4-25.2-12.9-35.2-23.3-1.9-1.9-8-6.4-6.7-9.1.5-3.6,1-7.2,1.4-10.9a7.72,7.72,0,0,1,.2-1.5s-6.5,8-6.9,8.6c-2.2,3.1,1.1,10.8,1.1,10.8a9.65,9.65,0,0,0-2.4.4c-1,.6-1,2.4-.9,3.4.5,3.3,3,6,5.3,8.2a23.08,23.08,0,0,0,5.3,4c15.2,7.2,31.8,11.6,46.7,19.6"/><path class="cls-18" d="M316.89,201.19c-.2-1.6-.4-3.2-.5-4.8C316.59,198,316.69,199.59,316.89,201.19Z"/><path class="cls-18" d="M199,207.19c.2-1.6.5-3.3.7-4.9C199.49,203.89,199.29,205.49,199,207.19Z"/><path class="cls-18" d="M317.69,207.29c-.2-1.7-.5-3.4-.7-5.1C317.29,203.89,317.49,205.59,317.69,207.29Z"/><path class="cls-18" d="M199.79,201.09c.2-1.5.4-3.1.5-4.6C200.19,198,200,199.59,199.79,201.09Z"/><path class="cls-19" d="M199.69,202.19c0-.4.1-.7.1-1.1C199.79,201.49,199.69,201.89,199.69,202.19Z"/><path class="cls-19" d="M317.09,202.19c0-.3-.1-.7-.1-1A3.4,3.4,0,0,0,317.09,202.19Z"/><path class="cls-19" d="M200.39,196.39a7.72,7.72,0,0,1,.2-1.5h0a10.4,10.4,0,0,0-.2,1.5Z"/><path class="cls-19" d="M316.39,196.39Z"/><path class="cls-17" d="M200.39,196.39h0c-.2,1.6-.4,3.2-.5,4.7,0,.4-.1.7-.1,1.1-.2,1.6-.4,3.3-.7,4.9v.1c-1.4,2.7,4.8,7.2,6.7,9.1a101.65,101.65,0,0,0,35.2,23.3c8,3.3,15.1,8,17.5,10.6,2.5-2.6,9.5-7.3,17.5-10.6,13.3-5.4,25.2-12.9,35.2-23.3,1.9-1.9,8-6.4,6.7-9.1-.2-1.7-.5-3.4-.7-5.1,0-.3-.1-.7-.1-1-.2-1.6-.4-3.2-.5-4.8h0v-.1c-.8-7.3-1.4-14.7-2.4-21.9a73.89,73.89,0,0,0-6.2-21.4c7.3-.7,11.1-9,14-14.8,2.5-4.9-1.3-5.6-4.7-4.7a119.51,119.51,0,0,1-15.3,2,15.55,15.55,0,0,1-10.4-2.6l-.2-.2c-.3-.2-.5-.4-.8-.6l.1.1a53.58,53.58,0,0,0-24.4-8.7,76.82,76.82,0,0,0-15.9.1,58,58,0,0,0-20.5,6.6c-2.9,1.6-5.6,3.8-8.8,4.7a20.71,20.71,0,0,1-6.1.5,119.51,119.51,0,0,1-15.3-2c-3.4-.9-7.2-.2-4.7,4.7,2.9,5.8,6.8,14.2,14.1,14.8h0a73.89,73.89,0,0,0-6.2,21.4c-.9,6.8-1.5,13.7-2.2,20.6h0A3.23,3.23,0,0,0,200.39,196.39Z"/><path class="cls-20" d="M238,363.49a18.19,18.19,0,0,0,3.3-1.1s.6-3.6,1.4-8.7a20,20,0,0,1-3.5.2C239,355.89,238.49,360.29,238,363.49Z"/><path class="cls-17" d="M225.29,351.19c2.7,7.7,3.1,9.6,3.1,9.6s4.5,5.5,12.9,1.6c0,0,.6-3.6,1.4-8.7C237.19,354.59,229.59,352.59,225.29,351.19Z"/><path class="cls-17" d="M323.59,243.79s13.5-41.1,17.6-52.8c0,0-7.7-2.4-12.2-6.8-1.5,2.9-3.3,6.4-5.2,10.5s-3.9,8.7-6,13.7c-.5,1.1-1.1,2.3-1.7,3.4-1.7,1.9-4,3.7-5,4.8a101.65,101.65,0,0,1-35.2,23.3c-8,3.3-15,8-17.5,10.6-2.5-2.6-9.5-7.3-17.5-10.6-13.3-5.4-25.2-12.9-35.2-23.3-1.6-1.6-6.2-5.1-6.8-7.7l-.1.8c-.2-.4-.4-.8-.6-1.3-2-5-4.1-9.6-6-13.7s-3.7-7.6-5.2-10.5c-4.6,4.4-12.2,6.8-12.2,6.8,4.1,11.8,17.6,52.8,17.6,52.8h0a86.81,86.81,0,0,0-3.4,21.3c-.6,15.9,4.4,31.4,11.3,45.5,6.3,12.9,17.2,22.7,23.2,35.7.8,1.8,1.2,3.5,1.7,4.9,4.3,1.4,11.9,3.4,17.4,2.5.5-3,1-6.5,1.5-10,.6-4.5,1.2-9,1.4-12.8a12.75,12.75,0,0,0,.1-1.9c3.9.6,12.6.9,12.6.9a119.7,119.7,0,0,0,12.6-.9c0,.6.1,1.3.1,1.9.3,3.8.8,8.3,1.4,12.8.5,3.5,1,7,1.5,10,5.5.9,13.1-1.1,17.4-2.5.5-1.4.9-3.1,1.7-4.9,6.3-13.5,17.4-24,24.2-37.3,6.7-13.1,11-29.2,10.4-43.9C327.49,257.89,325.59,250.79,323.59,243.79Z"/><path class="cls-4" d="M182.59,175.79s1.8,3.1,4.5,8.3c-4.6,4.4-12.2,6.8-12.2,6.8h0a83.3,83.3,0,0,0-3.4-8.9S176.29,175.19,182.59,175.79Z"/><path class="cls-21" d="M86.89,32.09A53.1,53.1,0,1,0,140,85.19,53.13,53.13,0,0,0,86.89,32.09ZM108,74.39v1.4c0,14.4-11,31-31,31a30.59,30.59,0,0,1-16.7-4.9,22.6,22.6,0,0,0,2.6.1,21.29,21.29,0,0,0,13.5-4.7,10.87,10.87,0,0,1-10.2-7.6,13.55,13.55,0,0,0,2,.2,9.25,9.25,0,0,0,2.9-.4,10.85,10.85,0,0,1-8.7-10.7v-.1a12,12,0,0,0,4.9,1.4,11,11,0,0,1-4.8-9.1,10.32,10.32,0,0,1,1.5-5.5,31.14,31.14,0,0,0,22.5,11.4,10.07,10.07,0,0,1-.3-2.5,10.93,10.93,0,0,1,10.9-10.9,11.1,11.1,0,0,1,8,3.4,22.91,22.91,0,0,0,6.9-2.6,10.61,10.61,0,0,1-4.8,6,22.6,22.6,0,0,0,6.3-1.7A23.39,23.39,0,0,1,108,74.39Z"/></g></g></svg>